G04 #@! TF.GenerationSoftware,KiCad,Pcbnew,(7.0.0)*
G04 #@! TF.CreationDate,2023-02-19T21:46:30+01:00*
G04 #@! TF.ProjectId,Glitchifier9000,476c6974-6368-4696-9669-657239303030,rev?*
G04 #@! TF.SameCoordinates,Original*
G04 #@! TF.FileFunction,Soldermask,Top*
G04 #@! TF.FilePolarity,Negative*
%FSLAX46Y46*%
G04 Gerber Fmt 4.6, Leading zero omitted, Abs format (unit mm)*
G04 Created by KiCad (PCBNEW (7.0.0)) date 2023-02-19 21:46:30*
%MOMM*%
%LPD*%
G01*
G04 APERTURE LIST*
G04 Aperture macros list*
%AMRoundRect*
0 Rectangle with rounded corners*
0 $1 Rounding radius*
0 $2 $3 $4 $5 $6 $7 $8 $9 X,Y pos of 4 corners*
0 Add a 4 corners polygon primitive as box body*
4,1,4,$2,$3,$4,$5,$6,$7,$8,$9,$2,$3,0*
0 Add four circle primitives for the rounded corners*
1,1,$1+$1,$2,$3*
1,1,$1+$1,$4,$5*
1,1,$1+$1,$6,$7*
1,1,$1+$1,$8,$9*
0 Add four rect primitives between the rounded corners*
20,1,$1+$1,$2,$3,$4,$5,0*
20,1,$1+$1,$4,$5,$6,$7,0*
20,1,$1+$1,$6,$7,$8,$9,0*
20,1,$1+$1,$8,$9,$2,$3,0*%
%AMRotRect*
0 Rectangle, with rotation*
0 The origin of the aperture is its center*
0 $1 length*
0 $2 width*
0 $3 Rotation angle, in degrees counterclockwise*
0 Add horizontal line*
21,1,$1,$2,0,0,$3*%
%AMFreePoly0*
4,1,19,0.500000,-0.750000,0.000000,-0.750000,0.000000,-0.744911,-0.071157,-0.744911,-0.207708,-0.704816,-0.327430,-0.627875,-0.420627,-0.520320,-0.479746,-0.390866,-0.500000,-0.250000,-0.500000,0.250000,-0.479746,0.390866,-0.420627,0.520320,-0.327430,0.627875,-0.207708,0.704816,-0.071157,0.744911,0.000000,0.744911,0.000000,0.750000,0.500000,0.750000,0.500000,-0.750000,0.500000,-0.750000,
$1*%
%AMFreePoly1*
4,1,19,0.000000,0.744911,0.071157,0.744911,0.207708,0.704816,0.327430,0.627875,0.420627,0.520320,0.479746,0.390866,0.500000,0.250000,0.500000,-0.250000,0.479746,-0.390866,0.420627,-0.520320,0.327430,-0.627875,0.207708,-0.704816,0.071157,-0.744911,0.000000,-0.744911,0.000000,-0.750000,-0.500000,-0.750000,-0.500000,0.750000,0.000000,0.750000,0.000000,0.744911,0.000000,0.744911,
$1*%
G04 Aperture macros list end*
%ADD10C,0.254000*%
%ADD11RoundRect,0.250000X0.250000X0.475000X-0.250000X0.475000X-0.250000X-0.475000X0.250000X-0.475000X0*%
%ADD12R,1.700000X3.500000*%
%ADD13R,3.500000X1.700000*%
%ADD14RoundRect,0.150000X-0.150000X0.587500X-0.150000X-0.587500X0.150000X-0.587500X0.150000X0.587500X0*%
%ADD15FreePoly0,270.000000*%
%ADD16FreePoly1,270.000000*%
%ADD17R,0.720000X1.780000*%
%ADD18RoundRect,0.250000X0.450000X-0.262500X0.450000X0.262500X-0.450000X0.262500X-0.450000X-0.262500X0*%
%ADD19R,1.700000X1.700000*%
%ADD20O,1.700000X1.700000*%
%ADD21C,5.000000*%
%ADD22FreePoly0,90.000000*%
%ADD23FreePoly1,90.000000*%
%ADD24R,1.000000X1.000000*%
%ADD25RotRect,1.000000X1.000000X225.000000*%
%ADD26O,2.200000X3.500000*%
%ADD27R,1.500000X2.500000*%
%ADD28O,1.500000X2.500000*%
%ADD29R,2.000000X2.000000*%
%ADD30C,2.000000*%
G04 APERTURE END LIST*
D10*
X105537000Y-67945000D02*
X110363000Y-67945000D01*
X110363000Y-67945000D02*
X110363000Y-70739000D01*
X110363000Y-70739000D02*
X105537000Y-70739000D01*
X105537000Y-70739000D02*
X105537000Y-67945000D01*
G36*
X105537000Y-67945000D02*
G01*
X110363000Y-67945000D01*
X110363000Y-70739000D01*
X105537000Y-70739000D01*
X105537000Y-67945000D01*
G37*
X105410000Y-54991000D02*
X110744000Y-54991000D01*
X110744000Y-54991000D02*
X110744000Y-58674000D01*
X110744000Y-58674000D02*
X105410000Y-58674000D01*
X105410000Y-58674000D02*
X105410000Y-54991000D01*
G36*
X105410000Y-54991000D02*
G01*
X110744000Y-54991000D01*
X110744000Y-58674000D01*
X105410000Y-58674000D01*
X105410000Y-54991000D01*
G37*
D11*
X128966000Y-52324000D03*
X127066000Y-52324000D03*
D12*
X161289999Y-84189999D03*
X158749999Y-84189999D03*
X156209999Y-84189999D03*
X153669999Y-84189999D03*
X151129999Y-84189999D03*
X148589999Y-84189999D03*
X146049999Y-84189999D03*
X143509999Y-84189999D03*
X140969999Y-84189999D03*
X138429999Y-84189999D03*
X135889999Y-84189999D03*
X133349999Y-84189999D03*
X130809999Y-84189999D03*
X128269999Y-84189999D03*
X125729999Y-84189999D03*
X123189999Y-84189999D03*
X120649999Y-84189999D03*
X118109999Y-84189999D03*
X115569999Y-84189999D03*
X113029999Y-84189999D03*
X113029999Y-103769999D03*
X115569999Y-103769999D03*
X118109999Y-103769999D03*
X120649999Y-103769999D03*
X123189999Y-103769999D03*
X125729999Y-103769999D03*
X128269999Y-103769999D03*
X130809999Y-103769999D03*
X133349999Y-103769999D03*
X135889999Y-103769999D03*
X138429999Y-103769999D03*
X140969999Y-103769999D03*
X143509999Y-103769999D03*
X146049999Y-103769999D03*
X148589999Y-103769999D03*
X151129999Y-103769999D03*
X153669999Y-103769999D03*
X156209999Y-103769999D03*
X158749999Y-103769999D03*
X161289999Y-103769999D03*
D13*
X112359999Y-91439999D03*
X112359999Y-93979999D03*
X112359999Y-96519999D03*
D14*
X159893000Y-111554500D03*
X158943000Y-109679500D03*
X160843000Y-109679500D03*
D15*
X130810000Y-77044000D03*
D16*
X130810000Y-78344000D03*
D15*
X125730000Y-77044000D03*
D16*
X125730000Y-78344000D03*
D15*
X128270000Y-77044000D03*
D16*
X128270000Y-78344000D03*
D11*
X128966000Y-50292000D03*
X127066000Y-50292000D03*
D15*
X140970000Y-77044000D03*
D16*
X140970000Y-78344000D03*
D17*
X110489999Y-65839999D03*
X111759999Y-65839999D03*
X113029999Y-65839999D03*
X114299999Y-65839999D03*
X110489999Y-61159999D03*
X111759999Y-61159999D03*
X113029999Y-61159999D03*
X114299999Y-61159999D03*
D15*
X133350000Y-77044000D03*
D16*
X133350000Y-78344000D03*
D15*
X151130000Y-77044000D03*
D16*
X151130000Y-78344000D03*
D18*
X119126000Y-72921500D03*
X119126000Y-71096500D03*
D19*
X107949999Y-83819999D03*
D20*
X107949999Y-86359999D03*
X107949999Y-88899999D03*
X107949999Y-91439999D03*
X107949999Y-93979999D03*
X107949999Y-96519999D03*
X107949999Y-99059999D03*
X107949999Y-101599999D03*
D15*
X135890000Y-77044000D03*
D16*
X135890000Y-78344000D03*
D19*
X132333999Y-50291999D03*
D20*
X134873999Y-50291999D03*
X137413999Y-50291999D03*
X139953999Y-50291999D03*
D15*
X123190000Y-77044000D03*
D16*
X123190000Y-78344000D03*
D18*
X116840000Y-72921500D03*
X116840000Y-71096500D03*
D15*
X146050000Y-77044000D03*
D16*
X146050000Y-78344000D03*
D15*
X148590000Y-77044000D03*
D16*
X148590000Y-78344000D03*
D19*
X107314999Y-61159999D03*
D20*
X107314999Y-63699999D03*
D15*
X138430000Y-77044000D03*
D16*
X138430000Y-78344000D03*
D15*
X143510000Y-77044000D03*
D16*
X143510000Y-78344000D03*
D21*
X119126000Y-51181000D03*
D22*
X114300000Y-72644000D03*
D23*
X114300000Y-71344000D03*
D15*
X120650000Y-77044000D03*
D16*
X120650000Y-78344000D03*
D24*
X141739992Y-115569999D03*
X135889999Y-109720006D03*
X135889999Y-121419992D03*
X130040006Y-115569999D03*
D25*
X140132640Y-112882993D03*
X133202993Y-119812640D03*
X139354822Y-119034822D03*
X138577005Y-111327358D03*
X131647358Y-118257005D03*
X131081673Y-113448679D03*
X133768679Y-110761673D03*
X132425176Y-112105176D03*
X138011319Y-120378325D03*
X140698325Y-117691319D03*
D26*
X151474999Y-50259999D03*
X159674999Y-50259999D03*
D27*
X153574999Y-50259999D03*
D28*
X155574999Y-50259999D03*
X157574999Y-50259999D03*
D29*
X159662999Y-60451999D03*
D30*
X159663000Y-73152000D03*
M02*
