G04 #@! TF.GenerationSoftware,KiCad,Pcbnew,(7.0.0)*
G04 #@! TF.CreationDate,2023-02-19T21:46:30+01:00*
G04 #@! TF.ProjectId,Glitchifier9000,476c6974-6368-4696-9669-657239303030,rev?*
G04 #@! TF.SameCoordinates,Original*
G04 #@! TF.FileFunction,Copper,L1,Top*
G04 #@! TF.FilePolarity,Positive*
%FSLAX46Y46*%
G04 Gerber Fmt 4.6, Leading zero omitted, Abs format (unit mm)*
G04 Created by KiCad (PCBNEW (7.0.0)) date 2023-02-19 21:46:30*
%MOMM*%
%LPD*%
G01*
G04 APERTURE LIST*
G04 Aperture macros list*
%AMRoundRect*
0 Rectangle with rounded corners*
0 $1 Rounding radius*
0 $2 $3 $4 $5 $6 $7 $8 $9 X,Y pos of 4 corners*
0 Add a 4 corners polygon primitive as box body*
4,1,4,$2,$3,$4,$5,$6,$7,$8,$9,$2,$3,0*
0 Add four circle primitives for the rounded corners*
1,1,$1+$1,$2,$3*
1,1,$1+$1,$4,$5*
1,1,$1+$1,$6,$7*
1,1,$1+$1,$8,$9*
0 Add four rect primitives between the rounded corners*
20,1,$1+$1,$2,$3,$4,$5,0*
20,1,$1+$1,$4,$5,$6,$7,0*
20,1,$1+$1,$6,$7,$8,$9,0*
20,1,$1+$1,$8,$9,$2,$3,0*%
%AMRotRect*
0 Rectangle, with rotation*
0 The origin of the aperture is its center*
0 $1 length*
0 $2 width*
0 $3 Rotation angle, in degrees counterclockwise*
0 Add horizontal line*
21,1,$1,$2,0,0,$3*%
%AMFreePoly0*
4,1,19,0.500000,-0.750000,0.000000,-0.750000,0.000000,-0.744911,-0.071157,-0.744911,-0.207708,-0.704816,-0.327430,-0.627875,-0.420627,-0.520320,-0.479746,-0.390866,-0.500000,-0.250000,-0.500000,0.250000,-0.479746,0.390866,-0.420627,0.520320,-0.327430,0.627875,-0.207708,0.704816,-0.071157,0.744911,0.000000,0.744911,0.000000,0.750000,0.500000,0.750000,0.500000,-0.750000,0.500000,-0.750000,
$1*%
%AMFreePoly1*
4,1,19,0.000000,0.744911,0.071157,0.744911,0.207708,0.704816,0.327430,0.627875,0.420627,0.520320,0.479746,0.390866,0.500000,0.250000,0.500000,-0.250000,0.479746,-0.390866,0.420627,-0.520320,0.327430,-0.627875,0.207708,-0.704816,0.071157,-0.744911,0.000000,-0.744911,0.000000,-0.750000,-0.500000,-0.750000,-0.500000,0.750000,0.000000,0.750000,0.000000,0.744911,0.000000,0.744911,
$1*%
G04 Aperture macros list end*
G04 #@! TA.AperFunction,SMDPad,CuDef*
%ADD10RoundRect,0.250000X0.250000X0.475000X-0.250000X0.475000X-0.250000X-0.475000X0.250000X-0.475000X0*%
G04 #@! TD*
G04 #@! TA.AperFunction,SMDPad,CuDef*
%ADD11R,1.700000X3.500000*%
G04 #@! TD*
G04 #@! TA.AperFunction,SMDPad,CuDef*
%ADD12R,3.500000X1.700000*%
G04 #@! TD*
G04 #@! TA.AperFunction,SMDPad,CuDef*
%ADD13RoundRect,0.150000X-0.150000X0.587500X-0.150000X-0.587500X0.150000X-0.587500X0.150000X0.587500X0*%
G04 #@! TD*
G04 #@! TA.AperFunction,SMDPad,CuDef*
%ADD14FreePoly0,270.000000*%
G04 #@! TD*
G04 #@! TA.AperFunction,SMDPad,CuDef*
%ADD15FreePoly1,270.000000*%
G04 #@! TD*
G04 #@! TA.AperFunction,SMDPad,CuDef*
%ADD16R,0.720000X1.780000*%
G04 #@! TD*
G04 #@! TA.AperFunction,SMDPad,CuDef*
%ADD17RoundRect,0.250000X0.450000X-0.262500X0.450000X0.262500X-0.450000X0.262500X-0.450000X-0.262500X0*%
G04 #@! TD*
G04 #@! TA.AperFunction,ComponentPad*
%ADD18R,1.700000X1.700000*%
G04 #@! TD*
G04 #@! TA.AperFunction,ComponentPad*
%ADD19O,1.700000X1.700000*%
G04 #@! TD*
G04 #@! TA.AperFunction,SMDPad,CuDef*
%ADD20FreePoly0,90.000000*%
G04 #@! TD*
G04 #@! TA.AperFunction,SMDPad,CuDef*
%ADD21FreePoly1,90.000000*%
G04 #@! TD*
G04 #@! TA.AperFunction,SMDPad,CuDef*
%ADD22R,1.000000X1.000000*%
G04 #@! TD*
G04 #@! TA.AperFunction,SMDPad,CuDef*
%ADD23RotRect,1.000000X1.000000X225.000000*%
G04 #@! TD*
G04 #@! TA.AperFunction,ComponentPad*
%ADD24O,2.200000X3.500000*%
G04 #@! TD*
G04 #@! TA.AperFunction,ComponentPad*
%ADD25R,1.500000X2.500000*%
G04 #@! TD*
G04 #@! TA.AperFunction,ComponentPad*
%ADD26O,1.500000X2.500000*%
G04 #@! TD*
G04 #@! TA.AperFunction,ComponentPad*
%ADD27R,2.000000X2.000000*%
G04 #@! TD*
G04 #@! TA.AperFunction,ComponentPad*
%ADD28C,2.000000*%
G04 #@! TD*
G04 #@! TA.AperFunction,ViaPad*
%ADD29C,0.600000*%
G04 #@! TD*
G04 #@! TA.AperFunction,Conductor*
%ADD30C,0.600000*%
G04 #@! TD*
G04 #@! TA.AperFunction,Conductor*
%ADD31C,0.400000*%
G04 #@! TD*
G04 #@! TA.AperFunction,Conductor*
%ADD32C,1.500000*%
G04 #@! TD*
G04 APERTURE END LIST*
G36*
X131110000Y-77944000D02*
G01*
X130510000Y-77944000D01*
X130510000Y-77444000D01*
X131110000Y-77444000D01*
X131110000Y-77944000D01*
G37*
G36*
X126030000Y-77944000D02*
G01*
X125430000Y-77944000D01*
X125430000Y-77444000D01*
X126030000Y-77444000D01*
X126030000Y-77944000D01*
G37*
G36*
X128570000Y-77944000D02*
G01*
X127970000Y-77944000D01*
X127970000Y-77444000D01*
X128570000Y-77444000D01*
X128570000Y-77944000D01*
G37*
G36*
X141270000Y-77944000D02*
G01*
X140670000Y-77944000D01*
X140670000Y-77444000D01*
X141270000Y-77444000D01*
X141270000Y-77944000D01*
G37*
G36*
X133650000Y-77944000D02*
G01*
X133050000Y-77944000D01*
X133050000Y-77444000D01*
X133650000Y-77444000D01*
X133650000Y-77944000D01*
G37*
G36*
X151430000Y-77944000D02*
G01*
X150830000Y-77944000D01*
X150830000Y-77444000D01*
X151430000Y-77444000D01*
X151430000Y-77944000D01*
G37*
G36*
X136190000Y-77944000D02*
G01*
X135590000Y-77944000D01*
X135590000Y-77444000D01*
X136190000Y-77444000D01*
X136190000Y-77944000D01*
G37*
G36*
X123490000Y-77944000D02*
G01*
X122890000Y-77944000D01*
X122890000Y-77444000D01*
X123490000Y-77444000D01*
X123490000Y-77944000D01*
G37*
G36*
X146350000Y-77944000D02*
G01*
X145750000Y-77944000D01*
X145750000Y-77444000D01*
X146350000Y-77444000D01*
X146350000Y-77944000D01*
G37*
G36*
X148890000Y-77944000D02*
G01*
X148290000Y-77944000D01*
X148290000Y-77444000D01*
X148890000Y-77444000D01*
X148890000Y-77944000D01*
G37*
G36*
X138730000Y-77944000D02*
G01*
X138130000Y-77944000D01*
X138130000Y-77444000D01*
X138730000Y-77444000D01*
X138730000Y-77944000D01*
G37*
G36*
X143810000Y-77944000D02*
G01*
X143210000Y-77944000D01*
X143210000Y-77444000D01*
X143810000Y-77444000D01*
X143810000Y-77944000D01*
G37*
G36*
X114600000Y-72244000D02*
G01*
X114000000Y-72244000D01*
X114000000Y-71744000D01*
X114600000Y-71744000D01*
X114600000Y-72244000D01*
G37*
G36*
X120950000Y-77944000D02*
G01*
X120350000Y-77944000D01*
X120350000Y-77444000D01*
X120950000Y-77444000D01*
X120950000Y-77944000D01*
G37*
D10*
X128966000Y-52324000D03*
X127066000Y-52324000D03*
D11*
X161289999Y-84189999D03*
X158749999Y-84189999D03*
X156209999Y-84189999D03*
X153669999Y-84189999D03*
X151129999Y-84189999D03*
X148589999Y-84189999D03*
X146049999Y-84189999D03*
X143509999Y-84189999D03*
X140969999Y-84189999D03*
X138429999Y-84189999D03*
X135889999Y-84189999D03*
X133349999Y-84189999D03*
X130809999Y-84189999D03*
X128269999Y-84189999D03*
X125729999Y-84189999D03*
X123189999Y-84189999D03*
X120649999Y-84189999D03*
X118109999Y-84189999D03*
X115569999Y-84189999D03*
X113029999Y-84189999D03*
X113029999Y-103769999D03*
X115569999Y-103769999D03*
X118109999Y-103769999D03*
X120649999Y-103769999D03*
X123189999Y-103769999D03*
X125729999Y-103769999D03*
X128269999Y-103769999D03*
X130809999Y-103769999D03*
X133349999Y-103769999D03*
X135889999Y-103769999D03*
X138429999Y-103769999D03*
X140969999Y-103769999D03*
X143509999Y-103769999D03*
X146049999Y-103769999D03*
X148589999Y-103769999D03*
X151129999Y-103769999D03*
X153669999Y-103769999D03*
X156209999Y-103769999D03*
X158749999Y-103769999D03*
X161289999Y-103769999D03*
D12*
X112359999Y-91439999D03*
X112359999Y-93979999D03*
X112359999Y-96519999D03*
D13*
X159893000Y-111554500D03*
X158943000Y-109679500D03*
X160843000Y-109679500D03*
D14*
X130810000Y-77044000D03*
D15*
X130810000Y-78344000D03*
D14*
X125730000Y-77044000D03*
D15*
X125730000Y-78344000D03*
D14*
X128270000Y-77044000D03*
D15*
X128270000Y-78344000D03*
D10*
X128966000Y-50292000D03*
X127066000Y-50292000D03*
D14*
X140970000Y-77044000D03*
D15*
X140970000Y-78344000D03*
D16*
X110489999Y-65839999D03*
X111759999Y-65839999D03*
X113029999Y-65839999D03*
X114299999Y-65839999D03*
X110489999Y-61159999D03*
X111759999Y-61159999D03*
X113029999Y-61159999D03*
X114299999Y-61159999D03*
D14*
X133350000Y-77044000D03*
D15*
X133350000Y-78344000D03*
D14*
X151130000Y-77044000D03*
D15*
X151130000Y-78344000D03*
D17*
X119126000Y-72921500D03*
X119126000Y-71096500D03*
D18*
X107949999Y-83819999D03*
D19*
X107949999Y-86359999D03*
X107949999Y-88899999D03*
X107949999Y-91439999D03*
X107949999Y-93979999D03*
X107949999Y-96519999D03*
X107949999Y-99059999D03*
X107949999Y-101599999D03*
D14*
X135890000Y-77044000D03*
D15*
X135890000Y-78344000D03*
D18*
X132333999Y-50291999D03*
D19*
X134873999Y-50291999D03*
X137413999Y-50291999D03*
X139953999Y-50291999D03*
D14*
X123190000Y-77044000D03*
D15*
X123190000Y-78344000D03*
D17*
X116840000Y-72921500D03*
X116840000Y-71096500D03*
D14*
X146050000Y-77044000D03*
D15*
X146050000Y-78344000D03*
D14*
X148590000Y-77044000D03*
D15*
X148590000Y-78344000D03*
D18*
X107314999Y-61159999D03*
D19*
X107314999Y-63699999D03*
D14*
X138430000Y-77044000D03*
D15*
X138430000Y-78344000D03*
D14*
X143510000Y-77044000D03*
D15*
X143510000Y-78344000D03*
D20*
X114300000Y-72644000D03*
D21*
X114300000Y-71344000D03*
D14*
X120650000Y-77044000D03*
D15*
X120650000Y-78344000D03*
D22*
X141739992Y-115569999D03*
X135889999Y-109720006D03*
X135889999Y-121419992D03*
X130040006Y-115569999D03*
D23*
X140132640Y-112882993D03*
X133202993Y-119812640D03*
X139354822Y-119034822D03*
X138577005Y-111327358D03*
X131647358Y-118257005D03*
X131081673Y-113448679D03*
X133768679Y-110761673D03*
X132425176Y-112105176D03*
X138011319Y-120378325D03*
X140698325Y-117691319D03*
D24*
X151474999Y-50259999D03*
X159674999Y-50259999D03*
D25*
X153574999Y-50259999D03*
D26*
X155574999Y-50259999D03*
X157574999Y-50259999D03*
D27*
X159662999Y-60451999D03*
D28*
X159663000Y-73152000D03*
D29*
X159893000Y-109474000D03*
X116078000Y-60960000D03*
X143510000Y-81026000D03*
X107315000Y-67310000D03*
X125476000Y-52324000D03*
X111379000Y-54991000D03*
X105918000Y-71628000D03*
X106172000Y-54356000D03*
X135890000Y-123063000D03*
X111506000Y-56896000D03*
X111506000Y-55880000D03*
X107061000Y-54356000D03*
X111125000Y-69850000D03*
X108839000Y-54356000D03*
X116078000Y-62230000D03*
X114808000Y-58674000D03*
X109728000Y-54356000D03*
X140589000Y-114554000D03*
X143510000Y-87122000D03*
X115824000Y-67818000D03*
X119380000Y-106934000D03*
X114300000Y-63500000D03*
X110617000Y-54356000D03*
X128000000Y-113600000D03*
X110998000Y-102870000D03*
X147320000Y-109220000D03*
X110490000Y-63500000D03*
X113030000Y-63500000D03*
X111760000Y-67818000D03*
X130556000Y-50292000D03*
X109728000Y-71628000D03*
X131064000Y-116586000D03*
X130810000Y-87122000D03*
X135128000Y-119507000D03*
X134239000Y-121412000D03*
X115316000Y-93980000D03*
X110744000Y-59309000D03*
X111506000Y-57912000D03*
X111125000Y-71120000D03*
X109728000Y-85217000D03*
X111125000Y-68580000D03*
X107950000Y-54356000D03*
X108458000Y-71628000D03*
X106045000Y-67310000D03*
X109474000Y-90170000D03*
X117094000Y-106934000D03*
X113284000Y-58674000D03*
X156210000Y-100330000D03*
X156210000Y-107696000D03*
X111760000Y-63500000D03*
X156210000Y-81026000D03*
X125476000Y-50292000D03*
X108966000Y-65786000D03*
X130810000Y-81026000D03*
X108585000Y-67310000D03*
X112014000Y-58674000D03*
X156210000Y-87122000D03*
X121900000Y-106900000D03*
X140208000Y-108966000D03*
X143256000Y-113538000D03*
X132334000Y-52324000D03*
X116078000Y-59690000D03*
X130302000Y-110236000D03*
X137033000Y-110871000D03*
X107442000Y-65786000D03*
X109728000Y-81661000D03*
X113030000Y-67818000D03*
X109728000Y-83820000D03*
X109474000Y-59436000D03*
X115824000Y-63500000D03*
X130810000Y-106172000D03*
X135636000Y-114808000D03*
X115824000Y-65786000D03*
X107188000Y-71628000D03*
X118110000Y-87122000D03*
X134620000Y-108458000D03*
X151130000Y-88265000D03*
X132266081Y-54102000D03*
X113030000Y-101346000D03*
X115570000Y-101346000D03*
X118110000Y-101473000D03*
X158750000Y-77978000D03*
X159893000Y-76581000D03*
D30*
X159893000Y-111554500D02*
X159893000Y-109474000D01*
D31*
X161290000Y-102870000D02*
X161290000Y-109232500D01*
X161290000Y-109232500D02*
X160843000Y-109679500D01*
X158750000Y-109486500D02*
X158943000Y-109679500D01*
X158750000Y-102870000D02*
X158750000Y-109486500D01*
X161290000Y-77978000D02*
X159893000Y-76581000D01*
X151130000Y-102870000D02*
X151130000Y-108033993D01*
X151130000Y-102870000D02*
X151130000Y-88265000D01*
X131081674Y-113448680D02*
X138011320Y-120378326D01*
X141472673Y-117691320D02*
X140698326Y-117691320D01*
D30*
X132266081Y-54102000D02*
X134874000Y-51494081D01*
X134874000Y-51494081D02*
X134874000Y-50292000D01*
X130744000Y-54102000D02*
X132266081Y-54102000D01*
X128966000Y-50292000D02*
X128966000Y-52324000D01*
D31*
X138011320Y-120378326D02*
X139700000Y-120650000D01*
D30*
X128966000Y-52324000D02*
X130744000Y-54102000D01*
D31*
X131081674Y-113448680D02*
X132425177Y-112105177D01*
X132425177Y-112105177D02*
X133768680Y-110761674D01*
X151130000Y-108033993D02*
X141472673Y-117691320D01*
X140970000Y-119380000D02*
X140698326Y-117691320D01*
X139700000Y-120650000D02*
X140970000Y-119380000D01*
D32*
X107315000Y-61160000D02*
X107315000Y-57404000D01*
X107315000Y-57404000D02*
X108077000Y-56642000D01*
X113900000Y-61160000D02*
X107315000Y-61160000D01*
D30*
X114300000Y-72644000D02*
X118700000Y-77044000D01*
X118700000Y-77044000D02*
X120650000Y-77044000D01*
D31*
X114577500Y-72921500D02*
X114300000Y-72644000D01*
D30*
X151130000Y-77044000D02*
X120650000Y-77044000D01*
D31*
X116840000Y-72921500D02*
X114577500Y-72921500D01*
D30*
X148590000Y-78344000D02*
X151130000Y-80884000D01*
X151130000Y-80884000D02*
X151130000Y-85090000D01*
X148590000Y-80884000D02*
X148590000Y-85090000D01*
X146050000Y-78344000D02*
X148590000Y-80884000D01*
X143510000Y-78344000D02*
X146050000Y-80884000D01*
X146050000Y-80884000D02*
X146050000Y-85090000D01*
X140970000Y-78344000D02*
X140970000Y-85090000D01*
X138430000Y-78344000D02*
X138430000Y-85090000D01*
X135890000Y-78344000D02*
X135890000Y-85090000D01*
X133350000Y-78344000D02*
X133350000Y-85090000D01*
X130810000Y-78344000D02*
X128270000Y-80884000D01*
X128270000Y-80884000D02*
X128270000Y-85090000D01*
X125730000Y-80884000D02*
X125730000Y-85090000D01*
X128270000Y-78344000D02*
X125730000Y-80884000D01*
X125730000Y-78344000D02*
X123190000Y-80884000D01*
X123190000Y-80884000D02*
X123190000Y-85090000D01*
X123190000Y-78344000D02*
X120650000Y-80884000D01*
X120650000Y-80884000D02*
X120650000Y-85090000D01*
X115570000Y-83424000D02*
X115570000Y-85090000D01*
X120650000Y-78344000D02*
X115570000Y-83424000D01*
D31*
X114547500Y-71096500D02*
X114300000Y-71344000D01*
X116840000Y-71096500D02*
X114547500Y-71096500D01*
X119126000Y-71096500D02*
X116840000Y-71096500D01*
D30*
X114300000Y-71344000D02*
X114300000Y-65840000D01*
D31*
X113030000Y-101346000D02*
X113030000Y-102870000D01*
X115570000Y-101346000D02*
X115570000Y-102870000D01*
X107950000Y-88900000D02*
X109220000Y-88900000D01*
X109220000Y-88900000D02*
X113030000Y-85090000D01*
X134493000Y-101473000D02*
X118110000Y-101473000D01*
X135890000Y-102870000D02*
X134493000Y-101473000D01*
X131647359Y-118257006D02*
X130873013Y-118257006D01*
X130873013Y-118257006D02*
X120650000Y-108033993D01*
X120650000Y-108033993D02*
X120650000Y-102870000D01*
X133202994Y-119812641D02*
X133202994Y-117078987D01*
X123190000Y-107065993D02*
X123190000Y-102870000D01*
X133202994Y-117078987D02*
X123190000Y-107065993D01*
X125730000Y-102870000D02*
X125730000Y-105918000D01*
X125730000Y-105918000D02*
X128270000Y-108458000D01*
X132842000Y-108458000D02*
X139354823Y-114970823D01*
X139354823Y-114970823D02*
X139354823Y-119034823D01*
X128270000Y-108458000D02*
X132842000Y-108458000D01*
D30*
X153670000Y-80884000D02*
X153670000Y-85090000D01*
X151130000Y-78344000D02*
X153670000Y-80884000D01*
D31*
X158750000Y-85090000D02*
X158750000Y-77978000D01*
X161290000Y-85090000D02*
X161290000Y-77978000D01*
X108458000Y-99568000D02*
X107950000Y-99060000D01*
X140970000Y-102870000D02*
X140970000Y-100584000D01*
X139954000Y-99568000D02*
X108458000Y-99568000D01*
X140970000Y-100584000D02*
X139954000Y-99568000D01*
X138430000Y-101092000D02*
X137922000Y-100584000D01*
X108966000Y-100584000D02*
X107950000Y-101600000D01*
X137922000Y-100584000D02*
X108966000Y-100584000D01*
X138430000Y-102870000D02*
X138430000Y-101092000D01*
X138577006Y-110620252D02*
X135136377Y-107179623D01*
X129032000Y-107188000D02*
X135128000Y-107188000D01*
X138577006Y-111327359D02*
X138577006Y-110620252D01*
X128270000Y-102870000D02*
X128270000Y-106426000D01*
X135128000Y-107188000D02*
X135136377Y-107179623D01*
X128270000Y-106426000D02*
X129032000Y-107188000D01*
X140132641Y-110922641D02*
X140132641Y-112882994D01*
X133350000Y-105410000D02*
X134366000Y-106426000D01*
X134366000Y-106426000D02*
X135636000Y-106426000D01*
X135636000Y-106426000D02*
X140132641Y-110922641D01*
X133350000Y-102870000D02*
X133350000Y-105410000D01*
X141713000Y-98533000D02*
X146050000Y-102870000D01*
X109963000Y-98533000D02*
X141713000Y-98533000D01*
X107950000Y-96520000D02*
X109963000Y-98533000D01*
G04 #@! TA.AperFunction,Conductor*
G36*
X110428000Y-55388613D02*
G01*
X110473387Y-55434000D01*
X110490000Y-55496000D01*
X110490000Y-58296000D01*
X110473387Y-58358000D01*
X110428000Y-58403387D01*
X110366000Y-58420000D01*
X105544500Y-58420000D01*
X105482500Y-58403387D01*
X105437113Y-58358000D01*
X105420500Y-58296000D01*
X105420500Y-55496000D01*
X105437113Y-55434000D01*
X105482500Y-55388613D01*
X105544500Y-55372000D01*
X110366000Y-55372000D01*
X110428000Y-55388613D01*
G37*
G04 #@! TD.AperFunction*
G04 #@! TA.AperFunction,Conductor*
G36*
X110490000Y-70866000D02*
G01*
X105420500Y-70866000D01*
X105420500Y-67818000D01*
X110490000Y-67818000D01*
X110490000Y-70866000D01*
G37*
G04 #@! TD.AperFunction*
G04 #@! TA.AperFunction,Conductor*
G36*
X134756989Y-111363646D02*
G01*
X138618004Y-115224661D01*
X138644884Y-115264889D01*
X138654323Y-115312342D01*
X138654323Y-118269040D01*
X138644884Y-118316493D01*
X138618004Y-118356721D01*
X138262315Y-118712410D01*
X138262306Y-118712419D01*
X138259959Y-118714767D01*
X138257879Y-118717347D01*
X138257870Y-118717358D01*
X138227204Y-118755411D01*
X138227198Y-118755419D01*
X138222339Y-118761450D01*
X138219118Y-118768500D01*
X138219117Y-118768504D01*
X138166235Y-118884298D01*
X138166233Y-118884301D01*
X138162551Y-118892366D01*
X138161289Y-118901137D01*
X138161288Y-118901144D01*
X138152696Y-118960911D01*
X138142070Y-119034823D01*
X138143260Y-119043102D01*
X138126719Y-119104835D01*
X138081332Y-119150222D01*
X138019599Y-119166763D01*
X138011320Y-119165573D01*
X138002542Y-119166835D01*
X137878578Y-119184657D01*
X137821772Y-119179573D01*
X137773251Y-119149600D01*
X132310399Y-113686748D01*
X132280426Y-113638226D01*
X132275342Y-113581424D01*
X132294427Y-113448680D01*
X132293236Y-113440400D01*
X132309778Y-113378668D01*
X132355165Y-113333281D01*
X132416897Y-113316739D01*
X132425177Y-113317930D01*
X132567634Y-113297449D01*
X132698550Y-113237661D01*
X132745233Y-113200042D01*
X133520041Y-112425233D01*
X133557661Y-112378550D01*
X133617449Y-112247634D01*
X133637930Y-112105177D01*
X133636739Y-112096897D01*
X133653281Y-112035165D01*
X133698668Y-111989778D01*
X133760400Y-111973236D01*
X133768680Y-111974427D01*
X133911137Y-111953946D01*
X134042053Y-111894158D01*
X134088736Y-111856539D01*
X134581627Y-111363645D01*
X134637214Y-111331552D01*
X134701401Y-111331552D01*
X134756989Y-111363646D01*
G37*
G04 #@! TD.AperFunction*
G04 #@! TA.AperFunction,Conductor*
G36*
X121994310Y-105886421D02*
G01*
X122097669Y-105963796D01*
X122232517Y-106014091D01*
X122292127Y-106020500D01*
X122365500Y-106020500D01*
X122427500Y-106037113D01*
X122472887Y-106082500D01*
X122489500Y-106144500D01*
X122489500Y-107041072D01*
X122489274Y-107048560D01*
X122486094Y-107101111D01*
X122486094Y-107101119D01*
X122485642Y-107108599D01*
X122486993Y-107115975D01*
X122486994Y-107115980D01*
X122496483Y-107167764D01*
X122497610Y-107175164D01*
X122503955Y-107227418D01*
X122503956Y-107227423D01*
X122504860Y-107234865D01*
X122507519Y-107241878D01*
X122507521Y-107241884D01*
X122508450Y-107244333D01*
X122514475Y-107265945D01*
X122514951Y-107268544D01*
X122514954Y-107268553D01*
X122516305Y-107275925D01*
X122519382Y-107282762D01*
X122519383Y-107282765D01*
X122540991Y-107330777D01*
X122543857Y-107337695D01*
X122565182Y-107393923D01*
X122569442Y-107400095D01*
X122569445Y-107400100D01*
X122570937Y-107402261D01*
X122581959Y-107421803D01*
X122583039Y-107424203D01*
X122583044Y-107424212D01*
X122586122Y-107431050D01*
X122590745Y-107436951D01*
X122590747Y-107436954D01*
X122623216Y-107478397D01*
X122627636Y-107484403D01*
X122661817Y-107533922D01*
X122706847Y-107573815D01*
X122712282Y-107578932D01*
X129500362Y-114367012D01*
X129532691Y-114423490D01*
X129531966Y-114488562D01*
X129498387Y-114544306D01*
X129441202Y-114575368D01*
X129425371Y-114579109D01*
X129423430Y-114579833D01*
X129413979Y-114586394D01*
X129419851Y-114596290D01*
X130040007Y-115216447D01*
X131013716Y-116190155D01*
X131023611Y-116196026D01*
X131030173Y-116186576D01*
X131030894Y-116184643D01*
X131034637Y-116168806D01*
X131065699Y-116111620D01*
X131121443Y-116078040D01*
X131186515Y-116077315D01*
X131242994Y-116109644D01*
X132055272Y-116921922D01*
X132088369Y-116981517D01*
X132084963Y-117049601D01*
X132046084Y-117105597D01*
X131983483Y-117132580D01*
X131916079Y-117122397D01*
X131797883Y-117068418D01*
X131797882Y-117068417D01*
X131789816Y-117064734D01*
X131781042Y-117063472D01*
X131781037Y-117063471D01*
X131656137Y-117045515D01*
X131647359Y-117044253D01*
X131638581Y-117045515D01*
X131513680Y-117063471D01*
X131513673Y-117063472D01*
X131504902Y-117064734D01*
X131496837Y-117068416D01*
X131496834Y-117068418D01*
X131381044Y-117121298D01*
X131381039Y-117121300D01*
X131373986Y-117124522D01*
X131367946Y-117129388D01*
X131367943Y-117129391D01*
X131329893Y-117160053D01*
X131329883Y-117160061D01*
X131327303Y-117162141D01*
X131324959Y-117164484D01*
X131324950Y-117164493D01*
X131135735Y-117353709D01*
X131080148Y-117385803D01*
X131015960Y-117385803D01*
X130960373Y-117353709D01*
X130388345Y-116781681D01*
X130358095Y-116732318D01*
X130353553Y-116674602D01*
X130375708Y-116621115D01*
X130419731Y-116583515D01*
X130476026Y-116570000D01*
X130584525Y-116570000D01*
X130591121Y-116569646D01*
X130639672Y-116564427D01*
X130654650Y-116560887D01*
X130656583Y-116560166D01*
X130666033Y-116553604D01*
X130660162Y-116543709D01*
X130040007Y-115923553D01*
X129066297Y-114949844D01*
X129056401Y-114943972D01*
X129049840Y-114953423D01*
X129049119Y-114955355D01*
X129045579Y-114970335D01*
X129040360Y-115018885D01*
X129040007Y-115025482D01*
X129040007Y-115133981D01*
X129026492Y-115190276D01*
X128988892Y-115234299D01*
X128935405Y-115256454D01*
X128877689Y-115251912D01*
X128828326Y-115221662D01*
X121386819Y-107780155D01*
X121359939Y-107739927D01*
X121350500Y-107692474D01*
X121350500Y-106144499D01*
X121367113Y-106082499D01*
X121412500Y-106037112D01*
X121474500Y-106020499D01*
X121544561Y-106020499D01*
X121547872Y-106020499D01*
X121607483Y-106014091D01*
X121742331Y-105963796D01*
X121845689Y-105886421D01*
X121893642Y-105864523D01*
X121946358Y-105864523D01*
X121994310Y-105886421D01*
G37*
G04 #@! TD.AperFunction*
G04 #@! TA.AperFunction,Conductor*
G36*
X143698000Y-103536613D02*
G01*
X143743387Y-103582000D01*
X143760000Y-103644000D01*
X143760000Y-106003674D01*
X143763450Y-106016549D01*
X143776326Y-106020000D01*
X144404518Y-106020000D01*
X144411114Y-106019646D01*
X144459667Y-106014426D01*
X144474641Y-106010888D01*
X144593777Y-105966452D01*
X144609189Y-105958037D01*
X144705272Y-105886110D01*
X144753225Y-105864211D01*
X144805941Y-105864211D01*
X144853894Y-105886110D01*
X144957669Y-105963796D01*
X145092517Y-106014091D01*
X145152127Y-106020500D01*
X146947872Y-106020499D01*
X147007483Y-106014091D01*
X147142331Y-105963796D01*
X147245689Y-105886421D01*
X147293642Y-105864523D01*
X147346358Y-105864523D01*
X147394310Y-105886421D01*
X147497669Y-105963796D01*
X147632517Y-106014091D01*
X147692127Y-106020500D01*
X149487872Y-106020499D01*
X149547483Y-106014091D01*
X149682331Y-105963796D01*
X149785689Y-105886421D01*
X149833642Y-105864523D01*
X149886358Y-105864523D01*
X149934310Y-105886421D01*
X150037669Y-105963796D01*
X150172517Y-106014091D01*
X150232127Y-106020500D01*
X150305500Y-106020500D01*
X150367500Y-106037113D01*
X150412887Y-106082500D01*
X150429500Y-106144500D01*
X150429500Y-107692474D01*
X150420061Y-107739927D01*
X150393181Y-107780155D01*
X142951674Y-115221661D01*
X142902311Y-115251911D01*
X142844595Y-115256453D01*
X142791108Y-115234298D01*
X142753508Y-115190275D01*
X142739993Y-115133980D01*
X142739993Y-115025482D01*
X142739639Y-115018885D01*
X142734420Y-114970337D01*
X142730878Y-114955352D01*
X142730158Y-114953422D01*
X142723597Y-114943972D01*
X142713703Y-114949842D01*
X141827673Y-115835872D01*
X141772086Y-115867966D01*
X141707898Y-115867966D01*
X141652311Y-115835872D01*
X140766283Y-114949844D01*
X140756387Y-114943972D01*
X140749826Y-114953423D01*
X140749105Y-114955355D01*
X140745565Y-114970335D01*
X140740346Y-115018885D01*
X140739993Y-115025482D01*
X140739993Y-116114518D01*
X140740346Y-116121114D01*
X140745566Y-116169667D01*
X140749104Y-116184641D01*
X140796640Y-116312089D01*
X140793939Y-116313096D01*
X140804661Y-116353658D01*
X140791551Y-116411359D01*
X140753195Y-116456415D01*
X140698326Y-116478567D01*
X140564647Y-116497785D01*
X140564640Y-116497786D01*
X140555869Y-116499048D01*
X140547804Y-116502730D01*
X140547801Y-116502732D01*
X140432011Y-116555612D01*
X140432006Y-116555614D01*
X140424953Y-116558836D01*
X140418913Y-116563702D01*
X140418910Y-116563705D01*
X140380860Y-116594367D01*
X140380850Y-116594375D01*
X140378270Y-116596455D01*
X140375926Y-116598798D01*
X140375917Y-116598807D01*
X140267004Y-116707721D01*
X140217641Y-116737971D01*
X140159925Y-116742513D01*
X140106438Y-116720358D01*
X140068838Y-116676335D01*
X140055323Y-116620040D01*
X140055323Y-114995744D01*
X140055549Y-114988256D01*
X140058728Y-114935704D01*
X140059181Y-114928217D01*
X140048337Y-114869044D01*
X140047210Y-114861638D01*
X140046969Y-114859654D01*
X140039963Y-114801951D01*
X140036370Y-114792479D01*
X140030345Y-114770864D01*
X140028518Y-114760892D01*
X140003832Y-114706043D01*
X140000965Y-114699121D01*
X139982303Y-114649913D01*
X139979641Y-114642893D01*
X139973882Y-114634550D01*
X139962856Y-114615000D01*
X139961779Y-114612607D01*
X139958701Y-114605767D01*
X139951276Y-114596290D01*
X139943523Y-114586394D01*
X141113965Y-114586394D01*
X141119837Y-114596290D01*
X141728450Y-115204903D01*
X141739993Y-115211567D01*
X141751535Y-115204903D01*
X142360147Y-114596290D01*
X142366018Y-114586394D01*
X142356566Y-114579832D01*
X142354638Y-114579113D01*
X142339658Y-114575573D01*
X142291107Y-114570353D01*
X142284511Y-114570000D01*
X141195475Y-114570000D01*
X141188878Y-114570353D01*
X141140328Y-114575572D01*
X141125348Y-114579112D01*
X141123416Y-114579833D01*
X141113965Y-114586394D01*
X139943523Y-114586394D01*
X139921614Y-114558428D01*
X139917176Y-114552397D01*
X139887269Y-114509070D01*
X139883006Y-114502894D01*
X139877391Y-114497920D01*
X139877388Y-114497916D01*
X139837993Y-114463016D01*
X139832539Y-114457882D01*
X136306345Y-110931688D01*
X136276095Y-110882325D01*
X136271553Y-110824609D01*
X136293708Y-110771122D01*
X136337731Y-110733522D01*
X136394026Y-110720007D01*
X136434518Y-110720007D01*
X136441114Y-110719653D01*
X136489665Y-110714434D01*
X136504643Y-110710894D01*
X136506576Y-110710173D01*
X136516026Y-110703611D01*
X136510155Y-110693716D01*
X135890000Y-110073560D01*
X134916290Y-109099851D01*
X134906394Y-109093979D01*
X134899833Y-109103430D01*
X134899112Y-109105362D01*
X134895572Y-109120342D01*
X134890353Y-109168892D01*
X134890000Y-109175489D01*
X134890000Y-109215981D01*
X134876485Y-109272276D01*
X134838885Y-109316299D01*
X134785398Y-109338454D01*
X134727682Y-109333912D01*
X134678319Y-109303662D01*
X133474838Y-108100181D01*
X133444588Y-108050818D01*
X133440046Y-107993102D01*
X133462201Y-107939615D01*
X133506224Y-107902015D01*
X133562519Y-107888500D01*
X134803235Y-107888500D01*
X134850688Y-107897939D01*
X134890916Y-107924819D01*
X135474423Y-108508326D01*
X135504673Y-108557689D01*
X135509215Y-108615405D01*
X135487060Y-108668892D01*
X135443037Y-108706492D01*
X135386742Y-108720007D01*
X135345482Y-108720007D01*
X135338885Y-108720360D01*
X135290335Y-108725579D01*
X135275355Y-108729119D01*
X135273423Y-108729840D01*
X135263972Y-108736401D01*
X135269844Y-108746297D01*
X135890000Y-109366454D01*
X136863709Y-110340162D01*
X136873604Y-110346033D01*
X136880166Y-110336583D01*
X136880887Y-110334650D01*
X136884427Y-110319672D01*
X136889646Y-110271121D01*
X136890000Y-110264525D01*
X136890000Y-110223265D01*
X136903515Y-110166970D01*
X136941115Y-110122947D01*
X136994602Y-110100792D01*
X137052318Y-110105334D01*
X137101681Y-110135584D01*
X137640088Y-110673991D01*
X137672182Y-110729578D01*
X137672182Y-110793765D01*
X137640089Y-110849352D01*
X137484495Y-111004948D01*
X137484477Y-111004967D01*
X137482142Y-111007303D01*
X137480064Y-111009880D01*
X137480060Y-111009886D01*
X137449387Y-111047947D01*
X137449381Y-111047955D01*
X137444522Y-111053986D01*
X137441301Y-111061036D01*
X137441300Y-111061040D01*
X137388418Y-111176834D01*
X137388416Y-111176837D01*
X137384734Y-111184902D01*
X137383472Y-111193673D01*
X137383471Y-111193680D01*
X137371642Y-111275965D01*
X137364253Y-111327359D01*
X137365515Y-111336137D01*
X137383471Y-111461037D01*
X137383472Y-111461042D01*
X137384734Y-111469816D01*
X137444522Y-111600732D01*
X137482141Y-111647415D01*
X138256950Y-112422223D01*
X138259540Y-112424310D01*
X138259541Y-112424311D01*
X138297594Y-112454977D01*
X138297597Y-112454978D01*
X138303633Y-112459843D01*
X138434549Y-112519631D01*
X138577006Y-112540112D01*
X138719463Y-112519631D01*
X138823642Y-112472053D01*
X138882229Y-112461050D01*
X138939184Y-112478660D01*
X138981338Y-112520814D01*
X138998949Y-112577769D01*
X138987945Y-112636359D01*
X138944054Y-112732466D01*
X138944052Y-112732471D01*
X138940369Y-112740537D01*
X138939107Y-112749308D01*
X138939106Y-112749315D01*
X138932898Y-112792500D01*
X138919888Y-112882994D01*
X138921150Y-112891772D01*
X138939106Y-113016672D01*
X138939107Y-113016677D01*
X138940369Y-113025451D01*
X139000157Y-113156367D01*
X139037776Y-113203050D01*
X139812585Y-113977858D01*
X139815175Y-113979945D01*
X139815176Y-113979946D01*
X139853229Y-114010612D01*
X139853232Y-114010613D01*
X139859268Y-114015478D01*
X139990184Y-114075266D01*
X140132641Y-114095747D01*
X140275098Y-114075266D01*
X140406014Y-114015478D01*
X140452697Y-113977859D01*
X141227505Y-113203050D01*
X141265125Y-113156367D01*
X141324913Y-113025451D01*
X141345394Y-112882994D01*
X141324913Y-112740537D01*
X141265125Y-112609621D01*
X141227506Y-112562938D01*
X140869459Y-112204892D01*
X140842580Y-112164665D01*
X140833141Y-112117212D01*
X140833141Y-110947562D01*
X140833367Y-110940074D01*
X140836173Y-110893686D01*
X140836999Y-110880035D01*
X140826155Y-110820862D01*
X140825028Y-110813456D01*
X140822065Y-110789053D01*
X140817781Y-110753769D01*
X140814188Y-110744297D01*
X140808163Y-110722682D01*
X140806336Y-110712710D01*
X140781650Y-110657861D01*
X140778783Y-110650939D01*
X140760121Y-110601731D01*
X140757459Y-110594711D01*
X140751700Y-110586368D01*
X140740674Y-110566818D01*
X140739597Y-110564425D01*
X140736519Y-110557585D01*
X140712869Y-110527398D01*
X140699432Y-110510246D01*
X140694994Y-110504215D01*
X140665087Y-110460888D01*
X140660824Y-110454712D01*
X140655209Y-110449738D01*
X140655206Y-110449734D01*
X140615811Y-110414834D01*
X140610357Y-110409700D01*
X136432837Y-106232180D01*
X136402587Y-106182817D01*
X136398045Y-106125101D01*
X136420200Y-106071614D01*
X136464223Y-106034014D01*
X136520518Y-106020499D01*
X136784561Y-106020499D01*
X136787872Y-106020499D01*
X136847483Y-106014091D01*
X136982331Y-105963796D01*
X137085689Y-105886421D01*
X137133642Y-105864523D01*
X137186358Y-105864523D01*
X137234310Y-105886421D01*
X137337669Y-105963796D01*
X137472517Y-106014091D01*
X137532127Y-106020500D01*
X139327872Y-106020499D01*
X139387483Y-106014091D01*
X139522331Y-105963796D01*
X139625689Y-105886421D01*
X139673642Y-105864523D01*
X139726358Y-105864523D01*
X139774310Y-105886421D01*
X139877669Y-105963796D01*
X140012517Y-106014091D01*
X140072127Y-106020500D01*
X141867872Y-106020499D01*
X141927483Y-106014091D01*
X142062331Y-105963796D01*
X142166105Y-105886110D01*
X142214057Y-105864211D01*
X142266774Y-105864211D01*
X142314727Y-105886110D01*
X142410810Y-105958037D01*
X142426222Y-105966452D01*
X142545358Y-106010888D01*
X142560332Y-106014426D01*
X142608885Y-106019646D01*
X142615482Y-106020000D01*
X143243674Y-106020000D01*
X143256549Y-106016549D01*
X143260000Y-106003674D01*
X143260000Y-103644000D01*
X143276613Y-103582000D01*
X143322000Y-103536613D01*
X143384000Y-103520000D01*
X143636000Y-103520000D01*
X143698000Y-103536613D01*
G37*
G04 #@! TD.AperFunction*
G04 #@! TA.AperFunction,Conductor*
G36*
X124534310Y-105886421D02*
G01*
X124637669Y-105963796D01*
X124772517Y-106014091D01*
X124832127Y-106020500D01*
X124933276Y-106020499D01*
X124988674Y-106033562D01*
X125032402Y-106070001D01*
X125051569Y-106113752D01*
X125052721Y-106113394D01*
X125054953Y-106120558D01*
X125056305Y-106127932D01*
X125059382Y-106134769D01*
X125059383Y-106134772D01*
X125080991Y-106182784D01*
X125083857Y-106189702D01*
X125105182Y-106245930D01*
X125109442Y-106252102D01*
X125109445Y-106252107D01*
X125110937Y-106254268D01*
X125121959Y-106273810D01*
X125123039Y-106276210D01*
X125123044Y-106276219D01*
X125126122Y-106283057D01*
X125130745Y-106288958D01*
X125130747Y-106288961D01*
X125163216Y-106330404D01*
X125167636Y-106336410D01*
X125201817Y-106385929D01*
X125246847Y-106425822D01*
X125252282Y-106430939D01*
X127757059Y-108935716D01*
X127762193Y-108941170D01*
X127802071Y-108986183D01*
X127808240Y-108990441D01*
X127808241Y-108990442D01*
X127851569Y-109020349D01*
X127857602Y-109024788D01*
X127904943Y-109061877D01*
X127911785Y-109064956D01*
X127914175Y-109066032D01*
X127933724Y-109077058D01*
X127935888Y-109078552D01*
X127935896Y-109078556D01*
X127942070Y-109082818D01*
X127949087Y-109085479D01*
X127998306Y-109104145D01*
X128005228Y-109107012D01*
X128060068Y-109131694D01*
X128070035Y-109133520D01*
X128091653Y-109139547D01*
X128094113Y-109140480D01*
X128094116Y-109140480D01*
X128101128Y-109143140D01*
X128158602Y-109150118D01*
X128160830Y-109150389D01*
X128168235Y-109151516D01*
X128184066Y-109154416D01*
X128227394Y-109162357D01*
X128287421Y-109158726D01*
X128294909Y-109158500D01*
X132500481Y-109158500D01*
X132547934Y-109167939D01*
X132588162Y-109194819D01*
X133166707Y-109773364D01*
X133198801Y-109828951D01*
X133198801Y-109893138D01*
X133166707Y-109948726D01*
X132676172Y-110439261D01*
X132676163Y-110439270D01*
X132673816Y-110441618D01*
X132671736Y-110444198D01*
X132671727Y-110444209D01*
X132641061Y-110482262D01*
X132641055Y-110482270D01*
X132636196Y-110488301D01*
X132632975Y-110495351D01*
X132632974Y-110495355D01*
X132580092Y-110611149D01*
X132580090Y-110611152D01*
X132576408Y-110619217D01*
X132575146Y-110627988D01*
X132575145Y-110627995D01*
X132558425Y-110744298D01*
X132555927Y-110761674D01*
X132557117Y-110769953D01*
X132540576Y-110831686D01*
X132495189Y-110877073D01*
X132433456Y-110893614D01*
X132425177Y-110892424D01*
X132416399Y-110893686D01*
X132291498Y-110911642D01*
X132291491Y-110911643D01*
X132282720Y-110912905D01*
X132274655Y-110916587D01*
X132274652Y-110916589D01*
X132158862Y-110969469D01*
X132158857Y-110969471D01*
X132151804Y-110972693D01*
X132145764Y-110977559D01*
X132145761Y-110977562D01*
X132107711Y-111008224D01*
X132107701Y-111008232D01*
X132105121Y-111010312D01*
X132102777Y-111012655D01*
X132102768Y-111012664D01*
X131332669Y-111782764D01*
X131332660Y-111782773D01*
X131330313Y-111785121D01*
X131328233Y-111787701D01*
X131328224Y-111787712D01*
X131297558Y-111825765D01*
X131297552Y-111825773D01*
X131292693Y-111831804D01*
X131289472Y-111838854D01*
X131289471Y-111838858D01*
X131236589Y-111954652D01*
X131236587Y-111954655D01*
X131232905Y-111962720D01*
X131231643Y-111971491D01*
X131231642Y-111971498D01*
X131213686Y-112096399D01*
X131212424Y-112105177D01*
X131213614Y-112113456D01*
X131197073Y-112175189D01*
X131151686Y-112220576D01*
X131089953Y-112237117D01*
X131081674Y-112235927D01*
X131072896Y-112237189D01*
X130947995Y-112255145D01*
X130947988Y-112255146D01*
X130939217Y-112256408D01*
X130931152Y-112260090D01*
X130931149Y-112260092D01*
X130815359Y-112312972D01*
X130815354Y-112312974D01*
X130808301Y-112316196D01*
X130802261Y-112321062D01*
X130802258Y-112321065D01*
X130764208Y-112351727D01*
X130764198Y-112351735D01*
X130761618Y-112353815D01*
X130759274Y-112356158D01*
X130759265Y-112356167D01*
X130202729Y-112912703D01*
X130147141Y-112944797D01*
X130082954Y-112944797D01*
X130027367Y-112912703D01*
X123926819Y-106812155D01*
X123899939Y-106771927D01*
X123890500Y-106724474D01*
X123890500Y-106144499D01*
X123907113Y-106082499D01*
X123952500Y-106037112D01*
X124014500Y-106020499D01*
X124084561Y-106020499D01*
X124087872Y-106020499D01*
X124147483Y-106014091D01*
X124282331Y-105963796D01*
X124385689Y-105886421D01*
X124433642Y-105864523D01*
X124486358Y-105864523D01*
X124534310Y-105886421D01*
G37*
G04 #@! TD.AperFunction*
G04 #@! TA.AperFunction,Conductor*
G36*
X130998000Y-103536613D02*
G01*
X131043387Y-103582000D01*
X131060000Y-103644000D01*
X131060000Y-106003674D01*
X131063450Y-106016549D01*
X131076326Y-106020000D01*
X131704518Y-106020000D01*
X131711114Y-106019646D01*
X131759667Y-106014426D01*
X131774641Y-106010888D01*
X131893777Y-105966452D01*
X131909189Y-105958037D01*
X132005272Y-105886110D01*
X132053225Y-105864211D01*
X132105941Y-105864211D01*
X132153894Y-105886110D01*
X132257669Y-105963796D01*
X132392517Y-106014091D01*
X132452127Y-106020500D01*
X132918480Y-106020499D01*
X132965933Y-106029938D01*
X133006161Y-106056818D01*
X133225162Y-106275819D01*
X133255412Y-106325182D01*
X133259954Y-106382898D01*
X133237799Y-106436385D01*
X133193776Y-106473985D01*
X133137481Y-106487500D01*
X129373519Y-106487500D01*
X129326066Y-106478061D01*
X129285838Y-106451181D01*
X129066837Y-106232180D01*
X129036587Y-106182817D01*
X129032045Y-106125101D01*
X129054200Y-106071614D01*
X129098223Y-106034014D01*
X129154518Y-106020499D01*
X129164561Y-106020499D01*
X129167872Y-106020499D01*
X129227483Y-106014091D01*
X129362331Y-105963796D01*
X129466105Y-105886110D01*
X129514057Y-105864211D01*
X129566774Y-105864211D01*
X129614727Y-105886110D01*
X129710810Y-105958037D01*
X129726222Y-105966452D01*
X129845358Y-106010888D01*
X129860332Y-106014426D01*
X129908885Y-106019646D01*
X129915482Y-106020000D01*
X130543674Y-106020000D01*
X130556549Y-106016549D01*
X130560000Y-106003674D01*
X130560000Y-103644000D01*
X130576613Y-103582000D01*
X130622000Y-103536613D01*
X130684000Y-103520000D01*
X130936000Y-103520000D01*
X130998000Y-103536613D01*
G37*
G04 #@! TD.AperFunction*
G04 #@! TA.AperFunction,Conductor*
G36*
X162665300Y-47652113D02*
G01*
X162710687Y-47697500D01*
X162727300Y-47759500D01*
X162727300Y-82016809D01*
X162712132Y-82076236D01*
X162670339Y-82121125D01*
X162612144Y-82140493D01*
X162551787Y-82129602D01*
X162509462Y-82095493D01*
X162509132Y-82095824D01*
X162506060Y-82092752D01*
X162504031Y-82091117D01*
X162502858Y-82089550D01*
X162497546Y-82082454D01*
X162382331Y-81996204D01*
X162311965Y-81969959D01*
X162254752Y-81948620D01*
X162254750Y-81948619D01*
X162247483Y-81945909D01*
X162239770Y-81945079D01*
X162239767Y-81945079D01*
X162191180Y-81939855D01*
X162191169Y-81939854D01*
X162187873Y-81939500D01*
X162184551Y-81939500D01*
X162114500Y-81939500D01*
X162052500Y-81922887D01*
X162007113Y-81877500D01*
X161990500Y-81815500D01*
X161990500Y-78002910D01*
X161990726Y-77995423D01*
X161993904Y-77942881D01*
X161994357Y-77935394D01*
X161983516Y-77876235D01*
X161982389Y-77868830D01*
X161979866Y-77848053D01*
X161975140Y-77809128D01*
X161972480Y-77802116D01*
X161972480Y-77802113D01*
X161971547Y-77799653D01*
X161965520Y-77778035D01*
X161963694Y-77768068D01*
X161939012Y-77713228D01*
X161936145Y-77706306D01*
X161924342Y-77675184D01*
X161914818Y-77650070D01*
X161910556Y-77643896D01*
X161910552Y-77643888D01*
X161909058Y-77641724D01*
X161898032Y-77622175D01*
X161896956Y-77619785D01*
X161893877Y-77612943D01*
X161856788Y-77565602D01*
X161852349Y-77559569D01*
X161822442Y-77516241D01*
X161822441Y-77516240D01*
X161818183Y-77510071D01*
X161773170Y-77470193D01*
X161767716Y-77465059D01*
X160684367Y-76381710D01*
X160655006Y-76334983D01*
X160654184Y-76332634D01*
X160618789Y-76231478D01*
X160522816Y-76078738D01*
X160395262Y-75951184D01*
X160242522Y-75855211D01*
X160235959Y-75852914D01*
X160235956Y-75852913D01*
X160078824Y-75797930D01*
X160078819Y-75797928D01*
X160072255Y-75795632D01*
X160065335Y-75794852D01*
X160065334Y-75794852D01*
X159899923Y-75776215D01*
X159893000Y-75775435D01*
X159886077Y-75776215D01*
X159720665Y-75794852D01*
X159720662Y-75794852D01*
X159713745Y-75795632D01*
X159707182Y-75797928D01*
X159707175Y-75797930D01*
X159550043Y-75852913D01*
X159550036Y-75852915D01*
X159543478Y-75855211D01*
X159537590Y-75858910D01*
X159537587Y-75858912D01*
X159396638Y-75947476D01*
X159396633Y-75947479D01*
X159390738Y-75951184D01*
X159385813Y-75956108D01*
X159385809Y-75956112D01*
X159268112Y-76073809D01*
X159268108Y-76073813D01*
X159263184Y-76078738D01*
X159259479Y-76084633D01*
X159259476Y-76084638D01*
X159170912Y-76225587D01*
X159170910Y-76225590D01*
X159167211Y-76231478D01*
X159164915Y-76238036D01*
X159164913Y-76238043D01*
X159109930Y-76395175D01*
X159109928Y-76395182D01*
X159107632Y-76401745D01*
X159087435Y-76581000D01*
X159107632Y-76760255D01*
X159109928Y-76766819D01*
X159109930Y-76766824D01*
X159131916Y-76829655D01*
X159167211Y-76930522D01*
X159170912Y-76936412D01*
X159258197Y-77075325D01*
X159277078Y-77135733D01*
X159263689Y-77197590D01*
X159221516Y-77244783D01*
X159161548Y-77265016D01*
X159101430Y-77253409D01*
X159099522Y-77252211D01*
X159078294Y-77244783D01*
X158935824Y-77194930D01*
X158935819Y-77194928D01*
X158929255Y-77192632D01*
X158922335Y-77191852D01*
X158922334Y-77191852D01*
X158756923Y-77173215D01*
X158750000Y-77172435D01*
X158743077Y-77173215D01*
X158577665Y-77191852D01*
X158577662Y-77191852D01*
X158570745Y-77192632D01*
X158564182Y-77194928D01*
X158564175Y-77194930D01*
X158407043Y-77249913D01*
X158407036Y-77249915D01*
X158400478Y-77252211D01*
X158394590Y-77255910D01*
X158394587Y-77255912D01*
X158253638Y-77344476D01*
X158253633Y-77344479D01*
X158247738Y-77348184D01*
X158242813Y-77353108D01*
X158242809Y-77353112D01*
X158125112Y-77470809D01*
X158125108Y-77470813D01*
X158120184Y-77475738D01*
X158116479Y-77481633D01*
X158116476Y-77481638D01*
X158027912Y-77622587D01*
X158027910Y-77622590D01*
X158024211Y-77628478D01*
X158021915Y-77635036D01*
X158021913Y-77635043D01*
X157966930Y-77792175D01*
X157966928Y-77792182D01*
X157964632Y-77798745D01*
X157963852Y-77805662D01*
X157963852Y-77805665D01*
X157959076Y-77848053D01*
X157944435Y-77978000D01*
X157964632Y-78157255D01*
X157966928Y-78163819D01*
X157966930Y-78163824D01*
X158021913Y-78320956D01*
X158024211Y-78327522D01*
X158027911Y-78333410D01*
X158030493Y-78337519D01*
X158049500Y-78403493D01*
X158049500Y-81815501D01*
X158032887Y-81877501D01*
X157987500Y-81922888D01*
X157925500Y-81939501D01*
X157852128Y-81939501D01*
X157848850Y-81939853D01*
X157848838Y-81939854D01*
X157800231Y-81945079D01*
X157800225Y-81945080D01*
X157792517Y-81945909D01*
X157785252Y-81948618D01*
X157785246Y-81948620D01*
X157665980Y-81993104D01*
X157665978Y-81993104D01*
X157657669Y-81996204D01*
X157650572Y-82001516D01*
X157650564Y-82001521D01*
X157553893Y-82073889D01*
X157505941Y-82095788D01*
X157453225Y-82095788D01*
X157405272Y-82073889D01*
X157309189Y-82001962D01*
X157293777Y-81993547D01*
X157174641Y-81949111D01*
X157159667Y-81945573D01*
X157111114Y-81940353D01*
X157104518Y-81940000D01*
X156476326Y-81940000D01*
X156463450Y-81943450D01*
X156460000Y-81956326D01*
X156460000Y-86423674D01*
X156463450Y-86436549D01*
X156476326Y-86440000D01*
X157104518Y-86440000D01*
X157111114Y-86439646D01*
X157159667Y-86434426D01*
X157174641Y-86430888D01*
X157293777Y-86386452D01*
X157309189Y-86378037D01*
X157405272Y-86306110D01*
X157453225Y-86284211D01*
X157505941Y-86284211D01*
X157553894Y-86306110D01*
X157657669Y-86383796D01*
X157792517Y-86434091D01*
X157852127Y-86440500D01*
X159647872Y-86440499D01*
X159707483Y-86434091D01*
X159842331Y-86383796D01*
X159945689Y-86306421D01*
X159993642Y-86284523D01*
X160046358Y-86284523D01*
X160094310Y-86306421D01*
X160197669Y-86383796D01*
X160332517Y-86434091D01*
X160392127Y-86440500D01*
X162187872Y-86440499D01*
X162247483Y-86434091D01*
X162382331Y-86383796D01*
X162497546Y-86297546D01*
X162504031Y-86288882D01*
X162506060Y-86287247D01*
X162509132Y-86284176D01*
X162509462Y-86284506D01*
X162551787Y-86250398D01*
X162612144Y-86239507D01*
X162670339Y-86258875D01*
X162712132Y-86303764D01*
X162727300Y-86363191D01*
X162727300Y-101596809D01*
X162712132Y-101656236D01*
X162670339Y-101701125D01*
X162612144Y-101720493D01*
X162551787Y-101709602D01*
X162509462Y-101675493D01*
X162509132Y-101675824D01*
X162506060Y-101672752D01*
X162504031Y-101671117D01*
X162502858Y-101669550D01*
X162497546Y-101662454D01*
X162382331Y-101576204D01*
X162311965Y-101549959D01*
X162254752Y-101528620D01*
X162254750Y-101528619D01*
X162247483Y-101525909D01*
X162239770Y-101525079D01*
X162239767Y-101525079D01*
X162191180Y-101519855D01*
X162191169Y-101519854D01*
X162187873Y-101519500D01*
X162184550Y-101519500D01*
X160395439Y-101519500D01*
X160395420Y-101519500D01*
X160392128Y-101519501D01*
X160388850Y-101519853D01*
X160388838Y-101519854D01*
X160340231Y-101525079D01*
X160340225Y-101525080D01*
X160332517Y-101525909D01*
X160325252Y-101528618D01*
X160325246Y-101528620D01*
X160205980Y-101573104D01*
X160205978Y-101573104D01*
X160197669Y-101576204D01*
X160190572Y-101581516D01*
X160190568Y-101581519D01*
X160094311Y-101653577D01*
X160046358Y-101675476D01*
X159993642Y-101675476D01*
X159945689Y-101653577D01*
X159849431Y-101581519D01*
X159849430Y-101581518D01*
X159842331Y-101576204D01*
X159771965Y-101549959D01*
X159714752Y-101528620D01*
X159714750Y-101528619D01*
X159707483Y-101525909D01*
X159699770Y-101525079D01*
X159699767Y-101525079D01*
X159651180Y-101519855D01*
X159651169Y-101519854D01*
X159647873Y-101519500D01*
X159644550Y-101519500D01*
X157855439Y-101519500D01*
X157855420Y-101519500D01*
X157852128Y-101519501D01*
X157848850Y-101519853D01*
X157848838Y-101519854D01*
X157800231Y-101525079D01*
X157800225Y-101525080D01*
X157792517Y-101525909D01*
X157785252Y-101528618D01*
X157785246Y-101528620D01*
X157665980Y-101573104D01*
X157665978Y-101573104D01*
X157657669Y-101576204D01*
X157650572Y-101581516D01*
X157650564Y-101581521D01*
X157553893Y-101653889D01*
X157505941Y-101675788D01*
X157453225Y-101675788D01*
X157405272Y-101653889D01*
X157309189Y-101581962D01*
X157293777Y-101573547D01*
X157174641Y-101529111D01*
X157159667Y-101525573D01*
X157111114Y-101520353D01*
X157104518Y-101520000D01*
X156476326Y-101520000D01*
X156463450Y-101523450D01*
X156460000Y-101536326D01*
X156460000Y-106003674D01*
X156463450Y-106016549D01*
X156476326Y-106020000D01*
X157104518Y-106020000D01*
X157111114Y-106019646D01*
X157159667Y-106014426D01*
X157174641Y-106010888D01*
X157293777Y-105966452D01*
X157309189Y-105958037D01*
X157405272Y-105886110D01*
X157453225Y-105864211D01*
X157505941Y-105864211D01*
X157553894Y-105886110D01*
X157657669Y-105963796D01*
X157792517Y-106014091D01*
X157852127Y-106020500D01*
X157925500Y-106020500D01*
X157987500Y-106037113D01*
X158032887Y-106082500D01*
X158049500Y-106144500D01*
X158049500Y-109461579D01*
X158049274Y-109469067D01*
X158046094Y-109521618D01*
X158046094Y-109521626D01*
X158045642Y-109529106D01*
X158046993Y-109536482D01*
X158046994Y-109536487D01*
X158056483Y-109588271D01*
X158057610Y-109595671D01*
X158063955Y-109647925D01*
X158063956Y-109647930D01*
X158064860Y-109655372D01*
X158067519Y-109662385D01*
X158067521Y-109662391D01*
X158068450Y-109664840D01*
X158074475Y-109686452D01*
X158074951Y-109689051D01*
X158074954Y-109689060D01*
X158076305Y-109696432D01*
X158079382Y-109703269D01*
X158079383Y-109703272D01*
X158100991Y-109751284D01*
X158103857Y-109758202D01*
X158125182Y-109814430D01*
X158128496Y-109819231D01*
X158142500Y-109876044D01*
X158142500Y-110332694D01*
X158142690Y-110335114D01*
X158142691Y-110335128D01*
X158144904Y-110363251D01*
X158144905Y-110363258D01*
X158145402Y-110369569D01*
X158147168Y-110375650D01*
X158147170Y-110375657D01*
X158184521Y-110504215D01*
X158191256Y-110527398D01*
X158195226Y-110534111D01*
X158195227Y-110534113D01*
X158270946Y-110662148D01*
X158270948Y-110662151D01*
X158274919Y-110668865D01*
X158391135Y-110785081D01*
X158532602Y-110868744D01*
X158690431Y-110914598D01*
X158727306Y-110917500D01*
X158968500Y-110917500D01*
X159030500Y-110934113D01*
X159075887Y-110979500D01*
X159092500Y-111041500D01*
X159092500Y-112207694D01*
X159092690Y-112210114D01*
X159092691Y-112210128D01*
X159094904Y-112238251D01*
X159094905Y-112238258D01*
X159095402Y-112244569D01*
X159097168Y-112250650D01*
X159097170Y-112250657D01*
X159132278Y-112371495D01*
X159141256Y-112402398D01*
X159145226Y-112409111D01*
X159145227Y-112409113D01*
X159220946Y-112537148D01*
X159220948Y-112537151D01*
X159224919Y-112543865D01*
X159341135Y-112660081D01*
X159482602Y-112743744D01*
X159640431Y-112789598D01*
X159677306Y-112792500D01*
X160106249Y-112792500D01*
X160108694Y-112792500D01*
X160145569Y-112789598D01*
X160303398Y-112743744D01*
X160444865Y-112660081D01*
X160561081Y-112543865D01*
X160644744Y-112402398D01*
X160690598Y-112244569D01*
X160693500Y-112207694D01*
X160693500Y-111041500D01*
X160710113Y-110979500D01*
X160755500Y-110934113D01*
X160817500Y-110917500D01*
X161056249Y-110917500D01*
X161058694Y-110917500D01*
X161095569Y-110914598D01*
X161253398Y-110868744D01*
X161394865Y-110785081D01*
X161511081Y-110668865D01*
X161594744Y-110527398D01*
X161640598Y-110369569D01*
X161643500Y-110332694D01*
X161643500Y-109921020D01*
X161652939Y-109873568D01*
X161679818Y-109833340D01*
X161767722Y-109745434D01*
X161773159Y-109740315D01*
X161818183Y-109700429D01*
X161852362Y-109650910D01*
X161856779Y-109644907D01*
X161893877Y-109597557D01*
X161898030Y-109588326D01*
X161909058Y-109568772D01*
X161914818Y-109560430D01*
X161936149Y-109504180D01*
X161939014Y-109497266D01*
X161960614Y-109449276D01*
X161960614Y-109449273D01*
X161963694Y-109442432D01*
X161965518Y-109432474D01*
X161971548Y-109410840D01*
X161975140Y-109401372D01*
X161982389Y-109341665D01*
X161983516Y-109334262D01*
X161986808Y-109316299D01*
X161994357Y-109275106D01*
X161990726Y-109215078D01*
X161990500Y-109207591D01*
X161990500Y-106144499D01*
X162007113Y-106082499D01*
X162052500Y-106037112D01*
X162114500Y-106020499D01*
X162184561Y-106020499D01*
X162187872Y-106020499D01*
X162247483Y-106014091D01*
X162382331Y-105963796D01*
X162497546Y-105877546D01*
X162504031Y-105868882D01*
X162506060Y-105867247D01*
X162509132Y-105864176D01*
X162509462Y-105864506D01*
X162551787Y-105830398D01*
X162612144Y-105819507D01*
X162670339Y-105838875D01*
X162712132Y-105883764D01*
X162727300Y-105943191D01*
X162727300Y-139590900D01*
X162710687Y-139652900D01*
X162665300Y-139698287D01*
X162603300Y-139714900D01*
X105544500Y-139714900D01*
X105482500Y-139698287D01*
X105437113Y-139652900D01*
X105420500Y-139590900D01*
X105420500Y-122403597D01*
X135263972Y-122403597D01*
X135273422Y-122410158D01*
X135275352Y-122410878D01*
X135290337Y-122414420D01*
X135338885Y-122419639D01*
X135345482Y-122419993D01*
X136434518Y-122419993D01*
X136441114Y-122419639D01*
X136489665Y-122414420D01*
X136504643Y-122410880D01*
X136506576Y-122410159D01*
X136516026Y-122403597D01*
X136510155Y-122393702D01*
X135901542Y-121785088D01*
X135889999Y-121778424D01*
X135878457Y-121785088D01*
X135269842Y-122393703D01*
X135263972Y-122403597D01*
X105420500Y-122403597D01*
X105420500Y-121964511D01*
X134890000Y-121964511D01*
X134890353Y-121971107D01*
X134895573Y-122019658D01*
X134899113Y-122034638D01*
X134899832Y-122036566D01*
X134906394Y-122046018D01*
X134916290Y-122040147D01*
X135524903Y-121431535D01*
X135531567Y-121419993D01*
X135524903Y-121408450D01*
X134916290Y-120799837D01*
X134906394Y-120793965D01*
X134899833Y-120803416D01*
X134899112Y-120805348D01*
X134895572Y-120820328D01*
X134890353Y-120868878D01*
X134890000Y-120875475D01*
X134890000Y-121964511D01*
X105420500Y-121964511D01*
X105420500Y-101600000D01*
X106594341Y-101600000D01*
X106594813Y-101605395D01*
X106613809Y-101822522D01*
X106614937Y-101835408D01*
X106616336Y-101840630D01*
X106616337Y-101840634D01*
X106674694Y-102058430D01*
X106674697Y-102058438D01*
X106676097Y-102063663D01*
X106678385Y-102068570D01*
X106678386Y-102068572D01*
X106773678Y-102272927D01*
X106773681Y-102272933D01*
X106775965Y-102277830D01*
X106779064Y-102282257D01*
X106779066Y-102282259D01*
X106908399Y-102466966D01*
X106908402Y-102466970D01*
X106911505Y-102471401D01*
X107078599Y-102638495D01*
X107272170Y-102774035D01*
X107486337Y-102873903D01*
X107714592Y-102935063D01*
X107950000Y-102955659D01*
X108185408Y-102935063D01*
X108413663Y-102873903D01*
X108627830Y-102774035D01*
X108821401Y-102638495D01*
X108988495Y-102471401D01*
X109124035Y-102277830D01*
X109223903Y-102063663D01*
X109285063Y-101835408D01*
X109305659Y-101600000D01*
X109289850Y-101419307D01*
X109302567Y-101352849D01*
X109348281Y-101302962D01*
X109413378Y-101284500D01*
X112034376Y-101284500D01*
X112092177Y-101298796D01*
X112136651Y-101338387D01*
X112157542Y-101394144D01*
X112150034Y-101453212D01*
X112115859Y-101501970D01*
X112071992Y-101524502D01*
X112072517Y-101525909D01*
X111945980Y-101573104D01*
X111945978Y-101573104D01*
X111937669Y-101576204D01*
X111930572Y-101581516D01*
X111930568Y-101581519D01*
X111829550Y-101657141D01*
X111829546Y-101657144D01*
X111822454Y-101662454D01*
X111817144Y-101669546D01*
X111817141Y-101669550D01*
X111741519Y-101770568D01*
X111741516Y-101770572D01*
X111736204Y-101777669D01*
X111733104Y-101785978D01*
X111733104Y-101785980D01*
X111688620Y-101905247D01*
X111688619Y-101905250D01*
X111685909Y-101912517D01*
X111685079Y-101920227D01*
X111685079Y-101920232D01*
X111679855Y-101968819D01*
X111679854Y-101968831D01*
X111679500Y-101972127D01*
X111679500Y-101975448D01*
X111679500Y-101975449D01*
X111679500Y-105564560D01*
X111679500Y-105564578D01*
X111679501Y-105567872D01*
X111679853Y-105571150D01*
X111679854Y-105571161D01*
X111685079Y-105619768D01*
X111685080Y-105619773D01*
X111685909Y-105627483D01*
X111688619Y-105634749D01*
X111688620Y-105634753D01*
X111722217Y-105724831D01*
X111736204Y-105762331D01*
X111822454Y-105877546D01*
X111937669Y-105963796D01*
X112072517Y-106014091D01*
X112132127Y-106020500D01*
X113927872Y-106020499D01*
X113987483Y-106014091D01*
X114122331Y-105963796D01*
X114225689Y-105886421D01*
X114273642Y-105864523D01*
X114326358Y-105864523D01*
X114374310Y-105886421D01*
X114477669Y-105963796D01*
X114612517Y-106014091D01*
X114672127Y-106020500D01*
X116467872Y-106020499D01*
X116527483Y-106014091D01*
X116662331Y-105963796D01*
X116766105Y-105886110D01*
X116814057Y-105864211D01*
X116866774Y-105864211D01*
X116914727Y-105886110D01*
X117010810Y-105958037D01*
X117026222Y-105966452D01*
X117145358Y-106010888D01*
X117160332Y-106014426D01*
X117208885Y-106019646D01*
X117215482Y-106020000D01*
X117843674Y-106020000D01*
X117856549Y-106016549D01*
X117860000Y-106003674D01*
X117860000Y-103644000D01*
X117876613Y-103582000D01*
X117922000Y-103536613D01*
X117984000Y-103520000D01*
X118236000Y-103520000D01*
X118298000Y-103536613D01*
X118343387Y-103582000D01*
X118360000Y-103644000D01*
X118360000Y-106003674D01*
X118363450Y-106016549D01*
X118376326Y-106020000D01*
X119004518Y-106020000D01*
X119011114Y-106019646D01*
X119059667Y-106014426D01*
X119074641Y-106010888D01*
X119193777Y-105966452D01*
X119209189Y-105958037D01*
X119305272Y-105886110D01*
X119353225Y-105864211D01*
X119405941Y-105864211D01*
X119453894Y-105886110D01*
X119557669Y-105963796D01*
X119692517Y-106014091D01*
X119752127Y-106020500D01*
X119825500Y-106020500D01*
X119887500Y-106037113D01*
X119932887Y-106082500D01*
X119949500Y-106144500D01*
X119949500Y-108009072D01*
X119949274Y-108016560D01*
X119946094Y-108069111D01*
X119946094Y-108069119D01*
X119945642Y-108076599D01*
X119946993Y-108083975D01*
X119946994Y-108083980D01*
X119956483Y-108135764D01*
X119957610Y-108143164D01*
X119963955Y-108195418D01*
X119963956Y-108195423D01*
X119964860Y-108202865D01*
X119967519Y-108209878D01*
X119967521Y-108209884D01*
X119968450Y-108212333D01*
X119974475Y-108233945D01*
X119974951Y-108236544D01*
X119974954Y-108236553D01*
X119976305Y-108243925D01*
X119979382Y-108250762D01*
X119979383Y-108250765D01*
X120000991Y-108298777D01*
X120003857Y-108305695D01*
X120025182Y-108361923D01*
X120029442Y-108368095D01*
X120029445Y-108368100D01*
X120030937Y-108370261D01*
X120041959Y-108389803D01*
X120043039Y-108392203D01*
X120043044Y-108392212D01*
X120046122Y-108399050D01*
X120083209Y-108446389D01*
X120083216Y-108446397D01*
X120087636Y-108452403D01*
X120121817Y-108501922D01*
X120166847Y-108541815D01*
X120172282Y-108546932D01*
X130360072Y-118734722D01*
X130365206Y-118740176D01*
X130400106Y-118779571D01*
X130400110Y-118779574D01*
X130405084Y-118785189D01*
X130411260Y-118789452D01*
X130454587Y-118819359D01*
X130460618Y-118823797D01*
X130507957Y-118860884D01*
X130517193Y-118865040D01*
X130536740Y-118876065D01*
X130545083Y-118881824D01*
X130572881Y-118892366D01*
X130601311Y-118903148D01*
X130608233Y-118906015D01*
X130663082Y-118930701D01*
X130673054Y-118932528D01*
X130694669Y-118938553D01*
X130704141Y-118942146D01*
X130761844Y-118949152D01*
X130763828Y-118949393D01*
X130771235Y-118950520D01*
X130830407Y-118961364D01*
X130875021Y-118958665D01*
X130926479Y-118966497D01*
X130970190Y-118994758D01*
X131152713Y-119177280D01*
X131327303Y-119351870D01*
X131329893Y-119353957D01*
X131329894Y-119353958D01*
X131367947Y-119384624D01*
X131367950Y-119384625D01*
X131373986Y-119389490D01*
X131504902Y-119449278D01*
X131647359Y-119469759D01*
X131789816Y-119449278D01*
X131893995Y-119401700D01*
X131952582Y-119390697D01*
X132009537Y-119408307D01*
X132051691Y-119450461D01*
X132069302Y-119507416D01*
X132058298Y-119566006D01*
X132014407Y-119662113D01*
X132014405Y-119662118D01*
X132010722Y-119670184D01*
X132009460Y-119678955D01*
X132009459Y-119678962D01*
X131998366Y-119756126D01*
X131990241Y-119812641D01*
X131991503Y-119821419D01*
X132009459Y-119946319D01*
X132009460Y-119946324D01*
X132010722Y-119955098D01*
X132070510Y-120086014D01*
X132108129Y-120132697D01*
X132882938Y-120907505D01*
X132885528Y-120909592D01*
X132885529Y-120909593D01*
X132923582Y-120940259D01*
X132923585Y-120940260D01*
X132929621Y-120945125D01*
X133060537Y-121004913D01*
X133202994Y-121025394D01*
X133345451Y-121004913D01*
X133476367Y-120945125D01*
X133523050Y-120907506D01*
X134297858Y-120132697D01*
X134335478Y-120086014D01*
X134395266Y-119955098D01*
X134415747Y-119812641D01*
X134395266Y-119670184D01*
X134335478Y-119539268D01*
X134297859Y-119492585D01*
X133939812Y-119134539D01*
X133912933Y-119094312D01*
X133903494Y-119046859D01*
X133903494Y-117560519D01*
X133917009Y-117504224D01*
X133954609Y-117460201D01*
X134008096Y-117438046D01*
X134065812Y-117442588D01*
X134115175Y-117472838D01*
X136782594Y-120140257D01*
X136812567Y-120188779D01*
X136817651Y-120245585D01*
X136798566Y-120378327D01*
X136776395Y-120433221D01*
X136731300Y-120471580D01*
X136673561Y-120484659D01*
X136633101Y-120473925D01*
X136632089Y-120476640D01*
X136504641Y-120429104D01*
X136489667Y-120425566D01*
X136441114Y-120420346D01*
X136434518Y-120419993D01*
X135345482Y-120419993D01*
X135338885Y-120420346D01*
X135290335Y-120425565D01*
X135275355Y-120429105D01*
X135273423Y-120429826D01*
X135263972Y-120436387D01*
X135269844Y-120446283D01*
X135890000Y-121066440D01*
X136863709Y-122040148D01*
X136873604Y-122046019D01*
X136880166Y-122036569D01*
X136880887Y-122034636D01*
X136884427Y-122019658D01*
X136889646Y-121971107D01*
X136890000Y-121964511D01*
X136890000Y-120971289D01*
X136903515Y-120914994D01*
X136941115Y-120870971D01*
X136994602Y-120848816D01*
X137052318Y-120853358D01*
X137101681Y-120883608D01*
X137395675Y-121177601D01*
X137691264Y-121473190D01*
X137693854Y-121475277D01*
X137693855Y-121475278D01*
X137731908Y-121505944D01*
X137731911Y-121505945D01*
X137737947Y-121510810D01*
X137868863Y-121570598D01*
X138011320Y-121591079D01*
X138153777Y-121570598D01*
X138284693Y-121510810D01*
X138331376Y-121473191D01*
X138574167Y-121230398D01*
X138623669Y-121200106D01*
X138681537Y-121195657D01*
X139530620Y-121332257D01*
X139547798Y-121336294D01*
X139572804Y-121344086D01*
X139616893Y-121346752D01*
X139623123Y-121347441D01*
X139623131Y-121347370D01*
X139626869Y-121347741D01*
X139630569Y-121348337D01*
X139663962Y-121349628D01*
X139666532Y-121349755D01*
X139742606Y-121354358D01*
X139749844Y-121353030D01*
X139750555Y-121352979D01*
X139757903Y-121353265D01*
X139832444Y-121337922D01*
X139835026Y-121337420D01*
X139909932Y-121323695D01*
X139916640Y-121320675D01*
X139917321Y-121320454D01*
X139924523Y-121318973D01*
X139993320Y-121286192D01*
X139995523Y-121285172D01*
X140065057Y-121253878D01*
X140070846Y-121249342D01*
X140071456Y-121248964D01*
X140078094Y-121245802D01*
X140136990Y-121197557D01*
X140138961Y-121195977D01*
X140165367Y-121175290D01*
X140168026Y-121172629D01*
X140170821Y-121170154D01*
X140170870Y-121170209D01*
X140175514Y-121166000D01*
X140209692Y-121138005D01*
X140225391Y-121117044D01*
X140236955Y-121103700D01*
X141423700Y-119916955D01*
X141437044Y-119905391D01*
X141451999Y-119894190D01*
X141451998Y-119894190D01*
X141458005Y-119889692D01*
X141486000Y-119855514D01*
X141490209Y-119850870D01*
X141490154Y-119850821D01*
X141492629Y-119848026D01*
X141495290Y-119845367D01*
X141515977Y-119818961D01*
X141517557Y-119816990D01*
X141565802Y-119758094D01*
X141568964Y-119751456D01*
X141569342Y-119750846D01*
X141573878Y-119745057D01*
X141605118Y-119675643D01*
X141606240Y-119673222D01*
X141638973Y-119604523D01*
X141640455Y-119597317D01*
X141640674Y-119596639D01*
X141643694Y-119589932D01*
X141657411Y-119515070D01*
X141657922Y-119512447D01*
X141673265Y-119437903D01*
X141672980Y-119430555D01*
X141673031Y-119429836D01*
X141674357Y-119422606D01*
X141669756Y-119346553D01*
X141669630Y-119343997D01*
X141668337Y-119310569D01*
X141667741Y-119306864D01*
X141667371Y-119303138D01*
X141667442Y-119303130D01*
X141666753Y-119296903D01*
X141664086Y-119252804D01*
X141656294Y-119227798D01*
X141652257Y-119210620D01*
X141540764Y-118517599D01*
X141546153Y-118456937D01*
X141579774Y-118406156D01*
X141633517Y-118377507D01*
X141634094Y-118377364D01*
X141641545Y-118376460D01*
X141651005Y-118372871D01*
X141672632Y-118366842D01*
X141682605Y-118365015D01*
X141737481Y-118340316D01*
X141744346Y-118337472D01*
X141800603Y-118316138D01*
X141808937Y-118310384D01*
X141828494Y-118299354D01*
X141837730Y-118295198D01*
X141885086Y-118258095D01*
X141891093Y-118253675D01*
X141940602Y-118219503D01*
X141980495Y-118174471D01*
X141985597Y-118169051D01*
X151607731Y-108546917D01*
X151613151Y-108541815D01*
X151658183Y-108501922D01*
X151692362Y-108452404D01*
X151696789Y-108446389D01*
X151697534Y-108445438D01*
X151733878Y-108399049D01*
X151738034Y-108389813D01*
X151749062Y-108370261D01*
X151754818Y-108361923D01*
X151776147Y-108305679D01*
X151779001Y-108298788D01*
X151803695Y-108243924D01*
X151805522Y-108233950D01*
X151811548Y-108212333D01*
X151815140Y-108202865D01*
X151822389Y-108143164D01*
X151823514Y-108135769D01*
X151823515Y-108135764D01*
X151834358Y-108076599D01*
X151830725Y-108016559D01*
X151830500Y-108009072D01*
X151830500Y-106144499D01*
X151847113Y-106082499D01*
X151892500Y-106037112D01*
X151954500Y-106020499D01*
X152024561Y-106020499D01*
X152027872Y-106020499D01*
X152087483Y-106014091D01*
X152222331Y-105963796D01*
X152325689Y-105886421D01*
X152373642Y-105864523D01*
X152426358Y-105864523D01*
X152474310Y-105886421D01*
X152577669Y-105963796D01*
X152712517Y-106014091D01*
X152772127Y-106020500D01*
X154567872Y-106020499D01*
X154627483Y-106014091D01*
X154762331Y-105963796D01*
X154866105Y-105886110D01*
X154914057Y-105864211D01*
X154966774Y-105864211D01*
X155014727Y-105886110D01*
X155110810Y-105958037D01*
X155126222Y-105966452D01*
X155245358Y-106010888D01*
X155260332Y-106014426D01*
X155308885Y-106019646D01*
X155315482Y-106020000D01*
X155943674Y-106020000D01*
X155956549Y-106016549D01*
X155960000Y-106003674D01*
X155960000Y-101536326D01*
X155956549Y-101523450D01*
X155943674Y-101520000D01*
X155315482Y-101520000D01*
X155308885Y-101520353D01*
X155260332Y-101525573D01*
X155245358Y-101529111D01*
X155126222Y-101573547D01*
X155110806Y-101581964D01*
X155014726Y-101653889D01*
X154966774Y-101675788D01*
X154914057Y-101675788D01*
X154866105Y-101653889D01*
X154769431Y-101581519D01*
X154769430Y-101581518D01*
X154762331Y-101576204D01*
X154691965Y-101549959D01*
X154634752Y-101528620D01*
X154634750Y-101528619D01*
X154627483Y-101525909D01*
X154619770Y-101525079D01*
X154619767Y-101525079D01*
X154571180Y-101519855D01*
X154571169Y-101519854D01*
X154567873Y-101519500D01*
X154564550Y-101519500D01*
X152775439Y-101519500D01*
X152775420Y-101519500D01*
X152772128Y-101519501D01*
X152768850Y-101519853D01*
X152768838Y-101519854D01*
X152720231Y-101525079D01*
X152720225Y-101525080D01*
X152712517Y-101525909D01*
X152705252Y-101528618D01*
X152705246Y-101528620D01*
X152585980Y-101573104D01*
X152585978Y-101573104D01*
X152577669Y-101576204D01*
X152570572Y-101581516D01*
X152570568Y-101581519D01*
X152474311Y-101653577D01*
X152426358Y-101675476D01*
X152373642Y-101675476D01*
X152325689Y-101653577D01*
X152229431Y-101581519D01*
X152229430Y-101581518D01*
X152222331Y-101576204D01*
X152151965Y-101549959D01*
X152094752Y-101528620D01*
X152094750Y-101528619D01*
X152087483Y-101525909D01*
X152079770Y-101525079D01*
X152079767Y-101525079D01*
X152031180Y-101519855D01*
X152031169Y-101519854D01*
X152027873Y-101519500D01*
X152024551Y-101519500D01*
X151954500Y-101519500D01*
X151892500Y-101502887D01*
X151847113Y-101457500D01*
X151830500Y-101395500D01*
X151830500Y-88690493D01*
X151849507Y-88624519D01*
X151855789Y-88614522D01*
X151915368Y-88444255D01*
X151935565Y-88265000D01*
X151915368Y-88085745D01*
X151855789Y-87915478D01*
X151759816Y-87762738D01*
X151632262Y-87635184D01*
X151479522Y-87539211D01*
X151472959Y-87536914D01*
X151472956Y-87536913D01*
X151315824Y-87481930D01*
X151315819Y-87481928D01*
X151309255Y-87479632D01*
X151302335Y-87478852D01*
X151302334Y-87478852D01*
X151136923Y-87460215D01*
X151130000Y-87459435D01*
X151123077Y-87460215D01*
X150957665Y-87478852D01*
X150957662Y-87478852D01*
X150950745Y-87479632D01*
X150944182Y-87481928D01*
X150944175Y-87481930D01*
X150787043Y-87536913D01*
X150787036Y-87536915D01*
X150780478Y-87539211D01*
X150774590Y-87542910D01*
X150774587Y-87542912D01*
X150633638Y-87631476D01*
X150633633Y-87631479D01*
X150627738Y-87635184D01*
X150622813Y-87640108D01*
X150622809Y-87640112D01*
X150505112Y-87757809D01*
X150505108Y-87757813D01*
X150500184Y-87762738D01*
X150496479Y-87768633D01*
X150496476Y-87768638D01*
X150407912Y-87909587D01*
X150407910Y-87909590D01*
X150404211Y-87915478D01*
X150401915Y-87922036D01*
X150401913Y-87922043D01*
X150346930Y-88079175D01*
X150346928Y-88079182D01*
X150344632Y-88085745D01*
X150324435Y-88265000D01*
X150325215Y-88271923D01*
X150343186Y-88431427D01*
X150344632Y-88444255D01*
X150346928Y-88450819D01*
X150346930Y-88450824D01*
X150401913Y-88607956D01*
X150404211Y-88614522D01*
X150407911Y-88620410D01*
X150410493Y-88624519D01*
X150429500Y-88690493D01*
X150429500Y-101395501D01*
X150412887Y-101457501D01*
X150367500Y-101502888D01*
X150305500Y-101519501D01*
X150232128Y-101519501D01*
X150228850Y-101519853D01*
X150228838Y-101519854D01*
X150180231Y-101525079D01*
X150180225Y-101525080D01*
X150172517Y-101525909D01*
X150165252Y-101528618D01*
X150165246Y-101528620D01*
X150045980Y-101573104D01*
X150045978Y-101573104D01*
X150037669Y-101576204D01*
X150030572Y-101581516D01*
X150030568Y-101581519D01*
X149934311Y-101653577D01*
X149886358Y-101675476D01*
X149833642Y-101675476D01*
X149785689Y-101653577D01*
X149689431Y-101581519D01*
X149689430Y-101581518D01*
X149682331Y-101576204D01*
X149611965Y-101549959D01*
X149554752Y-101528620D01*
X149554750Y-101528619D01*
X149547483Y-101525909D01*
X149539770Y-101525079D01*
X149539767Y-101525079D01*
X149491180Y-101519855D01*
X149491169Y-101519854D01*
X149487873Y-101519500D01*
X149484550Y-101519500D01*
X147695439Y-101519500D01*
X147695420Y-101519500D01*
X147692128Y-101519501D01*
X147688850Y-101519853D01*
X147688838Y-101519854D01*
X147640231Y-101525079D01*
X147640225Y-101525080D01*
X147632517Y-101525909D01*
X147625252Y-101528618D01*
X147625246Y-101528620D01*
X147505980Y-101573104D01*
X147505978Y-101573104D01*
X147497669Y-101576204D01*
X147490572Y-101581516D01*
X147490568Y-101581519D01*
X147394311Y-101653577D01*
X147346358Y-101675476D01*
X147293642Y-101675476D01*
X147245689Y-101653577D01*
X147149431Y-101581519D01*
X147149430Y-101581518D01*
X147142331Y-101576204D01*
X147071965Y-101549959D01*
X147014752Y-101528620D01*
X147014750Y-101528619D01*
X147007483Y-101525909D01*
X146999770Y-101525079D01*
X146999767Y-101525079D01*
X146951180Y-101519855D01*
X146951169Y-101519854D01*
X146947873Y-101519500D01*
X146944551Y-101519500D01*
X145741519Y-101519500D01*
X145694066Y-101510061D01*
X145653838Y-101483181D01*
X142225939Y-98055282D01*
X142220822Y-98049847D01*
X142180929Y-98004817D01*
X142131410Y-97970636D01*
X142125404Y-97966216D01*
X142083961Y-97933747D01*
X142083958Y-97933745D01*
X142078057Y-97929122D01*
X142071219Y-97926044D01*
X142071210Y-97926039D01*
X142068810Y-97924959D01*
X142049268Y-97913937D01*
X142047107Y-97912445D01*
X142047102Y-97912442D01*
X142040930Y-97908182D01*
X141984702Y-97886857D01*
X141977784Y-97883991D01*
X141929772Y-97862383D01*
X141929769Y-97862382D01*
X141922932Y-97859305D01*
X141915560Y-97857954D01*
X141915551Y-97857951D01*
X141912952Y-97857475D01*
X141891340Y-97851450D01*
X141888891Y-97850521D01*
X141888885Y-97850519D01*
X141881872Y-97847860D01*
X141874430Y-97846956D01*
X141874425Y-97846955D01*
X141822171Y-97840610D01*
X141814771Y-97839483D01*
X141762987Y-97829994D01*
X141762982Y-97829993D01*
X141755606Y-97828642D01*
X141748126Y-97829094D01*
X141748118Y-97829094D01*
X141695567Y-97832274D01*
X141688079Y-97832500D01*
X114636700Y-97832500D01*
X114571533Y-97813995D01*
X114525816Y-97764004D01*
X114513194Y-97697447D01*
X114537434Y-97634189D01*
X114548478Y-97619436D01*
X114548480Y-97619432D01*
X114553796Y-97612331D01*
X114604091Y-97477483D01*
X114610500Y-97417873D01*
X114610499Y-95622128D01*
X114604091Y-95562517D01*
X114553796Y-95427669D01*
X114476110Y-95323894D01*
X114454211Y-95275941D01*
X114454211Y-95223225D01*
X114476110Y-95175272D01*
X114548037Y-95079189D01*
X114556452Y-95063777D01*
X114600888Y-94944641D01*
X114604426Y-94929667D01*
X114609646Y-94881114D01*
X114610000Y-94874518D01*
X114610000Y-94246326D01*
X114606549Y-94233450D01*
X114593674Y-94230000D01*
X110126326Y-94230000D01*
X110113450Y-94233450D01*
X110110000Y-94246326D01*
X110110000Y-94874518D01*
X110110353Y-94881114D01*
X110115573Y-94929667D01*
X110119111Y-94944641D01*
X110163547Y-95063777D01*
X110171962Y-95079189D01*
X110243889Y-95175272D01*
X110265788Y-95223225D01*
X110265788Y-95275941D01*
X110243889Y-95323893D01*
X110171521Y-95420564D01*
X110171516Y-95420572D01*
X110166204Y-95427669D01*
X110163104Y-95435978D01*
X110163104Y-95435980D01*
X110118620Y-95555247D01*
X110118619Y-95555250D01*
X110115909Y-95562517D01*
X110115079Y-95570227D01*
X110115079Y-95570232D01*
X110109855Y-95618819D01*
X110109854Y-95618831D01*
X110109500Y-95622127D01*
X110109500Y-95625448D01*
X110109500Y-95625449D01*
X110109500Y-97389481D01*
X110095985Y-97445776D01*
X110058385Y-97489799D01*
X110004898Y-97511954D01*
X109947182Y-97507412D01*
X109897819Y-97477162D01*
X109312652Y-96891995D01*
X109280558Y-96836407D01*
X109280559Y-96772219D01*
X109283662Y-96760638D01*
X109283662Y-96760633D01*
X109285063Y-96755408D01*
X109305659Y-96520000D01*
X109285063Y-96284592D01*
X109223903Y-96056337D01*
X109124035Y-95842171D01*
X108988495Y-95648599D01*
X108821401Y-95481505D01*
X108816968Y-95478401D01*
X108816961Y-95478395D01*
X108635842Y-95351575D01*
X108596976Y-95307257D01*
X108582965Y-95250000D01*
X108596976Y-95192743D01*
X108635842Y-95148425D01*
X108816961Y-95021604D01*
X108816961Y-95021603D01*
X108821401Y-95018495D01*
X108988495Y-94851401D01*
X109124035Y-94657830D01*
X109223903Y-94443663D01*
X109285063Y-94215408D01*
X109305659Y-93980000D01*
X109285063Y-93744592D01*
X109223903Y-93516337D01*
X109124035Y-93302171D01*
X108988495Y-93108599D01*
X108821401Y-92941505D01*
X108816968Y-92938401D01*
X108816961Y-92938395D01*
X108635842Y-92811575D01*
X108596976Y-92767257D01*
X108582965Y-92710000D01*
X108596976Y-92652743D01*
X108635842Y-92608425D01*
X108816961Y-92481604D01*
X108816961Y-92481603D01*
X108821401Y-92478495D01*
X108965318Y-92334578D01*
X110109500Y-92334578D01*
X110109501Y-92337872D01*
X110109853Y-92341150D01*
X110109854Y-92341161D01*
X110115079Y-92389768D01*
X110115080Y-92389773D01*
X110115909Y-92397483D01*
X110118619Y-92404749D01*
X110118620Y-92404753D01*
X110144695Y-92474663D01*
X110166204Y-92532331D01*
X110171518Y-92539430D01*
X110171519Y-92539431D01*
X110243889Y-92636105D01*
X110265788Y-92684057D01*
X110265788Y-92736774D01*
X110243889Y-92784726D01*
X110171964Y-92880806D01*
X110163547Y-92896222D01*
X110119111Y-93015358D01*
X110115573Y-93030332D01*
X110110353Y-93078885D01*
X110110000Y-93085482D01*
X110110000Y-93713674D01*
X110113450Y-93726549D01*
X110126326Y-93730000D01*
X114593674Y-93730000D01*
X114606549Y-93726549D01*
X114610000Y-93713674D01*
X114610000Y-93085482D01*
X114609646Y-93078885D01*
X114604426Y-93030332D01*
X114600888Y-93015358D01*
X114556452Y-92896222D01*
X114548037Y-92880810D01*
X114476110Y-92784727D01*
X114454211Y-92736774D01*
X114454211Y-92684057D01*
X114476111Y-92636104D01*
X114548480Y-92539432D01*
X114548481Y-92539431D01*
X114553796Y-92532331D01*
X114604091Y-92397483D01*
X114610500Y-92337873D01*
X114610499Y-90542128D01*
X114604091Y-90482517D01*
X114553796Y-90347669D01*
X114467546Y-90232454D01*
X114352331Y-90146204D01*
X114217483Y-90095909D01*
X114209770Y-90095079D01*
X114209767Y-90095079D01*
X114161180Y-90089855D01*
X114161169Y-90089854D01*
X114157873Y-90089500D01*
X114154550Y-90089500D01*
X110565439Y-90089500D01*
X110565420Y-90089500D01*
X110562128Y-90089501D01*
X110558850Y-90089853D01*
X110558838Y-90089854D01*
X110510231Y-90095079D01*
X110510225Y-90095080D01*
X110502517Y-90095909D01*
X110495252Y-90098618D01*
X110495246Y-90098620D01*
X110375980Y-90143104D01*
X110375978Y-90143104D01*
X110367669Y-90146204D01*
X110360572Y-90151516D01*
X110360568Y-90151519D01*
X110259550Y-90227141D01*
X110259546Y-90227144D01*
X110252454Y-90232454D01*
X110247144Y-90239546D01*
X110247141Y-90239550D01*
X110171519Y-90340568D01*
X110171516Y-90340572D01*
X110166204Y-90347669D01*
X110163104Y-90355978D01*
X110163104Y-90355980D01*
X110118620Y-90475247D01*
X110118619Y-90475250D01*
X110115909Y-90482517D01*
X110115079Y-90490227D01*
X110115079Y-90490232D01*
X110109855Y-90538819D01*
X110109854Y-90538831D01*
X110109500Y-90542127D01*
X110109500Y-90545448D01*
X110109500Y-90545449D01*
X110109500Y-92334560D01*
X110109500Y-92334578D01*
X108965318Y-92334578D01*
X108988495Y-92311401D01*
X109124035Y-92117830D01*
X109223903Y-91903663D01*
X109285063Y-91675408D01*
X109305659Y-91440000D01*
X109285063Y-91204592D01*
X109223903Y-90976337D01*
X109124035Y-90762171D01*
X108988495Y-90568599D01*
X108821401Y-90401505D01*
X108816968Y-90398401D01*
X108816961Y-90398395D01*
X108635842Y-90271575D01*
X108596976Y-90227257D01*
X108582965Y-90170000D01*
X108596976Y-90112743D01*
X108635842Y-90068425D01*
X108816961Y-89941604D01*
X108816961Y-89941603D01*
X108821401Y-89938495D01*
X108988495Y-89771401D01*
X109071136Y-89653376D01*
X109115454Y-89614511D01*
X109172711Y-89600500D01*
X109195079Y-89600500D01*
X109202566Y-89600725D01*
X109262606Y-89604358D01*
X109321782Y-89593513D01*
X109329181Y-89592387D01*
X109388872Y-89585140D01*
X109398332Y-89581551D01*
X109419959Y-89575522D01*
X109429932Y-89573695D01*
X109484808Y-89548996D01*
X109491673Y-89546152D01*
X109547930Y-89524818D01*
X109556264Y-89519064D01*
X109575821Y-89508034D01*
X109585057Y-89503878D01*
X109632413Y-89466775D01*
X109638420Y-89462355D01*
X109687929Y-89428183D01*
X109727822Y-89383151D01*
X109732924Y-89377731D01*
X112633838Y-86476817D01*
X112674066Y-86449938D01*
X112721519Y-86440499D01*
X113924561Y-86440499D01*
X113927872Y-86440499D01*
X113987483Y-86434091D01*
X114122331Y-86383796D01*
X114225689Y-86306421D01*
X114273640Y-86284523D01*
X114326357Y-86284523D01*
X114374310Y-86306422D01*
X114438675Y-86354605D01*
X114477669Y-86383796D01*
X114612517Y-86434091D01*
X114672127Y-86440500D01*
X116467872Y-86440499D01*
X116527483Y-86434091D01*
X116662331Y-86383796D01*
X116766105Y-86306110D01*
X116814057Y-86284211D01*
X116866774Y-86284211D01*
X116914727Y-86306110D01*
X117010810Y-86378037D01*
X117026222Y-86386452D01*
X117145358Y-86430888D01*
X117160332Y-86434426D01*
X117208885Y-86439646D01*
X117215482Y-86440000D01*
X117843674Y-86440000D01*
X117856549Y-86436549D01*
X117860000Y-86423674D01*
X117860000Y-84064000D01*
X117876613Y-84002000D01*
X117922000Y-83956613D01*
X117984000Y-83940000D01*
X118236000Y-83940000D01*
X118298000Y-83956613D01*
X118343387Y-84002000D01*
X118360000Y-84064000D01*
X118360000Y-86423674D01*
X118363450Y-86436549D01*
X118376326Y-86440000D01*
X119004518Y-86440000D01*
X119011114Y-86439646D01*
X119059667Y-86434426D01*
X119074641Y-86430888D01*
X119193777Y-86386452D01*
X119209189Y-86378037D01*
X119305272Y-86306110D01*
X119353225Y-86284211D01*
X119405941Y-86284211D01*
X119453894Y-86306110D01*
X119557669Y-86383796D01*
X119692517Y-86434091D01*
X119752127Y-86440500D01*
X121547872Y-86440499D01*
X121607483Y-86434091D01*
X121742331Y-86383796D01*
X121845689Y-86306421D01*
X121893640Y-86284523D01*
X121946357Y-86284523D01*
X121994310Y-86306422D01*
X122058675Y-86354605D01*
X122097669Y-86383796D01*
X122232517Y-86434091D01*
X122292127Y-86440500D01*
X124087872Y-86440499D01*
X124147483Y-86434091D01*
X124282331Y-86383796D01*
X124385689Y-86306421D01*
X124433640Y-86284523D01*
X124486357Y-86284523D01*
X124534310Y-86306422D01*
X124598675Y-86354605D01*
X124637669Y-86383796D01*
X124772517Y-86434091D01*
X124832127Y-86440500D01*
X126627872Y-86440499D01*
X126687483Y-86434091D01*
X126822331Y-86383796D01*
X126925689Y-86306421D01*
X126973640Y-86284523D01*
X127026357Y-86284523D01*
X127074310Y-86306422D01*
X127138675Y-86354605D01*
X127177669Y-86383796D01*
X127312517Y-86434091D01*
X127372127Y-86440500D01*
X129167872Y-86440499D01*
X129227483Y-86434091D01*
X129362331Y-86383796D01*
X129466105Y-86306110D01*
X129514057Y-86284211D01*
X129566774Y-86284211D01*
X129614727Y-86306110D01*
X129710810Y-86378037D01*
X129726222Y-86386452D01*
X129845358Y-86430888D01*
X129860332Y-86434426D01*
X129908885Y-86439646D01*
X129915482Y-86440000D01*
X130543674Y-86440000D01*
X130556549Y-86436549D01*
X130560000Y-86423674D01*
X130560000Y-81956326D01*
X130556549Y-81943450D01*
X130543674Y-81940000D01*
X129915482Y-81940000D01*
X129908885Y-81940353D01*
X129860332Y-81945573D01*
X129845358Y-81949111D01*
X129726222Y-81993547D01*
X129710806Y-82001964D01*
X129614726Y-82073889D01*
X129566774Y-82095788D01*
X129514057Y-82095788D01*
X129466105Y-82073889D01*
X129369431Y-82001519D01*
X129369430Y-82001518D01*
X129362331Y-81996204D01*
X129291965Y-81969959D01*
X129234752Y-81948620D01*
X129234750Y-81948619D01*
X129227483Y-81945909D01*
X129181241Y-81940937D01*
X129124997Y-81920340D01*
X129084968Y-81875777D01*
X129070500Y-81817649D01*
X129070500Y-81266940D01*
X129079939Y-81219487D01*
X129106819Y-81179259D01*
X129911648Y-80374430D01*
X130899839Y-79386238D01*
X130944185Y-79357739D01*
X130996362Y-79350237D01*
X131060000Y-79354789D01*
X131131962Y-79349642D01*
X131274277Y-79329180D01*
X131344773Y-79313844D01*
X131412370Y-79288632D01*
X131543155Y-79228904D01*
X131664226Y-79151097D01*
X131772887Y-79056943D01*
X131823903Y-79005927D01*
X131867139Y-78948170D01*
X131944871Y-78827216D01*
X131967207Y-78778305D01*
X132001506Y-78733826D01*
X132051914Y-78709042D01*
X132108086Y-78709042D01*
X132158494Y-78733826D01*
X132192792Y-78778305D01*
X132215129Y-78827216D01*
X132217519Y-78830936D01*
X132217523Y-78830942D01*
X132291665Y-78946309D01*
X132292861Y-78948170D01*
X132336097Y-79005927D01*
X132387113Y-79056943D01*
X132495774Y-79151097D01*
X132499498Y-79153490D01*
X132499813Y-79153726D01*
X132536385Y-79197488D01*
X132549500Y-79252991D01*
X132549500Y-81817649D01*
X132535031Y-81875777D01*
X132495002Y-81920340D01*
X132438753Y-81940938D01*
X132429926Y-81941887D01*
X132400231Y-81945079D01*
X132400225Y-81945080D01*
X132392517Y-81945909D01*
X132385252Y-81948618D01*
X132385246Y-81948620D01*
X132265980Y-81993104D01*
X132265978Y-81993104D01*
X132257669Y-81996204D01*
X132250572Y-82001516D01*
X132250564Y-82001521D01*
X132153893Y-82073889D01*
X132105941Y-82095788D01*
X132053225Y-82095788D01*
X132005272Y-82073889D01*
X131909189Y-82001962D01*
X131893777Y-81993547D01*
X131774641Y-81949111D01*
X131759667Y-81945573D01*
X131711114Y-81940353D01*
X131704518Y-81940000D01*
X131076326Y-81940000D01*
X131063450Y-81943450D01*
X131060000Y-81956326D01*
X131060000Y-86423674D01*
X131063450Y-86436549D01*
X131076326Y-86440000D01*
X131704518Y-86440000D01*
X131711114Y-86439646D01*
X131759667Y-86434426D01*
X131774641Y-86430888D01*
X131893777Y-86386452D01*
X131909189Y-86378037D01*
X132005272Y-86306110D01*
X132053225Y-86284211D01*
X132105941Y-86284211D01*
X132153894Y-86306110D01*
X132257669Y-86383796D01*
X132392517Y-86434091D01*
X132452127Y-86440500D01*
X134247872Y-86440499D01*
X134307483Y-86434091D01*
X134442331Y-86383796D01*
X134545689Y-86306421D01*
X134593642Y-86284523D01*
X134646358Y-86284523D01*
X134694310Y-86306421D01*
X134797669Y-86383796D01*
X134932517Y-86434091D01*
X134992127Y-86440500D01*
X136787872Y-86440499D01*
X136847483Y-86434091D01*
X136982331Y-86383796D01*
X137085689Y-86306421D01*
X137133642Y-86284523D01*
X137186358Y-86284523D01*
X137234310Y-86306421D01*
X137337669Y-86383796D01*
X137472517Y-86434091D01*
X137532127Y-86440500D01*
X139327872Y-86440499D01*
X139387483Y-86434091D01*
X139522331Y-86383796D01*
X139625689Y-86306421D01*
X139673642Y-86284523D01*
X139726358Y-86284523D01*
X139774310Y-86306421D01*
X139877669Y-86383796D01*
X140012517Y-86434091D01*
X140072127Y-86440500D01*
X141867872Y-86440499D01*
X141927483Y-86434091D01*
X142062331Y-86383796D01*
X142166105Y-86306110D01*
X142214057Y-86284211D01*
X142266774Y-86284211D01*
X142314727Y-86306110D01*
X142410810Y-86378037D01*
X142426222Y-86386452D01*
X142545358Y-86430888D01*
X142560332Y-86434426D01*
X142608885Y-86439646D01*
X142615482Y-86440000D01*
X143243674Y-86440000D01*
X143256549Y-86436549D01*
X143260000Y-86423674D01*
X143260000Y-81956326D01*
X143256549Y-81943450D01*
X143243674Y-81940000D01*
X142615482Y-81940000D01*
X142608885Y-81940353D01*
X142560332Y-81945573D01*
X142545358Y-81949111D01*
X142426222Y-81993547D01*
X142410806Y-82001964D01*
X142314726Y-82073889D01*
X142266774Y-82095788D01*
X142214057Y-82095788D01*
X142166105Y-82073889D01*
X142069431Y-82001519D01*
X142069430Y-82001518D01*
X142062331Y-81996204D01*
X141991965Y-81969959D01*
X141934752Y-81948620D01*
X141934750Y-81948619D01*
X141927483Y-81945909D01*
X141881241Y-81940937D01*
X141824997Y-81920340D01*
X141784968Y-81875777D01*
X141770500Y-81817649D01*
X141770500Y-79252991D01*
X141783615Y-79197488D01*
X141820187Y-79153726D01*
X141820501Y-79153490D01*
X141824226Y-79151097D01*
X141932887Y-79056943D01*
X141983903Y-79005927D01*
X142027139Y-78948170D01*
X142104871Y-78827216D01*
X142127207Y-78778305D01*
X142161506Y-78733826D01*
X142211914Y-78709042D01*
X142268086Y-78709042D01*
X142318494Y-78733826D01*
X142352792Y-78778305D01*
X142375129Y-78827216D01*
X142377519Y-78830936D01*
X142377523Y-78830942D01*
X142451665Y-78946309D01*
X142452861Y-78948170D01*
X142496097Y-79005927D01*
X142547113Y-79056943D01*
X142655774Y-79151097D01*
X142776845Y-79228904D01*
X142907630Y-79288632D01*
X142975227Y-79313844D01*
X143045723Y-79329180D01*
X143188038Y-79349642D01*
X143260000Y-79354789D01*
X143323636Y-79350237D01*
X143375814Y-79357739D01*
X143420162Y-79386240D01*
X145213181Y-81179259D01*
X145240061Y-81219487D01*
X145249500Y-81266940D01*
X145249500Y-81817649D01*
X145235031Y-81875777D01*
X145195002Y-81920340D01*
X145138753Y-81940938D01*
X145129926Y-81941887D01*
X145100231Y-81945079D01*
X145100225Y-81945080D01*
X145092517Y-81945909D01*
X145085252Y-81948618D01*
X145085246Y-81948620D01*
X144965980Y-81993104D01*
X144965978Y-81993104D01*
X144957669Y-81996204D01*
X144950572Y-82001516D01*
X144950564Y-82001521D01*
X144853893Y-82073889D01*
X144805941Y-82095788D01*
X144753225Y-82095788D01*
X144705272Y-82073889D01*
X144609189Y-82001962D01*
X144593777Y-81993547D01*
X144474641Y-81949111D01*
X144459667Y-81945573D01*
X144411114Y-81940353D01*
X144404518Y-81940000D01*
X143776326Y-81940000D01*
X143763450Y-81943450D01*
X143760000Y-81956326D01*
X143760000Y-86423674D01*
X143763450Y-86436549D01*
X143776326Y-86440000D01*
X144404518Y-86440000D01*
X144411114Y-86439646D01*
X144459667Y-86434426D01*
X144474641Y-86430888D01*
X144593777Y-86386452D01*
X144609189Y-86378037D01*
X144705272Y-86306110D01*
X144753225Y-86284211D01*
X144805941Y-86284211D01*
X144853894Y-86306110D01*
X144957669Y-86383796D01*
X145092517Y-86434091D01*
X145152127Y-86440500D01*
X146947872Y-86440499D01*
X147007483Y-86434091D01*
X147142331Y-86383796D01*
X147245689Y-86306421D01*
X147293642Y-86284523D01*
X147346358Y-86284523D01*
X147394310Y-86306421D01*
X147497669Y-86383796D01*
X147632517Y-86434091D01*
X147692127Y-86440500D01*
X149487872Y-86440499D01*
X149547483Y-86434091D01*
X149682331Y-86383796D01*
X149785689Y-86306421D01*
X149833642Y-86284523D01*
X149886358Y-86284523D01*
X149934310Y-86306421D01*
X150037669Y-86383796D01*
X150172517Y-86434091D01*
X150232127Y-86440500D01*
X152027872Y-86440499D01*
X152087483Y-86434091D01*
X152222331Y-86383796D01*
X152325689Y-86306421D01*
X152373642Y-86284523D01*
X152426358Y-86284523D01*
X152474310Y-86306421D01*
X152577669Y-86383796D01*
X152712517Y-86434091D01*
X152772127Y-86440500D01*
X154567872Y-86440499D01*
X154627483Y-86434091D01*
X154762331Y-86383796D01*
X154866105Y-86306110D01*
X154914057Y-86284211D01*
X154966774Y-86284211D01*
X155014727Y-86306110D01*
X155110810Y-86378037D01*
X155126222Y-86386452D01*
X155245358Y-86430888D01*
X155260332Y-86434426D01*
X155308885Y-86439646D01*
X155315482Y-86440000D01*
X155943674Y-86440000D01*
X155956549Y-86436549D01*
X155960000Y-86423674D01*
X155960000Y-81956326D01*
X155956549Y-81943450D01*
X155943674Y-81940000D01*
X155315482Y-81940000D01*
X155308885Y-81940353D01*
X155260332Y-81945573D01*
X155245358Y-81949111D01*
X155126222Y-81993547D01*
X155110806Y-82001964D01*
X155014726Y-82073889D01*
X154966774Y-82095788D01*
X154914057Y-82095788D01*
X154866105Y-82073889D01*
X154769431Y-82001519D01*
X154769430Y-82001518D01*
X154762331Y-81996204D01*
X154691965Y-81969959D01*
X154634752Y-81948620D01*
X154634750Y-81948619D01*
X154627483Y-81945909D01*
X154581241Y-81940937D01*
X154524997Y-81920340D01*
X154484968Y-81875777D01*
X154470500Y-81817649D01*
X154470500Y-80800766D01*
X154470500Y-80793805D01*
X154461980Y-80756479D01*
X154459655Y-80742800D01*
X154455368Y-80704745D01*
X154442728Y-80668623D01*
X154442724Y-80668610D01*
X154438875Y-80655249D01*
X154438452Y-80653396D01*
X154430359Y-80617939D01*
X154413750Y-80583450D01*
X154408433Y-80570613D01*
X154398088Y-80541048D01*
X154398087Y-80541047D01*
X154395789Y-80534478D01*
X154375418Y-80502058D01*
X154368694Y-80489890D01*
X154355113Y-80461688D01*
X154355112Y-80461687D01*
X154352091Y-80455413D01*
X154328223Y-80425484D01*
X154320177Y-80414143D01*
X154318210Y-80411013D01*
X154299816Y-80381738D01*
X154172262Y-80254184D01*
X152421943Y-78503865D01*
X152393383Y-78459357D01*
X152387226Y-78415889D01*
X152385647Y-78415889D01*
X152385647Y-77848053D01*
X152385647Y-77844000D01*
X152368417Y-77713129D01*
X152370797Y-77712816D01*
X152370797Y-77675184D01*
X152368417Y-77674871D01*
X152372781Y-77641724D01*
X152385647Y-77544000D01*
X152385647Y-76972111D01*
X152365165Y-76829655D01*
X152324658Y-76691700D01*
X152264871Y-76560784D01*
X152187139Y-76439830D01*
X152143903Y-76382073D01*
X152092887Y-76331057D01*
X151991839Y-76243500D01*
X151987580Y-76239809D01*
X151987578Y-76239807D01*
X151984226Y-76236903D01*
X151979804Y-76234061D01*
X151866876Y-76161487D01*
X151866872Y-76161485D01*
X151863155Y-76159096D01*
X151859133Y-76157259D01*
X151859129Y-76157257D01*
X151734382Y-76100287D01*
X151732370Y-76099368D01*
X151730302Y-76098596D01*
X151730298Y-76098595D01*
X151692877Y-76084638D01*
X151664773Y-76074156D01*
X151660455Y-76073216D01*
X151660446Y-76073214D01*
X151596430Y-76059288D01*
X151596419Y-76059286D01*
X151594277Y-76058820D01*
X151592112Y-76058508D01*
X151592097Y-76058506D01*
X151454155Y-76038673D01*
X151454146Y-76038672D01*
X151451962Y-76038358D01*
X151449765Y-76038200D01*
X151449748Y-76038199D01*
X151384418Y-76033527D01*
X151380000Y-76033211D01*
X151375582Y-76033527D01*
X151312526Y-76038037D01*
X151303680Y-76038353D01*
X150956320Y-76038353D01*
X150947474Y-76038037D01*
X150884418Y-76033527D01*
X150880000Y-76033211D01*
X150875582Y-76033527D01*
X150810251Y-76038199D01*
X150810231Y-76038201D01*
X150808038Y-76038358D01*
X150805856Y-76038671D01*
X150805844Y-76038673D01*
X150667902Y-76058506D01*
X150667882Y-76058509D01*
X150665723Y-76058820D01*
X150663584Y-76059285D01*
X150663569Y-76059288D01*
X150599553Y-76073214D01*
X150599541Y-76073217D01*
X150595227Y-76074156D01*
X150591080Y-76075702D01*
X150591079Y-76075703D01*
X150529701Y-76098595D01*
X150529687Y-76098600D01*
X150527630Y-76099368D01*
X150525624Y-76100283D01*
X150525617Y-76100287D01*
X150400870Y-76157257D01*
X150400860Y-76157262D01*
X150396845Y-76159096D01*
X150393132Y-76161481D01*
X150393123Y-76161487D01*
X150296138Y-76223816D01*
X150229099Y-76243500D01*
X149490901Y-76243500D01*
X149423862Y-76223816D01*
X149326876Y-76161487D01*
X149326872Y-76161485D01*
X149323155Y-76159096D01*
X149319133Y-76157259D01*
X149319129Y-76157257D01*
X149194382Y-76100287D01*
X149192370Y-76099368D01*
X149190302Y-76098596D01*
X149190298Y-76098595D01*
X149152877Y-76084638D01*
X149124773Y-76074156D01*
X149120455Y-76073216D01*
X149120446Y-76073214D01*
X149056430Y-76059288D01*
X149056419Y-76059286D01*
X149054277Y-76058820D01*
X149052112Y-76058508D01*
X149052097Y-76058506D01*
X148914155Y-76038673D01*
X148914146Y-76038672D01*
X148911962Y-76038358D01*
X148909765Y-76038200D01*
X148909748Y-76038199D01*
X148844418Y-76033527D01*
X148840000Y-76033211D01*
X148835582Y-76033527D01*
X148772526Y-76038037D01*
X148763680Y-76038353D01*
X148416320Y-76038353D01*
X148407474Y-76038037D01*
X148344418Y-76033527D01*
X148340000Y-76033211D01*
X148335582Y-76033527D01*
X148270251Y-76038199D01*
X148270231Y-76038201D01*
X148268038Y-76038358D01*
X148265856Y-76038671D01*
X148265844Y-76038673D01*
X148127902Y-76058506D01*
X148127882Y-76058509D01*
X148125723Y-76058820D01*
X148123584Y-76059285D01*
X148123569Y-76059288D01*
X148059553Y-76073214D01*
X148059541Y-76073217D01*
X148055227Y-76074156D01*
X148051080Y-76075702D01*
X148051079Y-76075703D01*
X147989701Y-76098595D01*
X147989687Y-76098600D01*
X147987630Y-76099368D01*
X147985624Y-76100283D01*
X147985617Y-76100287D01*
X147860870Y-76157257D01*
X147860860Y-76157262D01*
X147856845Y-76159096D01*
X147853132Y-76161481D01*
X147853123Y-76161487D01*
X147756138Y-76223816D01*
X147689099Y-76243500D01*
X146950901Y-76243500D01*
X146883862Y-76223816D01*
X146786876Y-76161487D01*
X146786872Y-76161485D01*
X146783155Y-76159096D01*
X146779133Y-76157259D01*
X146779129Y-76157257D01*
X146654382Y-76100287D01*
X146652370Y-76099368D01*
X146650302Y-76098596D01*
X146650298Y-76098595D01*
X146612877Y-76084638D01*
X146584773Y-76074156D01*
X146580455Y-76073216D01*
X146580446Y-76073214D01*
X146516430Y-76059288D01*
X146516419Y-76059286D01*
X146514277Y-76058820D01*
X146512112Y-76058508D01*
X146512097Y-76058506D01*
X146374155Y-76038673D01*
X146374146Y-76038672D01*
X146371962Y-76038358D01*
X146369765Y-76038200D01*
X146369748Y-76038199D01*
X146304418Y-76033527D01*
X146300000Y-76033211D01*
X146295582Y-76033527D01*
X146232526Y-76038037D01*
X146223680Y-76038353D01*
X145876320Y-76038353D01*
X145867474Y-76038037D01*
X145804418Y-76033527D01*
X145800000Y-76033211D01*
X145795582Y-76033527D01*
X145730251Y-76038199D01*
X145730231Y-76038201D01*
X145728038Y-76038358D01*
X145725856Y-76038671D01*
X145725844Y-76038673D01*
X145587902Y-76058506D01*
X145587882Y-76058509D01*
X145585723Y-76058820D01*
X145583584Y-76059285D01*
X145583569Y-76059288D01*
X145519553Y-76073214D01*
X145519541Y-76073217D01*
X145515227Y-76074156D01*
X145511080Y-76075702D01*
X145511079Y-76075703D01*
X145449701Y-76098595D01*
X145449687Y-76098600D01*
X145447630Y-76099368D01*
X145445624Y-76100283D01*
X145445617Y-76100287D01*
X145320870Y-76157257D01*
X145320860Y-76157262D01*
X145316845Y-76159096D01*
X145313132Y-76161481D01*
X145313123Y-76161487D01*
X145216138Y-76223816D01*
X145149099Y-76243500D01*
X144410901Y-76243500D01*
X144343862Y-76223816D01*
X144246876Y-76161487D01*
X144246872Y-76161485D01*
X144243155Y-76159096D01*
X144239133Y-76157259D01*
X144239129Y-76157257D01*
X144114382Y-76100287D01*
X144112370Y-76099368D01*
X144110302Y-76098596D01*
X144110298Y-76098595D01*
X144072877Y-76084638D01*
X144044773Y-76074156D01*
X144040455Y-76073216D01*
X144040446Y-76073214D01*
X143976430Y-76059288D01*
X143976419Y-76059286D01*
X143974277Y-76058820D01*
X143972112Y-76058508D01*
X143972097Y-76058506D01*
X143834155Y-76038673D01*
X143834146Y-76038672D01*
X143831962Y-76038358D01*
X143829765Y-76038200D01*
X143829748Y-76038199D01*
X143764418Y-76033527D01*
X143760000Y-76033211D01*
X143755582Y-76033527D01*
X143692526Y-76038037D01*
X143683680Y-76038353D01*
X143336320Y-76038353D01*
X143327474Y-76038037D01*
X143264418Y-76033527D01*
X143260000Y-76033211D01*
X143255582Y-76033527D01*
X143190251Y-76038199D01*
X143190231Y-76038201D01*
X143188038Y-76038358D01*
X143185856Y-76038671D01*
X143185844Y-76038673D01*
X143047902Y-76058506D01*
X143047882Y-76058509D01*
X143045723Y-76058820D01*
X143043584Y-76059285D01*
X143043569Y-76059288D01*
X142979553Y-76073214D01*
X142979541Y-76073217D01*
X142975227Y-76074156D01*
X142971080Y-76075702D01*
X142971079Y-76075703D01*
X142909701Y-76098595D01*
X142909687Y-76098600D01*
X142907630Y-76099368D01*
X142905624Y-76100283D01*
X142905617Y-76100287D01*
X142780870Y-76157257D01*
X142780860Y-76157262D01*
X142776845Y-76159096D01*
X142773132Y-76161481D01*
X142773123Y-76161487D01*
X142676138Y-76223816D01*
X142609099Y-76243500D01*
X141870901Y-76243500D01*
X141803862Y-76223816D01*
X141706876Y-76161487D01*
X141706872Y-76161485D01*
X141703155Y-76159096D01*
X141699133Y-76157259D01*
X141699129Y-76157257D01*
X141574382Y-76100287D01*
X141572370Y-76099368D01*
X141570302Y-76098596D01*
X141570298Y-76098595D01*
X141532877Y-76084638D01*
X141504773Y-76074156D01*
X141500455Y-76073216D01*
X141500446Y-76073214D01*
X141436430Y-76059288D01*
X141436419Y-76059286D01*
X141434277Y-76058820D01*
X141432112Y-76058508D01*
X141432097Y-76058506D01*
X141294155Y-76038673D01*
X141294146Y-76038672D01*
X141291962Y-76038358D01*
X141289765Y-76038200D01*
X141289748Y-76038199D01*
X141224418Y-76033527D01*
X141220000Y-76033211D01*
X141215582Y-76033527D01*
X141152526Y-76038037D01*
X141143680Y-76038353D01*
X140796320Y-76038353D01*
X140787474Y-76038037D01*
X140724418Y-76033527D01*
X140720000Y-76033211D01*
X140715582Y-76033527D01*
X140650251Y-76038199D01*
X140650231Y-76038201D01*
X140648038Y-76038358D01*
X140645856Y-76038671D01*
X140645844Y-76038673D01*
X140507902Y-76058506D01*
X140507882Y-76058509D01*
X140505723Y-76058820D01*
X140503584Y-76059285D01*
X140503569Y-76059288D01*
X140439553Y-76073214D01*
X140439541Y-76073217D01*
X140435227Y-76074156D01*
X140431080Y-76075702D01*
X140431079Y-76075703D01*
X140369701Y-76098595D01*
X140369687Y-76098600D01*
X140367630Y-76099368D01*
X140365624Y-76100283D01*
X140365617Y-76100287D01*
X140240870Y-76157257D01*
X140240860Y-76157262D01*
X140236845Y-76159096D01*
X140233132Y-76161481D01*
X140233123Y-76161487D01*
X140136138Y-76223816D01*
X140069099Y-76243500D01*
X139330901Y-76243500D01*
X139263862Y-76223816D01*
X139166876Y-76161487D01*
X139166872Y-76161485D01*
X139163155Y-76159096D01*
X139159133Y-76157259D01*
X139159129Y-76157257D01*
X139034382Y-76100287D01*
X139032370Y-76099368D01*
X139030302Y-76098596D01*
X139030298Y-76098595D01*
X138992877Y-76084638D01*
X138964773Y-76074156D01*
X138960455Y-76073216D01*
X138960446Y-76073214D01*
X138896430Y-76059288D01*
X138896419Y-76059286D01*
X138894277Y-76058820D01*
X138892112Y-76058508D01*
X138892097Y-76058506D01*
X138754155Y-76038673D01*
X138754146Y-76038672D01*
X138751962Y-76038358D01*
X138749765Y-76038200D01*
X138749748Y-76038199D01*
X138684418Y-76033527D01*
X138680000Y-76033211D01*
X138675582Y-76033527D01*
X138612526Y-76038037D01*
X138603680Y-76038353D01*
X138256320Y-76038353D01*
X138247474Y-76038037D01*
X138184418Y-76033527D01*
X138180000Y-76033211D01*
X138175582Y-76033527D01*
X138110251Y-76038199D01*
X138110231Y-76038201D01*
X138108038Y-76038358D01*
X138105856Y-76038671D01*
X138105844Y-76038673D01*
X137967902Y-76058506D01*
X137967882Y-76058509D01*
X137965723Y-76058820D01*
X137963584Y-76059285D01*
X137963569Y-76059288D01*
X137899553Y-76073214D01*
X137899541Y-76073217D01*
X137895227Y-76074156D01*
X137891080Y-76075702D01*
X137891079Y-76075703D01*
X137829701Y-76098595D01*
X137829687Y-76098600D01*
X137827630Y-76099368D01*
X137825624Y-76100283D01*
X137825617Y-76100287D01*
X137700870Y-76157257D01*
X137700860Y-76157262D01*
X137696845Y-76159096D01*
X137693132Y-76161481D01*
X137693123Y-76161487D01*
X137596138Y-76223816D01*
X137529099Y-76243500D01*
X136790901Y-76243500D01*
X136723862Y-76223816D01*
X136626876Y-76161487D01*
X136626872Y-76161485D01*
X136623155Y-76159096D01*
X136619133Y-76157259D01*
X136619129Y-76157257D01*
X136494382Y-76100287D01*
X136492370Y-76099368D01*
X136490302Y-76098596D01*
X136490298Y-76098595D01*
X136452877Y-76084638D01*
X136424773Y-76074156D01*
X136420455Y-76073216D01*
X136420446Y-76073214D01*
X136356430Y-76059288D01*
X136356419Y-76059286D01*
X136354277Y-76058820D01*
X136352112Y-76058508D01*
X136352097Y-76058506D01*
X136214155Y-76038673D01*
X136214146Y-76038672D01*
X136211962Y-76038358D01*
X136209765Y-76038200D01*
X136209748Y-76038199D01*
X136144418Y-76033527D01*
X136140000Y-76033211D01*
X136135582Y-76033527D01*
X136072526Y-76038037D01*
X136063680Y-76038353D01*
X135716320Y-76038353D01*
X135707474Y-76038037D01*
X135644418Y-76033527D01*
X135640000Y-76033211D01*
X135635582Y-76033527D01*
X135570251Y-76038199D01*
X135570231Y-76038201D01*
X135568038Y-76038358D01*
X135565856Y-76038671D01*
X135565844Y-76038673D01*
X135427902Y-76058506D01*
X135427882Y-76058509D01*
X135425723Y-76058820D01*
X135423584Y-76059285D01*
X135423569Y-76059288D01*
X135359553Y-76073214D01*
X135359541Y-76073217D01*
X135355227Y-76074156D01*
X135351080Y-76075702D01*
X135351079Y-76075703D01*
X135289701Y-76098595D01*
X135289687Y-76098600D01*
X135287630Y-76099368D01*
X135285624Y-76100283D01*
X135285617Y-76100287D01*
X135160870Y-76157257D01*
X135160860Y-76157262D01*
X135156845Y-76159096D01*
X135153132Y-76161481D01*
X135153123Y-76161487D01*
X135056138Y-76223816D01*
X134989099Y-76243500D01*
X134250901Y-76243500D01*
X134183862Y-76223816D01*
X134086876Y-76161487D01*
X134086872Y-76161485D01*
X134083155Y-76159096D01*
X134079133Y-76157259D01*
X134079129Y-76157257D01*
X133954382Y-76100287D01*
X133952370Y-76099368D01*
X133950302Y-76098596D01*
X133950298Y-76098595D01*
X133912877Y-76084638D01*
X133884773Y-76074156D01*
X133880455Y-76073216D01*
X133880446Y-76073214D01*
X133816430Y-76059288D01*
X133816419Y-76059286D01*
X133814277Y-76058820D01*
X133812112Y-76058508D01*
X133812097Y-76058506D01*
X133674155Y-76038673D01*
X133674146Y-76038672D01*
X133671962Y-76038358D01*
X133669765Y-76038200D01*
X133669748Y-76038199D01*
X133604418Y-76033527D01*
X133600000Y-76033211D01*
X133595582Y-76033527D01*
X133532526Y-76038037D01*
X133523680Y-76038353D01*
X133176320Y-76038353D01*
X133167474Y-76038037D01*
X133104418Y-76033527D01*
X133100000Y-76033211D01*
X133095582Y-76033527D01*
X133030251Y-76038199D01*
X133030231Y-76038201D01*
X133028038Y-76038358D01*
X133025856Y-76038671D01*
X133025844Y-76038673D01*
X132887902Y-76058506D01*
X132887882Y-76058509D01*
X132885723Y-76058820D01*
X132883584Y-76059285D01*
X132883569Y-76059288D01*
X132819553Y-76073214D01*
X132819541Y-76073217D01*
X132815227Y-76074156D01*
X132811080Y-76075702D01*
X132811079Y-76075703D01*
X132749701Y-76098595D01*
X132749687Y-76098600D01*
X132747630Y-76099368D01*
X132745624Y-76100283D01*
X132745617Y-76100287D01*
X132620870Y-76157257D01*
X132620860Y-76157262D01*
X132616845Y-76159096D01*
X132613132Y-76161481D01*
X132613123Y-76161487D01*
X132516138Y-76223816D01*
X132449099Y-76243500D01*
X131710901Y-76243500D01*
X131643862Y-76223816D01*
X131546876Y-76161487D01*
X131546872Y-76161485D01*
X131543155Y-76159096D01*
X131539133Y-76157259D01*
X131539129Y-76157257D01*
X131414382Y-76100287D01*
X131412370Y-76099368D01*
X131410302Y-76098596D01*
X131410298Y-76098595D01*
X131372877Y-76084638D01*
X131344773Y-76074156D01*
X131340455Y-76073216D01*
X131340446Y-76073214D01*
X131276430Y-76059288D01*
X131276419Y-76059286D01*
X131274277Y-76058820D01*
X131272112Y-76058508D01*
X131272097Y-76058506D01*
X131134155Y-76038673D01*
X131134146Y-76038672D01*
X131131962Y-76038358D01*
X131129765Y-76038200D01*
X131129748Y-76038199D01*
X131064418Y-76033527D01*
X131060000Y-76033211D01*
X131055582Y-76033527D01*
X130992526Y-76038037D01*
X130983680Y-76038353D01*
X130636320Y-76038353D01*
X130627474Y-76038037D01*
X130564418Y-76033527D01*
X130560000Y-76033211D01*
X130555582Y-76033527D01*
X130490251Y-76038199D01*
X130490231Y-76038201D01*
X130488038Y-76038358D01*
X130485856Y-76038671D01*
X130485844Y-76038673D01*
X130347902Y-76058506D01*
X130347882Y-76058509D01*
X130345723Y-76058820D01*
X130343584Y-76059285D01*
X130343569Y-76059288D01*
X130279553Y-76073214D01*
X130279541Y-76073217D01*
X130275227Y-76074156D01*
X130271080Y-76075702D01*
X130271079Y-76075703D01*
X130209701Y-76098595D01*
X130209687Y-76098600D01*
X130207630Y-76099368D01*
X130205624Y-76100283D01*
X130205617Y-76100287D01*
X130080870Y-76157257D01*
X130080860Y-76157262D01*
X130076845Y-76159096D01*
X130073132Y-76161481D01*
X130073123Y-76161487D01*
X129976138Y-76223816D01*
X129909099Y-76243500D01*
X129170901Y-76243500D01*
X129103862Y-76223816D01*
X129006876Y-76161487D01*
X129006872Y-76161485D01*
X129003155Y-76159096D01*
X128999133Y-76157259D01*
X128999129Y-76157257D01*
X128874382Y-76100287D01*
X128872370Y-76099368D01*
X128870302Y-76098596D01*
X128870298Y-76098595D01*
X128832877Y-76084638D01*
X128804773Y-76074156D01*
X128800455Y-76073216D01*
X128800446Y-76073214D01*
X128736430Y-76059288D01*
X128736419Y-76059286D01*
X128734277Y-76058820D01*
X128732112Y-76058508D01*
X128732097Y-76058506D01*
X128594155Y-76038673D01*
X128594146Y-76038672D01*
X128591962Y-76038358D01*
X128589765Y-76038200D01*
X128589748Y-76038199D01*
X128524418Y-76033527D01*
X128520000Y-76033211D01*
X128515582Y-76033527D01*
X128452526Y-76038037D01*
X128443680Y-76038353D01*
X128096320Y-76038353D01*
X128087474Y-76038037D01*
X128024418Y-76033527D01*
X128020000Y-76033211D01*
X128015582Y-76033527D01*
X127950251Y-76038199D01*
X127950231Y-76038201D01*
X127948038Y-76038358D01*
X127945856Y-76038671D01*
X127945844Y-76038673D01*
X127807902Y-76058506D01*
X127807882Y-76058509D01*
X127805723Y-76058820D01*
X127803584Y-76059285D01*
X127803569Y-76059288D01*
X127739553Y-76073214D01*
X127739541Y-76073217D01*
X127735227Y-76074156D01*
X127731080Y-76075702D01*
X127731079Y-76075703D01*
X127669701Y-76098595D01*
X127669687Y-76098600D01*
X127667630Y-76099368D01*
X127665624Y-76100283D01*
X127665617Y-76100287D01*
X127540870Y-76157257D01*
X127540860Y-76157262D01*
X127536845Y-76159096D01*
X127533132Y-76161481D01*
X127533123Y-76161487D01*
X127436138Y-76223816D01*
X127369099Y-76243500D01*
X126630901Y-76243500D01*
X126563862Y-76223816D01*
X126466876Y-76161487D01*
X126466872Y-76161485D01*
X126463155Y-76159096D01*
X126459133Y-76157259D01*
X126459129Y-76157257D01*
X126334382Y-76100287D01*
X126332370Y-76099368D01*
X126330302Y-76098596D01*
X126330298Y-76098595D01*
X126292877Y-76084638D01*
X126264773Y-76074156D01*
X126260455Y-76073216D01*
X126260446Y-76073214D01*
X126196430Y-76059288D01*
X126196419Y-76059286D01*
X126194277Y-76058820D01*
X126192112Y-76058508D01*
X126192097Y-76058506D01*
X126054155Y-76038673D01*
X126054146Y-76038672D01*
X126051962Y-76038358D01*
X126049765Y-76038200D01*
X126049748Y-76038199D01*
X125984418Y-76033527D01*
X125980000Y-76033211D01*
X125975582Y-76033527D01*
X125912526Y-76038037D01*
X125903680Y-76038353D01*
X125556320Y-76038353D01*
X125547474Y-76038037D01*
X125484418Y-76033527D01*
X125480000Y-76033211D01*
X125475582Y-76033527D01*
X125410251Y-76038199D01*
X125410231Y-76038201D01*
X125408038Y-76038358D01*
X125405856Y-76038671D01*
X125405844Y-76038673D01*
X125267902Y-76058506D01*
X125267882Y-76058509D01*
X125265723Y-76058820D01*
X125263584Y-76059285D01*
X125263569Y-76059288D01*
X125199553Y-76073214D01*
X125199541Y-76073217D01*
X125195227Y-76074156D01*
X125191080Y-76075702D01*
X125191079Y-76075703D01*
X125129701Y-76098595D01*
X125129687Y-76098600D01*
X125127630Y-76099368D01*
X125125624Y-76100283D01*
X125125617Y-76100287D01*
X125000870Y-76157257D01*
X125000860Y-76157262D01*
X124996845Y-76159096D01*
X124993132Y-76161481D01*
X124993123Y-76161487D01*
X124896138Y-76223816D01*
X124829099Y-76243500D01*
X124090901Y-76243500D01*
X124023862Y-76223816D01*
X123926876Y-76161487D01*
X123926872Y-76161485D01*
X123923155Y-76159096D01*
X123919133Y-76157259D01*
X123919129Y-76157257D01*
X123794382Y-76100287D01*
X123792370Y-76099368D01*
X123790302Y-76098596D01*
X123790298Y-76098595D01*
X123752877Y-76084638D01*
X123724773Y-76074156D01*
X123720455Y-76073216D01*
X123720446Y-76073214D01*
X123656430Y-76059288D01*
X123656419Y-76059286D01*
X123654277Y-76058820D01*
X123652112Y-76058508D01*
X123652097Y-76058506D01*
X123514155Y-76038673D01*
X123514146Y-76038672D01*
X123511962Y-76038358D01*
X123509765Y-76038200D01*
X123509748Y-76038199D01*
X123444418Y-76033527D01*
X123440000Y-76033211D01*
X123435582Y-76033527D01*
X123372526Y-76038037D01*
X123363680Y-76038353D01*
X123016320Y-76038353D01*
X123007474Y-76038037D01*
X122944418Y-76033527D01*
X122940000Y-76033211D01*
X122935582Y-76033527D01*
X122870251Y-76038199D01*
X122870231Y-76038201D01*
X122868038Y-76038358D01*
X122865856Y-76038671D01*
X122865844Y-76038673D01*
X122727902Y-76058506D01*
X122727882Y-76058509D01*
X122725723Y-76058820D01*
X122723584Y-76059285D01*
X122723569Y-76059288D01*
X122659553Y-76073214D01*
X122659541Y-76073217D01*
X122655227Y-76074156D01*
X122651080Y-76075702D01*
X122651079Y-76075703D01*
X122589701Y-76098595D01*
X122589687Y-76098600D01*
X122587630Y-76099368D01*
X122585624Y-76100283D01*
X122585617Y-76100287D01*
X122460870Y-76157257D01*
X122460860Y-76157262D01*
X122456845Y-76159096D01*
X122453132Y-76161481D01*
X122453123Y-76161487D01*
X122356138Y-76223816D01*
X122289099Y-76243500D01*
X121550901Y-76243500D01*
X121483862Y-76223816D01*
X121386876Y-76161487D01*
X121386872Y-76161485D01*
X121383155Y-76159096D01*
X121379133Y-76157259D01*
X121379129Y-76157257D01*
X121254382Y-76100287D01*
X121252370Y-76099368D01*
X121250302Y-76098596D01*
X121250298Y-76098595D01*
X121212877Y-76084638D01*
X121184773Y-76074156D01*
X121180455Y-76073216D01*
X121180446Y-76073214D01*
X121116430Y-76059288D01*
X121116419Y-76059286D01*
X121114277Y-76058820D01*
X121112112Y-76058508D01*
X121112097Y-76058506D01*
X120974155Y-76038673D01*
X120974146Y-76038672D01*
X120971962Y-76038358D01*
X120969765Y-76038200D01*
X120969748Y-76038199D01*
X120904418Y-76033527D01*
X120900000Y-76033211D01*
X120895582Y-76033527D01*
X120832526Y-76038037D01*
X120823680Y-76038353D01*
X120476320Y-76038353D01*
X120467474Y-76038037D01*
X120404418Y-76033527D01*
X120400000Y-76033211D01*
X120395582Y-76033527D01*
X120330251Y-76038199D01*
X120330231Y-76038201D01*
X120328038Y-76038358D01*
X120325856Y-76038671D01*
X120325844Y-76038673D01*
X120187902Y-76058506D01*
X120187882Y-76058509D01*
X120185723Y-76058820D01*
X120183584Y-76059285D01*
X120183569Y-76059288D01*
X120119553Y-76073214D01*
X120119541Y-76073217D01*
X120115227Y-76074156D01*
X120111080Y-76075702D01*
X120111079Y-76075703D01*
X120049701Y-76098595D01*
X120049687Y-76098600D01*
X120047630Y-76099368D01*
X120045624Y-76100283D01*
X120045617Y-76100287D01*
X119920870Y-76157257D01*
X119920860Y-76157262D01*
X119916845Y-76159096D01*
X119913132Y-76161481D01*
X119913123Y-76161487D01*
X119816138Y-76223816D01*
X119749099Y-76243500D01*
X119082939Y-76243500D01*
X119035486Y-76234061D01*
X118995258Y-76207181D01*
X117163326Y-74375248D01*
X158798749Y-74375248D01*
X158806855Y-74386439D01*
X158835717Y-74408903D01*
X158844279Y-74414496D01*
X159053885Y-74527929D01*
X159063239Y-74532032D01*
X159288656Y-74609417D01*
X159298568Y-74611928D01*
X159533643Y-74651155D01*
X159543839Y-74652000D01*
X159782161Y-74652000D01*
X159792356Y-74651155D01*
X160027431Y-74611928D01*
X160037343Y-74609417D01*
X160262760Y-74532032D01*
X160272114Y-74527929D01*
X160481723Y-74414495D01*
X160490281Y-74408903D01*
X160519146Y-74386437D01*
X160527250Y-74375250D01*
X160520589Y-74363142D01*
X159674542Y-73517095D01*
X159663000Y-73510431D01*
X159651457Y-73517095D01*
X158805408Y-74363143D01*
X158798749Y-74375248D01*
X117163326Y-74375248D01*
X116934258Y-74146180D01*
X116904008Y-74096817D01*
X116899466Y-74039101D01*
X116921621Y-73985614D01*
X116965644Y-73948014D01*
X117021939Y-73934499D01*
X117336859Y-73934499D01*
X117340008Y-73934499D01*
X117442797Y-73923999D01*
X117609334Y-73868814D01*
X117758656Y-73776712D01*
X117882712Y-73652656D01*
X117886249Y-73646920D01*
X117929283Y-73612381D01*
X117983316Y-73599987D01*
X118037350Y-73612377D01*
X118080585Y-73647075D01*
X118088788Y-73657449D01*
X118202544Y-73771205D01*
X118213805Y-73780109D01*
X118350733Y-73864567D01*
X118363732Y-73870629D01*
X118516874Y-73921375D01*
X118530041Y-73924194D01*
X118622890Y-73933680D01*
X118629168Y-73934000D01*
X118859674Y-73934000D01*
X118872549Y-73930549D01*
X118876000Y-73917674D01*
X118876000Y-73917673D01*
X119376000Y-73917673D01*
X119379450Y-73930548D01*
X119392326Y-73933999D01*
X119622829Y-73933999D01*
X119629111Y-73933678D01*
X119721959Y-73924194D01*
X119735122Y-73921376D01*
X119888267Y-73870629D01*
X119901266Y-73864567D01*
X120038194Y-73780109D01*
X120049455Y-73771205D01*
X120163205Y-73657455D01*
X120172109Y-73646194D01*
X120256567Y-73509266D01*
X120262629Y-73496267D01*
X120313375Y-73343125D01*
X120316194Y-73329958D01*
X120325680Y-73237109D01*
X120326000Y-73230832D01*
X120326000Y-73187826D01*
X120322549Y-73174950D01*
X120309674Y-73171500D01*
X119392326Y-73171500D01*
X119379450Y-73174950D01*
X119376000Y-73187826D01*
X119376000Y-73917673D01*
X118876000Y-73917673D01*
X118876000Y-73157117D01*
X158158283Y-73157117D01*
X158177962Y-73394618D01*
X158179646Y-73404712D01*
X158238153Y-73635747D01*
X158241472Y-73645414D01*
X158337208Y-73863673D01*
X158342070Y-73872656D01*
X158431999Y-74010304D01*
X158439963Y-74018024D01*
X158449345Y-74012100D01*
X159297904Y-73163542D01*
X159304568Y-73152000D01*
X160021431Y-73152000D01*
X160028095Y-73163542D01*
X160876653Y-74012100D01*
X160886034Y-74018024D01*
X160894002Y-74010299D01*
X160983924Y-73872664D01*
X160988792Y-73863669D01*
X161084527Y-73645414D01*
X161087846Y-73635747D01*
X161146353Y-73404712D01*
X161148037Y-73394618D01*
X161167717Y-73157117D01*
X161167717Y-73146883D01*
X161148037Y-72909381D01*
X161146353Y-72899287D01*
X161087846Y-72668252D01*
X161084527Y-72658585D01*
X160988792Y-72440330D01*
X160983924Y-72431335D01*
X160894002Y-72293699D01*
X160886034Y-72285974D01*
X160876653Y-72291898D01*
X160028095Y-73140457D01*
X160021431Y-73152000D01*
X159304568Y-73152000D01*
X159297904Y-73140457D01*
X158449345Y-72291898D01*
X158439964Y-72285974D01*
X158431997Y-72293699D01*
X158342072Y-72431338D01*
X158337207Y-72440328D01*
X158241472Y-72658585D01*
X158238153Y-72668252D01*
X158179646Y-72899287D01*
X158177962Y-72909381D01*
X158158283Y-73146883D01*
X158158283Y-73157117D01*
X118876000Y-73157117D01*
X118876000Y-72795500D01*
X118892613Y-72733500D01*
X118938000Y-72688113D01*
X119000000Y-72671500D01*
X120309673Y-72671500D01*
X120322548Y-72668049D01*
X120325999Y-72655174D01*
X120325999Y-72612171D01*
X120325678Y-72605888D01*
X120316194Y-72513040D01*
X120313376Y-72499877D01*
X120262629Y-72346732D01*
X120256567Y-72333733D01*
X120172109Y-72196805D01*
X120163205Y-72185544D01*
X120074695Y-72097034D01*
X120042601Y-72041446D01*
X120042601Y-71977259D01*
X120070608Y-71928749D01*
X158798748Y-71928749D01*
X158805408Y-71940855D01*
X159651457Y-72786904D01*
X159663000Y-72793568D01*
X159674542Y-72786904D01*
X160520590Y-71940855D01*
X160527250Y-71928749D01*
X160519143Y-71917559D01*
X160490286Y-71895099D01*
X160481719Y-71889503D01*
X160272114Y-71776070D01*
X160262760Y-71771967D01*
X160037343Y-71694582D01*
X160027431Y-71692071D01*
X159792356Y-71652844D01*
X159782161Y-71652000D01*
X159543839Y-71652000D01*
X159533643Y-71652844D01*
X159298568Y-71692071D01*
X159288656Y-71694582D01*
X159063239Y-71771967D01*
X159053885Y-71776070D01*
X158844276Y-71889504D01*
X158835717Y-71895096D01*
X158806854Y-71917560D01*
X158798748Y-71928749D01*
X120070608Y-71928749D01*
X120074692Y-71921675D01*
X120168712Y-71827656D01*
X120260814Y-71678334D01*
X120315999Y-71511797D01*
X120326500Y-71409009D01*
X120326499Y-70783992D01*
X120315999Y-70681203D01*
X120260814Y-70514666D01*
X120168712Y-70365344D01*
X120044656Y-70241288D01*
X120038515Y-70237500D01*
X120038511Y-70237497D01*
X119901480Y-70152977D01*
X119895334Y-70149186D01*
X119728797Y-70094001D01*
X119722064Y-70093313D01*
X119722059Y-70093312D01*
X119629140Y-70083819D01*
X119629123Y-70083818D01*
X119626009Y-70083500D01*
X119622860Y-70083500D01*
X118629140Y-70083500D01*
X118629120Y-70083500D01*
X118625992Y-70083501D01*
X118622860Y-70083820D01*
X118622858Y-70083821D01*
X118529938Y-70093312D01*
X118529928Y-70093313D01*
X118523203Y-70094001D01*
X118516781Y-70096128D01*
X118516776Y-70096130D01*
X118363521Y-70146914D01*
X118363517Y-70146915D01*
X118356666Y-70149186D01*
X118350522Y-70152975D01*
X118350519Y-70152977D01*
X118213488Y-70237497D01*
X118213480Y-70237503D01*
X118207344Y-70241288D01*
X118202242Y-70246389D01*
X118202238Y-70246393D01*
X118088951Y-70359681D01*
X118048723Y-70386561D01*
X118001270Y-70396000D01*
X117964730Y-70396000D01*
X117917277Y-70386561D01*
X117877049Y-70359681D01*
X117763761Y-70246393D01*
X117763760Y-70246392D01*
X117758656Y-70241288D01*
X117752515Y-70237500D01*
X117752511Y-70237497D01*
X117615480Y-70152977D01*
X117609334Y-70149186D01*
X117442797Y-70094001D01*
X117436064Y-70093313D01*
X117436059Y-70093312D01*
X117343140Y-70083819D01*
X117343123Y-70083818D01*
X117340009Y-70083500D01*
X117336860Y-70083500D01*
X116343140Y-70083500D01*
X116343120Y-70083500D01*
X116339992Y-70083501D01*
X116336860Y-70083820D01*
X116336858Y-70083821D01*
X116243938Y-70093312D01*
X116243928Y-70093313D01*
X116237203Y-70094001D01*
X116230781Y-70096128D01*
X116230776Y-70096130D01*
X116077521Y-70146914D01*
X116077517Y-70146915D01*
X116070666Y-70149186D01*
X116064522Y-70152975D01*
X116064519Y-70152977D01*
X115927488Y-70237497D01*
X115927480Y-70237503D01*
X115921344Y-70241288D01*
X115916242Y-70246389D01*
X115916238Y-70246393D01*
X115802951Y-70359681D01*
X115762723Y-70386561D01*
X115715270Y-70396000D01*
X115224500Y-70396000D01*
X115162500Y-70379387D01*
X115117113Y-70334000D01*
X115100500Y-70272000D01*
X115100500Y-67003540D01*
X115108318Y-66960207D01*
X115110507Y-66954336D01*
X115154091Y-66837483D01*
X115160500Y-66777873D01*
X115160499Y-64902128D01*
X115154091Y-64842517D01*
X115103796Y-64707669D01*
X115017546Y-64592454D01*
X114902331Y-64506204D01*
X114831965Y-64479959D01*
X114774752Y-64458620D01*
X114774750Y-64458619D01*
X114767483Y-64455909D01*
X114759770Y-64455079D01*
X114759767Y-64455079D01*
X114711180Y-64449855D01*
X114711169Y-64449854D01*
X114707873Y-64449500D01*
X114704550Y-64449500D01*
X113895439Y-64449500D01*
X113895420Y-64449500D01*
X113892128Y-64449501D01*
X113888850Y-64449853D01*
X113888838Y-64449854D01*
X113840231Y-64455079D01*
X113840225Y-64455080D01*
X113832517Y-64455909D01*
X113825252Y-64458618D01*
X113825246Y-64458620D01*
X113707618Y-64502493D01*
X113664285Y-64510311D01*
X113620952Y-64502493D01*
X113504641Y-64459111D01*
X113489667Y-64455573D01*
X113441114Y-64450353D01*
X113434518Y-64450000D01*
X113296326Y-64450000D01*
X113283450Y-64453450D01*
X113280000Y-64466326D01*
X113280000Y-67213674D01*
X113283450Y-67226549D01*
X113296326Y-67230000D01*
X113375500Y-67230000D01*
X113437500Y-67246613D01*
X113482887Y-67292000D01*
X113499500Y-67354000D01*
X113499500Y-70435009D01*
X113486385Y-70490512D01*
X113449813Y-70534274D01*
X113449498Y-70534509D01*
X113445774Y-70536903D01*
X113442432Y-70539798D01*
X113442425Y-70539804D01*
X113338799Y-70629595D01*
X113338782Y-70629610D01*
X113337113Y-70631057D01*
X113335549Y-70632620D01*
X113335535Y-70632634D01*
X113289234Y-70678935D01*
X113289227Y-70678942D01*
X113286097Y-70682073D01*
X113283443Y-70685617D01*
X113283438Y-70685624D01*
X113244190Y-70738053D01*
X113244174Y-70738075D01*
X113242861Y-70739830D01*
X113241673Y-70741677D01*
X113241665Y-70741690D01*
X113167523Y-70857057D01*
X113167516Y-70857069D01*
X113165129Y-70860784D01*
X113163290Y-70864809D01*
X113163286Y-70864818D01*
X113107184Y-70987664D01*
X113107178Y-70987677D01*
X113105342Y-70991700D01*
X113104094Y-70995950D01*
X113104093Y-70995953D01*
X113066083Y-71125402D01*
X113066080Y-71125412D01*
X113064835Y-71129655D01*
X113064205Y-71134032D01*
X113064204Y-71134040D01*
X113044982Y-71267730D01*
X113044981Y-71267742D01*
X113044353Y-71272111D01*
X113044353Y-71844000D01*
X113044881Y-71848017D01*
X113044882Y-71848019D01*
X113061583Y-71974871D01*
X113059211Y-71975183D01*
X113059213Y-72012817D01*
X113061583Y-72013129D01*
X113050278Y-72098999D01*
X113044353Y-72144000D01*
X113044353Y-72715889D01*
X113044981Y-72720258D01*
X113044982Y-72720269D01*
X113055799Y-72795500D01*
X113064835Y-72858345D01*
X113066081Y-72862590D01*
X113066083Y-72862597D01*
X113079820Y-72909381D01*
X113105342Y-72996300D01*
X113107180Y-73000326D01*
X113107184Y-73000335D01*
X113163286Y-73123181D01*
X113165129Y-73127216D01*
X113167519Y-73130936D01*
X113167523Y-73130942D01*
X113204080Y-73187826D01*
X113242861Y-73248170D01*
X113286097Y-73305927D01*
X113337113Y-73356943D01*
X113445774Y-73451097D01*
X113566845Y-73528904D01*
X113697630Y-73588632D01*
X113765227Y-73613844D01*
X113835723Y-73629180D01*
X113978038Y-73649642D01*
X114050000Y-73654789D01*
X114113636Y-73650237D01*
X114165814Y-73657739D01*
X114210162Y-73686240D01*
X118070182Y-77546259D01*
X118070184Y-77546262D01*
X118197738Y-77673816D01*
X118203634Y-77677521D01*
X118203637Y-77677523D01*
X118219152Y-77687271D01*
X118229860Y-77694000D01*
X118230149Y-77694181D01*
X118241490Y-77702228D01*
X118271414Y-77726092D01*
X118277689Y-77729114D01*
X118277691Y-77729115D01*
X118305898Y-77742699D01*
X118318069Y-77749425D01*
X118344581Y-77766084D01*
X118344583Y-77766085D01*
X118350478Y-77769789D01*
X118386613Y-77782433D01*
X118399443Y-77787748D01*
X118427662Y-77801338D01*
X118427667Y-77801340D01*
X118433939Y-77804360D01*
X118471266Y-77812879D01*
X118484613Y-77816725D01*
X118514170Y-77827068D01*
X118514175Y-77827069D01*
X118520745Y-77829368D01*
X118558778Y-77833653D01*
X118572484Y-77835981D01*
X118609806Y-77844500D01*
X118655046Y-77844500D01*
X118790195Y-77844500D01*
X119270353Y-77844500D01*
X119332353Y-77861113D01*
X119377740Y-77906500D01*
X119394353Y-77968500D01*
X119394353Y-78415889D01*
X119392835Y-78415889D01*
X119386549Y-78459537D01*
X119358055Y-78503865D01*
X115958739Y-81903181D01*
X115918511Y-81930061D01*
X115871058Y-81939500D01*
X114675439Y-81939500D01*
X114675420Y-81939500D01*
X114672128Y-81939501D01*
X114668850Y-81939853D01*
X114668838Y-81939854D01*
X114620231Y-81945079D01*
X114620225Y-81945080D01*
X114612517Y-81945909D01*
X114605252Y-81948618D01*
X114605246Y-81948620D01*
X114485980Y-81993104D01*
X114485978Y-81993104D01*
X114477669Y-81996204D01*
X114470572Y-82001516D01*
X114470568Y-82001519D01*
X114374311Y-82073577D01*
X114326358Y-82095476D01*
X114273642Y-82095476D01*
X114225689Y-82073577D01*
X114129431Y-82001519D01*
X114129430Y-82001518D01*
X114122331Y-81996204D01*
X114051965Y-81969959D01*
X113994752Y-81948620D01*
X113994750Y-81948619D01*
X113987483Y-81945909D01*
X113979770Y-81945079D01*
X113979767Y-81945079D01*
X113931180Y-81939855D01*
X113931169Y-81939854D01*
X113927873Y-81939500D01*
X113924550Y-81939500D01*
X112135439Y-81939500D01*
X112135420Y-81939500D01*
X112132128Y-81939501D01*
X112128850Y-81939853D01*
X112128838Y-81939854D01*
X112080231Y-81945079D01*
X112080225Y-81945080D01*
X112072517Y-81945909D01*
X112065252Y-81948618D01*
X112065246Y-81948620D01*
X111945980Y-81993104D01*
X111945978Y-81993104D01*
X111937669Y-81996204D01*
X111930572Y-82001516D01*
X111930568Y-82001519D01*
X111829550Y-82077141D01*
X111829546Y-82077144D01*
X111822454Y-82082454D01*
X111817144Y-82089546D01*
X111817141Y-82089550D01*
X111741519Y-82190568D01*
X111741516Y-82190572D01*
X111736204Y-82197669D01*
X111733104Y-82205978D01*
X111733104Y-82205980D01*
X111688620Y-82325247D01*
X111688619Y-82325250D01*
X111685909Y-82332517D01*
X111685079Y-82340227D01*
X111685079Y-82340232D01*
X111679855Y-82388819D01*
X111679854Y-82388831D01*
X111679500Y-82392127D01*
X111679500Y-82395449D01*
X111679500Y-85398480D01*
X111670061Y-85445933D01*
X111643181Y-85486161D01*
X109132300Y-87997042D01*
X109076713Y-88029136D01*
X109012525Y-88029136D01*
X108956938Y-87997042D01*
X108825232Y-87865336D01*
X108825230Y-87865334D01*
X108821401Y-87861505D01*
X108816970Y-87858402D01*
X108816966Y-87858399D01*
X108635841Y-87731574D01*
X108596976Y-87687256D01*
X108582965Y-87629999D01*
X108596976Y-87572742D01*
X108635839Y-87528426D01*
X108821401Y-87398495D01*
X108988495Y-87231401D01*
X109124035Y-87037830D01*
X109223903Y-86823663D01*
X109285063Y-86595408D01*
X109305659Y-86360000D01*
X109285063Y-86124592D01*
X109223903Y-85896337D01*
X109124035Y-85682171D01*
X108988495Y-85488599D01*
X108866181Y-85366285D01*
X108834885Y-85313539D01*
X108832696Y-85252246D01*
X108860149Y-85197401D01*
X108910529Y-85162422D01*
X109033777Y-85116452D01*
X109049189Y-85108037D01*
X109150092Y-85032501D01*
X109162501Y-85020092D01*
X109238037Y-84919189D01*
X109246452Y-84903777D01*
X109290888Y-84784641D01*
X109294426Y-84769667D01*
X109299646Y-84721114D01*
X109300000Y-84714518D01*
X109300000Y-84086326D01*
X109296549Y-84073450D01*
X109283674Y-84070000D01*
X106616326Y-84070000D01*
X106603450Y-84073450D01*
X106600000Y-84086326D01*
X106600000Y-84714518D01*
X106600353Y-84721114D01*
X106605573Y-84769667D01*
X106609111Y-84784641D01*
X106653547Y-84903777D01*
X106661962Y-84919189D01*
X106737498Y-85020092D01*
X106749907Y-85032501D01*
X106850810Y-85108037D01*
X106866220Y-85116451D01*
X106989471Y-85162422D01*
X107039850Y-85197401D01*
X107067303Y-85252246D01*
X107065114Y-85313538D01*
X107033818Y-85366285D01*
X106911505Y-85488599D01*
X106908402Y-85493029D01*
X106908399Y-85493034D01*
X106779073Y-85677731D01*
X106779068Y-85677738D01*
X106775965Y-85682171D01*
X106773677Y-85687077D01*
X106773675Y-85687081D01*
X106678386Y-85891427D01*
X106678383Y-85891432D01*
X106676097Y-85896337D01*
X106674698Y-85901557D01*
X106674694Y-85901569D01*
X106616337Y-86119365D01*
X106616335Y-86119371D01*
X106614937Y-86124592D01*
X106614465Y-86129977D01*
X106614465Y-86129982D01*
X106599028Y-86306423D01*
X106594341Y-86360000D01*
X106594813Y-86365395D01*
X106600852Y-86434426D01*
X106614937Y-86595408D01*
X106616336Y-86600630D01*
X106616337Y-86600634D01*
X106674694Y-86818430D01*
X106674697Y-86818438D01*
X106676097Y-86823663D01*
X106678385Y-86828570D01*
X106678386Y-86828572D01*
X106773678Y-87032927D01*
X106773681Y-87032933D01*
X106775965Y-87037830D01*
X106779064Y-87042257D01*
X106779066Y-87042259D01*
X106908399Y-87226966D01*
X106908402Y-87226970D01*
X106911505Y-87231401D01*
X107078599Y-87398495D01*
X107083032Y-87401599D01*
X107083038Y-87401604D01*
X107264158Y-87528425D01*
X107303024Y-87572743D01*
X107317035Y-87630000D01*
X107303024Y-87687257D01*
X107264160Y-87731574D01*
X107078599Y-87861505D01*
X107074775Y-87865328D01*
X107074769Y-87865334D01*
X106915334Y-88024769D01*
X106915328Y-88024775D01*
X106911505Y-88028599D01*
X106908402Y-88033029D01*
X106908399Y-88033034D01*
X106779073Y-88217731D01*
X106779068Y-88217738D01*
X106775965Y-88222171D01*
X106773677Y-88227077D01*
X106773675Y-88227081D01*
X106678386Y-88431427D01*
X106678383Y-88431432D01*
X106676097Y-88436337D01*
X106674698Y-88441557D01*
X106674694Y-88441569D01*
X106616337Y-88659365D01*
X106616335Y-88659371D01*
X106614937Y-88664592D01*
X106594341Y-88900000D01*
X106614937Y-89135408D01*
X106616336Y-89140630D01*
X106616337Y-89140634D01*
X106674694Y-89358430D01*
X106674697Y-89358438D01*
X106676097Y-89363663D01*
X106678385Y-89368570D01*
X106678386Y-89368572D01*
X106773678Y-89572927D01*
X106773681Y-89572933D01*
X106775965Y-89577830D01*
X106779064Y-89582257D01*
X106779066Y-89582259D01*
X106908399Y-89766966D01*
X106908402Y-89766970D01*
X106911505Y-89771401D01*
X107078599Y-89938495D01*
X107083032Y-89941599D01*
X107083038Y-89941604D01*
X107264158Y-90068425D01*
X107303024Y-90112743D01*
X107317035Y-90170000D01*
X107303024Y-90227257D01*
X107264159Y-90271575D01*
X107083041Y-90398395D01*
X107078599Y-90401505D01*
X107074775Y-90405328D01*
X107074769Y-90405334D01*
X106915334Y-90564769D01*
X106915328Y-90564775D01*
X106911505Y-90568599D01*
X106908402Y-90573029D01*
X106908399Y-90573034D01*
X106779073Y-90757731D01*
X106779068Y-90757738D01*
X106775965Y-90762171D01*
X106773677Y-90767077D01*
X106773675Y-90767081D01*
X106678386Y-90971427D01*
X106678383Y-90971432D01*
X106676097Y-90976337D01*
X106674698Y-90981557D01*
X106674694Y-90981569D01*
X106616337Y-91199365D01*
X106616335Y-91199371D01*
X106614937Y-91204592D01*
X106594341Y-91440000D01*
X106614937Y-91675408D01*
X106616336Y-91680630D01*
X106616337Y-91680634D01*
X106674694Y-91898430D01*
X106674697Y-91898438D01*
X106676097Y-91903663D01*
X106678385Y-91908570D01*
X106678386Y-91908572D01*
X106773678Y-92112927D01*
X106773681Y-92112933D01*
X106775965Y-92117830D01*
X106779064Y-92122257D01*
X106779066Y-92122259D01*
X106908399Y-92306966D01*
X106908402Y-92306970D01*
X106911505Y-92311401D01*
X107078599Y-92478495D01*
X107083032Y-92481599D01*
X107083038Y-92481604D01*
X107264158Y-92608425D01*
X107303024Y-92652743D01*
X107317035Y-92710000D01*
X107303024Y-92767257D01*
X107264159Y-92811575D01*
X107083041Y-92938395D01*
X107078599Y-92941505D01*
X107074775Y-92945328D01*
X107074769Y-92945334D01*
X106915334Y-93104769D01*
X106915328Y-93104775D01*
X106911505Y-93108599D01*
X106908402Y-93113029D01*
X106908399Y-93113034D01*
X106779073Y-93297731D01*
X106779068Y-93297738D01*
X106775965Y-93302171D01*
X106773677Y-93307077D01*
X106773675Y-93307081D01*
X106678386Y-93511427D01*
X106678383Y-93511432D01*
X106676097Y-93516337D01*
X106674698Y-93521557D01*
X106674694Y-93521569D01*
X106616337Y-93739365D01*
X106616335Y-93739371D01*
X106614937Y-93744592D01*
X106594341Y-93980000D01*
X106614937Y-94215408D01*
X106616336Y-94220630D01*
X106616337Y-94220634D01*
X106674694Y-94438430D01*
X106674697Y-94438438D01*
X106676097Y-94443663D01*
X106678385Y-94448570D01*
X106678386Y-94448572D01*
X106773678Y-94652927D01*
X106773681Y-94652933D01*
X106775965Y-94657830D01*
X106779064Y-94662257D01*
X106779066Y-94662259D01*
X106908399Y-94846966D01*
X106908402Y-94846970D01*
X106911505Y-94851401D01*
X107078599Y-95018495D01*
X107083032Y-95021599D01*
X107083038Y-95021604D01*
X107264158Y-95148425D01*
X107303024Y-95192743D01*
X107317035Y-95250000D01*
X107303024Y-95307257D01*
X107264159Y-95351575D01*
X107083041Y-95478395D01*
X107078599Y-95481505D01*
X107074775Y-95485328D01*
X107074769Y-95485334D01*
X106915334Y-95644769D01*
X106915328Y-95644775D01*
X106911505Y-95648599D01*
X106908402Y-95653029D01*
X106908399Y-95653034D01*
X106779073Y-95837731D01*
X106779068Y-95837738D01*
X106775965Y-95842171D01*
X106773677Y-95847077D01*
X106773675Y-95847081D01*
X106678386Y-96051427D01*
X106678383Y-96051432D01*
X106676097Y-96056337D01*
X106674698Y-96061557D01*
X106674694Y-96061569D01*
X106616337Y-96279365D01*
X106616335Y-96279371D01*
X106614937Y-96284592D01*
X106594341Y-96520000D01*
X106594813Y-96525395D01*
X106614465Y-96750017D01*
X106614465Y-96750020D01*
X106614937Y-96755408D01*
X106616336Y-96760630D01*
X106616337Y-96760634D01*
X106674694Y-96978430D01*
X106674697Y-96978438D01*
X106676097Y-96983663D01*
X106678385Y-96988570D01*
X106678386Y-96988572D01*
X106773678Y-97192927D01*
X106773681Y-97192933D01*
X106775965Y-97197830D01*
X106779064Y-97202257D01*
X106779066Y-97202259D01*
X106908399Y-97386966D01*
X106908402Y-97386970D01*
X106911505Y-97391401D01*
X107078599Y-97558495D01*
X107083032Y-97561599D01*
X107083038Y-97561604D01*
X107264158Y-97688425D01*
X107303024Y-97732743D01*
X107317035Y-97790000D01*
X107303024Y-97847257D01*
X107264159Y-97891575D01*
X107108515Y-98000558D01*
X107078599Y-98021505D01*
X107074775Y-98025328D01*
X107074769Y-98025334D01*
X106915334Y-98184769D01*
X106915328Y-98184775D01*
X106911505Y-98188599D01*
X106908402Y-98193029D01*
X106908399Y-98193034D01*
X106779073Y-98377731D01*
X106779068Y-98377738D01*
X106775965Y-98382171D01*
X106773677Y-98387077D01*
X106773675Y-98387081D01*
X106678386Y-98591427D01*
X106678383Y-98591432D01*
X106676097Y-98596337D01*
X106674698Y-98601557D01*
X106674694Y-98601569D01*
X106616337Y-98819365D01*
X106616335Y-98819371D01*
X106614937Y-98824592D01*
X106594341Y-99060000D01*
X106594813Y-99065395D01*
X106613992Y-99284615D01*
X106614937Y-99295408D01*
X106616336Y-99300630D01*
X106616337Y-99300634D01*
X106674694Y-99518430D01*
X106674697Y-99518438D01*
X106676097Y-99523663D01*
X106678385Y-99528570D01*
X106678386Y-99528572D01*
X106773678Y-99732927D01*
X106773681Y-99732933D01*
X106775965Y-99737830D01*
X106779064Y-99742257D01*
X106779066Y-99742259D01*
X106908399Y-99926966D01*
X106908402Y-99926970D01*
X106911505Y-99931401D01*
X107078599Y-100098495D01*
X107083032Y-100101599D01*
X107083038Y-100101604D01*
X107264158Y-100228425D01*
X107303024Y-100272743D01*
X107317035Y-100330000D01*
X107303024Y-100387257D01*
X107264159Y-100431575D01*
X107107321Y-100541394D01*
X107078599Y-100561505D01*
X107074775Y-100565328D01*
X107074769Y-100565334D01*
X106915334Y-100724769D01*
X106915328Y-100724775D01*
X106911505Y-100728599D01*
X106908402Y-100733029D01*
X106908399Y-100733034D01*
X106779073Y-100917731D01*
X106779068Y-100917738D01*
X106775965Y-100922171D01*
X106773677Y-100927077D01*
X106773675Y-100927081D01*
X106678386Y-101131427D01*
X106678383Y-101131432D01*
X106676097Y-101136337D01*
X106674698Y-101141557D01*
X106674694Y-101141569D01*
X106616337Y-101359365D01*
X106616335Y-101359371D01*
X106614937Y-101364592D01*
X106614465Y-101369977D01*
X106614465Y-101369982D01*
X106602918Y-101501970D01*
X106594341Y-101600000D01*
X105420500Y-101600000D01*
X105420500Y-83553674D01*
X106600000Y-83553674D01*
X106603450Y-83566549D01*
X106616326Y-83570000D01*
X107683674Y-83570000D01*
X107696549Y-83566549D01*
X107700000Y-83553674D01*
X108200000Y-83553674D01*
X108203450Y-83566549D01*
X108216326Y-83570000D01*
X109283674Y-83570000D01*
X109296549Y-83566549D01*
X109300000Y-83553674D01*
X109300000Y-82925482D01*
X109299646Y-82918885D01*
X109294426Y-82870332D01*
X109290888Y-82855358D01*
X109246452Y-82736222D01*
X109238037Y-82720810D01*
X109162501Y-82619907D01*
X109150092Y-82607498D01*
X109049189Y-82531962D01*
X109033777Y-82523547D01*
X108914641Y-82479111D01*
X108899667Y-82475573D01*
X108851114Y-82470353D01*
X108844518Y-82470000D01*
X108216326Y-82470000D01*
X108203450Y-82473450D01*
X108200000Y-82486326D01*
X108200000Y-83553674D01*
X107700000Y-83553674D01*
X107700000Y-82486326D01*
X107696549Y-82473450D01*
X107683674Y-82470000D01*
X107055482Y-82470000D01*
X107048885Y-82470353D01*
X107000332Y-82475573D01*
X106985358Y-82479111D01*
X106866222Y-82523547D01*
X106850810Y-82531962D01*
X106749907Y-82607498D01*
X106737498Y-82619907D01*
X106661962Y-82720810D01*
X106653547Y-82736222D01*
X106609111Y-82855358D01*
X106605573Y-82870332D01*
X106600353Y-82918885D01*
X106600000Y-82925482D01*
X106600000Y-83553674D01*
X105420500Y-83553674D01*
X105420500Y-70866000D01*
X110490000Y-70866000D01*
X110490000Y-67818000D01*
X105420500Y-67818000D01*
X105420500Y-66774518D01*
X109630000Y-66774518D01*
X109630353Y-66781114D01*
X109635573Y-66829667D01*
X109639111Y-66844641D01*
X109683547Y-66963777D01*
X109691962Y-66979189D01*
X109767498Y-67080092D01*
X109779907Y-67092501D01*
X109880810Y-67168037D01*
X109896222Y-67176452D01*
X110015358Y-67220888D01*
X110030332Y-67224426D01*
X110078885Y-67229646D01*
X110085482Y-67230000D01*
X110223674Y-67230000D01*
X110236549Y-67226549D01*
X110240000Y-67213674D01*
X110740000Y-67213674D01*
X110743450Y-67226549D01*
X110756326Y-67230000D01*
X110894518Y-67230000D01*
X110901114Y-67229646D01*
X110949667Y-67224426D01*
X110964641Y-67220888D01*
X111081667Y-67177240D01*
X111125000Y-67169422D01*
X111168333Y-67177240D01*
X111285358Y-67220888D01*
X111300332Y-67224426D01*
X111348885Y-67229646D01*
X111355482Y-67230000D01*
X111493674Y-67230000D01*
X111506549Y-67226549D01*
X111510000Y-67213674D01*
X112010000Y-67213674D01*
X112013450Y-67226549D01*
X112026326Y-67230000D01*
X112164518Y-67230000D01*
X112171114Y-67229646D01*
X112219667Y-67224426D01*
X112234641Y-67220888D01*
X112351667Y-67177240D01*
X112395000Y-67169422D01*
X112438333Y-67177240D01*
X112555358Y-67220888D01*
X112570332Y-67224426D01*
X112618885Y-67229646D01*
X112625482Y-67230000D01*
X112763674Y-67230000D01*
X112776549Y-67226549D01*
X112780000Y-67213674D01*
X112780000Y-66106326D01*
X112776549Y-66093450D01*
X112763674Y-66090000D01*
X112026326Y-66090000D01*
X112013450Y-66093450D01*
X112010000Y-66106326D01*
X112010000Y-67213674D01*
X111510000Y-67213674D01*
X111510000Y-66106326D01*
X111506549Y-66093450D01*
X111493674Y-66090000D01*
X110756326Y-66090000D01*
X110743450Y-66093450D01*
X110740000Y-66106326D01*
X110740000Y-67213674D01*
X110240000Y-67213674D01*
X110240000Y-66106326D01*
X110236549Y-66093450D01*
X110223674Y-66090000D01*
X109646326Y-66090000D01*
X109633450Y-66093450D01*
X109630000Y-66106326D01*
X109630000Y-66774518D01*
X105420500Y-66774518D01*
X105420500Y-65573674D01*
X109630000Y-65573674D01*
X109633450Y-65586549D01*
X109646326Y-65590000D01*
X110223674Y-65590000D01*
X110236549Y-65586549D01*
X110240000Y-65573674D01*
X110740000Y-65573674D01*
X110743450Y-65586549D01*
X110756326Y-65590000D01*
X111493674Y-65590000D01*
X111506549Y-65586549D01*
X111510000Y-65573674D01*
X112010000Y-65573674D01*
X112013450Y-65586549D01*
X112026326Y-65590000D01*
X112763674Y-65590000D01*
X112776549Y-65586549D01*
X112780000Y-65573674D01*
X112780000Y-64466326D01*
X112776549Y-64453450D01*
X112763674Y-64450000D01*
X112625482Y-64450000D01*
X112618885Y-64450353D01*
X112570332Y-64455573D01*
X112555354Y-64459112D01*
X112438331Y-64502759D01*
X112394999Y-64510577D01*
X112351666Y-64502759D01*
X112234641Y-64459112D01*
X112219667Y-64455573D01*
X112171114Y-64450353D01*
X112164518Y-64450000D01*
X112026326Y-64450000D01*
X112013450Y-64453450D01*
X112010000Y-64466326D01*
X112010000Y-65573674D01*
X111510000Y-65573674D01*
X111510000Y-64466326D01*
X111506549Y-64453450D01*
X111493674Y-64450000D01*
X111355482Y-64450000D01*
X111348885Y-64450353D01*
X111300332Y-64455573D01*
X111285354Y-64459112D01*
X111168331Y-64502759D01*
X111124999Y-64510577D01*
X111081666Y-64502759D01*
X110964641Y-64459112D01*
X110949667Y-64455573D01*
X110901114Y-64450353D01*
X110894518Y-64450000D01*
X110756326Y-64450000D01*
X110743450Y-64453450D01*
X110740000Y-64466326D01*
X110740000Y-65573674D01*
X110240000Y-65573674D01*
X110240000Y-64466326D01*
X110236549Y-64453450D01*
X110223674Y-64450000D01*
X110085482Y-64450000D01*
X110078885Y-64450353D01*
X110030332Y-64455573D01*
X110015358Y-64459111D01*
X109896222Y-64503547D01*
X109880810Y-64511962D01*
X109779907Y-64587498D01*
X109767498Y-64599907D01*
X109691962Y-64700810D01*
X109683547Y-64716222D01*
X109639111Y-64835358D01*
X109635573Y-64850332D01*
X109630353Y-64898885D01*
X109630000Y-64905482D01*
X109630000Y-65573674D01*
X105420500Y-65573674D01*
X105420500Y-63952551D01*
X105987688Y-63952551D01*
X105988056Y-63963780D01*
X106040168Y-64158263D01*
X106043856Y-64168397D01*
X106139113Y-64372676D01*
X106144501Y-64382008D01*
X106273784Y-64566643D01*
X106280721Y-64574909D01*
X106440090Y-64734278D01*
X106448356Y-64741215D01*
X106632991Y-64870498D01*
X106642323Y-64875886D01*
X106846602Y-64971143D01*
X106856736Y-64974831D01*
X107051219Y-65026943D01*
X107062448Y-65027311D01*
X107065000Y-65016369D01*
X107565000Y-65016369D01*
X107567551Y-65027311D01*
X107578780Y-65026943D01*
X107773263Y-64974831D01*
X107783397Y-64971143D01*
X107987676Y-64875886D01*
X107997008Y-64870498D01*
X108181643Y-64741215D01*
X108189909Y-64734278D01*
X108349278Y-64574909D01*
X108356215Y-64566643D01*
X108485498Y-64382008D01*
X108490886Y-64372676D01*
X108586143Y-64168397D01*
X108589831Y-64158263D01*
X108641943Y-63963780D01*
X108642311Y-63952551D01*
X108631369Y-63950000D01*
X107581326Y-63950000D01*
X107568450Y-63953450D01*
X107565000Y-63966326D01*
X107565000Y-65016369D01*
X107065000Y-65016369D01*
X107065000Y-63966326D01*
X107061549Y-63953450D01*
X107048674Y-63950000D01*
X105998631Y-63950000D01*
X105987688Y-63952551D01*
X105420500Y-63952551D01*
X105420500Y-59049500D01*
X105437113Y-58987500D01*
X105482500Y-58942113D01*
X105544500Y-58925500D01*
X105940500Y-58925500D01*
X106002500Y-58942113D01*
X106047887Y-58987500D01*
X106064500Y-59049500D01*
X106064500Y-59968561D01*
X106058154Y-60007720D01*
X106039767Y-60042872D01*
X106026519Y-60060568D01*
X106026516Y-60060571D01*
X106021204Y-60067669D01*
X106018104Y-60075978D01*
X106018104Y-60075980D01*
X105973620Y-60195247D01*
X105973619Y-60195250D01*
X105970909Y-60202517D01*
X105970079Y-60210227D01*
X105970079Y-60210232D01*
X105964855Y-60258819D01*
X105964854Y-60258831D01*
X105964500Y-60262127D01*
X105964500Y-60265448D01*
X105964500Y-60265449D01*
X105964500Y-62054560D01*
X105964500Y-62054578D01*
X105964501Y-62057872D01*
X105964853Y-62061150D01*
X105964854Y-62061161D01*
X105970079Y-62109768D01*
X105970080Y-62109773D01*
X105970909Y-62117483D01*
X105973619Y-62124749D01*
X105973620Y-62124753D01*
X105982950Y-62149767D01*
X106021204Y-62252331D01*
X106107454Y-62367546D01*
X106222669Y-62453796D01*
X106354598Y-62503002D01*
X106404977Y-62537981D01*
X106432431Y-62592825D01*
X106430242Y-62654118D01*
X106398947Y-62706865D01*
X106280714Y-62825098D01*
X106273784Y-62833357D01*
X106144508Y-63017982D01*
X106139110Y-63027332D01*
X106043856Y-63231602D01*
X106040168Y-63241736D01*
X105988056Y-63436219D01*
X105987688Y-63447448D01*
X105998631Y-63450000D01*
X108631369Y-63450000D01*
X108642311Y-63447448D01*
X108641943Y-63436219D01*
X108589831Y-63241736D01*
X108586143Y-63231602D01*
X108490889Y-63027332D01*
X108485491Y-63017982D01*
X108356215Y-62833357D01*
X108349280Y-62825092D01*
X108231053Y-62706865D01*
X108199757Y-62654119D01*
X108197568Y-62592825D01*
X108225022Y-62537981D01*
X108275398Y-62503003D01*
X108407331Y-62453796D01*
X108432127Y-62435233D01*
X108467280Y-62416846D01*
X108506439Y-62410500D01*
X109735128Y-62410500D01*
X109774288Y-62416846D01*
X109809438Y-62435232D01*
X109887669Y-62493796D01*
X110022517Y-62544091D01*
X110082127Y-62550500D01*
X110897872Y-62550499D01*
X110957483Y-62544091D01*
X111081671Y-62497771D01*
X111124999Y-62489955D01*
X111168331Y-62497772D01*
X111292517Y-62544091D01*
X111352127Y-62550500D01*
X112167872Y-62550499D01*
X112227483Y-62544091D01*
X112351671Y-62497771D01*
X112394999Y-62489955D01*
X112438331Y-62497772D01*
X112562517Y-62544091D01*
X112622127Y-62550500D01*
X113437872Y-62550499D01*
X113497483Y-62544091D01*
X113621671Y-62497771D01*
X113664999Y-62489955D01*
X113708331Y-62497772D01*
X113832517Y-62544091D01*
X113892127Y-62550500D01*
X114707872Y-62550499D01*
X114767483Y-62544091D01*
X114902331Y-62493796D01*
X115017546Y-62407546D01*
X115103796Y-62292331D01*
X115154091Y-62157483D01*
X115160500Y-62097873D01*
X115160500Y-61496578D01*
X158162500Y-61496578D01*
X158162501Y-61499872D01*
X158162853Y-61503150D01*
X158162854Y-61503161D01*
X158168079Y-61551768D01*
X158168080Y-61551773D01*
X158168909Y-61559483D01*
X158171619Y-61566749D01*
X158171620Y-61566753D01*
X158205217Y-61656831D01*
X158219204Y-61694331D01*
X158305454Y-61809546D01*
X158420669Y-61895796D01*
X158555517Y-61946091D01*
X158615127Y-61952500D01*
X160710872Y-61952499D01*
X160770483Y-61946091D01*
X160905331Y-61895796D01*
X161020546Y-61809546D01*
X161106796Y-61694331D01*
X161157091Y-61559483D01*
X161163500Y-61499873D01*
X161163499Y-59404128D01*
X161157091Y-59344517D01*
X161106796Y-59209669D01*
X161020546Y-59094454D01*
X160905331Y-59008204D01*
X160770483Y-58957909D01*
X160762770Y-58957079D01*
X160762767Y-58957079D01*
X160714180Y-58951855D01*
X160714169Y-58951854D01*
X160710873Y-58951500D01*
X160707550Y-58951500D01*
X158618439Y-58951500D01*
X158618420Y-58951500D01*
X158615128Y-58951501D01*
X158611850Y-58951853D01*
X158611838Y-58951854D01*
X158563231Y-58957079D01*
X158563225Y-58957080D01*
X158555517Y-58957909D01*
X158548252Y-58960618D01*
X158548246Y-58960620D01*
X158428980Y-59005104D01*
X158428978Y-59005104D01*
X158420669Y-59008204D01*
X158413572Y-59013516D01*
X158413568Y-59013519D01*
X158312550Y-59089141D01*
X158312546Y-59089144D01*
X158305454Y-59094454D01*
X158300144Y-59101546D01*
X158300141Y-59101550D01*
X158224519Y-59202568D01*
X158224516Y-59202572D01*
X158219204Y-59209669D01*
X158216104Y-59217978D01*
X158216104Y-59217980D01*
X158171620Y-59337247D01*
X158171619Y-59337250D01*
X158168909Y-59344517D01*
X158168079Y-59352227D01*
X158168079Y-59352232D01*
X158162855Y-59400819D01*
X158162854Y-59400831D01*
X158162500Y-59404127D01*
X158162500Y-59407448D01*
X158162500Y-59407449D01*
X158162500Y-61496560D01*
X158162500Y-61496578D01*
X115160500Y-61496578D01*
X115160499Y-60222128D01*
X115154091Y-60162517D01*
X115103796Y-60027669D01*
X115017546Y-59912454D01*
X114902331Y-59826204D01*
X114793198Y-59785500D01*
X114774752Y-59778620D01*
X114774750Y-59778619D01*
X114767483Y-59775909D01*
X114759770Y-59775079D01*
X114759767Y-59775079D01*
X114711180Y-59769855D01*
X114711169Y-59769854D01*
X114707873Y-59769500D01*
X114704550Y-59769500D01*
X113895439Y-59769500D01*
X113895420Y-59769500D01*
X113892128Y-59769501D01*
X113888850Y-59769853D01*
X113888838Y-59769854D01*
X113840231Y-59775079D01*
X113840225Y-59775080D01*
X113832517Y-59775909D01*
X113825250Y-59778619D01*
X113825243Y-59778621D01*
X113708331Y-59822226D01*
X113664999Y-59830044D01*
X113621666Y-59822226D01*
X113504752Y-59778620D01*
X113504750Y-59778619D01*
X113497483Y-59775909D01*
X113489770Y-59775079D01*
X113489767Y-59775079D01*
X113441180Y-59769855D01*
X113441169Y-59769854D01*
X113437873Y-59769500D01*
X113434550Y-59769500D01*
X112625439Y-59769500D01*
X112625420Y-59769500D01*
X112622128Y-59769501D01*
X112618850Y-59769853D01*
X112618838Y-59769854D01*
X112570231Y-59775079D01*
X112570225Y-59775080D01*
X112562517Y-59775909D01*
X112555250Y-59778619D01*
X112555243Y-59778621D01*
X112438331Y-59822226D01*
X112394999Y-59830044D01*
X112351666Y-59822226D01*
X112234752Y-59778620D01*
X112234750Y-59778619D01*
X112227483Y-59775909D01*
X112219770Y-59775079D01*
X112219767Y-59775079D01*
X112171180Y-59769855D01*
X112171169Y-59769854D01*
X112167873Y-59769500D01*
X112164550Y-59769500D01*
X111355439Y-59769500D01*
X111355420Y-59769500D01*
X111352128Y-59769501D01*
X111348850Y-59769853D01*
X111348838Y-59769854D01*
X111300231Y-59775079D01*
X111300225Y-59775080D01*
X111292517Y-59775909D01*
X111285250Y-59778619D01*
X111285243Y-59778621D01*
X111168331Y-59822226D01*
X111124999Y-59830044D01*
X111081666Y-59822226D01*
X110964752Y-59778620D01*
X110964750Y-59778619D01*
X110957483Y-59775909D01*
X110949770Y-59775079D01*
X110949767Y-59775079D01*
X110901180Y-59769855D01*
X110901169Y-59769854D01*
X110897873Y-59769500D01*
X110894550Y-59769500D01*
X110085439Y-59769500D01*
X110085420Y-59769500D01*
X110082128Y-59769501D01*
X110078850Y-59769853D01*
X110078838Y-59769854D01*
X110030231Y-59775079D01*
X110030225Y-59775080D01*
X110022517Y-59775909D01*
X110015252Y-59778618D01*
X110015246Y-59778620D01*
X109895980Y-59823104D01*
X109895978Y-59823104D01*
X109887669Y-59826204D01*
X109880571Y-59831516D01*
X109880568Y-59831519D01*
X109809439Y-59884767D01*
X109774288Y-59903154D01*
X109735128Y-59909500D01*
X108689500Y-59909500D01*
X108627500Y-59892887D01*
X108582113Y-59847500D01*
X108565500Y-59785500D01*
X108565500Y-59049500D01*
X108582113Y-58987500D01*
X108627500Y-58942113D01*
X108689500Y-58925500D01*
X110361947Y-58925500D01*
X110366000Y-58925500D01*
X110496834Y-58908275D01*
X110558834Y-58891662D01*
X110680750Y-58841163D01*
X110785442Y-58760829D01*
X110830829Y-58715442D01*
X110911163Y-58610750D01*
X110961662Y-58488834D01*
X110978275Y-58426834D01*
X110995500Y-58296000D01*
X110995500Y-55496000D01*
X110978275Y-55365166D01*
X110961662Y-55303166D01*
X110911163Y-55181250D01*
X110830829Y-55076558D01*
X110785442Y-55031171D01*
X110777049Y-55024731D01*
X110687199Y-54955785D01*
X110687196Y-54955783D01*
X110680750Y-54950837D01*
X110673241Y-54947726D01*
X110673240Y-54947726D01*
X110562589Y-54901893D01*
X110562584Y-54901891D01*
X110558834Y-54900338D01*
X110554913Y-54899287D01*
X110554909Y-54899286D01*
X110500754Y-54884775D01*
X110500748Y-54884773D01*
X110496834Y-54883725D01*
X110492819Y-54883196D01*
X110492807Y-54883194D01*
X110370019Y-54867029D01*
X110370017Y-54867028D01*
X110366000Y-54866500D01*
X105544500Y-54866500D01*
X105482500Y-54849887D01*
X105437113Y-54804500D01*
X105420500Y-54742500D01*
X105420500Y-51181000D01*
X116360454Y-51181000D01*
X116360680Y-51184736D01*
X116380391Y-51510611D01*
X116380392Y-51510624D01*
X116380618Y-51514350D01*
X116381292Y-51518032D01*
X116381293Y-51518034D01*
X116440141Y-51839158D01*
X116440143Y-51839167D01*
X116440816Y-51842838D01*
X116441928Y-51846408D01*
X116441930Y-51846414D01*
X116502727Y-52041517D01*
X116540170Y-52161676D01*
X116677231Y-52466213D01*
X116679164Y-52469411D01*
X116679168Y-52469418D01*
X116695046Y-52495683D01*
X116850000Y-52752009D01*
X117055959Y-53014896D01*
X117292104Y-53251041D01*
X117295054Y-53253352D01*
X117295055Y-53253353D01*
X117298233Y-53255843D01*
X117554991Y-53457000D01*
X117840787Y-53629769D01*
X118145324Y-53766830D01*
X118464162Y-53866184D01*
X118792650Y-53926382D01*
X119042580Y-53941500D01*
X119207534Y-53941500D01*
X119209420Y-53941500D01*
X119459350Y-53926382D01*
X119787838Y-53866184D01*
X120106676Y-53766830D01*
X120411213Y-53629769D01*
X120697009Y-53457000D01*
X120959896Y-53251041D01*
X121196041Y-53014896D01*
X121328497Y-52845829D01*
X126066001Y-52845829D01*
X126066321Y-52852111D01*
X126075805Y-52944959D01*
X126078623Y-52958122D01*
X126129370Y-53111267D01*
X126135432Y-53124266D01*
X126219890Y-53261194D01*
X126228794Y-53272455D01*
X126342544Y-53386205D01*
X126353805Y-53395109D01*
X126490733Y-53479567D01*
X126503732Y-53485629D01*
X126656874Y-53536375D01*
X126670041Y-53539194D01*
X126762890Y-53548680D01*
X126769168Y-53549000D01*
X126799674Y-53549000D01*
X126812549Y-53545549D01*
X126816000Y-53532674D01*
X126816000Y-53532673D01*
X127316000Y-53532673D01*
X127319450Y-53545548D01*
X127332326Y-53548999D01*
X127362829Y-53548999D01*
X127369111Y-53548678D01*
X127461959Y-53539194D01*
X127475122Y-53536376D01*
X127628267Y-53485629D01*
X127641266Y-53479567D01*
X127778194Y-53395109D01*
X127789455Y-53386205D01*
X127903205Y-53272455D01*
X127916590Y-53255529D01*
X127918119Y-53256738D01*
X127955253Y-53221174D01*
X128015689Y-53205440D01*
X128076129Y-53221157D01*
X128113564Y-53256990D01*
X128115016Y-53255843D01*
X128119498Y-53261511D01*
X128123288Y-53267656D01*
X128247344Y-53391712D01*
X128253485Y-53395500D01*
X128253488Y-53395502D01*
X128310558Y-53430702D01*
X128396666Y-53483814D01*
X128563203Y-53538999D01*
X128665991Y-53549500D01*
X129008059Y-53549499D01*
X129055512Y-53558938D01*
X129095740Y-53585818D01*
X130114182Y-54604259D01*
X130114184Y-54604262D01*
X130241738Y-54731816D01*
X130247634Y-54735521D01*
X130247637Y-54735523D01*
X130258741Y-54742500D01*
X130274145Y-54752179D01*
X130274149Y-54752181D01*
X130285490Y-54760228D01*
X130315414Y-54784092D01*
X130321689Y-54787114D01*
X130321691Y-54787115D01*
X130349898Y-54800699D01*
X130362068Y-54807424D01*
X130366927Y-54810477D01*
X130388581Y-54824084D01*
X130388583Y-54824085D01*
X130394478Y-54827789D01*
X130430613Y-54840433D01*
X130443443Y-54845748D01*
X130471662Y-54859338D01*
X130471667Y-54859340D01*
X130477939Y-54862360D01*
X130515266Y-54870879D01*
X130528613Y-54874725D01*
X130558170Y-54885068D01*
X130558175Y-54885069D01*
X130564745Y-54887368D01*
X130602778Y-54891653D01*
X130616484Y-54893981D01*
X130653806Y-54902500D01*
X130699046Y-54902500D01*
X130834195Y-54902500D01*
X132175887Y-54902500D01*
X132214167Y-54902500D01*
X132228049Y-54903279D01*
X132266081Y-54907565D01*
X132304112Y-54903279D01*
X132317995Y-54902500D01*
X132349314Y-54902500D01*
X132356275Y-54902500D01*
X132393604Y-54893979D01*
X132407278Y-54891655D01*
X132445336Y-54887368D01*
X132481484Y-54874718D01*
X132494807Y-54870881D01*
X132532142Y-54862360D01*
X132566627Y-54845752D01*
X132579479Y-54840429D01*
X132579488Y-54840426D01*
X132615603Y-54827789D01*
X132648020Y-54807418D01*
X132660167Y-54800705D01*
X132694668Y-54784091D01*
X132724600Y-54760220D01*
X132735934Y-54752179D01*
X132768343Y-54731816D01*
X132895897Y-54604262D01*
X132895897Y-54604261D01*
X135471826Y-52028333D01*
X135503816Y-51996343D01*
X135524180Y-51963931D01*
X135532220Y-51952600D01*
X135556091Y-51922668D01*
X135572700Y-51888176D01*
X135579417Y-51876023D01*
X135599789Y-51843603D01*
X135612436Y-51807458D01*
X135617753Y-51794624D01*
X135631335Y-51766421D01*
X135631334Y-51766421D01*
X135634359Y-51760142D01*
X135642876Y-51722827D01*
X135646722Y-51709474D01*
X135659368Y-51673336D01*
X135663655Y-51635282D01*
X135665982Y-51621593D01*
X135672951Y-51591064D01*
X135672951Y-51591060D01*
X135674500Y-51584276D01*
X135674500Y-51444690D01*
X135688511Y-51387432D01*
X135727379Y-51343114D01*
X135738354Y-51335429D01*
X135745401Y-51330495D01*
X135912495Y-51163401D01*
X135962155Y-51092480D01*
X136042425Y-50977842D01*
X136086743Y-50938976D01*
X136144000Y-50924965D01*
X136201257Y-50938976D01*
X136245575Y-50977842D01*
X136372395Y-51158961D01*
X136372401Y-51158968D01*
X136375505Y-51163401D01*
X136542599Y-51330495D01*
X136547031Y-51333598D01*
X136547033Y-51333600D01*
X136650590Y-51406111D01*
X136736170Y-51466035D01*
X136950337Y-51565903D01*
X137178592Y-51627063D01*
X137414000Y-51647659D01*
X137649408Y-51627063D01*
X137877663Y-51565903D01*
X138091830Y-51466035D01*
X138285401Y-51330495D01*
X138452495Y-51163401D01*
X138502155Y-51092480D01*
X138582425Y-50977842D01*
X138626743Y-50938976D01*
X138684000Y-50924965D01*
X138741257Y-50938976D01*
X138785575Y-50977842D01*
X138912395Y-51158961D01*
X138912401Y-51158968D01*
X138915505Y-51163401D01*
X139082599Y-51330495D01*
X139087031Y-51333598D01*
X139087033Y-51333600D01*
X139190590Y-51406111D01*
X139276170Y-51466035D01*
X139490337Y-51565903D01*
X139718592Y-51627063D01*
X139954000Y-51647659D01*
X140189408Y-51627063D01*
X140417663Y-51565903D01*
X140631830Y-51466035D01*
X140825401Y-51330495D01*
X140992495Y-51163401D01*
X141125898Y-50972882D01*
X149874500Y-50972882D01*
X149874690Y-50975301D01*
X149874691Y-50975316D01*
X149888935Y-51156295D01*
X149889317Y-51161148D01*
X149890452Y-51165877D01*
X149890453Y-51165881D01*
X149946989Y-51401374D01*
X149946991Y-51401382D01*
X149948127Y-51406111D01*
X150044534Y-51638859D01*
X150047081Y-51643016D01*
X150047082Y-51643017D01*
X150173617Y-51849504D01*
X150173622Y-51849511D01*
X150176164Y-51853659D01*
X150179324Y-51857358D01*
X150179327Y-51857363D01*
X150304944Y-52004441D01*
X150339776Y-52045224D01*
X150354353Y-52057674D01*
X150512121Y-52192421D01*
X150531341Y-52208836D01*
X150535491Y-52211379D01*
X150535495Y-52211382D01*
X150563821Y-52228740D01*
X150746141Y-52340466D01*
X150978889Y-52436873D01*
X151223852Y-52495683D01*
X151475000Y-52515449D01*
X151726148Y-52495683D01*
X151971111Y-52436873D01*
X152203859Y-52340466D01*
X152418659Y-52208836D01*
X152610224Y-52045224D01*
X152613395Y-52041510D01*
X152615463Y-52039443D01*
X152669310Y-52007824D01*
X152717228Y-52006775D01*
X152717517Y-52004091D01*
X152777127Y-52010500D01*
X154372872Y-52010499D01*
X154432483Y-52004091D01*
X154567331Y-51953796D01*
X154682546Y-51867546D01*
X154711848Y-51828402D01*
X154760063Y-51789710D01*
X154820969Y-51779105D01*
X154879426Y-51799226D01*
X154892494Y-51807852D01*
X154980032Y-51865635D01*
X155187012Y-51954103D01*
X155406463Y-52004191D01*
X155631330Y-52014290D01*
X155854387Y-51984075D01*
X156068464Y-51914517D01*
X156266681Y-51807852D01*
X156442666Y-51667508D01*
X156481123Y-51623489D01*
X156536186Y-51587143D01*
X156602096Y-51584183D01*
X156660195Y-51615446D01*
X156737938Y-51689776D01*
X156777882Y-51727967D01*
X156792175Y-51741632D01*
X156980032Y-51865635D01*
X157187012Y-51954103D01*
X157406463Y-52004191D01*
X157631330Y-52014290D01*
X157854387Y-51984075D01*
X158068464Y-51914517D01*
X158226803Y-51829311D01*
X158280460Y-51814611D01*
X158335147Y-51824852D01*
X158379850Y-51857975D01*
X158536609Y-52041517D01*
X158536615Y-52041523D01*
X158539776Y-52045224D01*
X158554353Y-52057674D01*
X158712121Y-52192421D01*
X158731341Y-52208836D01*
X158735491Y-52211379D01*
X158735495Y-52211382D01*
X158763821Y-52228740D01*
X158946141Y-52340466D01*
X159178889Y-52436873D01*
X159423852Y-52495683D01*
X159675000Y-52515449D01*
X159926148Y-52495683D01*
X160171111Y-52436873D01*
X160403859Y-52340466D01*
X160618659Y-52208836D01*
X160810224Y-52045224D01*
X160973836Y-51853659D01*
X161105466Y-51638859D01*
X161201873Y-51406111D01*
X161260683Y-51161148D01*
X161275500Y-50972882D01*
X161275500Y-49547118D01*
X161260683Y-49358852D01*
X161201873Y-49113889D01*
X161105466Y-48881141D01*
X161001907Y-48712148D01*
X160976382Y-48670495D01*
X160976379Y-48670491D01*
X160973836Y-48666341D01*
X160970474Y-48662405D01*
X160813384Y-48478476D01*
X160810224Y-48474776D01*
X160764110Y-48435391D01*
X160622363Y-48314327D01*
X160622358Y-48314324D01*
X160618659Y-48311164D01*
X160614511Y-48308622D01*
X160614504Y-48308617D01*
X160408017Y-48182082D01*
X160408016Y-48182081D01*
X160403859Y-48179534D01*
X160171111Y-48083127D01*
X160166382Y-48081991D01*
X160166374Y-48081989D01*
X159930881Y-48025453D01*
X159930877Y-48025452D01*
X159926148Y-48024317D01*
X159921295Y-48023935D01*
X159679854Y-48004933D01*
X159675000Y-48004551D01*
X159670146Y-48004933D01*
X159428704Y-48023935D01*
X159428702Y-48023935D01*
X159423852Y-48024317D01*
X159419124Y-48025451D01*
X159419118Y-48025453D01*
X159183625Y-48081989D01*
X159183613Y-48081992D01*
X159178889Y-48083127D01*
X159174392Y-48084989D01*
X159174388Y-48084991D01*
X158950645Y-48177668D01*
X158950640Y-48177670D01*
X158946141Y-48179534D01*
X158941988Y-48182078D01*
X158941982Y-48182082D01*
X158735495Y-48308617D01*
X158735482Y-48308626D01*
X158731341Y-48311164D01*
X158727646Y-48314319D01*
X158727636Y-48314327D01*
X158543476Y-48471615D01*
X158543469Y-48471621D01*
X158539776Y-48474776D01*
X158536621Y-48478469D01*
X158536615Y-48478476D01*
X158379525Y-48662405D01*
X158331399Y-48696959D01*
X158272735Y-48705241D01*
X158216924Y-48685360D01*
X158174620Y-48657435D01*
X158174613Y-48657431D01*
X158169968Y-48654365D01*
X158164846Y-48652175D01*
X158164841Y-48652173D01*
X157968115Y-48568088D01*
X157968111Y-48568086D01*
X157962988Y-48565897D01*
X157957554Y-48564656D01*
X157957552Y-48564656D01*
X157748970Y-48517049D01*
X157748969Y-48517048D01*
X157743537Y-48515809D01*
X157737979Y-48515559D01*
X157737969Y-48515558D01*
X157524230Y-48505959D01*
X157524222Y-48505959D01*
X157518670Y-48505710D01*
X157513166Y-48506455D01*
X157513155Y-48506456D01*
X157301132Y-48535177D01*
X157301127Y-48535177D01*
X157295613Y-48535925D01*
X157290321Y-48537644D01*
X157290314Y-48537646D01*
X157086832Y-48603761D01*
X157086820Y-48603766D01*
X157081536Y-48605483D01*
X157076636Y-48608119D01*
X157076633Y-48608121D01*
X156888215Y-48709512D01*
X156888203Y-48709519D01*
X156883319Y-48712148D01*
X156878978Y-48715609D01*
X156878970Y-48715615D01*
X156711691Y-48849016D01*
X156711682Y-48849024D01*
X156707334Y-48852492D01*
X156703672Y-48856682D01*
X156703664Y-48856691D01*
X156668874Y-48896511D01*
X156613811Y-48932857D01*
X156547902Y-48935816D01*
X156489803Y-48904552D01*
X156439744Y-48856691D01*
X156357825Y-48778368D01*
X156169968Y-48654365D01*
X156164846Y-48652175D01*
X156164841Y-48652173D01*
X155968115Y-48568088D01*
X155968111Y-48568086D01*
X155962988Y-48565897D01*
X155957554Y-48564656D01*
X155957552Y-48564656D01*
X155748970Y-48517049D01*
X155748969Y-48517048D01*
X155743537Y-48515809D01*
X155737979Y-48515559D01*
X155737969Y-48515558D01*
X155524230Y-48505959D01*
X155524222Y-48505959D01*
X155518670Y-48505710D01*
X155513166Y-48506455D01*
X155513155Y-48506456D01*
X155301132Y-48535177D01*
X155301127Y-48535177D01*
X155295613Y-48535925D01*
X155290321Y-48537644D01*
X155290314Y-48537646D01*
X155086832Y-48603761D01*
X155086820Y-48603766D01*
X155081536Y-48605483D01*
X155076636Y-48608119D01*
X155076633Y-48608121D01*
X154888218Y-48709511D01*
X154888211Y-48709514D01*
X154883319Y-48712148D01*
X154878970Y-48715616D01*
X154876692Y-48717120D01*
X154818236Y-48737241D01*
X154757331Y-48726637D01*
X154709115Y-48687944D01*
X154687862Y-48659554D01*
X154687858Y-48659550D01*
X154682546Y-48652454D01*
X154567331Y-48566204D01*
X154490763Y-48537646D01*
X154439752Y-48518620D01*
X154439750Y-48518619D01*
X154432483Y-48515909D01*
X154424770Y-48515079D01*
X154424767Y-48515079D01*
X154376180Y-48509855D01*
X154376169Y-48509854D01*
X154372873Y-48509500D01*
X154369550Y-48509500D01*
X152780439Y-48509500D01*
X152780420Y-48509500D01*
X152777128Y-48509501D01*
X152773850Y-48509853D01*
X152773838Y-48509854D01*
X152717517Y-48515909D01*
X152717231Y-48513252D01*
X152669228Y-48512151D01*
X152615470Y-48480562D01*
X152613384Y-48478476D01*
X152610224Y-48474776D01*
X152564110Y-48435391D01*
X152422363Y-48314327D01*
X152422358Y-48314324D01*
X152418659Y-48311164D01*
X152414511Y-48308622D01*
X152414504Y-48308617D01*
X152208017Y-48182082D01*
X152208016Y-48182081D01*
X152203859Y-48179534D01*
X151971111Y-48083127D01*
X151966382Y-48081991D01*
X151966374Y-48081989D01*
X151730881Y-48025453D01*
X151730877Y-48025452D01*
X151726148Y-48024317D01*
X151721295Y-48023935D01*
X151479854Y-48004933D01*
X151475000Y-48004551D01*
X151470146Y-48004933D01*
X151228704Y-48023935D01*
X151228702Y-48023935D01*
X151223852Y-48024317D01*
X151219124Y-48025451D01*
X151219118Y-48025453D01*
X150983625Y-48081989D01*
X150983613Y-48081992D01*
X150978889Y-48083127D01*
X150974392Y-48084989D01*
X150974388Y-48084991D01*
X150750645Y-48177668D01*
X150750640Y-48177670D01*
X150746141Y-48179534D01*
X150741988Y-48182078D01*
X150741982Y-48182082D01*
X150535495Y-48308617D01*
X150535482Y-48308626D01*
X150531341Y-48311164D01*
X150527646Y-48314319D01*
X150527636Y-48314327D01*
X150343476Y-48471615D01*
X150343469Y-48471621D01*
X150339776Y-48474776D01*
X150336621Y-48478469D01*
X150336615Y-48478476D01*
X150179327Y-48662636D01*
X150179319Y-48662646D01*
X150176164Y-48666341D01*
X150173626Y-48670482D01*
X150173617Y-48670495D01*
X150047082Y-48876982D01*
X150047078Y-48876988D01*
X150044534Y-48881141D01*
X150042670Y-48885640D01*
X150042668Y-48885645D01*
X149949991Y-49109388D01*
X149948127Y-49113889D01*
X149946992Y-49118613D01*
X149946989Y-49118625D01*
X149890453Y-49354118D01*
X149890451Y-49354124D01*
X149889317Y-49358852D01*
X149888935Y-49363702D01*
X149888935Y-49363704D01*
X149874691Y-49544683D01*
X149874690Y-49544699D01*
X149874500Y-49547118D01*
X149874500Y-50972882D01*
X141125898Y-50972882D01*
X141128035Y-50969830D01*
X141227903Y-50755663D01*
X141289063Y-50527408D01*
X141309659Y-50292000D01*
X141289063Y-50056592D01*
X141227903Y-49828337D01*
X141128035Y-49614171D01*
X140992495Y-49420599D01*
X140825401Y-49253505D01*
X140820970Y-49250402D01*
X140820966Y-49250399D01*
X140636259Y-49121066D01*
X140636257Y-49121064D01*
X140631830Y-49117965D01*
X140626933Y-49115681D01*
X140626927Y-49115678D01*
X140422572Y-49020386D01*
X140422570Y-49020385D01*
X140417663Y-49018097D01*
X140412438Y-49016697D01*
X140412430Y-49016694D01*
X140194634Y-48958337D01*
X140194630Y-48958336D01*
X140189408Y-48956937D01*
X140184020Y-48956465D01*
X140184017Y-48956465D01*
X139959395Y-48936813D01*
X139954000Y-48936341D01*
X139948605Y-48936813D01*
X139723982Y-48956465D01*
X139723977Y-48956465D01*
X139718592Y-48956937D01*
X139713371Y-48958335D01*
X139713365Y-48958337D01*
X139495569Y-49016694D01*
X139495557Y-49016698D01*
X139490337Y-49018097D01*
X139485432Y-49020383D01*
X139485427Y-49020386D01*
X139281081Y-49115675D01*
X139281077Y-49115677D01*
X139276171Y-49117965D01*
X139271738Y-49121068D01*
X139271731Y-49121073D01*
X139087034Y-49250399D01*
X139087029Y-49250402D01*
X139082599Y-49253505D01*
X139078775Y-49257328D01*
X139078769Y-49257334D01*
X138919334Y-49416769D01*
X138919328Y-49416775D01*
X138915505Y-49420599D01*
X138912402Y-49425029D01*
X138912399Y-49425034D01*
X138785575Y-49606159D01*
X138741257Y-49645025D01*
X138684000Y-49659036D01*
X138626743Y-49645025D01*
X138582425Y-49606159D01*
X138511405Y-49504732D01*
X138452495Y-49420599D01*
X138285401Y-49253505D01*
X138280970Y-49250402D01*
X138280966Y-49250399D01*
X138096259Y-49121066D01*
X138096257Y-49121064D01*
X138091830Y-49117965D01*
X138086933Y-49115681D01*
X138086927Y-49115678D01*
X137882572Y-49020386D01*
X137882570Y-49020385D01*
X137877663Y-49018097D01*
X137872438Y-49016697D01*
X137872430Y-49016694D01*
X137654634Y-48958337D01*
X137654630Y-48958336D01*
X137649408Y-48956937D01*
X137644020Y-48956465D01*
X137644017Y-48956465D01*
X137419395Y-48936813D01*
X137414000Y-48936341D01*
X137408605Y-48936813D01*
X137183982Y-48956465D01*
X137183977Y-48956465D01*
X137178592Y-48956937D01*
X137173371Y-48958335D01*
X137173365Y-48958337D01*
X136955569Y-49016694D01*
X136955557Y-49016698D01*
X136950337Y-49018097D01*
X136945432Y-49020383D01*
X136945427Y-49020386D01*
X136741081Y-49115675D01*
X136741077Y-49115677D01*
X136736171Y-49117965D01*
X136731738Y-49121068D01*
X136731731Y-49121073D01*
X136547034Y-49250399D01*
X136547029Y-49250402D01*
X136542599Y-49253505D01*
X136538775Y-49257328D01*
X136538769Y-49257334D01*
X136379334Y-49416769D01*
X136379328Y-49416775D01*
X136375505Y-49420599D01*
X136372402Y-49425029D01*
X136372399Y-49425034D01*
X136245575Y-49606159D01*
X136201257Y-49645025D01*
X136144000Y-49659036D01*
X136086743Y-49645025D01*
X136042425Y-49606159D01*
X135971405Y-49504732D01*
X135912495Y-49420599D01*
X135745401Y-49253505D01*
X135740970Y-49250402D01*
X135740966Y-49250399D01*
X135556259Y-49121066D01*
X135556257Y-49121064D01*
X135551830Y-49117965D01*
X135546933Y-49115681D01*
X135546927Y-49115678D01*
X135342572Y-49020386D01*
X135342570Y-49020385D01*
X135337663Y-49018097D01*
X135332438Y-49016697D01*
X135332430Y-49016694D01*
X135114634Y-48958337D01*
X135114630Y-48958336D01*
X135109408Y-48956937D01*
X135104020Y-48956465D01*
X135104017Y-48956465D01*
X134879395Y-48936813D01*
X134874000Y-48936341D01*
X134868605Y-48936813D01*
X134643982Y-48956465D01*
X134643977Y-48956465D01*
X134638592Y-48956937D01*
X134633371Y-48958335D01*
X134633365Y-48958337D01*
X134415569Y-49016694D01*
X134415557Y-49016698D01*
X134410337Y-49018097D01*
X134405432Y-49020383D01*
X134405427Y-49020386D01*
X134201081Y-49115675D01*
X134201077Y-49115677D01*
X134196171Y-49117965D01*
X134191738Y-49121068D01*
X134191731Y-49121073D01*
X134007034Y-49250399D01*
X134007029Y-49250402D01*
X134002599Y-49253505D01*
X133998775Y-49257329D01*
X133880285Y-49375819D01*
X133827538Y-49407114D01*
X133766246Y-49409303D01*
X133711401Y-49381850D01*
X133676422Y-49331471D01*
X133630451Y-49208220D01*
X133622037Y-49192810D01*
X133546501Y-49091907D01*
X133534092Y-49079498D01*
X133433189Y-49003962D01*
X133417777Y-48995547D01*
X133298641Y-48951111D01*
X133283667Y-48947573D01*
X133235114Y-48942353D01*
X133228518Y-48942000D01*
X132600326Y-48942000D01*
X132587450Y-48945450D01*
X132584000Y-48958326D01*
X132584000Y-51625674D01*
X132587450Y-51638549D01*
X132600326Y-51642000D01*
X133228518Y-51642000D01*
X133235128Y-51641645D01*
X133288148Y-51635945D01*
X133348037Y-51644337D01*
X133396835Y-51680056D01*
X133422935Y-51734608D01*
X133420130Y-51795017D01*
X133389086Y-51846915D01*
X131970822Y-53265181D01*
X131930594Y-53292061D01*
X131883141Y-53301500D01*
X131126939Y-53301500D01*
X131079486Y-53292061D01*
X131039258Y-53265181D01*
X130002818Y-52228740D01*
X129975938Y-52188512D01*
X129966499Y-52141059D01*
X129966499Y-51802141D01*
X129966499Y-51798992D01*
X129955999Y-51696203D01*
X129900814Y-51529666D01*
X129810058Y-51382527D01*
X129808712Y-51380344D01*
X129808988Y-51380173D01*
X129787591Y-51335429D01*
X129787591Y-51280571D01*
X129808988Y-51235826D01*
X129808712Y-51235656D01*
X129810308Y-51233068D01*
X129839020Y-51186518D01*
X130984000Y-51186518D01*
X130984353Y-51193114D01*
X130989573Y-51241667D01*
X130993111Y-51256641D01*
X131037547Y-51375777D01*
X131045962Y-51391189D01*
X131121498Y-51492092D01*
X131133907Y-51504501D01*
X131234810Y-51580037D01*
X131250222Y-51588452D01*
X131369358Y-51632888D01*
X131384332Y-51636426D01*
X131432885Y-51641646D01*
X131439482Y-51642000D01*
X132067674Y-51642000D01*
X132080549Y-51638549D01*
X132084000Y-51625674D01*
X132084000Y-50558326D01*
X132080549Y-50545450D01*
X132067674Y-50542000D01*
X131000326Y-50542000D01*
X130987450Y-50545450D01*
X130984000Y-50558326D01*
X130984000Y-51186518D01*
X129839020Y-51186518D01*
X129900814Y-51086334D01*
X129955999Y-50919797D01*
X129966500Y-50817009D01*
X129966499Y-50025674D01*
X130984000Y-50025674D01*
X130987450Y-50038549D01*
X131000326Y-50042000D01*
X132067674Y-50042000D01*
X132080549Y-50038549D01*
X132084000Y-50025674D01*
X132084000Y-48958326D01*
X132080549Y-48945450D01*
X132067674Y-48942000D01*
X131439482Y-48942000D01*
X131432885Y-48942353D01*
X131384332Y-48947573D01*
X131369358Y-48951111D01*
X131250222Y-48995547D01*
X131234810Y-49003962D01*
X131133907Y-49079498D01*
X131121498Y-49091907D01*
X131045962Y-49192810D01*
X131037547Y-49208222D01*
X130993111Y-49327358D01*
X130989573Y-49342332D01*
X130984353Y-49390885D01*
X130984000Y-49397482D01*
X130984000Y-50025674D01*
X129966499Y-50025674D01*
X129966499Y-49766992D01*
X129955999Y-49664203D01*
X129900814Y-49497666D01*
X129816192Y-49360471D01*
X129812502Y-49354488D01*
X129812500Y-49354485D01*
X129808712Y-49348344D01*
X129684656Y-49224288D01*
X129678515Y-49220500D01*
X129678511Y-49220497D01*
X129541480Y-49135977D01*
X129535334Y-49132186D01*
X129501797Y-49121073D01*
X129375225Y-49079131D01*
X129375224Y-49079130D01*
X129368797Y-49077001D01*
X129362064Y-49076313D01*
X129362059Y-49076312D01*
X129269140Y-49066819D01*
X129269123Y-49066818D01*
X129266009Y-49066500D01*
X129262860Y-49066500D01*
X128669141Y-49066500D01*
X128669121Y-49066500D01*
X128665992Y-49066501D01*
X128662860Y-49066820D01*
X128662858Y-49066821D01*
X128569938Y-49076312D01*
X128569928Y-49076313D01*
X128563203Y-49077001D01*
X128556781Y-49079128D01*
X128556776Y-49079130D01*
X128403521Y-49129914D01*
X128403517Y-49129915D01*
X128396666Y-49132186D01*
X128390522Y-49135975D01*
X128390519Y-49135977D01*
X128253488Y-49220497D01*
X128253480Y-49220503D01*
X128247344Y-49224288D01*
X128242242Y-49229389D01*
X128242238Y-49229393D01*
X128128393Y-49343238D01*
X128128389Y-49343242D01*
X128123288Y-49348344D01*
X128119499Y-49354486D01*
X128115016Y-49360157D01*
X128113566Y-49359010D01*
X128076122Y-49394845D01*
X128015689Y-49410559D01*
X127955262Y-49394829D01*
X127918117Y-49359263D01*
X127916590Y-49360471D01*
X127903205Y-49343544D01*
X127789455Y-49229794D01*
X127778194Y-49220890D01*
X127641266Y-49136432D01*
X127628267Y-49130370D01*
X127475125Y-49079624D01*
X127461958Y-49076805D01*
X127369109Y-49067319D01*
X127362832Y-49067000D01*
X127332326Y-49067000D01*
X127319450Y-49070450D01*
X127316000Y-49083326D01*
X127316000Y-53532673D01*
X126816000Y-53532673D01*
X126816000Y-52590326D01*
X126812549Y-52577450D01*
X126799674Y-52574000D01*
X126082327Y-52574000D01*
X126069451Y-52577450D01*
X126066001Y-52590326D01*
X126066001Y-52845829D01*
X121328497Y-52845829D01*
X121402000Y-52752009D01*
X121574769Y-52466213D01*
X121711830Y-52161676D01*
X121744238Y-52057674D01*
X126066000Y-52057674D01*
X126069450Y-52070549D01*
X126082326Y-52074000D01*
X126799674Y-52074000D01*
X126812549Y-52070549D01*
X126816000Y-52057674D01*
X126816000Y-50558326D01*
X126812549Y-50545450D01*
X126799674Y-50542000D01*
X126082327Y-50542000D01*
X126069451Y-50545450D01*
X126066001Y-50558326D01*
X126066001Y-50813829D01*
X126066321Y-50820111D01*
X126075805Y-50912959D01*
X126078623Y-50926122D01*
X126129370Y-51079267D01*
X126135432Y-51092266D01*
X126219891Y-51229196D01*
X126221383Y-51231083D01*
X126222515Y-51233451D01*
X126223683Y-51235344D01*
X126223480Y-51235468D01*
X126245048Y-51280566D01*
X126245052Y-51335417D01*
X126223482Y-51380532D01*
X126223683Y-51380656D01*
X126222528Y-51382527D01*
X126221393Y-51384903D01*
X126219893Y-51386799D01*
X126135432Y-51523733D01*
X126129370Y-51536732D01*
X126078624Y-51689874D01*
X126075805Y-51703041D01*
X126066319Y-51795890D01*
X126066000Y-51802168D01*
X126066000Y-52057674D01*
X121744238Y-52057674D01*
X121811184Y-51842838D01*
X121871382Y-51514350D01*
X121891546Y-51181000D01*
X121871382Y-50847650D01*
X121811184Y-50519162D01*
X121711830Y-50200324D01*
X121633226Y-50025674D01*
X126066000Y-50025674D01*
X126069450Y-50038549D01*
X126082326Y-50042000D01*
X126799674Y-50042000D01*
X126812549Y-50038549D01*
X126816000Y-50025674D01*
X126816000Y-49083327D01*
X126812549Y-49070451D01*
X126799674Y-49067001D01*
X126769171Y-49067001D01*
X126762888Y-49067321D01*
X126670040Y-49076805D01*
X126656877Y-49079623D01*
X126503732Y-49130370D01*
X126490733Y-49136432D01*
X126353805Y-49220890D01*
X126342544Y-49229794D01*
X126228794Y-49343544D01*
X126219890Y-49354805D01*
X126135432Y-49491733D01*
X126129370Y-49504732D01*
X126078624Y-49657874D01*
X126075805Y-49671041D01*
X126066319Y-49763890D01*
X126066000Y-49770168D01*
X126066000Y-50025674D01*
X121633226Y-50025674D01*
X121574769Y-49895787D01*
X121402000Y-49609991D01*
X121196041Y-49347104D01*
X120959896Y-49110959D01*
X120924626Y-49083327D01*
X120765089Y-48958337D01*
X120697009Y-48905000D01*
X120554111Y-48818615D01*
X120414418Y-48734168D01*
X120414411Y-48734164D01*
X120411213Y-48732231D01*
X120106676Y-48595170D01*
X120103098Y-48594055D01*
X119791414Y-48496930D01*
X119791408Y-48496928D01*
X119787838Y-48495816D01*
X119784167Y-48495143D01*
X119784158Y-48495141D01*
X119463034Y-48436293D01*
X119463032Y-48436292D01*
X119459350Y-48435618D01*
X119455624Y-48435392D01*
X119455611Y-48435391D01*
X119211298Y-48420613D01*
X119211278Y-48420612D01*
X119209420Y-48420500D01*
X119042580Y-48420500D01*
X119040722Y-48420612D01*
X119040701Y-48420613D01*
X118796388Y-48435391D01*
X118796373Y-48435392D01*
X118792650Y-48435618D01*
X118788969Y-48436292D01*
X118788965Y-48436293D01*
X118467841Y-48495141D01*
X118467828Y-48495144D01*
X118464162Y-48495816D01*
X118460594Y-48496927D01*
X118460585Y-48496930D01*
X118148901Y-48594055D01*
X118148895Y-48594057D01*
X118145324Y-48595170D01*
X118141915Y-48596704D01*
X118141913Y-48596705D01*
X117844201Y-48730694D01*
X117844194Y-48730697D01*
X117840787Y-48732231D01*
X117837594Y-48734160D01*
X117837581Y-48734168D01*
X117558195Y-48903063D01*
X117554991Y-48905000D01*
X117552049Y-48907304D01*
X117552043Y-48907309D01*
X117295055Y-49108646D01*
X117295044Y-49108654D01*
X117292104Y-49110959D01*
X117289458Y-49113604D01*
X117289450Y-49113612D01*
X117058612Y-49344450D01*
X117058604Y-49344458D01*
X117055959Y-49347104D01*
X117053654Y-49350044D01*
X117053646Y-49350055D01*
X116852309Y-49607043D01*
X116852304Y-49607049D01*
X116850000Y-49609991D01*
X116848063Y-49613193D01*
X116848063Y-49613195D01*
X116679168Y-49892581D01*
X116679160Y-49892594D01*
X116677231Y-49895787D01*
X116675697Y-49899194D01*
X116675694Y-49899201D01*
X116541705Y-50196913D01*
X116540170Y-50200324D01*
X116539057Y-50203895D01*
X116539055Y-50203901D01*
X116441930Y-50515585D01*
X116441927Y-50515594D01*
X116440816Y-50519162D01*
X116440144Y-50522828D01*
X116440141Y-50522841D01*
X116385659Y-50820140D01*
X116380618Y-50847650D01*
X116380392Y-50851373D01*
X116380391Y-50851388D01*
X116366595Y-51079478D01*
X116360454Y-51181000D01*
X105420500Y-51181000D01*
X105420500Y-47774329D01*
X105437104Y-47712345D01*
X105482468Y-47666960D01*
X105544443Y-47650329D01*
X139029032Y-47635500D01*
X162603300Y-47635500D01*
X162665300Y-47652113D01*
G37*
G04 #@! TD.AperFunction*
M02*
