G04 #@! TF.GenerationSoftware,KiCad,Pcbnew,(7.0.0)*
G04 #@! TF.CreationDate,2023-02-19T21:46:30+01:00*
G04 #@! TF.ProjectId,Glitchifier9000,476c6974-6368-4696-9669-657239303030,rev?*
G04 #@! TF.SameCoordinates,Original*
G04 #@! TF.FileFunction,Copper,L2,Bot*
G04 #@! TF.FilePolarity,Positive*
%FSLAX46Y46*%
G04 Gerber Fmt 4.6, Leading zero omitted, Abs format (unit mm)*
G04 Created by KiCad (PCBNEW (7.0.0)) date 2023-02-19 21:46:30*
%MOMM*%
%LPD*%
G01*
G04 APERTURE LIST*
G04 #@! TA.AperFunction,ComponentPad*
%ADD10R,1.700000X1.700000*%
G04 #@! TD*
G04 #@! TA.AperFunction,ComponentPad*
%ADD11O,1.700000X1.700000*%
G04 #@! TD*
G04 #@! TA.AperFunction,ComponentPad*
%ADD12O,2.200000X3.500000*%
G04 #@! TD*
G04 #@! TA.AperFunction,ComponentPad*
%ADD13R,1.500000X2.500000*%
G04 #@! TD*
G04 #@! TA.AperFunction,ComponentPad*
%ADD14O,1.500000X2.500000*%
G04 #@! TD*
G04 #@! TA.AperFunction,ComponentPad*
%ADD15R,2.000000X2.000000*%
G04 #@! TD*
G04 #@! TA.AperFunction,ComponentPad*
%ADD16C,2.000000*%
G04 #@! TD*
G04 #@! TA.AperFunction,ViaPad*
%ADD17C,0.600000*%
G04 #@! TD*
G04 #@! TA.AperFunction,Conductor*
%ADD18C,0.600000*%
G04 #@! TD*
G04 #@! TA.AperFunction,Conductor*
%ADD19C,0.400000*%
G04 #@! TD*
G04 APERTURE END LIST*
D10*
X107949999Y-83819999D03*
D11*
X107949999Y-86359999D03*
X107949999Y-88899999D03*
X107949999Y-91439999D03*
X107949999Y-93979999D03*
X107949999Y-96519999D03*
X107949999Y-99059999D03*
X107949999Y-101599999D03*
D10*
X132333999Y-50291999D03*
D11*
X134873999Y-50291999D03*
X137413999Y-50291999D03*
X139953999Y-50291999D03*
D10*
X107314999Y-61159999D03*
D11*
X107314999Y-63699999D03*
D12*
X151474999Y-50259999D03*
X159674999Y-50259999D03*
D13*
X153574999Y-50259999D03*
D14*
X155574999Y-50259999D03*
X157574999Y-50259999D03*
D15*
X159662999Y-60451999D03*
D16*
X159663000Y-73152000D03*
D17*
X159893000Y-109474000D03*
X116078000Y-60960000D03*
X143510000Y-81026000D03*
X107315000Y-67310000D03*
X125476000Y-52324000D03*
X111379000Y-54991000D03*
X105918000Y-71628000D03*
X106172000Y-54356000D03*
X135890000Y-123063000D03*
X111506000Y-56896000D03*
X111506000Y-55880000D03*
X107061000Y-54356000D03*
X111125000Y-69850000D03*
X108839000Y-54356000D03*
X116078000Y-62230000D03*
X114808000Y-58674000D03*
X109728000Y-54356000D03*
X140589000Y-114554000D03*
X143510000Y-87122000D03*
X115824000Y-67818000D03*
X119380000Y-106934000D03*
X114300000Y-63500000D03*
X110617000Y-54356000D03*
X128000000Y-113600000D03*
X110998000Y-102870000D03*
X147320000Y-109220000D03*
X110490000Y-63500000D03*
X113030000Y-63500000D03*
X111760000Y-67818000D03*
X130556000Y-50292000D03*
X109728000Y-71628000D03*
X131064000Y-116586000D03*
X130810000Y-87122000D03*
X135128000Y-119507000D03*
X134239000Y-121412000D03*
X115316000Y-93980000D03*
X110744000Y-59309000D03*
X111506000Y-57912000D03*
X111125000Y-71120000D03*
X109728000Y-85217000D03*
X111125000Y-68580000D03*
X107950000Y-54356000D03*
X108458000Y-71628000D03*
X106045000Y-67310000D03*
X109474000Y-90170000D03*
X117094000Y-106934000D03*
X113284000Y-58674000D03*
X156210000Y-100330000D03*
X156210000Y-107696000D03*
X111760000Y-63500000D03*
X156210000Y-81026000D03*
X125476000Y-50292000D03*
X108966000Y-65786000D03*
X130810000Y-81026000D03*
X108585000Y-67310000D03*
X112014000Y-58674000D03*
X156210000Y-87122000D03*
X121900000Y-106900000D03*
X140208000Y-108966000D03*
X143256000Y-113538000D03*
X132334000Y-52324000D03*
X116078000Y-59690000D03*
X130302000Y-110236000D03*
X137033000Y-110871000D03*
X107442000Y-65786000D03*
X109728000Y-81661000D03*
X113030000Y-67818000D03*
X109728000Y-83820000D03*
X109474000Y-59436000D03*
X115824000Y-63500000D03*
X130810000Y-106172000D03*
X135636000Y-114808000D03*
X115824000Y-65786000D03*
X107188000Y-71628000D03*
X118110000Y-87122000D03*
X134620000Y-108458000D03*
X151130000Y-88265000D03*
X132266081Y-54102000D03*
X113030000Y-101346000D03*
X115570000Y-101346000D03*
X118110000Y-101473000D03*
X158750000Y-77978000D03*
X159893000Y-76581000D03*
D18*
X159893000Y-109474000D02*
X159893000Y-80391000D01*
X157575000Y-52292000D02*
X157575000Y-50260000D01*
X161671000Y-56388000D02*
X157575000Y-52292000D01*
X159893000Y-80391000D02*
X161671000Y-78613000D01*
X161671000Y-78613000D02*
X161671000Y-56388000D01*
X159663000Y-60452000D02*
X155575000Y-56364000D01*
X155575000Y-56364000D02*
X155575000Y-50260000D01*
D19*
X159893000Y-76581000D02*
X140150000Y-56838000D01*
X151130000Y-72965919D02*
X132266081Y-54102000D01*
X151130000Y-88265000D02*
X151130000Y-72965919D01*
X113030000Y-101346000D02*
X113030000Y-99060000D01*
X107950000Y-93980000D02*
X113030000Y-99060000D01*
X107950000Y-91440000D02*
X115570000Y-99060000D01*
X115570000Y-101346000D02*
X115570000Y-99060000D01*
X109152081Y-86360000D02*
X107950000Y-86360000D01*
X118110000Y-95317919D02*
X109152081Y-86360000D01*
X118110000Y-101473000D02*
X118110000Y-95317919D01*
X158750000Y-77978000D02*
X137610000Y-56838000D01*
X137610000Y-56838000D02*
X137610000Y-50270000D01*
X140150000Y-56838000D02*
X140150000Y-50270000D01*
G04 #@! TA.AperFunction,Conductor*
G36*
X162665300Y-47652113D02*
G01*
X162710687Y-47697500D01*
X162727300Y-47759500D01*
X162727300Y-139590900D01*
X162710687Y-139652900D01*
X162665300Y-139698287D01*
X162603300Y-139714900D01*
X105544500Y-139714900D01*
X105482500Y-139698287D01*
X105437113Y-139652900D01*
X105420500Y-139590900D01*
X105420500Y-101600000D01*
X106594341Y-101600000D01*
X106594813Y-101605395D01*
X106613809Y-101822522D01*
X106614937Y-101835408D01*
X106616336Y-101840630D01*
X106616337Y-101840634D01*
X106674694Y-102058430D01*
X106674697Y-102058438D01*
X106676097Y-102063663D01*
X106678385Y-102068570D01*
X106678386Y-102068572D01*
X106773678Y-102272927D01*
X106773681Y-102272933D01*
X106775965Y-102277830D01*
X106779064Y-102282257D01*
X106779066Y-102282259D01*
X106908399Y-102466966D01*
X106908402Y-102466970D01*
X106911505Y-102471401D01*
X107078599Y-102638495D01*
X107272170Y-102774035D01*
X107486337Y-102873903D01*
X107714592Y-102935063D01*
X107950000Y-102955659D01*
X108185408Y-102935063D01*
X108413663Y-102873903D01*
X108627830Y-102774035D01*
X108821401Y-102638495D01*
X108988495Y-102471401D01*
X109124035Y-102277830D01*
X109223903Y-102063663D01*
X109285063Y-101835408D01*
X109305659Y-101600000D01*
X109285063Y-101364592D01*
X109223903Y-101136337D01*
X109124035Y-100922171D01*
X108988495Y-100728599D01*
X108821401Y-100561505D01*
X108816970Y-100558402D01*
X108816966Y-100558399D01*
X108635841Y-100431574D01*
X108596976Y-100387256D01*
X108582965Y-100329999D01*
X108596976Y-100272742D01*
X108635839Y-100228426D01*
X108821401Y-100098495D01*
X108988495Y-99931401D01*
X109124035Y-99737830D01*
X109223903Y-99523663D01*
X109285063Y-99295408D01*
X109305659Y-99060000D01*
X109285063Y-98824592D01*
X109223903Y-98596337D01*
X109124035Y-98382171D01*
X108988495Y-98188599D01*
X108821401Y-98021505D01*
X108816968Y-98018401D01*
X108816961Y-98018395D01*
X108635842Y-97891575D01*
X108596976Y-97847257D01*
X108582965Y-97790000D01*
X108596976Y-97732743D01*
X108635842Y-97688425D01*
X108816961Y-97561604D01*
X108816961Y-97561603D01*
X108821401Y-97558495D01*
X108988495Y-97391401D01*
X109124035Y-97197830D01*
X109223903Y-96983663D01*
X109285063Y-96755408D01*
X109298064Y-96606802D01*
X109323216Y-96542125D01*
X109379181Y-96501089D01*
X109448430Y-96496550D01*
X109509273Y-96529930D01*
X112293181Y-99313838D01*
X112320061Y-99354066D01*
X112329500Y-99401519D01*
X112329500Y-100920507D01*
X112310493Y-100986479D01*
X112304211Y-100996478D01*
X112301915Y-101003036D01*
X112301913Y-101003043D01*
X112246930Y-101160175D01*
X112246928Y-101160182D01*
X112244632Y-101166745D01*
X112224435Y-101346000D01*
X112244632Y-101525255D01*
X112246928Y-101531819D01*
X112246930Y-101531824D01*
X112301913Y-101688956D01*
X112304211Y-101695522D01*
X112400184Y-101848262D01*
X112527738Y-101975816D01*
X112680478Y-102071789D01*
X112850745Y-102131368D01*
X113030000Y-102151565D01*
X113209255Y-102131368D01*
X113379522Y-102071789D01*
X113532262Y-101975816D01*
X113659816Y-101848262D01*
X113755789Y-101695522D01*
X113815368Y-101525255D01*
X113835565Y-101346000D01*
X113815368Y-101166745D01*
X113755789Y-100996478D01*
X113749506Y-100986479D01*
X113730500Y-100920507D01*
X113730500Y-99084921D01*
X113730726Y-99077433D01*
X113733905Y-99024881D01*
X113734358Y-99017394D01*
X113723514Y-98958221D01*
X113722387Y-98950815D01*
X113722146Y-98948831D01*
X113715140Y-98891128D01*
X113711547Y-98881653D01*
X113705522Y-98860041D01*
X113703695Y-98850069D01*
X113692228Y-98824592D01*
X113679008Y-98795218D01*
X113676141Y-98788296D01*
X113657479Y-98739088D01*
X113654818Y-98732070D01*
X113649063Y-98723733D01*
X113638035Y-98704179D01*
X113636958Y-98701785D01*
X113636954Y-98701779D01*
X113633878Y-98694943D01*
X113596785Y-98647597D01*
X113592349Y-98641569D01*
X113558183Y-98592071D01*
X113513170Y-98552193D01*
X113507716Y-98547059D01*
X109312652Y-94351995D01*
X109280558Y-94296407D01*
X109280559Y-94232219D01*
X109283662Y-94220638D01*
X109283662Y-94220633D01*
X109285063Y-94215408D01*
X109298064Y-94066802D01*
X109323216Y-94002125D01*
X109379181Y-93961089D01*
X109448430Y-93956550D01*
X109509273Y-93989930D01*
X114833181Y-99313838D01*
X114860061Y-99354066D01*
X114869500Y-99401519D01*
X114869500Y-100920507D01*
X114850493Y-100986479D01*
X114844211Y-100996478D01*
X114841915Y-101003036D01*
X114841913Y-101003043D01*
X114786930Y-101160175D01*
X114786928Y-101160182D01*
X114784632Y-101166745D01*
X114764435Y-101346000D01*
X114784632Y-101525255D01*
X114786928Y-101531819D01*
X114786930Y-101531824D01*
X114841913Y-101688956D01*
X114844211Y-101695522D01*
X114940184Y-101848262D01*
X115067738Y-101975816D01*
X115220478Y-102071789D01*
X115390745Y-102131368D01*
X115570000Y-102151565D01*
X115749255Y-102131368D01*
X115919522Y-102071789D01*
X116072262Y-101975816D01*
X116199816Y-101848262D01*
X116295789Y-101695522D01*
X116355368Y-101525255D01*
X116375565Y-101346000D01*
X116355368Y-101166745D01*
X116295789Y-100996478D01*
X116289506Y-100986479D01*
X116270500Y-100920507D01*
X116270500Y-99084910D01*
X116270726Y-99077423D01*
X116273904Y-99024881D01*
X116274357Y-99017394D01*
X116263516Y-98958235D01*
X116262389Y-98950830D01*
X116262118Y-98948602D01*
X116255140Y-98891128D01*
X116252480Y-98884116D01*
X116252480Y-98884113D01*
X116251547Y-98881653D01*
X116245520Y-98860033D01*
X116243694Y-98850068D01*
X116219012Y-98795228D01*
X116216145Y-98788306D01*
X116216141Y-98788296D01*
X116194818Y-98732070D01*
X116190556Y-98725896D01*
X116190552Y-98725888D01*
X116189058Y-98723724D01*
X116178032Y-98704175D01*
X116176956Y-98701785D01*
X116173877Y-98694943D01*
X116136784Y-98647597D01*
X116132349Y-98641569D01*
X116102442Y-98598241D01*
X116102441Y-98598240D01*
X116098183Y-98592071D01*
X116053170Y-98552193D01*
X116047716Y-98547059D01*
X109312652Y-91811995D01*
X109280558Y-91756407D01*
X109280559Y-91692219D01*
X109283662Y-91680638D01*
X109283662Y-91680633D01*
X109285063Y-91675408D01*
X109305659Y-91440000D01*
X109285063Y-91204592D01*
X109223903Y-90976337D01*
X109124035Y-90762171D01*
X108988495Y-90568599D01*
X108821401Y-90401505D01*
X108816968Y-90398401D01*
X108816961Y-90398395D01*
X108635842Y-90271575D01*
X108596976Y-90227257D01*
X108582965Y-90170000D01*
X108596976Y-90112743D01*
X108635842Y-90068425D01*
X108816961Y-89941604D01*
X108816961Y-89941603D01*
X108821401Y-89938495D01*
X108988495Y-89771401D01*
X109124035Y-89577830D01*
X109223903Y-89363663D01*
X109285063Y-89135408D01*
X109305659Y-88900000D01*
X109285063Y-88664592D01*
X109223903Y-88436337D01*
X109124035Y-88222171D01*
X108988495Y-88028599D01*
X108821401Y-87861505D01*
X108816970Y-87858402D01*
X108816966Y-87858399D01*
X108635841Y-87731574D01*
X108596976Y-87687256D01*
X108582965Y-87629999D01*
X108596976Y-87572742D01*
X108635839Y-87528426D01*
X108821401Y-87398495D01*
X108922982Y-87296913D01*
X108978566Y-87264822D01*
X109042753Y-87264822D01*
X109098338Y-87296914D01*
X113236030Y-91434605D01*
X117373181Y-95571756D01*
X117400061Y-95611984D01*
X117409500Y-95659437D01*
X117409500Y-101047507D01*
X117390493Y-101113479D01*
X117384211Y-101123478D01*
X117381915Y-101130036D01*
X117381913Y-101130043D01*
X117326930Y-101287175D01*
X117326928Y-101287182D01*
X117324632Y-101293745D01*
X117323852Y-101300662D01*
X117323852Y-101300665D01*
X117316042Y-101369982D01*
X117304435Y-101473000D01*
X117324632Y-101652255D01*
X117326928Y-101658819D01*
X117326930Y-101658824D01*
X117381913Y-101815956D01*
X117384211Y-101822522D01*
X117480184Y-101975262D01*
X117607738Y-102102816D01*
X117760478Y-102198789D01*
X117930745Y-102258368D01*
X118110000Y-102278565D01*
X118289255Y-102258368D01*
X118459522Y-102198789D01*
X118612262Y-102102816D01*
X118739816Y-101975262D01*
X118835789Y-101822522D01*
X118895368Y-101652255D01*
X118915565Y-101473000D01*
X118895368Y-101293745D01*
X118835789Y-101123478D01*
X118829506Y-101113479D01*
X118810500Y-101047507D01*
X118810500Y-95342840D01*
X118810726Y-95335352D01*
X118813905Y-95282800D01*
X118814358Y-95275313D01*
X118803514Y-95216140D01*
X118802387Y-95208734D01*
X118800445Y-95192743D01*
X118795140Y-95149047D01*
X118791547Y-95139575D01*
X118785522Y-95117960D01*
X118783695Y-95107988D01*
X118759009Y-95053139D01*
X118756142Y-95046217D01*
X118737480Y-94997009D01*
X118734818Y-94989989D01*
X118729059Y-94981646D01*
X118718033Y-94962096D01*
X118716956Y-94959703D01*
X118713878Y-94952863D01*
X118676788Y-94905522D01*
X118672352Y-94899492D01*
X118642444Y-94856163D01*
X118642443Y-94856162D01*
X118638183Y-94849990D01*
X118593162Y-94810105D01*
X118587708Y-94804971D01*
X109665020Y-85882282D01*
X109659903Y-85876847D01*
X109620010Y-85831817D01*
X109570491Y-85797636D01*
X109564485Y-85793216D01*
X109523042Y-85760747D01*
X109523039Y-85760745D01*
X109517138Y-85756122D01*
X109510300Y-85753044D01*
X109510291Y-85753039D01*
X109507891Y-85751959D01*
X109488349Y-85740937D01*
X109486188Y-85739445D01*
X109486183Y-85739442D01*
X109480011Y-85735182D01*
X109423783Y-85713857D01*
X109416865Y-85710991D01*
X109368853Y-85689383D01*
X109368850Y-85689382D01*
X109362013Y-85686305D01*
X109354641Y-85684954D01*
X109354632Y-85684951D01*
X109352033Y-85684475D01*
X109330421Y-85678450D01*
X109327972Y-85677521D01*
X109327966Y-85677519D01*
X109320953Y-85674860D01*
X109313511Y-85673956D01*
X109313506Y-85673955D01*
X109261252Y-85667610D01*
X109253852Y-85666483D01*
X109202068Y-85656994D01*
X109202063Y-85656993D01*
X109194687Y-85655642D01*
X109187205Y-85656094D01*
X109187195Y-85656094D01*
X109178344Y-85656630D01*
X109116950Y-85644524D01*
X109069286Y-85603981D01*
X108988495Y-85488599D01*
X108866181Y-85366285D01*
X108834885Y-85313539D01*
X108832696Y-85252246D01*
X108860149Y-85197401D01*
X108910529Y-85162422D01*
X109033777Y-85116452D01*
X109049189Y-85108037D01*
X109150092Y-85032501D01*
X109162501Y-85020092D01*
X109238037Y-84919189D01*
X109246452Y-84903777D01*
X109290888Y-84784641D01*
X109294426Y-84769667D01*
X109299646Y-84721114D01*
X109300000Y-84714518D01*
X109300000Y-84086326D01*
X109296549Y-84073450D01*
X109283674Y-84070000D01*
X106616326Y-84070000D01*
X106603450Y-84073450D01*
X106600000Y-84086326D01*
X106600000Y-84714518D01*
X106600353Y-84721114D01*
X106605573Y-84769667D01*
X106609111Y-84784641D01*
X106653547Y-84903777D01*
X106661962Y-84919189D01*
X106737498Y-85020092D01*
X106749907Y-85032501D01*
X106850810Y-85108037D01*
X106866220Y-85116451D01*
X106989471Y-85162422D01*
X107039850Y-85197401D01*
X107067303Y-85252246D01*
X107065114Y-85313538D01*
X107033818Y-85366285D01*
X106911505Y-85488599D01*
X106908402Y-85493029D01*
X106908399Y-85493034D01*
X106779073Y-85677731D01*
X106779068Y-85677738D01*
X106775965Y-85682171D01*
X106773677Y-85687077D01*
X106773675Y-85687081D01*
X106678386Y-85891427D01*
X106678383Y-85891432D01*
X106676097Y-85896337D01*
X106674698Y-85901557D01*
X106674694Y-85901569D01*
X106616337Y-86119365D01*
X106616335Y-86119371D01*
X106614937Y-86124592D01*
X106594341Y-86360000D01*
X106614937Y-86595408D01*
X106616336Y-86600630D01*
X106616337Y-86600634D01*
X106674694Y-86818430D01*
X106674697Y-86818438D01*
X106676097Y-86823663D01*
X106678385Y-86828570D01*
X106678386Y-86828572D01*
X106773678Y-87032927D01*
X106773681Y-87032933D01*
X106775965Y-87037830D01*
X106779064Y-87042257D01*
X106779066Y-87042259D01*
X106908399Y-87226966D01*
X106908402Y-87226970D01*
X106911505Y-87231401D01*
X107078599Y-87398495D01*
X107083032Y-87401599D01*
X107083038Y-87401604D01*
X107264158Y-87528425D01*
X107303024Y-87572743D01*
X107317035Y-87630000D01*
X107303024Y-87687257D01*
X107264159Y-87731575D01*
X107110016Y-87839507D01*
X107078599Y-87861505D01*
X107074775Y-87865328D01*
X107074769Y-87865334D01*
X106915334Y-88024769D01*
X106915328Y-88024775D01*
X106911505Y-88028599D01*
X106908402Y-88033029D01*
X106908399Y-88033034D01*
X106779073Y-88217731D01*
X106779068Y-88217738D01*
X106775965Y-88222171D01*
X106773677Y-88227077D01*
X106773675Y-88227081D01*
X106678386Y-88431427D01*
X106678383Y-88431432D01*
X106676097Y-88436337D01*
X106674698Y-88441557D01*
X106674694Y-88441569D01*
X106616337Y-88659365D01*
X106616335Y-88659371D01*
X106614937Y-88664592D01*
X106614465Y-88669977D01*
X106614465Y-88669982D01*
X106605954Y-88767262D01*
X106594341Y-88900000D01*
X106594813Y-88905395D01*
X106609195Y-89069785D01*
X106614937Y-89135408D01*
X106616336Y-89140630D01*
X106616337Y-89140634D01*
X106674694Y-89358430D01*
X106674697Y-89358438D01*
X106676097Y-89363663D01*
X106678385Y-89368570D01*
X106678386Y-89368572D01*
X106773678Y-89572927D01*
X106773681Y-89572933D01*
X106775965Y-89577830D01*
X106779064Y-89582257D01*
X106779066Y-89582259D01*
X106908399Y-89766966D01*
X106908402Y-89766970D01*
X106911505Y-89771401D01*
X107078599Y-89938495D01*
X107083032Y-89941599D01*
X107083038Y-89941604D01*
X107264158Y-90068425D01*
X107303024Y-90112743D01*
X107317035Y-90170000D01*
X107303024Y-90227257D01*
X107264159Y-90271575D01*
X107083041Y-90398395D01*
X107078599Y-90401505D01*
X107074775Y-90405328D01*
X107074769Y-90405334D01*
X106915334Y-90564769D01*
X106915328Y-90564775D01*
X106911505Y-90568599D01*
X106908402Y-90573029D01*
X106908399Y-90573034D01*
X106779073Y-90757731D01*
X106779068Y-90757738D01*
X106775965Y-90762171D01*
X106773677Y-90767077D01*
X106773675Y-90767081D01*
X106678386Y-90971427D01*
X106678383Y-90971432D01*
X106676097Y-90976337D01*
X106674698Y-90981557D01*
X106674694Y-90981569D01*
X106616337Y-91199365D01*
X106616335Y-91199371D01*
X106614937Y-91204592D01*
X106594341Y-91440000D01*
X106594813Y-91445395D01*
X106614465Y-91670017D01*
X106614465Y-91670020D01*
X106614937Y-91675408D01*
X106616336Y-91680630D01*
X106616337Y-91680634D01*
X106674694Y-91898430D01*
X106674697Y-91898438D01*
X106676097Y-91903663D01*
X106678385Y-91908570D01*
X106678386Y-91908572D01*
X106773678Y-92112927D01*
X106773681Y-92112933D01*
X106775965Y-92117830D01*
X106779064Y-92122257D01*
X106779066Y-92122259D01*
X106908399Y-92306966D01*
X106908402Y-92306970D01*
X106911505Y-92311401D01*
X107078599Y-92478495D01*
X107083032Y-92481599D01*
X107083038Y-92481604D01*
X107264158Y-92608425D01*
X107303024Y-92652743D01*
X107317035Y-92710000D01*
X107303024Y-92767257D01*
X107264158Y-92811575D01*
X107078599Y-92941505D01*
X107074775Y-92945328D01*
X107074769Y-92945334D01*
X106915334Y-93104769D01*
X106915328Y-93104775D01*
X106911505Y-93108599D01*
X106908402Y-93113029D01*
X106908399Y-93113034D01*
X106779073Y-93297731D01*
X106779068Y-93297738D01*
X106775965Y-93302171D01*
X106773677Y-93307077D01*
X106773675Y-93307081D01*
X106678386Y-93511427D01*
X106678383Y-93511432D01*
X106676097Y-93516337D01*
X106674698Y-93521557D01*
X106674694Y-93521569D01*
X106616337Y-93739365D01*
X106616335Y-93739371D01*
X106614937Y-93744592D01*
X106614465Y-93749977D01*
X106614465Y-93749982D01*
X106594813Y-93974605D01*
X106594341Y-93980000D01*
X106594813Y-93985395D01*
X106601935Y-94066804D01*
X106614937Y-94215408D01*
X106616336Y-94220630D01*
X106616337Y-94220634D01*
X106674694Y-94438430D01*
X106674697Y-94438438D01*
X106676097Y-94443663D01*
X106678385Y-94448570D01*
X106678386Y-94448572D01*
X106773678Y-94652927D01*
X106773681Y-94652933D01*
X106775965Y-94657830D01*
X106779064Y-94662257D01*
X106779066Y-94662259D01*
X106908399Y-94846966D01*
X106908402Y-94846970D01*
X106911505Y-94851401D01*
X107078599Y-95018495D01*
X107083032Y-95021599D01*
X107083038Y-95021604D01*
X107264158Y-95148425D01*
X107303024Y-95192743D01*
X107317035Y-95250000D01*
X107303024Y-95307257D01*
X107264158Y-95351575D01*
X107078599Y-95481505D01*
X107074775Y-95485328D01*
X107074769Y-95485334D01*
X106915334Y-95644769D01*
X106915328Y-95644775D01*
X106911505Y-95648599D01*
X106908402Y-95653029D01*
X106908399Y-95653034D01*
X106779073Y-95837731D01*
X106779068Y-95837738D01*
X106775965Y-95842171D01*
X106773677Y-95847077D01*
X106773675Y-95847081D01*
X106678386Y-96051427D01*
X106678383Y-96051432D01*
X106676097Y-96056337D01*
X106674698Y-96061557D01*
X106674694Y-96061569D01*
X106616337Y-96279365D01*
X106616335Y-96279371D01*
X106614937Y-96284592D01*
X106614465Y-96289977D01*
X106614465Y-96289982D01*
X106594813Y-96514605D01*
X106594341Y-96520000D01*
X106594813Y-96525395D01*
X106601935Y-96606804D01*
X106614937Y-96755408D01*
X106616336Y-96760630D01*
X106616337Y-96760634D01*
X106674694Y-96978430D01*
X106674697Y-96978438D01*
X106676097Y-96983663D01*
X106678385Y-96988570D01*
X106678386Y-96988572D01*
X106773678Y-97192927D01*
X106773681Y-97192933D01*
X106775965Y-97197830D01*
X106779064Y-97202257D01*
X106779066Y-97202259D01*
X106908399Y-97386966D01*
X106908402Y-97386970D01*
X106911505Y-97391401D01*
X107078599Y-97558495D01*
X107083032Y-97561599D01*
X107083038Y-97561604D01*
X107264158Y-97688425D01*
X107303024Y-97732743D01*
X107317035Y-97790000D01*
X107303024Y-97847257D01*
X107264159Y-97891575D01*
X107083041Y-98018395D01*
X107078599Y-98021505D01*
X107074775Y-98025328D01*
X107074769Y-98025334D01*
X106915334Y-98184769D01*
X106915328Y-98184775D01*
X106911505Y-98188599D01*
X106908402Y-98193029D01*
X106908399Y-98193034D01*
X106779073Y-98377731D01*
X106779068Y-98377738D01*
X106775965Y-98382171D01*
X106773677Y-98387077D01*
X106773675Y-98387081D01*
X106678386Y-98591427D01*
X106678383Y-98591432D01*
X106676097Y-98596337D01*
X106674698Y-98601557D01*
X106674694Y-98601569D01*
X106616337Y-98819365D01*
X106616335Y-98819371D01*
X106614937Y-98824592D01*
X106614465Y-98829977D01*
X106614465Y-98829982D01*
X106603246Y-98958221D01*
X106594341Y-99060000D01*
X106614937Y-99295408D01*
X106616336Y-99300630D01*
X106616337Y-99300634D01*
X106674694Y-99518430D01*
X106674697Y-99518438D01*
X106676097Y-99523663D01*
X106678385Y-99528570D01*
X106678386Y-99528572D01*
X106773678Y-99732927D01*
X106773681Y-99732933D01*
X106775965Y-99737830D01*
X106779064Y-99742257D01*
X106779066Y-99742259D01*
X106908399Y-99926966D01*
X106908402Y-99926970D01*
X106911505Y-99931401D01*
X107078599Y-100098495D01*
X107083032Y-100101599D01*
X107083038Y-100101604D01*
X107264158Y-100228425D01*
X107303024Y-100272743D01*
X107317035Y-100330000D01*
X107303024Y-100387257D01*
X107264160Y-100431574D01*
X107078599Y-100561505D01*
X107074775Y-100565328D01*
X107074769Y-100565334D01*
X106915334Y-100724769D01*
X106915328Y-100724775D01*
X106911505Y-100728599D01*
X106908402Y-100733029D01*
X106908399Y-100733034D01*
X106779073Y-100917731D01*
X106779068Y-100917738D01*
X106775965Y-100922171D01*
X106773677Y-100927077D01*
X106773675Y-100927081D01*
X106678386Y-101131427D01*
X106678383Y-101131432D01*
X106676097Y-101136337D01*
X106674698Y-101141557D01*
X106674694Y-101141569D01*
X106616337Y-101359365D01*
X106616335Y-101359371D01*
X106614937Y-101364592D01*
X106614465Y-101369977D01*
X106614465Y-101369982D01*
X106601486Y-101518334D01*
X106594341Y-101600000D01*
X105420500Y-101600000D01*
X105420500Y-83553674D01*
X106600000Y-83553674D01*
X106603450Y-83566549D01*
X106616326Y-83570000D01*
X107683674Y-83570000D01*
X107696549Y-83566549D01*
X107700000Y-83553674D01*
X108200000Y-83553674D01*
X108203450Y-83566549D01*
X108216326Y-83570000D01*
X109283674Y-83570000D01*
X109296549Y-83566549D01*
X109300000Y-83553674D01*
X109300000Y-82925482D01*
X109299646Y-82918885D01*
X109294426Y-82870332D01*
X109290888Y-82855358D01*
X109246452Y-82736222D01*
X109238037Y-82720810D01*
X109162501Y-82619907D01*
X109150092Y-82607498D01*
X109049189Y-82531962D01*
X109033777Y-82523547D01*
X108914641Y-82479111D01*
X108899667Y-82475573D01*
X108851114Y-82470353D01*
X108844518Y-82470000D01*
X108216326Y-82470000D01*
X108203450Y-82473450D01*
X108200000Y-82486326D01*
X108200000Y-83553674D01*
X107700000Y-83553674D01*
X107700000Y-82486326D01*
X107696549Y-82473450D01*
X107683674Y-82470000D01*
X107055482Y-82470000D01*
X107048885Y-82470353D01*
X107000332Y-82475573D01*
X106985358Y-82479111D01*
X106866222Y-82523547D01*
X106850810Y-82531962D01*
X106749907Y-82607498D01*
X106737498Y-82619907D01*
X106661962Y-82720810D01*
X106653547Y-82736222D01*
X106609111Y-82855358D01*
X106605573Y-82870332D01*
X106600353Y-82918885D01*
X106600000Y-82925482D01*
X106600000Y-83553674D01*
X105420500Y-83553674D01*
X105420500Y-63952551D01*
X105987688Y-63952551D01*
X105988056Y-63963780D01*
X106040168Y-64158263D01*
X106043856Y-64168397D01*
X106139113Y-64372676D01*
X106144501Y-64382008D01*
X106273784Y-64566643D01*
X106280721Y-64574909D01*
X106440090Y-64734278D01*
X106448356Y-64741215D01*
X106632991Y-64870498D01*
X106642323Y-64875886D01*
X106846602Y-64971143D01*
X106856736Y-64974831D01*
X107051219Y-65026943D01*
X107062448Y-65027311D01*
X107065000Y-65016369D01*
X107565000Y-65016369D01*
X107567551Y-65027311D01*
X107578780Y-65026943D01*
X107773263Y-64974831D01*
X107783397Y-64971143D01*
X107987676Y-64875886D01*
X107997008Y-64870498D01*
X108181643Y-64741215D01*
X108189909Y-64734278D01*
X108349278Y-64574909D01*
X108356215Y-64566643D01*
X108485498Y-64382008D01*
X108490886Y-64372676D01*
X108586143Y-64168397D01*
X108589831Y-64158263D01*
X108641943Y-63963780D01*
X108642311Y-63952551D01*
X108631369Y-63950000D01*
X107581326Y-63950000D01*
X107568450Y-63953450D01*
X107565000Y-63966326D01*
X107565000Y-65016369D01*
X107065000Y-65016369D01*
X107065000Y-63966326D01*
X107061549Y-63953450D01*
X107048674Y-63950000D01*
X105998631Y-63950000D01*
X105987688Y-63952551D01*
X105420500Y-63952551D01*
X105420500Y-62054578D01*
X105964500Y-62054578D01*
X105964501Y-62057872D01*
X105964853Y-62061150D01*
X105964854Y-62061161D01*
X105970079Y-62109768D01*
X105970080Y-62109773D01*
X105970909Y-62117483D01*
X105973619Y-62124749D01*
X105973620Y-62124753D01*
X106007217Y-62214831D01*
X106021204Y-62252331D01*
X106107454Y-62367546D01*
X106222669Y-62453796D01*
X106354598Y-62503002D01*
X106404977Y-62537981D01*
X106432431Y-62592825D01*
X106430242Y-62654118D01*
X106398947Y-62706865D01*
X106280714Y-62825098D01*
X106273784Y-62833357D01*
X106144508Y-63017982D01*
X106139110Y-63027332D01*
X106043856Y-63231602D01*
X106040168Y-63241736D01*
X105988056Y-63436219D01*
X105987688Y-63447448D01*
X105998631Y-63450000D01*
X108631369Y-63450000D01*
X108642311Y-63447448D01*
X108641943Y-63436219D01*
X108589831Y-63241736D01*
X108586143Y-63231602D01*
X108490889Y-63027332D01*
X108485491Y-63017982D01*
X108356215Y-62833357D01*
X108349280Y-62825092D01*
X108231053Y-62706865D01*
X108199757Y-62654119D01*
X108197568Y-62592825D01*
X108225022Y-62537981D01*
X108275398Y-62503003D01*
X108407331Y-62453796D01*
X108522546Y-62367546D01*
X108608796Y-62252331D01*
X108659091Y-62117483D01*
X108665500Y-62057873D01*
X108665499Y-60262128D01*
X108659091Y-60202517D01*
X108608796Y-60067669D01*
X108522546Y-59952454D01*
X108407331Y-59866204D01*
X108272483Y-59815909D01*
X108264770Y-59815079D01*
X108264767Y-59815079D01*
X108216180Y-59809855D01*
X108216169Y-59809854D01*
X108212873Y-59809500D01*
X108209550Y-59809500D01*
X106420439Y-59809500D01*
X106420420Y-59809500D01*
X106417128Y-59809501D01*
X106413850Y-59809853D01*
X106413838Y-59809854D01*
X106365231Y-59815079D01*
X106365225Y-59815080D01*
X106357517Y-59815909D01*
X106350252Y-59818618D01*
X106350246Y-59818620D01*
X106230980Y-59863104D01*
X106230978Y-59863104D01*
X106222669Y-59866204D01*
X106215572Y-59871516D01*
X106215568Y-59871519D01*
X106114550Y-59947141D01*
X106114546Y-59947144D01*
X106107454Y-59952454D01*
X106102144Y-59959546D01*
X106102141Y-59959550D01*
X106026519Y-60060568D01*
X106026516Y-60060572D01*
X106021204Y-60067669D01*
X106018104Y-60075978D01*
X106018104Y-60075980D01*
X105973620Y-60195247D01*
X105973619Y-60195250D01*
X105970909Y-60202517D01*
X105970079Y-60210227D01*
X105970079Y-60210232D01*
X105964855Y-60258819D01*
X105964854Y-60258831D01*
X105964500Y-60262127D01*
X105964500Y-60265448D01*
X105964500Y-60265449D01*
X105964500Y-62054560D01*
X105964500Y-62054578D01*
X105420500Y-62054578D01*
X105420500Y-54102000D01*
X131460516Y-54102000D01*
X131480713Y-54281255D01*
X131483009Y-54287819D01*
X131483011Y-54287824D01*
X131537994Y-54444956D01*
X131540292Y-54451522D01*
X131636265Y-54604262D01*
X131763819Y-54731816D01*
X131916559Y-54827789D01*
X132020065Y-54864007D01*
X132066791Y-54893367D01*
X150393181Y-73219757D01*
X150420061Y-73259985D01*
X150429500Y-73307438D01*
X150429500Y-87839507D01*
X150410493Y-87905479D01*
X150404211Y-87915478D01*
X150401915Y-87922036D01*
X150401913Y-87922043D01*
X150346930Y-88079175D01*
X150346928Y-88079182D01*
X150344632Y-88085745D01*
X150324435Y-88265000D01*
X150325215Y-88271923D01*
X150343186Y-88431427D01*
X150344632Y-88444255D01*
X150346928Y-88450819D01*
X150346930Y-88450824D01*
X150401913Y-88607956D01*
X150404211Y-88614522D01*
X150500184Y-88767262D01*
X150627738Y-88894816D01*
X150780478Y-88990789D01*
X150950745Y-89050368D01*
X151130000Y-89070565D01*
X151309255Y-89050368D01*
X151479522Y-88990789D01*
X151632262Y-88894816D01*
X151759816Y-88767262D01*
X151855789Y-88614522D01*
X151915368Y-88444255D01*
X151935565Y-88265000D01*
X151915368Y-88085745D01*
X151855789Y-87915478D01*
X151849506Y-87905479D01*
X151830500Y-87839507D01*
X151830500Y-72990829D01*
X151830726Y-72983342D01*
X151833904Y-72930800D01*
X151834357Y-72923313D01*
X151823512Y-72864136D01*
X151822388Y-72856745D01*
X151816044Y-72804492D01*
X151816043Y-72804491D01*
X151815140Y-72797047D01*
X151811547Y-72787575D01*
X151805522Y-72765961D01*
X151803695Y-72755987D01*
X151779006Y-72701131D01*
X151776142Y-72694216D01*
X151757480Y-72645007D01*
X151757478Y-72645003D01*
X151754818Y-72637989D01*
X151749063Y-72629652D01*
X151738035Y-72610098D01*
X151736958Y-72607704D01*
X151736954Y-72607698D01*
X151733878Y-72600862D01*
X151696785Y-72553516D01*
X151692355Y-72547496D01*
X151658183Y-72497990D01*
X151613170Y-72458112D01*
X151607716Y-72452978D01*
X133057448Y-53902710D01*
X133028087Y-53855983D01*
X132994168Y-53759045D01*
X132994167Y-53759043D01*
X132991870Y-53752478D01*
X132895897Y-53599738D01*
X132768343Y-53472184D01*
X132740501Y-53454690D01*
X132621493Y-53379912D01*
X132615603Y-53376211D01*
X132609040Y-53373914D01*
X132609037Y-53373913D01*
X132451905Y-53318930D01*
X132451900Y-53318928D01*
X132445336Y-53316632D01*
X132438416Y-53315852D01*
X132438415Y-53315852D01*
X132273004Y-53297215D01*
X132266081Y-53296435D01*
X132259158Y-53297215D01*
X132093746Y-53315852D01*
X132093743Y-53315852D01*
X132086826Y-53316632D01*
X132080263Y-53318928D01*
X132080256Y-53318930D01*
X131923124Y-53373913D01*
X131923117Y-53373915D01*
X131916559Y-53376211D01*
X131910671Y-53379910D01*
X131910668Y-53379912D01*
X131769719Y-53468476D01*
X131769714Y-53468479D01*
X131763819Y-53472184D01*
X131758894Y-53477108D01*
X131758890Y-53477112D01*
X131641193Y-53594809D01*
X131641189Y-53594813D01*
X131636265Y-53599738D01*
X131632560Y-53605633D01*
X131632557Y-53605638D01*
X131543993Y-53746587D01*
X131543991Y-53746590D01*
X131540292Y-53752478D01*
X131537996Y-53759036D01*
X131537994Y-53759043D01*
X131483011Y-53916175D01*
X131483009Y-53916182D01*
X131480713Y-53922745D01*
X131479933Y-53929662D01*
X131479933Y-53929665D01*
X131478600Y-53941500D01*
X131460516Y-54102000D01*
X105420500Y-54102000D01*
X105420500Y-51181000D01*
X116360454Y-51181000D01*
X116360680Y-51184736D01*
X116380391Y-51510611D01*
X116380392Y-51510624D01*
X116380618Y-51514350D01*
X116381292Y-51518032D01*
X116381293Y-51518034D01*
X116440141Y-51839158D01*
X116440143Y-51839167D01*
X116440816Y-51842838D01*
X116441928Y-51846408D01*
X116441930Y-51846414D01*
X116502729Y-52041523D01*
X116540170Y-52161676D01*
X116677231Y-52466213D01*
X116679164Y-52469411D01*
X116679168Y-52469418D01*
X116710866Y-52521853D01*
X116850000Y-52752009D01*
X117055959Y-53014896D01*
X117292104Y-53251041D01*
X117554991Y-53457000D01*
X117840787Y-53629769D01*
X118145324Y-53766830D01*
X118464162Y-53866184D01*
X118792650Y-53926382D01*
X119042580Y-53941500D01*
X119207534Y-53941500D01*
X119209420Y-53941500D01*
X119459350Y-53926382D01*
X119787838Y-53866184D01*
X120106676Y-53766830D01*
X120411213Y-53629769D01*
X120697009Y-53457000D01*
X120959896Y-53251041D01*
X121196041Y-53014896D01*
X121402000Y-52752009D01*
X121574769Y-52466213D01*
X121711830Y-52161676D01*
X121811184Y-51842838D01*
X121871382Y-51514350D01*
X121891212Y-51186518D01*
X130984000Y-51186518D01*
X130984353Y-51193114D01*
X130989573Y-51241667D01*
X130993111Y-51256641D01*
X131037547Y-51375777D01*
X131045962Y-51391189D01*
X131121498Y-51492092D01*
X131133907Y-51504501D01*
X131234810Y-51580037D01*
X131250222Y-51588452D01*
X131369358Y-51632888D01*
X131384332Y-51636426D01*
X131432885Y-51641646D01*
X131439482Y-51642000D01*
X132067674Y-51642000D01*
X132080549Y-51638549D01*
X132084000Y-51625674D01*
X132584000Y-51625674D01*
X132587450Y-51638549D01*
X132600326Y-51642000D01*
X133228518Y-51642000D01*
X133235114Y-51641646D01*
X133283667Y-51636426D01*
X133298641Y-51632888D01*
X133417777Y-51588452D01*
X133433189Y-51580037D01*
X133534092Y-51504501D01*
X133546501Y-51492092D01*
X133622037Y-51391189D01*
X133630452Y-51375777D01*
X133676422Y-51252529D01*
X133711401Y-51202149D01*
X133766246Y-51174696D01*
X133827539Y-51176885D01*
X133880285Y-51208181D01*
X134002599Y-51330495D01*
X134007031Y-51333598D01*
X134007033Y-51333600D01*
X134110590Y-51406111D01*
X134196170Y-51466035D01*
X134410337Y-51565903D01*
X134638592Y-51627063D01*
X134874000Y-51647659D01*
X135109408Y-51627063D01*
X135337663Y-51565903D01*
X135551830Y-51466035D01*
X135745401Y-51330495D01*
X135912495Y-51163401D01*
X136042424Y-50977842D01*
X136086743Y-50938976D01*
X136144000Y-50924965D01*
X136201257Y-50938976D01*
X136245575Y-50977842D01*
X136372395Y-51158961D01*
X136372401Y-51158968D01*
X136375505Y-51163401D01*
X136542599Y-51330495D01*
X136547031Y-51333598D01*
X136547033Y-51333600D01*
X136650590Y-51406111D01*
X136736170Y-51466035D01*
X136741070Y-51468320D01*
X136741072Y-51468321D01*
X136837905Y-51513475D01*
X136890081Y-51559232D01*
X136909500Y-51625857D01*
X136909500Y-56813079D01*
X136909274Y-56820567D01*
X136906094Y-56873118D01*
X136906094Y-56873126D01*
X136905642Y-56880606D01*
X136906993Y-56887982D01*
X136906994Y-56887987D01*
X136916483Y-56939771D01*
X136917610Y-56947171D01*
X136923955Y-56999425D01*
X136923956Y-56999430D01*
X136924860Y-57006872D01*
X136927519Y-57013885D01*
X136927521Y-57013891D01*
X136928450Y-57016340D01*
X136934475Y-57037952D01*
X136934951Y-57040551D01*
X136934954Y-57040560D01*
X136936305Y-57047932D01*
X136939382Y-57054769D01*
X136939383Y-57054772D01*
X136960991Y-57102784D01*
X136963857Y-57109702D01*
X136985182Y-57165930D01*
X136989442Y-57172102D01*
X136989445Y-57172107D01*
X136990937Y-57174268D01*
X137001959Y-57193810D01*
X137003039Y-57196210D01*
X137003044Y-57196219D01*
X137006122Y-57203057D01*
X137010745Y-57208958D01*
X137010747Y-57208961D01*
X137043216Y-57250404D01*
X137047636Y-57256410D01*
X137081817Y-57305929D01*
X137126847Y-57345822D01*
X137132282Y-57350939D01*
X157958630Y-78177287D01*
X157987990Y-78224013D01*
X158021909Y-78320948D01*
X158021913Y-78320956D01*
X158024211Y-78327522D01*
X158120184Y-78480262D01*
X158247738Y-78607816D01*
X158400478Y-78703789D01*
X158570745Y-78763368D01*
X158750000Y-78783565D01*
X158929255Y-78763368D01*
X159099522Y-78703789D01*
X159252262Y-78607816D01*
X159379816Y-78480262D01*
X159475789Y-78327522D01*
X159535368Y-78157255D01*
X159555565Y-77978000D01*
X159535368Y-77798745D01*
X159475789Y-77628478D01*
X159384801Y-77483672D01*
X159365921Y-77423266D01*
X159379311Y-77361407D01*
X159421485Y-77314215D01*
X159481455Y-77293983D01*
X159541570Y-77305590D01*
X159543478Y-77306789D01*
X159713745Y-77366368D01*
X159893000Y-77386565D01*
X160072255Y-77366368D01*
X160242522Y-77306789D01*
X160395262Y-77210816D01*
X160522816Y-77083262D01*
X160618789Y-76930522D01*
X160621087Y-76923952D01*
X160621090Y-76923948D01*
X160629459Y-76900032D01*
X160669187Y-76844040D01*
X160732617Y-76817767D01*
X160800302Y-76829267D01*
X160851494Y-76875015D01*
X160870500Y-76940987D01*
X160870500Y-78230061D01*
X160861061Y-78277514D01*
X160834181Y-78317742D01*
X159390738Y-79761183D01*
X159390735Y-79761186D01*
X159390736Y-79761186D01*
X159263184Y-79888738D01*
X159259479Y-79894632D01*
X159259479Y-79894634D01*
X159242816Y-79921152D01*
X159234773Y-79932487D01*
X159215253Y-79956965D01*
X159215251Y-79956967D01*
X159210909Y-79962413D01*
X159207889Y-79968682D01*
X159207883Y-79968693D01*
X159194299Y-79996900D01*
X159187577Y-80009064D01*
X159167211Y-80041478D01*
X159164915Y-80048037D01*
X159164911Y-80048047D01*
X159154565Y-80077613D01*
X159149247Y-80090451D01*
X159135660Y-80118666D01*
X159135657Y-80118671D01*
X159132640Y-80124939D01*
X159131092Y-80131717D01*
X159131089Y-80131728D01*
X159124118Y-80162268D01*
X159120272Y-80175619D01*
X159107632Y-80211745D01*
X159106852Y-80218663D01*
X159106852Y-80218665D01*
X159103345Y-80249781D01*
X159101017Y-80263479D01*
X159094050Y-80294008D01*
X159094048Y-80294020D01*
X159092500Y-80300806D01*
X159092500Y-80307772D01*
X159092500Y-109422086D01*
X159091720Y-109435968D01*
X159087435Y-109474000D01*
X159092500Y-109518954D01*
X159107632Y-109653255D01*
X159167211Y-109823522D01*
X159263184Y-109976262D01*
X159390738Y-110103816D01*
X159543478Y-110199789D01*
X159713745Y-110259368D01*
X159893000Y-110279565D01*
X160072255Y-110259368D01*
X160242522Y-110199789D01*
X160395262Y-110103816D01*
X160522816Y-109976262D01*
X160618789Y-109823522D01*
X160678368Y-109653255D01*
X160693500Y-109518954D01*
X160698565Y-109474000D01*
X160694279Y-109435968D01*
X160693500Y-109422086D01*
X160693500Y-80773940D01*
X160702939Y-80726487D01*
X160729819Y-80686259D01*
X161447384Y-79968693D01*
X162173259Y-79242817D01*
X162173262Y-79242816D01*
X162300816Y-79115262D01*
X162321185Y-79082843D01*
X162329218Y-79071521D01*
X162353092Y-79041586D01*
X162369704Y-79007088D01*
X162376423Y-78994933D01*
X162396789Y-78962522D01*
X162409431Y-78926394D01*
X162414749Y-78913553D01*
X162431360Y-78879061D01*
X162439881Y-78841726D01*
X162443718Y-78828403D01*
X162456368Y-78792255D01*
X162460655Y-78754197D01*
X162462979Y-78740523D01*
X162471500Y-78703194D01*
X162471500Y-78522805D01*
X162471500Y-56343046D01*
X162471500Y-56297806D01*
X162462981Y-56260484D01*
X162460653Y-56246777D01*
X162456368Y-56208745D01*
X162454069Y-56202175D01*
X162454068Y-56202170D01*
X162443725Y-56172613D01*
X162439879Y-56159266D01*
X162431360Y-56121939D01*
X162428340Y-56115667D01*
X162428338Y-56115662D01*
X162414748Y-56087443D01*
X162409433Y-56074613D01*
X162396789Y-56038478D01*
X162376424Y-56006068D01*
X162369699Y-55993898D01*
X162356113Y-55965687D01*
X162356112Y-55965686D01*
X162353092Y-55959414D01*
X162348753Y-55953973D01*
X162348750Y-55953968D01*
X162329224Y-55929483D01*
X162321183Y-55918151D01*
X162300816Y-55885738D01*
X162173262Y-55758184D01*
X159059216Y-52644138D01*
X159026792Y-52587290D01*
X159027823Y-52521853D01*
X159062023Y-52466056D01*
X159119865Y-52435439D01*
X159178566Y-52438217D01*
X159178889Y-52436873D01*
X159423852Y-52495683D01*
X159675000Y-52515449D01*
X159926148Y-52495683D01*
X160171111Y-52436873D01*
X160403859Y-52340466D01*
X160618659Y-52208836D01*
X160810224Y-52045224D01*
X160973836Y-51853659D01*
X161105466Y-51638859D01*
X161201873Y-51406111D01*
X161260683Y-51161148D01*
X161275500Y-50972882D01*
X161275500Y-49547118D01*
X161260683Y-49358852D01*
X161201873Y-49113889D01*
X161105466Y-48881141D01*
X161001907Y-48712148D01*
X160976382Y-48670495D01*
X160976379Y-48670491D01*
X160973836Y-48666341D01*
X160970474Y-48662405D01*
X160813384Y-48478476D01*
X160810224Y-48474776D01*
X160764110Y-48435391D01*
X160622363Y-48314327D01*
X160622358Y-48314324D01*
X160618659Y-48311164D01*
X160614511Y-48308622D01*
X160614504Y-48308617D01*
X160408017Y-48182082D01*
X160408016Y-48182081D01*
X160403859Y-48179534D01*
X160171111Y-48083127D01*
X160166382Y-48081991D01*
X160166374Y-48081989D01*
X159930881Y-48025453D01*
X159930877Y-48025452D01*
X159926148Y-48024317D01*
X159921295Y-48023935D01*
X159679854Y-48004933D01*
X159675000Y-48004551D01*
X159670146Y-48004933D01*
X159428704Y-48023935D01*
X159428702Y-48023935D01*
X159423852Y-48024317D01*
X159419124Y-48025451D01*
X159419118Y-48025453D01*
X159183625Y-48081989D01*
X159183613Y-48081992D01*
X159178889Y-48083127D01*
X159174392Y-48084989D01*
X159174388Y-48084991D01*
X158950645Y-48177668D01*
X158950640Y-48177670D01*
X158946141Y-48179534D01*
X158941988Y-48182078D01*
X158941982Y-48182082D01*
X158735495Y-48308617D01*
X158735482Y-48308626D01*
X158731341Y-48311164D01*
X158727646Y-48314319D01*
X158727636Y-48314327D01*
X158543476Y-48471615D01*
X158543469Y-48471621D01*
X158539776Y-48474776D01*
X158536621Y-48478469D01*
X158536615Y-48478476D01*
X158379525Y-48662405D01*
X158331399Y-48696959D01*
X158272735Y-48705241D01*
X158216924Y-48685360D01*
X158174620Y-48657435D01*
X158174613Y-48657431D01*
X158169968Y-48654365D01*
X158164846Y-48652175D01*
X158164841Y-48652173D01*
X157968115Y-48568088D01*
X157968111Y-48568086D01*
X157962988Y-48565897D01*
X157957554Y-48564656D01*
X157957552Y-48564656D01*
X157748970Y-48517049D01*
X157748969Y-48517048D01*
X157743537Y-48515809D01*
X157737979Y-48515559D01*
X157737969Y-48515558D01*
X157524230Y-48505959D01*
X157524222Y-48505959D01*
X157518670Y-48505710D01*
X157513166Y-48506455D01*
X157513155Y-48506456D01*
X157301132Y-48535177D01*
X157301127Y-48535177D01*
X157295613Y-48535925D01*
X157290321Y-48537644D01*
X157290314Y-48537646D01*
X157086832Y-48603761D01*
X157086820Y-48603766D01*
X157081536Y-48605483D01*
X157076636Y-48608119D01*
X157076633Y-48608121D01*
X156888215Y-48709512D01*
X156888203Y-48709519D01*
X156883319Y-48712148D01*
X156878978Y-48715609D01*
X156878970Y-48715615D01*
X156711691Y-48849016D01*
X156711682Y-48849024D01*
X156707334Y-48852492D01*
X156703672Y-48856682D01*
X156703664Y-48856691D01*
X156668874Y-48896511D01*
X156613811Y-48932857D01*
X156547902Y-48935816D01*
X156489803Y-48904552D01*
X156439744Y-48856691D01*
X156357825Y-48778368D01*
X156169968Y-48654365D01*
X156164846Y-48652175D01*
X156164841Y-48652173D01*
X155968115Y-48568088D01*
X155968111Y-48568086D01*
X155962988Y-48565897D01*
X155957554Y-48564656D01*
X155957552Y-48564656D01*
X155748970Y-48517049D01*
X155748969Y-48517048D01*
X155743537Y-48515809D01*
X155737979Y-48515559D01*
X155737969Y-48515558D01*
X155524230Y-48505959D01*
X155524222Y-48505959D01*
X155518670Y-48505710D01*
X155513166Y-48506455D01*
X155513155Y-48506456D01*
X155301132Y-48535177D01*
X155301127Y-48535177D01*
X155295613Y-48535925D01*
X155290321Y-48537644D01*
X155290314Y-48537646D01*
X155086832Y-48603761D01*
X155086820Y-48603766D01*
X155081536Y-48605483D01*
X155076636Y-48608119D01*
X155076633Y-48608121D01*
X154888218Y-48709511D01*
X154888211Y-48709514D01*
X154883319Y-48712148D01*
X154878970Y-48715616D01*
X154876692Y-48717120D01*
X154818236Y-48737241D01*
X154757331Y-48726637D01*
X154709115Y-48687944D01*
X154687862Y-48659554D01*
X154687858Y-48659550D01*
X154682546Y-48652454D01*
X154567331Y-48566204D01*
X154490763Y-48537646D01*
X154439752Y-48518620D01*
X154439750Y-48518619D01*
X154432483Y-48515909D01*
X154424770Y-48515079D01*
X154424767Y-48515079D01*
X154376180Y-48509855D01*
X154376169Y-48509854D01*
X154372873Y-48509500D01*
X154369550Y-48509500D01*
X152780439Y-48509500D01*
X152780420Y-48509500D01*
X152777128Y-48509501D01*
X152773850Y-48509853D01*
X152773838Y-48509854D01*
X152717517Y-48515909D01*
X152717231Y-48513252D01*
X152669228Y-48512151D01*
X152615470Y-48480562D01*
X152613384Y-48478476D01*
X152610224Y-48474776D01*
X152564110Y-48435391D01*
X152422363Y-48314327D01*
X152422358Y-48314324D01*
X152418659Y-48311164D01*
X152414511Y-48308622D01*
X152414504Y-48308617D01*
X152208017Y-48182082D01*
X152208016Y-48182081D01*
X152203859Y-48179534D01*
X151971111Y-48083127D01*
X151966382Y-48081991D01*
X151966374Y-48081989D01*
X151730881Y-48025453D01*
X151730877Y-48025452D01*
X151726148Y-48024317D01*
X151721295Y-48023935D01*
X151479854Y-48004933D01*
X151475000Y-48004551D01*
X151470146Y-48004933D01*
X151228704Y-48023935D01*
X151228702Y-48023935D01*
X151223852Y-48024317D01*
X151219124Y-48025451D01*
X151219118Y-48025453D01*
X150983625Y-48081989D01*
X150983613Y-48081992D01*
X150978889Y-48083127D01*
X150974392Y-48084989D01*
X150974388Y-48084991D01*
X150750645Y-48177668D01*
X150750640Y-48177670D01*
X150746141Y-48179534D01*
X150741988Y-48182078D01*
X150741982Y-48182082D01*
X150535495Y-48308617D01*
X150535482Y-48308626D01*
X150531341Y-48311164D01*
X150527646Y-48314319D01*
X150527636Y-48314327D01*
X150343476Y-48471615D01*
X150343469Y-48471621D01*
X150339776Y-48474776D01*
X150336621Y-48478469D01*
X150336615Y-48478476D01*
X150179327Y-48662636D01*
X150179319Y-48662646D01*
X150176164Y-48666341D01*
X150173626Y-48670482D01*
X150173617Y-48670495D01*
X150047082Y-48876982D01*
X150047078Y-48876988D01*
X150044534Y-48881141D01*
X150042670Y-48885640D01*
X150042668Y-48885645D01*
X149949991Y-49109388D01*
X149948127Y-49113889D01*
X149946992Y-49118613D01*
X149946989Y-49118625D01*
X149890453Y-49354118D01*
X149890451Y-49354124D01*
X149889317Y-49358852D01*
X149888935Y-49363702D01*
X149888935Y-49363704D01*
X149874691Y-49544683D01*
X149874690Y-49544699D01*
X149874500Y-49547118D01*
X149874500Y-50972882D01*
X149874690Y-50975301D01*
X149874691Y-50975316D01*
X149874890Y-50977842D01*
X149889317Y-51161148D01*
X149890452Y-51165877D01*
X149890453Y-51165881D01*
X149946989Y-51401374D01*
X149946991Y-51401382D01*
X149948127Y-51406111D01*
X150044534Y-51638859D01*
X150047081Y-51643016D01*
X150047082Y-51643017D01*
X150173617Y-51849504D01*
X150173622Y-51849511D01*
X150176164Y-51853659D01*
X150179324Y-51857358D01*
X150179327Y-51857363D01*
X150257147Y-51948478D01*
X150339776Y-52045224D01*
X150382440Y-52081663D01*
X150476123Y-52161676D01*
X150531341Y-52208836D01*
X150535491Y-52211379D01*
X150535495Y-52211382D01*
X150647300Y-52279896D01*
X150746141Y-52340466D01*
X150978889Y-52436873D01*
X151223852Y-52495683D01*
X151475000Y-52515449D01*
X151726148Y-52495683D01*
X151971111Y-52436873D01*
X152203859Y-52340466D01*
X152418659Y-52208836D01*
X152610224Y-52045224D01*
X152613395Y-52041510D01*
X152615463Y-52039443D01*
X152669310Y-52007824D01*
X152717228Y-52006775D01*
X152717517Y-52004091D01*
X152777127Y-52010500D01*
X154372872Y-52010499D01*
X154432483Y-52004091D01*
X154567331Y-51953796D01*
X154574435Y-51948478D01*
X154576190Y-51947165D01*
X154578372Y-51946328D01*
X154582216Y-51944230D01*
X154582498Y-51944747D01*
X154639448Y-51922926D01*
X154706005Y-51935548D01*
X154755995Y-51981265D01*
X154774500Y-52046432D01*
X154774500Y-56273806D01*
X154774500Y-56454194D01*
X154776049Y-56460983D01*
X154776050Y-56460988D01*
X154783017Y-56491518D01*
X154785345Y-56505218D01*
X154788852Y-56536336D01*
X154789632Y-56543255D01*
X154791929Y-56549821D01*
X154791930Y-56549823D01*
X154802272Y-56579379D01*
X154806119Y-56592735D01*
X154813088Y-56623267D01*
X154813091Y-56623276D01*
X154814640Y-56630061D01*
X154817658Y-56636329D01*
X154817661Y-56636336D01*
X154831250Y-56664554D01*
X154836568Y-56677393D01*
X154849211Y-56713522D01*
X154852912Y-56719412D01*
X154852913Y-56719414D01*
X154869572Y-56745927D01*
X154876296Y-56758093D01*
X154889888Y-56786315D01*
X154892909Y-56792587D01*
X154909251Y-56813079D01*
X154916771Y-56822509D01*
X154924818Y-56833850D01*
X154945184Y-56866262D01*
X154950112Y-56871190D01*
X158126181Y-60047259D01*
X158153061Y-60087487D01*
X158162500Y-60134940D01*
X158162500Y-61496560D01*
X158162500Y-61496578D01*
X158162501Y-61499872D01*
X158162853Y-61503150D01*
X158162854Y-61503161D01*
X158168079Y-61551768D01*
X158168080Y-61551773D01*
X158168909Y-61559483D01*
X158171619Y-61566749D01*
X158171620Y-61566753D01*
X158205217Y-61656831D01*
X158219204Y-61694331D01*
X158305454Y-61809546D01*
X158420669Y-61895796D01*
X158555517Y-61946091D01*
X158615127Y-61952500D01*
X160710872Y-61952499D01*
X160719023Y-61951622D01*
X160733248Y-61950094D01*
X160800683Y-61961848D01*
X160851606Y-62007591D01*
X160870500Y-62073384D01*
X160870500Y-72246691D01*
X160861061Y-72294144D01*
X160834181Y-72334372D01*
X160028095Y-73140457D01*
X160021431Y-73152000D01*
X160028095Y-73163542D01*
X160834181Y-73969628D01*
X160861061Y-74009856D01*
X160870500Y-74057309D01*
X160870500Y-76221013D01*
X160851494Y-76286985D01*
X160800302Y-76332733D01*
X160732617Y-76344233D01*
X160669187Y-76317960D01*
X160629459Y-76261968D01*
X160621090Y-76238051D01*
X160621086Y-76238043D01*
X160618789Y-76231478D01*
X160522816Y-76078738D01*
X160395262Y-75951184D01*
X160242522Y-75855211D01*
X160235960Y-75852915D01*
X160235948Y-75852909D01*
X160139013Y-75818990D01*
X160092287Y-75789630D01*
X159094204Y-74791547D01*
X159061679Y-74734306D01*
X159063040Y-74668484D01*
X159097902Y-74612636D01*
X159156439Y-74582505D01*
X159222148Y-74586585D01*
X159288657Y-74609417D01*
X159298568Y-74611928D01*
X159533643Y-74651155D01*
X159543839Y-74652000D01*
X159782161Y-74652000D01*
X159792356Y-74651155D01*
X160027431Y-74611928D01*
X160037343Y-74609417D01*
X160262760Y-74532032D01*
X160272114Y-74527929D01*
X160481723Y-74414495D01*
X160490281Y-74408903D01*
X160519146Y-74386437D01*
X160527250Y-74375250D01*
X160520589Y-74363142D01*
X158449345Y-72291898D01*
X158439964Y-72285974D01*
X158431997Y-72293699D01*
X158342072Y-72431338D01*
X158337207Y-72440328D01*
X158241472Y-72658585D01*
X158238153Y-72668252D01*
X158179646Y-72899287D01*
X158177962Y-72909381D01*
X158158283Y-73146883D01*
X158158283Y-73157117D01*
X158177962Y-73394618D01*
X158179646Y-73404712D01*
X158229248Y-73600583D01*
X158228456Y-73664435D01*
X158195995Y-73719426D01*
X158140475Y-73750973D01*
X158076619Y-73750709D01*
X158021361Y-73718704D01*
X156231406Y-71928749D01*
X158798748Y-71928749D01*
X158805408Y-71940855D01*
X159651457Y-72786904D01*
X159663000Y-72793568D01*
X159674542Y-72786904D01*
X160520590Y-71940855D01*
X160527250Y-71928749D01*
X160519143Y-71917559D01*
X160490286Y-71895099D01*
X160481719Y-71889503D01*
X160272114Y-71776070D01*
X160262760Y-71771967D01*
X160037343Y-71694582D01*
X160027431Y-71692071D01*
X159792356Y-71652844D01*
X159782161Y-71652000D01*
X159543839Y-71652000D01*
X159533643Y-71652844D01*
X159298568Y-71692071D01*
X159288656Y-71694582D01*
X159063239Y-71771967D01*
X159053885Y-71776070D01*
X158844276Y-71889504D01*
X158835717Y-71895096D01*
X158806854Y-71917560D01*
X158798748Y-71928749D01*
X156231406Y-71928749D01*
X140886819Y-56584162D01*
X140859939Y-56543934D01*
X140850500Y-56496481D01*
X140850500Y-51356758D01*
X140859939Y-51309305D01*
X140886819Y-51269077D01*
X140914229Y-51241667D01*
X140992495Y-51163401D01*
X141128035Y-50969830D01*
X141227903Y-50755663D01*
X141289063Y-50527408D01*
X141309659Y-50292000D01*
X141289063Y-50056592D01*
X141227903Y-49828337D01*
X141128035Y-49614171D01*
X140992495Y-49420599D01*
X140825401Y-49253505D01*
X140820970Y-49250402D01*
X140820966Y-49250399D01*
X140636259Y-49121066D01*
X140636257Y-49121064D01*
X140631830Y-49117965D01*
X140626933Y-49115681D01*
X140626927Y-49115678D01*
X140422572Y-49020386D01*
X140422570Y-49020385D01*
X140417663Y-49018097D01*
X140412438Y-49016697D01*
X140412430Y-49016694D01*
X140194634Y-48958337D01*
X140194630Y-48958336D01*
X140189408Y-48956937D01*
X140184020Y-48956465D01*
X140184017Y-48956465D01*
X139959395Y-48936813D01*
X139954000Y-48936341D01*
X139948605Y-48936813D01*
X139723982Y-48956465D01*
X139723977Y-48956465D01*
X139718592Y-48956937D01*
X139713371Y-48958335D01*
X139713365Y-48958337D01*
X139495569Y-49016694D01*
X139495557Y-49016698D01*
X139490337Y-49018097D01*
X139485432Y-49020383D01*
X139485427Y-49020386D01*
X139281081Y-49115675D01*
X139281077Y-49115677D01*
X139276171Y-49117965D01*
X139271738Y-49121068D01*
X139271731Y-49121073D01*
X139087034Y-49250399D01*
X139087029Y-49250402D01*
X139082599Y-49253505D01*
X139078775Y-49257328D01*
X139078769Y-49257334D01*
X138919334Y-49416769D01*
X138919328Y-49416775D01*
X138915505Y-49420599D01*
X138912402Y-49425029D01*
X138912399Y-49425034D01*
X138785575Y-49606159D01*
X138741257Y-49645025D01*
X138684000Y-49659036D01*
X138626743Y-49645025D01*
X138582425Y-49606159D01*
X138455600Y-49425034D01*
X138452495Y-49420599D01*
X138285401Y-49253505D01*
X138280970Y-49250402D01*
X138280966Y-49250399D01*
X138096259Y-49121066D01*
X138096257Y-49121064D01*
X138091830Y-49117965D01*
X138086933Y-49115681D01*
X138086927Y-49115678D01*
X137882572Y-49020386D01*
X137882570Y-49020385D01*
X137877663Y-49018097D01*
X137872438Y-49016697D01*
X137872430Y-49016694D01*
X137654634Y-48958337D01*
X137654630Y-48958336D01*
X137649408Y-48956937D01*
X137644020Y-48956465D01*
X137644017Y-48956465D01*
X137419395Y-48936813D01*
X137414000Y-48936341D01*
X137408605Y-48936813D01*
X137183982Y-48956465D01*
X137183977Y-48956465D01*
X137178592Y-48956937D01*
X137173371Y-48958335D01*
X137173365Y-48958337D01*
X136955569Y-49016694D01*
X136955557Y-49016698D01*
X136950337Y-49018097D01*
X136945432Y-49020383D01*
X136945427Y-49020386D01*
X136741081Y-49115675D01*
X136741077Y-49115677D01*
X136736171Y-49117965D01*
X136731738Y-49121068D01*
X136731731Y-49121073D01*
X136547034Y-49250399D01*
X136547029Y-49250402D01*
X136542599Y-49253505D01*
X136538775Y-49257328D01*
X136538769Y-49257334D01*
X136379334Y-49416769D01*
X136379328Y-49416775D01*
X136375505Y-49420599D01*
X136372402Y-49425029D01*
X136372399Y-49425034D01*
X136245575Y-49606159D01*
X136201257Y-49645025D01*
X136144000Y-49659036D01*
X136086743Y-49645025D01*
X136042425Y-49606159D01*
X135915600Y-49425034D01*
X135912495Y-49420599D01*
X135745401Y-49253505D01*
X135740970Y-49250402D01*
X135740966Y-49250399D01*
X135556259Y-49121066D01*
X135556257Y-49121064D01*
X135551830Y-49117965D01*
X135546933Y-49115681D01*
X135546927Y-49115678D01*
X135342572Y-49020386D01*
X135342570Y-49020385D01*
X135337663Y-49018097D01*
X135332438Y-49016697D01*
X135332430Y-49016694D01*
X135114634Y-48958337D01*
X135114630Y-48958336D01*
X135109408Y-48956937D01*
X135104020Y-48956465D01*
X135104017Y-48956465D01*
X134879395Y-48936813D01*
X134874000Y-48936341D01*
X134868605Y-48936813D01*
X134643982Y-48956465D01*
X134643977Y-48956465D01*
X134638592Y-48956937D01*
X134633371Y-48958335D01*
X134633365Y-48958337D01*
X134415569Y-49016694D01*
X134415557Y-49016698D01*
X134410337Y-49018097D01*
X134405432Y-49020383D01*
X134405427Y-49020386D01*
X134201081Y-49115675D01*
X134201077Y-49115677D01*
X134196171Y-49117965D01*
X134191738Y-49121068D01*
X134191731Y-49121073D01*
X134007034Y-49250399D01*
X134007029Y-49250402D01*
X134002599Y-49253505D01*
X133998775Y-49257329D01*
X133880285Y-49375819D01*
X133827538Y-49407114D01*
X133766246Y-49409303D01*
X133711401Y-49381850D01*
X133676422Y-49331471D01*
X133630451Y-49208220D01*
X133622037Y-49192810D01*
X133546501Y-49091907D01*
X133534092Y-49079498D01*
X133433189Y-49003962D01*
X133417777Y-48995547D01*
X133298641Y-48951111D01*
X133283667Y-48947573D01*
X133235114Y-48942353D01*
X133228518Y-48942000D01*
X132600326Y-48942000D01*
X132587450Y-48945450D01*
X132584000Y-48958326D01*
X132584000Y-51625674D01*
X132084000Y-51625674D01*
X132084000Y-50558326D01*
X132080549Y-50545450D01*
X132067674Y-50542000D01*
X131000326Y-50542000D01*
X130987450Y-50545450D01*
X130984000Y-50558326D01*
X130984000Y-51186518D01*
X121891212Y-51186518D01*
X121891546Y-51181000D01*
X121871382Y-50847650D01*
X121811184Y-50519162D01*
X121711830Y-50200324D01*
X121633226Y-50025674D01*
X130984000Y-50025674D01*
X130987450Y-50038549D01*
X131000326Y-50042000D01*
X132067674Y-50042000D01*
X132080549Y-50038549D01*
X132084000Y-50025674D01*
X132084000Y-48958326D01*
X132080549Y-48945450D01*
X132067674Y-48942000D01*
X131439482Y-48942000D01*
X131432885Y-48942353D01*
X131384332Y-48947573D01*
X131369358Y-48951111D01*
X131250222Y-48995547D01*
X131234810Y-49003962D01*
X131133907Y-49079498D01*
X131121498Y-49091907D01*
X131045962Y-49192810D01*
X131037547Y-49208222D01*
X130993111Y-49327358D01*
X130989573Y-49342332D01*
X130984353Y-49390885D01*
X130984000Y-49397482D01*
X130984000Y-50025674D01*
X121633226Y-50025674D01*
X121574769Y-49895787D01*
X121402000Y-49609991D01*
X121196041Y-49347104D01*
X120959896Y-49110959D01*
X120697009Y-48905000D01*
X120554111Y-48818615D01*
X120414418Y-48734168D01*
X120414411Y-48734164D01*
X120411213Y-48732231D01*
X120106676Y-48595170D01*
X120103098Y-48594055D01*
X119791414Y-48496930D01*
X119791408Y-48496928D01*
X119787838Y-48495816D01*
X119784167Y-48495143D01*
X119784158Y-48495141D01*
X119463034Y-48436293D01*
X119463032Y-48436292D01*
X119459350Y-48435618D01*
X119455624Y-48435392D01*
X119455611Y-48435391D01*
X119211298Y-48420613D01*
X119211278Y-48420612D01*
X119209420Y-48420500D01*
X119042580Y-48420500D01*
X119040722Y-48420612D01*
X119040701Y-48420613D01*
X118796388Y-48435391D01*
X118796373Y-48435392D01*
X118792650Y-48435618D01*
X118788969Y-48436292D01*
X118788965Y-48436293D01*
X118467841Y-48495141D01*
X118467828Y-48495144D01*
X118464162Y-48495816D01*
X118460594Y-48496927D01*
X118460585Y-48496930D01*
X118148901Y-48594055D01*
X118148895Y-48594057D01*
X118145324Y-48595170D01*
X118141915Y-48596704D01*
X118141913Y-48596705D01*
X117844201Y-48730694D01*
X117844194Y-48730697D01*
X117840787Y-48732231D01*
X117837594Y-48734160D01*
X117837581Y-48734168D01*
X117558195Y-48903063D01*
X117554991Y-48905000D01*
X117552049Y-48907304D01*
X117552043Y-48907309D01*
X117295055Y-49108646D01*
X117295044Y-49108654D01*
X117292104Y-49110959D01*
X117289458Y-49113604D01*
X117289450Y-49113612D01*
X117058612Y-49344450D01*
X117058604Y-49344458D01*
X117055959Y-49347104D01*
X117053654Y-49350044D01*
X117053646Y-49350055D01*
X116852309Y-49607043D01*
X116852304Y-49607049D01*
X116850000Y-49609991D01*
X116848063Y-49613193D01*
X116848063Y-49613195D01*
X116679168Y-49892581D01*
X116679160Y-49892594D01*
X116677231Y-49895787D01*
X116675697Y-49899194D01*
X116675694Y-49899201D01*
X116541705Y-50196913D01*
X116540170Y-50200324D01*
X116539057Y-50203895D01*
X116539055Y-50203901D01*
X116441930Y-50515585D01*
X116441927Y-50515594D01*
X116440816Y-50519162D01*
X116440144Y-50522828D01*
X116440141Y-50522841D01*
X116381293Y-50843965D01*
X116380618Y-50847650D01*
X116380392Y-50851373D01*
X116380391Y-50851388D01*
X116361948Y-51156295D01*
X116360454Y-51181000D01*
X105420500Y-51181000D01*
X105420500Y-47774329D01*
X105437104Y-47712345D01*
X105482468Y-47666960D01*
X105544443Y-47650329D01*
X139029032Y-47635500D01*
X162603300Y-47635500D01*
X162665300Y-47652113D01*
G37*
G04 #@! TD.AperFunction*
M02*
