M48
; DRILL file {KiCad (7.0.0)} date Sun Feb 19 21:47:16 2023
; FORMAT={-:-/ absolute / metric / decimal}
; #@! TF.CreationDate,2023-02-19T21:47:16+01:00
; #@! TF.GenerationSoftware,Kicad,Pcbnew,(7.0.0)
; #@! TF.FileFunction,Plated,1,2,PTH
FMAT,2
METRIC
; #@! TA.AperFunction,Plated,PTH,ViaDrill
T1C0.300
; #@! TA.AperFunction,Plated,PTH,ComponentDrill
T2C0.900
; #@! TA.AperFunction,Plated,PTH,ComponentDrill
T3C1.000
; #@! TA.AperFunction,Plated,PTH,ComponentDrill
T4C1.020
; #@! TA.AperFunction,Plated,PTH,ComponentDrill
T5C1.500
%
G90
G05
T1
X105.918Y-71.628
X106.045Y-67.31
X106.172Y-54.356
X107.061Y-54.356
X107.188Y-71.628
X107.315Y-67.31
X107.442Y-65.786
X107.95Y-54.356
X108.458Y-71.628
X108.585Y-67.31
X108.839Y-54.356
X108.966Y-65.786
X109.474Y-59.436
X109.474Y-90.17
X109.728Y-54.356
X109.728Y-71.628
X109.728Y-81.661
X109.728Y-83.82
X109.728Y-85.217
X110.49Y-63.5
X110.617Y-54.356
X110.744Y-59.309
X110.998Y-102.87
X111.125Y-68.58
X111.125Y-69.85
X111.125Y-71.12
X111.379Y-54.991
X111.506Y-55.88
X111.506Y-56.896
X111.506Y-57.912
X111.76Y-63.5
X111.76Y-67.818
X112.014Y-58.674
X113.03Y-63.5
X113.03Y-67.818
X113.03Y-101.346
X113.284Y-58.674
X114.3Y-63.5
X114.808Y-58.674
X115.316Y-93.98
X115.57Y-101.346
X115.824Y-63.5
X115.824Y-65.786
X115.824Y-67.818
X116.078Y-59.69
X116.078Y-60.96
X116.078Y-62.23
X117.094Y-106.934
X118.11Y-87.122
X118.11Y-101.473
X119.38Y-106.934
X121.9Y-106.9
X125.476Y-50.292
X125.476Y-52.324
X128.0Y-113.6
X130.302Y-110.236
X130.556Y-50.292
X130.81Y-81.026
X130.81Y-87.122
X130.81Y-106.172
X131.064Y-116.586
X132.266Y-54.102
X132.334Y-52.324
X134.239Y-121.412
X134.62Y-108.458
X135.128Y-119.507
X135.636Y-114.808
X135.89Y-123.063
X137.033Y-110.871
X140.208Y-108.966
X140.589Y-114.554
X143.256Y-113.538
X143.51Y-81.026
X143.51Y-87.122
X147.32Y-109.22
X151.13Y-88.265
X156.21Y-81.026
X156.21Y-87.122
X156.21Y-100.33
X156.21Y-107.696
X158.75Y-77.978
X159.893Y-76.581
X159.893Y-109.474
T2
X153.575Y-50.26
X155.575Y-50.26
X157.575Y-50.26
T3
X107.315Y-61.16
X107.315Y-63.7
X107.95Y-83.82
X107.95Y-86.36
X107.95Y-88.9
X107.95Y-91.44
X107.95Y-93.98
X107.95Y-96.52
X107.95Y-99.06
X107.95Y-101.6
X132.334Y-50.292
X134.874Y-50.292
X137.414Y-50.292
X139.954Y-50.292
T4
X159.663Y-60.452
X159.663Y-73.152
T5
X151.475Y-50.26
X159.675Y-50.26
T0
M30
