%TF.GenerationSoftware,KiCad,Pcbnew,(7.0.0)*%
%TF.CreationDate,2023-02-19T21:47:51+01:00*%
%TF.ProjectId,Glitchifier9000,476c6974-6368-4696-9669-657239303030,rev?*%
%TF.SameCoordinates,Original*%
%TF.FileFunction,Drillmap*%
%TF.FilePolarity,Positive*%
%FSLAX45Y45*%
G04 Gerber Fmt 4.5, Leading zero omitted, Abs format (unit mm)*
G04 Created by KiCad (PCBNEW (7.0.0)) date 2023-02-19 21:47:51*
%MOMM*%
%LPD*%
G01*
G04 APERTURE LIST*
%ADD10C,0.038100*%
%ADD11C,0.200000*%
%ADD12C,0.030000*%
%ADD13C,0.090000*%
%ADD14C,0.100000*%
%ADD15C,0.102000*%
%ADD16C,0.150000*%
G04 APERTURE END LIST*
D10*
X10541000Y-4762500D02*
X16273780Y-4762500D01*
X16273780Y-4762500D02*
X16273780Y-13972540D01*
X16273780Y-13972540D02*
X10541000Y-13972540D01*
X10541000Y-13972540D02*
X10541000Y-4762500D01*
D11*
D12*
X10576800Y-7147800D02*
X10606800Y-7177800D01*
X10606800Y-7147800D02*
X10576800Y-7177800D01*
X10589500Y-6716000D02*
X10619500Y-6746000D01*
X10619500Y-6716000D02*
X10589500Y-6746000D01*
X10602200Y-5420600D02*
X10632200Y-5450600D01*
X10632200Y-5420600D02*
X10602200Y-5450600D01*
X10691100Y-5420600D02*
X10721100Y-5450600D01*
X10721100Y-5420600D02*
X10691100Y-5450600D01*
X10703800Y-7147800D02*
X10733800Y-7177800D01*
X10733800Y-7147800D02*
X10703800Y-7177800D01*
X10716500Y-6716000D02*
X10746500Y-6746000D01*
X10746500Y-6716000D02*
X10716500Y-6746000D01*
X10729200Y-6563600D02*
X10759200Y-6593600D01*
X10759200Y-6563600D02*
X10729200Y-6593600D01*
X10780000Y-5420600D02*
X10810000Y-5450600D01*
X10810000Y-5420600D02*
X10780000Y-5450600D01*
X10830800Y-7147800D02*
X10860800Y-7177800D01*
X10860800Y-7147800D02*
X10830800Y-7177800D01*
X10843500Y-6716000D02*
X10873500Y-6746000D01*
X10873500Y-6716000D02*
X10843500Y-6746000D01*
X10868900Y-5420600D02*
X10898900Y-5450600D01*
X10898900Y-5420600D02*
X10868900Y-5450600D01*
X10881600Y-6563600D02*
X10911600Y-6593600D01*
X10911600Y-6563600D02*
X10881600Y-6593600D01*
X10932400Y-5928600D02*
X10962400Y-5958600D01*
X10962400Y-5928600D02*
X10932400Y-5958600D01*
X10932400Y-9002000D02*
X10962400Y-9032000D01*
X10962400Y-9002000D02*
X10932400Y-9032000D01*
X10957800Y-5420600D02*
X10987800Y-5450600D01*
X10987800Y-5420600D02*
X10957800Y-5450600D01*
X10957800Y-7147800D02*
X10987800Y-7177800D01*
X10987800Y-7147800D02*
X10957800Y-7177800D01*
X10957800Y-8151100D02*
X10987800Y-8181100D01*
X10987800Y-8151100D02*
X10957800Y-8181100D01*
X10957800Y-8367000D02*
X10987800Y-8397000D01*
X10987800Y-8367000D02*
X10957800Y-8397000D01*
X10957800Y-8506700D02*
X10987800Y-8536700D01*
X10987800Y-8506700D02*
X10957800Y-8536700D01*
X11034000Y-6335000D02*
X11064000Y-6365000D01*
X11064000Y-6335000D02*
X11034000Y-6365000D01*
X11046700Y-5420600D02*
X11076700Y-5450600D01*
X11076700Y-5420600D02*
X11046700Y-5450600D01*
X11059400Y-5915900D02*
X11089400Y-5945900D01*
X11089400Y-5915900D02*
X11059400Y-5945900D01*
X11084800Y-10272000D02*
X11114800Y-10302000D01*
X11114800Y-10272000D02*
X11084800Y-10302000D01*
X11097500Y-6843000D02*
X11127500Y-6873000D01*
X11127500Y-6843000D02*
X11097500Y-6873000D01*
X11097500Y-6970000D02*
X11127500Y-7000000D01*
X11127500Y-6970000D02*
X11097500Y-7000000D01*
X11097500Y-7097000D02*
X11127500Y-7127000D01*
X11127500Y-7097000D02*
X11097500Y-7127000D01*
X11122900Y-5484100D02*
X11152900Y-5514100D01*
X11152900Y-5484100D02*
X11122900Y-5514100D01*
X11135600Y-5573000D02*
X11165600Y-5603000D01*
X11165600Y-5573000D02*
X11135600Y-5603000D01*
X11135600Y-5674600D02*
X11165600Y-5704600D01*
X11165600Y-5674600D02*
X11135600Y-5704600D01*
X11135600Y-5776200D02*
X11165600Y-5806200D01*
X11165600Y-5776200D02*
X11135600Y-5806200D01*
X11161000Y-6335000D02*
X11191000Y-6365000D01*
X11191000Y-6335000D02*
X11161000Y-6365000D01*
X11161000Y-6766800D02*
X11191000Y-6796800D01*
X11191000Y-6766800D02*
X11161000Y-6796800D01*
X11186400Y-5852400D02*
X11216400Y-5882400D01*
X11216400Y-5852400D02*
X11186400Y-5882400D01*
X11288000Y-6335000D02*
X11318000Y-6365000D01*
X11318000Y-6335000D02*
X11288000Y-6365000D01*
X11288000Y-6766800D02*
X11318000Y-6796800D01*
X11318000Y-6766800D02*
X11288000Y-6796800D01*
X11288000Y-10119600D02*
X11318000Y-10149600D01*
X11318000Y-10119600D02*
X11288000Y-10149600D01*
X11313400Y-5852400D02*
X11343400Y-5882400D01*
X11343400Y-5852400D02*
X11313400Y-5882400D01*
X11415000Y-6335000D02*
X11445000Y-6365000D01*
X11445000Y-6335000D02*
X11415000Y-6365000D01*
X11465800Y-5852400D02*
X11495800Y-5882400D01*
X11495800Y-5852400D02*
X11465800Y-5882400D01*
X11516600Y-9383000D02*
X11546600Y-9413000D01*
X11546600Y-9383000D02*
X11516600Y-9413000D01*
X11542000Y-10119600D02*
X11572000Y-10149600D01*
X11572000Y-10119600D02*
X11542000Y-10149600D01*
X11567400Y-6335000D02*
X11597400Y-6365000D01*
X11597400Y-6335000D02*
X11567400Y-6365000D01*
X11567400Y-6563600D02*
X11597400Y-6593600D01*
X11597400Y-6563600D02*
X11567400Y-6593600D01*
X11567400Y-6766800D02*
X11597400Y-6796800D01*
X11597400Y-6766800D02*
X11567400Y-6796800D01*
X11592800Y-5954000D02*
X11622800Y-5984000D01*
X11622800Y-5954000D02*
X11592800Y-5984000D01*
X11592800Y-6081000D02*
X11622800Y-6111000D01*
X11622800Y-6081000D02*
X11592800Y-6111000D01*
X11592800Y-6208000D02*
X11622800Y-6238000D01*
X11622800Y-6208000D02*
X11592800Y-6238000D01*
X11694400Y-10678400D02*
X11724400Y-10708400D01*
X11724400Y-10678400D02*
X11694400Y-10708400D01*
X11796000Y-8697200D02*
X11826000Y-8727200D01*
X11826000Y-8697200D02*
X11796000Y-8727200D01*
X11796000Y-10132300D02*
X11826000Y-10162300D01*
X11826000Y-10132300D02*
X11796000Y-10162300D01*
X11923000Y-10678400D02*
X11953000Y-10708400D01*
X11953000Y-10678400D02*
X11923000Y-10708400D01*
X12175000Y-10675000D02*
X12205000Y-10705000D01*
X12205000Y-10675000D02*
X12175000Y-10705000D01*
X12532600Y-5014200D02*
X12562600Y-5044200D01*
X12562600Y-5014200D02*
X12532600Y-5044200D01*
X12532600Y-5217400D02*
X12562600Y-5247400D01*
X12562600Y-5217400D02*
X12532600Y-5247400D01*
X12785000Y-11345000D02*
X12815000Y-11375000D01*
X12815000Y-11345000D02*
X12785000Y-11375000D01*
X13015200Y-11008600D02*
X13045200Y-11038600D01*
X13045200Y-11008600D02*
X13015200Y-11038600D01*
X13040600Y-5014200D02*
X13070600Y-5044200D01*
X13070600Y-5014200D02*
X13040600Y-5044200D01*
X13066000Y-8087600D02*
X13096000Y-8117600D01*
X13096000Y-8087600D02*
X13066000Y-8117600D01*
X13066000Y-8697200D02*
X13096000Y-8727200D01*
X13096000Y-8697200D02*
X13066000Y-8727200D01*
X13066000Y-10602200D02*
X13096000Y-10632200D01*
X13096000Y-10602200D02*
X13066000Y-10632200D01*
X13091400Y-11643600D02*
X13121400Y-11673600D01*
X13121400Y-11643600D02*
X13091400Y-11673600D01*
X13211608Y-5395200D02*
X13241608Y-5425200D01*
X13241608Y-5395200D02*
X13211608Y-5425200D01*
X13218400Y-5217400D02*
X13248400Y-5247400D01*
X13248400Y-5217400D02*
X13218400Y-5247400D01*
X13408900Y-12126200D02*
X13438900Y-12156200D01*
X13438900Y-12126200D02*
X13408900Y-12156200D01*
X13447000Y-10830800D02*
X13477000Y-10860800D01*
X13477000Y-10830800D02*
X13447000Y-10860800D01*
X13497800Y-11935700D02*
X13527800Y-11965700D01*
X13527800Y-11935700D02*
X13497800Y-11965700D01*
X13548600Y-11465800D02*
X13578600Y-11495800D01*
X13578600Y-11465800D02*
X13548600Y-11495800D01*
X13574000Y-12291300D02*
X13604000Y-12321300D01*
X13604000Y-12291300D02*
X13574000Y-12321300D01*
X13688300Y-11072100D02*
X13718300Y-11102100D01*
X13718300Y-11072100D02*
X13688300Y-11102100D01*
X14005800Y-10881600D02*
X14035800Y-10911600D01*
X14035800Y-10881600D02*
X14005800Y-10911600D01*
X14043900Y-11440400D02*
X14073900Y-11470400D01*
X14073900Y-11440400D02*
X14043900Y-11470400D01*
X14310600Y-11338800D02*
X14340600Y-11368800D01*
X14340600Y-11338800D02*
X14310600Y-11368800D01*
X14336000Y-8087600D02*
X14366000Y-8117600D01*
X14366000Y-8087600D02*
X14336000Y-8117600D01*
X14336000Y-8697200D02*
X14366000Y-8727200D01*
X14366000Y-8697200D02*
X14336000Y-8727200D01*
X14717000Y-10907000D02*
X14747000Y-10937000D01*
X14747000Y-10907000D02*
X14717000Y-10937000D01*
X15098000Y-8811500D02*
X15128000Y-8841500D01*
X15128000Y-8811500D02*
X15098000Y-8841500D01*
X15606000Y-8087600D02*
X15636000Y-8117600D01*
X15636000Y-8087600D02*
X15606000Y-8117600D01*
X15606000Y-8697200D02*
X15636000Y-8727200D01*
X15636000Y-8697200D02*
X15606000Y-8727200D01*
X15606000Y-10018000D02*
X15636000Y-10048000D01*
X15636000Y-10018000D02*
X15606000Y-10048000D01*
X15606000Y-10754600D02*
X15636000Y-10784600D01*
X15636000Y-10754600D02*
X15606000Y-10784600D01*
X15860000Y-7782800D02*
X15890000Y-7812800D01*
X15890000Y-7782800D02*
X15860000Y-7812800D01*
X15974300Y-7643100D02*
X16004300Y-7673100D01*
X16004300Y-7643100D02*
X15974300Y-7673100D01*
X15974300Y-10932400D02*
X16004300Y-10962400D01*
X16004300Y-10932400D02*
X15974300Y-10962400D01*
D13*
X15402500Y-5026000D02*
G75*
G03*
X15402500Y-5026000I-45000J0D01*
G01*
X15602500Y-5026000D02*
G75*
G03*
X15602500Y-5026000I-45000J0D01*
G01*
X15802500Y-5026000D02*
G75*
G03*
X15802500Y-5026000I-45000J0D01*
G01*
D14*
X10731500Y-6066000D02*
X10731500Y-6166000D01*
X10681500Y-6116000D02*
X10781500Y-6116000D01*
X10731500Y-6320000D02*
X10731500Y-6420000D01*
X10681500Y-6370000D02*
X10781500Y-6370000D01*
X10795000Y-8332000D02*
X10795000Y-8432000D01*
X10745000Y-8382000D02*
X10845000Y-8382000D01*
X10795000Y-8586000D02*
X10795000Y-8686000D01*
X10745000Y-8636000D02*
X10845000Y-8636000D01*
X10795000Y-8840000D02*
X10795000Y-8940000D01*
X10745000Y-8890000D02*
X10845000Y-8890000D01*
X10795000Y-9094000D02*
X10795000Y-9194000D01*
X10745000Y-9144000D02*
X10845000Y-9144000D01*
X10795000Y-9348000D02*
X10795000Y-9448000D01*
X10745000Y-9398000D02*
X10845000Y-9398000D01*
X10795000Y-9602000D02*
X10795000Y-9702000D01*
X10745000Y-9652000D02*
X10845000Y-9652000D01*
X10795000Y-9856000D02*
X10795000Y-9956000D01*
X10745000Y-9906000D02*
X10845000Y-9906000D01*
X10795000Y-10110000D02*
X10795000Y-10210000D01*
X10745000Y-10160000D02*
X10845000Y-10160000D01*
X13233400Y-4979200D02*
X13233400Y-5079200D01*
X13183400Y-5029200D02*
X13283400Y-5029200D01*
X13487400Y-4979200D02*
X13487400Y-5079200D01*
X13437400Y-5029200D02*
X13537400Y-5029200D01*
X13741400Y-4979200D02*
X13741400Y-5079200D01*
X13691400Y-5029200D02*
X13791400Y-5029200D01*
X13995400Y-4979200D02*
X13995400Y-5079200D01*
X13945400Y-5029200D02*
X14045400Y-5029200D01*
D15*
X16002363Y-6081263D02*
X16002363Y-6009137D01*
X15930237Y-6009137D01*
X15930237Y-6081263D01*
X16002363Y-6081263D01*
X16002363Y-7351263D02*
X16002363Y-7279137D01*
X15930237Y-7279137D01*
X15930237Y-7351263D01*
X16002363Y-7351263D01*
D16*
X15147500Y-5101000D02*
X15222500Y-5026000D01*
X15147500Y-4951000D01*
X15072500Y-5026000D01*
X15147500Y-5101000D01*
X15967500Y-5101000D02*
X16042500Y-5026000D01*
X15967500Y-4951000D01*
X15892500Y-5026000D01*
X15967500Y-5101000D01*
D11*
X10786714Y-14267921D02*
X10786714Y-14067921D01*
X10786714Y-14067921D02*
X10834333Y-14067921D01*
X10834333Y-14067921D02*
X10862905Y-14077445D01*
X10862905Y-14077445D02*
X10881952Y-14096493D01*
X10881952Y-14096493D02*
X10891476Y-14115540D01*
X10891476Y-14115540D02*
X10901000Y-14153635D01*
X10901000Y-14153635D02*
X10901000Y-14182207D01*
X10901000Y-14182207D02*
X10891476Y-14220302D01*
X10891476Y-14220302D02*
X10881952Y-14239350D01*
X10881952Y-14239350D02*
X10862905Y-14258397D01*
X10862905Y-14258397D02*
X10834333Y-14267921D01*
X10834333Y-14267921D02*
X10786714Y-14267921D01*
X10986714Y-14267921D02*
X10986714Y-14134588D01*
X10986714Y-14172683D02*
X10996238Y-14153635D01*
X10996238Y-14153635D02*
X11005762Y-14144112D01*
X11005762Y-14144112D02*
X11024809Y-14134588D01*
X11024809Y-14134588D02*
X11043857Y-14134588D01*
X11110524Y-14267921D02*
X11110524Y-14134588D01*
X11110524Y-14067921D02*
X11101000Y-14077445D01*
X11101000Y-14077445D02*
X11110524Y-14086969D01*
X11110524Y-14086969D02*
X11120047Y-14077445D01*
X11120047Y-14077445D02*
X11110524Y-14067921D01*
X11110524Y-14067921D02*
X11110524Y-14086969D01*
X11234333Y-14267921D02*
X11215285Y-14258397D01*
X11215285Y-14258397D02*
X11205762Y-14239350D01*
X11205762Y-14239350D02*
X11205762Y-14067921D01*
X11339095Y-14267921D02*
X11320047Y-14258397D01*
X11320047Y-14258397D02*
X11310523Y-14239350D01*
X11310523Y-14239350D02*
X11310523Y-14067921D01*
X11535285Y-14267921D02*
X11535285Y-14067921D01*
X11535285Y-14067921D02*
X11601952Y-14210778D01*
X11601952Y-14210778D02*
X11668619Y-14067921D01*
X11668619Y-14067921D02*
X11668619Y-14267921D01*
X11849571Y-14267921D02*
X11849571Y-14163159D01*
X11849571Y-14163159D02*
X11840047Y-14144112D01*
X11840047Y-14144112D02*
X11821000Y-14134588D01*
X11821000Y-14134588D02*
X11782904Y-14134588D01*
X11782904Y-14134588D02*
X11763857Y-14144112D01*
X11849571Y-14258397D02*
X11830523Y-14267921D01*
X11830523Y-14267921D02*
X11782904Y-14267921D01*
X11782904Y-14267921D02*
X11763857Y-14258397D01*
X11763857Y-14258397D02*
X11754333Y-14239350D01*
X11754333Y-14239350D02*
X11754333Y-14220302D01*
X11754333Y-14220302D02*
X11763857Y-14201254D01*
X11763857Y-14201254D02*
X11782904Y-14191731D01*
X11782904Y-14191731D02*
X11830523Y-14191731D01*
X11830523Y-14191731D02*
X11849571Y-14182207D01*
X11944809Y-14134588D02*
X11944809Y-14334588D01*
X11944809Y-14144112D02*
X11963857Y-14134588D01*
X11963857Y-14134588D02*
X12001952Y-14134588D01*
X12001952Y-14134588D02*
X12021000Y-14144112D01*
X12021000Y-14144112D02*
X12030523Y-14153635D01*
X12030523Y-14153635D02*
X12040047Y-14172683D01*
X12040047Y-14172683D02*
X12040047Y-14229826D01*
X12040047Y-14229826D02*
X12030523Y-14248873D01*
X12030523Y-14248873D02*
X12021000Y-14258397D01*
X12021000Y-14258397D02*
X12001952Y-14267921D01*
X12001952Y-14267921D02*
X11963857Y-14267921D01*
X11963857Y-14267921D02*
X11944809Y-14258397D01*
X12125762Y-14248873D02*
X12135285Y-14258397D01*
X12135285Y-14258397D02*
X12125762Y-14267921D01*
X12125762Y-14267921D02*
X12116238Y-14258397D01*
X12116238Y-14258397D02*
X12125762Y-14248873D01*
X12125762Y-14248873D02*
X12125762Y-14267921D01*
X12125762Y-14144112D02*
X12135285Y-14153635D01*
X12135285Y-14153635D02*
X12125762Y-14163159D01*
X12125762Y-14163159D02*
X12116238Y-14153635D01*
X12116238Y-14153635D02*
X12125762Y-14144112D01*
X12125762Y-14144112D02*
X12125762Y-14163159D01*
D12*
X10509095Y-14599445D02*
X10539095Y-14629445D01*
X10539095Y-14599445D02*
X10509095Y-14629445D01*
D11*
X10824809Y-14487921D02*
X10843857Y-14487921D01*
X10843857Y-14487921D02*
X10862905Y-14497445D01*
X10862905Y-14497445D02*
X10872428Y-14506969D01*
X10872428Y-14506969D02*
X10881952Y-14526016D01*
X10881952Y-14526016D02*
X10891476Y-14564112D01*
X10891476Y-14564112D02*
X10891476Y-14611731D01*
X10891476Y-14611731D02*
X10881952Y-14649826D01*
X10881952Y-14649826D02*
X10872428Y-14668873D01*
X10872428Y-14668873D02*
X10862905Y-14678397D01*
X10862905Y-14678397D02*
X10843857Y-14687921D01*
X10843857Y-14687921D02*
X10824809Y-14687921D01*
X10824809Y-14687921D02*
X10805762Y-14678397D01*
X10805762Y-14678397D02*
X10796238Y-14668873D01*
X10796238Y-14668873D02*
X10786714Y-14649826D01*
X10786714Y-14649826D02*
X10777190Y-14611731D01*
X10777190Y-14611731D02*
X10777190Y-14564112D01*
X10777190Y-14564112D02*
X10786714Y-14526016D01*
X10786714Y-14526016D02*
X10796238Y-14506969D01*
X10796238Y-14506969D02*
X10805762Y-14497445D01*
X10805762Y-14497445D02*
X10824809Y-14487921D01*
X10977190Y-14668873D02*
X10986714Y-14678397D01*
X10986714Y-14678397D02*
X10977190Y-14687921D01*
X10977190Y-14687921D02*
X10967666Y-14678397D01*
X10967666Y-14678397D02*
X10977190Y-14668873D01*
X10977190Y-14668873D02*
X10977190Y-14687921D01*
X11053381Y-14487921D02*
X11177190Y-14487921D01*
X11177190Y-14487921D02*
X11110524Y-14564112D01*
X11110524Y-14564112D02*
X11139095Y-14564112D01*
X11139095Y-14564112D02*
X11158143Y-14573635D01*
X11158143Y-14573635D02*
X11167666Y-14583159D01*
X11167666Y-14583159D02*
X11177190Y-14602207D01*
X11177190Y-14602207D02*
X11177190Y-14649826D01*
X11177190Y-14649826D02*
X11167666Y-14668873D01*
X11167666Y-14668873D02*
X11158143Y-14678397D01*
X11158143Y-14678397D02*
X11139095Y-14687921D01*
X11139095Y-14687921D02*
X11081952Y-14687921D01*
X11081952Y-14687921D02*
X11062905Y-14678397D01*
X11062905Y-14678397D02*
X11053381Y-14668873D01*
X11301000Y-14487921D02*
X11320047Y-14487921D01*
X11320047Y-14487921D02*
X11339095Y-14497445D01*
X11339095Y-14497445D02*
X11348619Y-14506969D01*
X11348619Y-14506969D02*
X11358143Y-14526016D01*
X11358143Y-14526016D02*
X11367666Y-14564112D01*
X11367666Y-14564112D02*
X11367666Y-14611731D01*
X11367666Y-14611731D02*
X11358143Y-14649826D01*
X11358143Y-14649826D02*
X11348619Y-14668873D01*
X11348619Y-14668873D02*
X11339095Y-14678397D01*
X11339095Y-14678397D02*
X11320047Y-14687921D01*
X11320047Y-14687921D02*
X11301000Y-14687921D01*
X11301000Y-14687921D02*
X11281952Y-14678397D01*
X11281952Y-14678397D02*
X11272428Y-14668873D01*
X11272428Y-14668873D02*
X11262904Y-14649826D01*
X11262904Y-14649826D02*
X11253381Y-14611731D01*
X11253381Y-14611731D02*
X11253381Y-14564112D01*
X11253381Y-14564112D02*
X11262904Y-14526016D01*
X11262904Y-14526016D02*
X11272428Y-14506969D01*
X11272428Y-14506969D02*
X11281952Y-14497445D01*
X11281952Y-14497445D02*
X11301000Y-14487921D01*
X11491476Y-14487921D02*
X11510524Y-14487921D01*
X11510524Y-14487921D02*
X11529571Y-14497445D01*
X11529571Y-14497445D02*
X11539095Y-14506969D01*
X11539095Y-14506969D02*
X11548619Y-14526016D01*
X11548619Y-14526016D02*
X11558143Y-14564112D01*
X11558143Y-14564112D02*
X11558143Y-14611731D01*
X11558143Y-14611731D02*
X11548619Y-14649826D01*
X11548619Y-14649826D02*
X11539095Y-14668873D01*
X11539095Y-14668873D02*
X11529571Y-14678397D01*
X11529571Y-14678397D02*
X11510524Y-14687921D01*
X11510524Y-14687921D02*
X11491476Y-14687921D01*
X11491476Y-14687921D02*
X11472428Y-14678397D01*
X11472428Y-14678397D02*
X11462904Y-14668873D01*
X11462904Y-14668873D02*
X11453381Y-14649826D01*
X11453381Y-14649826D02*
X11443857Y-14611731D01*
X11443857Y-14611731D02*
X11443857Y-14564112D01*
X11443857Y-14564112D02*
X11453381Y-14526016D01*
X11453381Y-14526016D02*
X11462904Y-14506969D01*
X11462904Y-14506969D02*
X11472428Y-14497445D01*
X11472428Y-14497445D02*
X11491476Y-14487921D01*
X11643857Y-14687921D02*
X11643857Y-14554588D01*
X11643857Y-14573635D02*
X11653381Y-14564112D01*
X11653381Y-14564112D02*
X11672428Y-14554588D01*
X11672428Y-14554588D02*
X11701000Y-14554588D01*
X11701000Y-14554588D02*
X11720047Y-14564112D01*
X11720047Y-14564112D02*
X11729571Y-14583159D01*
X11729571Y-14583159D02*
X11729571Y-14687921D01*
X11729571Y-14583159D02*
X11739095Y-14564112D01*
X11739095Y-14564112D02*
X11758143Y-14554588D01*
X11758143Y-14554588D02*
X11786714Y-14554588D01*
X11786714Y-14554588D02*
X11805762Y-14564112D01*
X11805762Y-14564112D02*
X11815285Y-14583159D01*
X11815285Y-14583159D02*
X11815285Y-14687921D01*
X11910524Y-14687921D02*
X11910524Y-14554588D01*
X11910524Y-14573635D02*
X11920047Y-14564112D01*
X11920047Y-14564112D02*
X11939095Y-14554588D01*
X11939095Y-14554588D02*
X11967666Y-14554588D01*
X11967666Y-14554588D02*
X11986714Y-14564112D01*
X11986714Y-14564112D02*
X11996238Y-14583159D01*
X11996238Y-14583159D02*
X11996238Y-14687921D01*
X11996238Y-14583159D02*
X12005762Y-14564112D01*
X12005762Y-14564112D02*
X12024809Y-14554588D01*
X12024809Y-14554588D02*
X12053381Y-14554588D01*
X12053381Y-14554588D02*
X12072428Y-14564112D01*
X12072428Y-14564112D02*
X12081952Y-14583159D01*
X12081952Y-14583159D02*
X12081952Y-14687921D01*
X12440047Y-14478397D02*
X12268619Y-14735540D01*
X12664809Y-14487921D02*
X12683857Y-14487921D01*
X12683857Y-14487921D02*
X12702905Y-14497445D01*
X12702905Y-14497445D02*
X12712428Y-14506969D01*
X12712428Y-14506969D02*
X12721952Y-14526016D01*
X12721952Y-14526016D02*
X12731476Y-14564112D01*
X12731476Y-14564112D02*
X12731476Y-14611731D01*
X12731476Y-14611731D02*
X12721952Y-14649826D01*
X12721952Y-14649826D02*
X12712428Y-14668873D01*
X12712428Y-14668873D02*
X12702905Y-14678397D01*
X12702905Y-14678397D02*
X12683857Y-14687921D01*
X12683857Y-14687921D02*
X12664809Y-14687921D01*
X12664809Y-14687921D02*
X12645762Y-14678397D01*
X12645762Y-14678397D02*
X12636238Y-14668873D01*
X12636238Y-14668873D02*
X12626714Y-14649826D01*
X12626714Y-14649826D02*
X12617190Y-14611731D01*
X12617190Y-14611731D02*
X12617190Y-14564112D01*
X12617190Y-14564112D02*
X12626714Y-14526016D01*
X12626714Y-14526016D02*
X12636238Y-14506969D01*
X12636238Y-14506969D02*
X12645762Y-14497445D01*
X12645762Y-14497445D02*
X12664809Y-14487921D01*
X12817190Y-14668873D02*
X12826714Y-14678397D01*
X12826714Y-14678397D02*
X12817190Y-14687921D01*
X12817190Y-14687921D02*
X12807666Y-14678397D01*
X12807666Y-14678397D02*
X12817190Y-14668873D01*
X12817190Y-14668873D02*
X12817190Y-14687921D01*
X12950524Y-14487921D02*
X12969571Y-14487921D01*
X12969571Y-14487921D02*
X12988619Y-14497445D01*
X12988619Y-14497445D02*
X12998143Y-14506969D01*
X12998143Y-14506969D02*
X13007666Y-14526016D01*
X13007666Y-14526016D02*
X13017190Y-14564112D01*
X13017190Y-14564112D02*
X13017190Y-14611731D01*
X13017190Y-14611731D02*
X13007666Y-14649826D01*
X13007666Y-14649826D02*
X12998143Y-14668873D01*
X12998143Y-14668873D02*
X12988619Y-14678397D01*
X12988619Y-14678397D02*
X12969571Y-14687921D01*
X12969571Y-14687921D02*
X12950524Y-14687921D01*
X12950524Y-14687921D02*
X12931476Y-14678397D01*
X12931476Y-14678397D02*
X12921952Y-14668873D01*
X12921952Y-14668873D02*
X12912428Y-14649826D01*
X12912428Y-14649826D02*
X12902905Y-14611731D01*
X12902905Y-14611731D02*
X12902905Y-14564112D01*
X12902905Y-14564112D02*
X12912428Y-14526016D01*
X12912428Y-14526016D02*
X12921952Y-14506969D01*
X12921952Y-14506969D02*
X12931476Y-14497445D01*
X12931476Y-14497445D02*
X12950524Y-14487921D01*
X13207666Y-14687921D02*
X13093381Y-14687921D01*
X13150524Y-14687921D02*
X13150524Y-14487921D01*
X13150524Y-14487921D02*
X13131476Y-14516493D01*
X13131476Y-14516493D02*
X13112428Y-14535540D01*
X13112428Y-14535540D02*
X13093381Y-14545064D01*
X13398143Y-14687921D02*
X13283857Y-14687921D01*
X13341000Y-14687921D02*
X13341000Y-14487921D01*
X13341000Y-14487921D02*
X13321952Y-14516493D01*
X13321952Y-14516493D02*
X13302905Y-14535540D01*
X13302905Y-14535540D02*
X13283857Y-14545064D01*
X13512428Y-14573635D02*
X13493381Y-14564112D01*
X13493381Y-14564112D02*
X13483857Y-14554588D01*
X13483857Y-14554588D02*
X13474333Y-14535540D01*
X13474333Y-14535540D02*
X13474333Y-14526016D01*
X13474333Y-14526016D02*
X13483857Y-14506969D01*
X13483857Y-14506969D02*
X13493381Y-14497445D01*
X13493381Y-14497445D02*
X13512428Y-14487921D01*
X13512428Y-14487921D02*
X13550524Y-14487921D01*
X13550524Y-14487921D02*
X13569571Y-14497445D01*
X13569571Y-14497445D02*
X13579095Y-14506969D01*
X13579095Y-14506969D02*
X13588619Y-14526016D01*
X13588619Y-14526016D02*
X13588619Y-14535540D01*
X13588619Y-14535540D02*
X13579095Y-14554588D01*
X13579095Y-14554588D02*
X13569571Y-14564112D01*
X13569571Y-14564112D02*
X13550524Y-14573635D01*
X13550524Y-14573635D02*
X13512428Y-14573635D01*
X13512428Y-14573635D02*
X13493381Y-14583159D01*
X13493381Y-14583159D02*
X13483857Y-14592683D01*
X13483857Y-14592683D02*
X13474333Y-14611731D01*
X13474333Y-14611731D02*
X13474333Y-14649826D01*
X13474333Y-14649826D02*
X13483857Y-14668873D01*
X13483857Y-14668873D02*
X13493381Y-14678397D01*
X13493381Y-14678397D02*
X13512428Y-14687921D01*
X13512428Y-14687921D02*
X13550524Y-14687921D01*
X13550524Y-14687921D02*
X13569571Y-14678397D01*
X13569571Y-14678397D02*
X13579095Y-14668873D01*
X13579095Y-14668873D02*
X13588619Y-14649826D01*
X13588619Y-14649826D02*
X13588619Y-14611731D01*
X13588619Y-14611731D02*
X13579095Y-14592683D01*
X13579095Y-14592683D02*
X13569571Y-14583159D01*
X13569571Y-14583159D02*
X13550524Y-14573635D01*
X13664809Y-14487921D02*
X13664809Y-14526016D01*
X13741000Y-14487921D02*
X13741000Y-14526016D01*
X14003857Y-14764112D02*
X13994333Y-14754588D01*
X13994333Y-14754588D02*
X13975286Y-14726016D01*
X13975286Y-14726016D02*
X13965762Y-14706969D01*
X13965762Y-14706969D02*
X13956238Y-14678397D01*
X13956238Y-14678397D02*
X13946714Y-14630778D01*
X13946714Y-14630778D02*
X13946714Y-14592683D01*
X13946714Y-14592683D02*
X13956238Y-14545064D01*
X13956238Y-14545064D02*
X13965762Y-14516493D01*
X13965762Y-14516493D02*
X13975286Y-14497445D01*
X13975286Y-14497445D02*
X13994333Y-14468873D01*
X13994333Y-14468873D02*
X14003857Y-14459350D01*
X14108619Y-14573635D02*
X14089571Y-14564112D01*
X14089571Y-14564112D02*
X14080047Y-14554588D01*
X14080047Y-14554588D02*
X14070524Y-14535540D01*
X14070524Y-14535540D02*
X14070524Y-14526016D01*
X14070524Y-14526016D02*
X14080047Y-14506969D01*
X14080047Y-14506969D02*
X14089571Y-14497445D01*
X14089571Y-14497445D02*
X14108619Y-14487921D01*
X14108619Y-14487921D02*
X14146714Y-14487921D01*
X14146714Y-14487921D02*
X14165762Y-14497445D01*
X14165762Y-14497445D02*
X14175286Y-14506969D01*
X14175286Y-14506969D02*
X14184809Y-14526016D01*
X14184809Y-14526016D02*
X14184809Y-14535540D01*
X14184809Y-14535540D02*
X14175286Y-14554588D01*
X14175286Y-14554588D02*
X14165762Y-14564112D01*
X14165762Y-14564112D02*
X14146714Y-14573635D01*
X14146714Y-14573635D02*
X14108619Y-14573635D01*
X14108619Y-14573635D02*
X14089571Y-14583159D01*
X14089571Y-14583159D02*
X14080047Y-14592683D01*
X14080047Y-14592683D02*
X14070524Y-14611731D01*
X14070524Y-14611731D02*
X14070524Y-14649826D01*
X14070524Y-14649826D02*
X14080047Y-14668873D01*
X14080047Y-14668873D02*
X14089571Y-14678397D01*
X14089571Y-14678397D02*
X14108619Y-14687921D01*
X14108619Y-14687921D02*
X14146714Y-14687921D01*
X14146714Y-14687921D02*
X14165762Y-14678397D01*
X14165762Y-14678397D02*
X14175286Y-14668873D01*
X14175286Y-14668873D02*
X14184809Y-14649826D01*
X14184809Y-14649826D02*
X14184809Y-14611731D01*
X14184809Y-14611731D02*
X14175286Y-14592683D01*
X14175286Y-14592683D02*
X14165762Y-14583159D01*
X14165762Y-14583159D02*
X14146714Y-14573635D01*
X14251476Y-14487921D02*
X14375286Y-14487921D01*
X14375286Y-14487921D02*
X14308619Y-14564112D01*
X14308619Y-14564112D02*
X14337190Y-14564112D01*
X14337190Y-14564112D02*
X14356238Y-14573635D01*
X14356238Y-14573635D02*
X14365762Y-14583159D01*
X14365762Y-14583159D02*
X14375286Y-14602207D01*
X14375286Y-14602207D02*
X14375286Y-14649826D01*
X14375286Y-14649826D02*
X14365762Y-14668873D01*
X14365762Y-14668873D02*
X14356238Y-14678397D01*
X14356238Y-14678397D02*
X14337190Y-14687921D01*
X14337190Y-14687921D02*
X14280047Y-14687921D01*
X14280047Y-14687921D02*
X14261000Y-14678397D01*
X14261000Y-14678397D02*
X14251476Y-14668873D01*
X14581000Y-14687921D02*
X14581000Y-14487921D01*
X14666714Y-14687921D02*
X14666714Y-14583159D01*
X14666714Y-14583159D02*
X14657190Y-14564112D01*
X14657190Y-14564112D02*
X14638143Y-14554588D01*
X14638143Y-14554588D02*
X14609571Y-14554588D01*
X14609571Y-14554588D02*
X14590524Y-14564112D01*
X14590524Y-14564112D02*
X14581000Y-14573635D01*
X14790524Y-14687921D02*
X14771476Y-14678397D01*
X14771476Y-14678397D02*
X14761952Y-14668873D01*
X14761952Y-14668873D02*
X14752428Y-14649826D01*
X14752428Y-14649826D02*
X14752428Y-14592683D01*
X14752428Y-14592683D02*
X14761952Y-14573635D01*
X14761952Y-14573635D02*
X14771476Y-14564112D01*
X14771476Y-14564112D02*
X14790524Y-14554588D01*
X14790524Y-14554588D02*
X14819095Y-14554588D01*
X14819095Y-14554588D02*
X14838143Y-14564112D01*
X14838143Y-14564112D02*
X14847667Y-14573635D01*
X14847667Y-14573635D02*
X14857190Y-14592683D01*
X14857190Y-14592683D02*
X14857190Y-14649826D01*
X14857190Y-14649826D02*
X14847667Y-14668873D01*
X14847667Y-14668873D02*
X14838143Y-14678397D01*
X14838143Y-14678397D02*
X14819095Y-14687921D01*
X14819095Y-14687921D02*
X14790524Y-14687921D01*
X14971476Y-14687921D02*
X14952428Y-14678397D01*
X14952428Y-14678397D02*
X14942905Y-14659350D01*
X14942905Y-14659350D02*
X14942905Y-14487921D01*
X15123857Y-14678397D02*
X15104809Y-14687921D01*
X15104809Y-14687921D02*
X15066714Y-14687921D01*
X15066714Y-14687921D02*
X15047667Y-14678397D01*
X15047667Y-14678397D02*
X15038143Y-14659350D01*
X15038143Y-14659350D02*
X15038143Y-14583159D01*
X15038143Y-14583159D02*
X15047667Y-14564112D01*
X15047667Y-14564112D02*
X15066714Y-14554588D01*
X15066714Y-14554588D02*
X15104809Y-14554588D01*
X15104809Y-14554588D02*
X15123857Y-14564112D01*
X15123857Y-14564112D02*
X15133381Y-14583159D01*
X15133381Y-14583159D02*
X15133381Y-14602207D01*
X15133381Y-14602207D02*
X15038143Y-14621254D01*
X15209571Y-14678397D02*
X15228619Y-14687921D01*
X15228619Y-14687921D02*
X15266714Y-14687921D01*
X15266714Y-14687921D02*
X15285762Y-14678397D01*
X15285762Y-14678397D02*
X15295286Y-14659350D01*
X15295286Y-14659350D02*
X15295286Y-14649826D01*
X15295286Y-14649826D02*
X15285762Y-14630778D01*
X15285762Y-14630778D02*
X15266714Y-14621254D01*
X15266714Y-14621254D02*
X15238143Y-14621254D01*
X15238143Y-14621254D02*
X15219095Y-14611731D01*
X15219095Y-14611731D02*
X15209571Y-14592683D01*
X15209571Y-14592683D02*
X15209571Y-14583159D01*
X15209571Y-14583159D02*
X15219095Y-14564112D01*
X15219095Y-14564112D02*
X15238143Y-14554588D01*
X15238143Y-14554588D02*
X15266714Y-14554588D01*
X15266714Y-14554588D02*
X15285762Y-14564112D01*
X15361952Y-14764112D02*
X15371476Y-14754588D01*
X15371476Y-14754588D02*
X15390524Y-14726016D01*
X15390524Y-14726016D02*
X15400048Y-14706969D01*
X15400048Y-14706969D02*
X15409571Y-14678397D01*
X15409571Y-14678397D02*
X15419095Y-14630778D01*
X15419095Y-14630778D02*
X15419095Y-14592683D01*
X15419095Y-14592683D02*
X15409571Y-14545064D01*
X15409571Y-14545064D02*
X15400048Y-14516493D01*
X15400048Y-14516493D02*
X15390524Y-14497445D01*
X15390524Y-14497445D02*
X15371476Y-14468873D01*
X15371476Y-14468873D02*
X15361952Y-14459350D01*
D13*
X10539095Y-14878445D02*
G75*
G03*
X10539095Y-14878445I-45000J0D01*
G01*
D11*
X10824809Y-14751921D02*
X10843857Y-14751921D01*
X10843857Y-14751921D02*
X10862905Y-14761445D01*
X10862905Y-14761445D02*
X10872428Y-14770969D01*
X10872428Y-14770969D02*
X10881952Y-14790016D01*
X10881952Y-14790016D02*
X10891476Y-14828112D01*
X10891476Y-14828112D02*
X10891476Y-14875731D01*
X10891476Y-14875731D02*
X10881952Y-14913826D01*
X10881952Y-14913826D02*
X10872428Y-14932873D01*
X10872428Y-14932873D02*
X10862905Y-14942397D01*
X10862905Y-14942397D02*
X10843857Y-14951921D01*
X10843857Y-14951921D02*
X10824809Y-14951921D01*
X10824809Y-14951921D02*
X10805762Y-14942397D01*
X10805762Y-14942397D02*
X10796238Y-14932873D01*
X10796238Y-14932873D02*
X10786714Y-14913826D01*
X10786714Y-14913826D02*
X10777190Y-14875731D01*
X10777190Y-14875731D02*
X10777190Y-14828112D01*
X10777190Y-14828112D02*
X10786714Y-14790016D01*
X10786714Y-14790016D02*
X10796238Y-14770969D01*
X10796238Y-14770969D02*
X10805762Y-14761445D01*
X10805762Y-14761445D02*
X10824809Y-14751921D01*
X10977190Y-14932873D02*
X10986714Y-14942397D01*
X10986714Y-14942397D02*
X10977190Y-14951921D01*
X10977190Y-14951921D02*
X10967666Y-14942397D01*
X10967666Y-14942397D02*
X10977190Y-14932873D01*
X10977190Y-14932873D02*
X10977190Y-14951921D01*
X11081952Y-14951921D02*
X11120047Y-14951921D01*
X11120047Y-14951921D02*
X11139095Y-14942397D01*
X11139095Y-14942397D02*
X11148619Y-14932873D01*
X11148619Y-14932873D02*
X11167666Y-14904302D01*
X11167666Y-14904302D02*
X11177190Y-14866207D01*
X11177190Y-14866207D02*
X11177190Y-14790016D01*
X11177190Y-14790016D02*
X11167666Y-14770969D01*
X11167666Y-14770969D02*
X11158143Y-14761445D01*
X11158143Y-14761445D02*
X11139095Y-14751921D01*
X11139095Y-14751921D02*
X11101000Y-14751921D01*
X11101000Y-14751921D02*
X11081952Y-14761445D01*
X11081952Y-14761445D02*
X11072428Y-14770969D01*
X11072428Y-14770969D02*
X11062905Y-14790016D01*
X11062905Y-14790016D02*
X11062905Y-14837635D01*
X11062905Y-14837635D02*
X11072428Y-14856683D01*
X11072428Y-14856683D02*
X11081952Y-14866207D01*
X11081952Y-14866207D02*
X11101000Y-14875731D01*
X11101000Y-14875731D02*
X11139095Y-14875731D01*
X11139095Y-14875731D02*
X11158143Y-14866207D01*
X11158143Y-14866207D02*
X11167666Y-14856683D01*
X11167666Y-14856683D02*
X11177190Y-14837635D01*
X11301000Y-14751921D02*
X11320047Y-14751921D01*
X11320047Y-14751921D02*
X11339095Y-14761445D01*
X11339095Y-14761445D02*
X11348619Y-14770969D01*
X11348619Y-14770969D02*
X11358143Y-14790016D01*
X11358143Y-14790016D02*
X11367666Y-14828112D01*
X11367666Y-14828112D02*
X11367666Y-14875731D01*
X11367666Y-14875731D02*
X11358143Y-14913826D01*
X11358143Y-14913826D02*
X11348619Y-14932873D01*
X11348619Y-14932873D02*
X11339095Y-14942397D01*
X11339095Y-14942397D02*
X11320047Y-14951921D01*
X11320047Y-14951921D02*
X11301000Y-14951921D01*
X11301000Y-14951921D02*
X11281952Y-14942397D01*
X11281952Y-14942397D02*
X11272428Y-14932873D01*
X11272428Y-14932873D02*
X11262904Y-14913826D01*
X11262904Y-14913826D02*
X11253381Y-14875731D01*
X11253381Y-14875731D02*
X11253381Y-14828112D01*
X11253381Y-14828112D02*
X11262904Y-14790016D01*
X11262904Y-14790016D02*
X11272428Y-14770969D01*
X11272428Y-14770969D02*
X11281952Y-14761445D01*
X11281952Y-14761445D02*
X11301000Y-14751921D01*
X11491476Y-14751921D02*
X11510524Y-14751921D01*
X11510524Y-14751921D02*
X11529571Y-14761445D01*
X11529571Y-14761445D02*
X11539095Y-14770969D01*
X11539095Y-14770969D02*
X11548619Y-14790016D01*
X11548619Y-14790016D02*
X11558143Y-14828112D01*
X11558143Y-14828112D02*
X11558143Y-14875731D01*
X11558143Y-14875731D02*
X11548619Y-14913826D01*
X11548619Y-14913826D02*
X11539095Y-14932873D01*
X11539095Y-14932873D02*
X11529571Y-14942397D01*
X11529571Y-14942397D02*
X11510524Y-14951921D01*
X11510524Y-14951921D02*
X11491476Y-14951921D01*
X11491476Y-14951921D02*
X11472428Y-14942397D01*
X11472428Y-14942397D02*
X11462904Y-14932873D01*
X11462904Y-14932873D02*
X11453381Y-14913826D01*
X11453381Y-14913826D02*
X11443857Y-14875731D01*
X11443857Y-14875731D02*
X11443857Y-14828112D01*
X11443857Y-14828112D02*
X11453381Y-14790016D01*
X11453381Y-14790016D02*
X11462904Y-14770969D01*
X11462904Y-14770969D02*
X11472428Y-14761445D01*
X11472428Y-14761445D02*
X11491476Y-14751921D01*
X11643857Y-14951921D02*
X11643857Y-14818588D01*
X11643857Y-14837635D02*
X11653381Y-14828112D01*
X11653381Y-14828112D02*
X11672428Y-14818588D01*
X11672428Y-14818588D02*
X11701000Y-14818588D01*
X11701000Y-14818588D02*
X11720047Y-14828112D01*
X11720047Y-14828112D02*
X11729571Y-14847159D01*
X11729571Y-14847159D02*
X11729571Y-14951921D01*
X11729571Y-14847159D02*
X11739095Y-14828112D01*
X11739095Y-14828112D02*
X11758143Y-14818588D01*
X11758143Y-14818588D02*
X11786714Y-14818588D01*
X11786714Y-14818588D02*
X11805762Y-14828112D01*
X11805762Y-14828112D02*
X11815285Y-14847159D01*
X11815285Y-14847159D02*
X11815285Y-14951921D01*
X11910524Y-14951921D02*
X11910524Y-14818588D01*
X11910524Y-14837635D02*
X11920047Y-14828112D01*
X11920047Y-14828112D02*
X11939095Y-14818588D01*
X11939095Y-14818588D02*
X11967666Y-14818588D01*
X11967666Y-14818588D02*
X11986714Y-14828112D01*
X11986714Y-14828112D02*
X11996238Y-14847159D01*
X11996238Y-14847159D02*
X11996238Y-14951921D01*
X11996238Y-14847159D02*
X12005762Y-14828112D01*
X12005762Y-14828112D02*
X12024809Y-14818588D01*
X12024809Y-14818588D02*
X12053381Y-14818588D01*
X12053381Y-14818588D02*
X12072428Y-14828112D01*
X12072428Y-14828112D02*
X12081952Y-14847159D01*
X12081952Y-14847159D02*
X12081952Y-14951921D01*
X12440047Y-14742397D02*
X12268619Y-14999540D01*
X12664809Y-14751921D02*
X12683857Y-14751921D01*
X12683857Y-14751921D02*
X12702905Y-14761445D01*
X12702905Y-14761445D02*
X12712428Y-14770969D01*
X12712428Y-14770969D02*
X12721952Y-14790016D01*
X12721952Y-14790016D02*
X12731476Y-14828112D01*
X12731476Y-14828112D02*
X12731476Y-14875731D01*
X12731476Y-14875731D02*
X12721952Y-14913826D01*
X12721952Y-14913826D02*
X12712428Y-14932873D01*
X12712428Y-14932873D02*
X12702905Y-14942397D01*
X12702905Y-14942397D02*
X12683857Y-14951921D01*
X12683857Y-14951921D02*
X12664809Y-14951921D01*
X12664809Y-14951921D02*
X12645762Y-14942397D01*
X12645762Y-14942397D02*
X12636238Y-14932873D01*
X12636238Y-14932873D02*
X12626714Y-14913826D01*
X12626714Y-14913826D02*
X12617190Y-14875731D01*
X12617190Y-14875731D02*
X12617190Y-14828112D01*
X12617190Y-14828112D02*
X12626714Y-14790016D01*
X12626714Y-14790016D02*
X12636238Y-14770969D01*
X12636238Y-14770969D02*
X12645762Y-14761445D01*
X12645762Y-14761445D02*
X12664809Y-14751921D01*
X12817190Y-14932873D02*
X12826714Y-14942397D01*
X12826714Y-14942397D02*
X12817190Y-14951921D01*
X12817190Y-14951921D02*
X12807666Y-14942397D01*
X12807666Y-14942397D02*
X12817190Y-14932873D01*
X12817190Y-14932873D02*
X12817190Y-14951921D01*
X12950524Y-14751921D02*
X12969571Y-14751921D01*
X12969571Y-14751921D02*
X12988619Y-14761445D01*
X12988619Y-14761445D02*
X12998143Y-14770969D01*
X12998143Y-14770969D02*
X13007666Y-14790016D01*
X13007666Y-14790016D02*
X13017190Y-14828112D01*
X13017190Y-14828112D02*
X13017190Y-14875731D01*
X13017190Y-14875731D02*
X13007666Y-14913826D01*
X13007666Y-14913826D02*
X12998143Y-14932873D01*
X12998143Y-14932873D02*
X12988619Y-14942397D01*
X12988619Y-14942397D02*
X12969571Y-14951921D01*
X12969571Y-14951921D02*
X12950524Y-14951921D01*
X12950524Y-14951921D02*
X12931476Y-14942397D01*
X12931476Y-14942397D02*
X12921952Y-14932873D01*
X12921952Y-14932873D02*
X12912428Y-14913826D01*
X12912428Y-14913826D02*
X12902905Y-14875731D01*
X12902905Y-14875731D02*
X12902905Y-14828112D01*
X12902905Y-14828112D02*
X12912428Y-14790016D01*
X12912428Y-14790016D02*
X12921952Y-14770969D01*
X12921952Y-14770969D02*
X12931476Y-14761445D01*
X12931476Y-14761445D02*
X12950524Y-14751921D01*
X13083857Y-14751921D02*
X13207666Y-14751921D01*
X13207666Y-14751921D02*
X13141000Y-14828112D01*
X13141000Y-14828112D02*
X13169571Y-14828112D01*
X13169571Y-14828112D02*
X13188619Y-14837635D01*
X13188619Y-14837635D02*
X13198143Y-14847159D01*
X13198143Y-14847159D02*
X13207666Y-14866207D01*
X13207666Y-14866207D02*
X13207666Y-14913826D01*
X13207666Y-14913826D02*
X13198143Y-14932873D01*
X13198143Y-14932873D02*
X13188619Y-14942397D01*
X13188619Y-14942397D02*
X13169571Y-14951921D01*
X13169571Y-14951921D02*
X13112428Y-14951921D01*
X13112428Y-14951921D02*
X13093381Y-14942397D01*
X13093381Y-14942397D02*
X13083857Y-14932873D01*
X13388619Y-14751921D02*
X13293381Y-14751921D01*
X13293381Y-14751921D02*
X13283857Y-14847159D01*
X13283857Y-14847159D02*
X13293381Y-14837635D01*
X13293381Y-14837635D02*
X13312428Y-14828112D01*
X13312428Y-14828112D02*
X13360047Y-14828112D01*
X13360047Y-14828112D02*
X13379095Y-14837635D01*
X13379095Y-14837635D02*
X13388619Y-14847159D01*
X13388619Y-14847159D02*
X13398143Y-14866207D01*
X13398143Y-14866207D02*
X13398143Y-14913826D01*
X13398143Y-14913826D02*
X13388619Y-14932873D01*
X13388619Y-14932873D02*
X13379095Y-14942397D01*
X13379095Y-14942397D02*
X13360047Y-14951921D01*
X13360047Y-14951921D02*
X13312428Y-14951921D01*
X13312428Y-14951921D02*
X13293381Y-14942397D01*
X13293381Y-14942397D02*
X13283857Y-14932873D01*
X13569571Y-14818588D02*
X13569571Y-14951921D01*
X13521952Y-14742397D02*
X13474333Y-14885254D01*
X13474333Y-14885254D02*
X13598143Y-14885254D01*
X13664809Y-14751921D02*
X13664809Y-14790016D01*
X13741000Y-14751921D02*
X13741000Y-14790016D01*
X14003857Y-15028112D02*
X13994333Y-15018588D01*
X13994333Y-15018588D02*
X13975286Y-14990016D01*
X13975286Y-14990016D02*
X13965762Y-14970969D01*
X13965762Y-14970969D02*
X13956238Y-14942397D01*
X13956238Y-14942397D02*
X13946714Y-14894778D01*
X13946714Y-14894778D02*
X13946714Y-14856683D01*
X13946714Y-14856683D02*
X13956238Y-14809064D01*
X13956238Y-14809064D02*
X13965762Y-14780493D01*
X13965762Y-14780493D02*
X13975286Y-14761445D01*
X13975286Y-14761445D02*
X13994333Y-14732873D01*
X13994333Y-14732873D02*
X14003857Y-14723350D01*
X14061000Y-14751921D02*
X14184809Y-14751921D01*
X14184809Y-14751921D02*
X14118143Y-14828112D01*
X14118143Y-14828112D02*
X14146714Y-14828112D01*
X14146714Y-14828112D02*
X14165762Y-14837635D01*
X14165762Y-14837635D02*
X14175286Y-14847159D01*
X14175286Y-14847159D02*
X14184809Y-14866207D01*
X14184809Y-14866207D02*
X14184809Y-14913826D01*
X14184809Y-14913826D02*
X14175286Y-14932873D01*
X14175286Y-14932873D02*
X14165762Y-14942397D01*
X14165762Y-14942397D02*
X14146714Y-14951921D01*
X14146714Y-14951921D02*
X14089571Y-14951921D01*
X14089571Y-14951921D02*
X14070524Y-14942397D01*
X14070524Y-14942397D02*
X14061000Y-14932873D01*
X14390524Y-14951921D02*
X14390524Y-14751921D01*
X14476238Y-14951921D02*
X14476238Y-14847159D01*
X14476238Y-14847159D02*
X14466714Y-14828112D01*
X14466714Y-14828112D02*
X14447667Y-14818588D01*
X14447667Y-14818588D02*
X14419095Y-14818588D01*
X14419095Y-14818588D02*
X14400047Y-14828112D01*
X14400047Y-14828112D02*
X14390524Y-14837635D01*
X14600047Y-14951921D02*
X14581000Y-14942397D01*
X14581000Y-14942397D02*
X14571476Y-14932873D01*
X14571476Y-14932873D02*
X14561952Y-14913826D01*
X14561952Y-14913826D02*
X14561952Y-14856683D01*
X14561952Y-14856683D02*
X14571476Y-14837635D01*
X14571476Y-14837635D02*
X14581000Y-14828112D01*
X14581000Y-14828112D02*
X14600047Y-14818588D01*
X14600047Y-14818588D02*
X14628619Y-14818588D01*
X14628619Y-14818588D02*
X14647667Y-14828112D01*
X14647667Y-14828112D02*
X14657190Y-14837635D01*
X14657190Y-14837635D02*
X14666714Y-14856683D01*
X14666714Y-14856683D02*
X14666714Y-14913826D01*
X14666714Y-14913826D02*
X14657190Y-14932873D01*
X14657190Y-14932873D02*
X14647667Y-14942397D01*
X14647667Y-14942397D02*
X14628619Y-14951921D01*
X14628619Y-14951921D02*
X14600047Y-14951921D01*
X14781000Y-14951921D02*
X14761952Y-14942397D01*
X14761952Y-14942397D02*
X14752428Y-14923350D01*
X14752428Y-14923350D02*
X14752428Y-14751921D01*
X14933381Y-14942397D02*
X14914333Y-14951921D01*
X14914333Y-14951921D02*
X14876238Y-14951921D01*
X14876238Y-14951921D02*
X14857190Y-14942397D01*
X14857190Y-14942397D02*
X14847667Y-14923350D01*
X14847667Y-14923350D02*
X14847667Y-14847159D01*
X14847667Y-14847159D02*
X14857190Y-14828112D01*
X14857190Y-14828112D02*
X14876238Y-14818588D01*
X14876238Y-14818588D02*
X14914333Y-14818588D01*
X14914333Y-14818588D02*
X14933381Y-14828112D01*
X14933381Y-14828112D02*
X14942905Y-14847159D01*
X14942905Y-14847159D02*
X14942905Y-14866207D01*
X14942905Y-14866207D02*
X14847667Y-14885254D01*
X15019095Y-14942397D02*
X15038143Y-14951921D01*
X15038143Y-14951921D02*
X15076238Y-14951921D01*
X15076238Y-14951921D02*
X15095286Y-14942397D01*
X15095286Y-14942397D02*
X15104809Y-14923350D01*
X15104809Y-14923350D02*
X15104809Y-14913826D01*
X15104809Y-14913826D02*
X15095286Y-14894778D01*
X15095286Y-14894778D02*
X15076238Y-14885254D01*
X15076238Y-14885254D02*
X15047667Y-14885254D01*
X15047667Y-14885254D02*
X15028619Y-14875731D01*
X15028619Y-14875731D02*
X15019095Y-14856683D01*
X15019095Y-14856683D02*
X15019095Y-14847159D01*
X15019095Y-14847159D02*
X15028619Y-14828112D01*
X15028619Y-14828112D02*
X15047667Y-14818588D01*
X15047667Y-14818588D02*
X15076238Y-14818588D01*
X15076238Y-14818588D02*
X15095286Y-14828112D01*
X15171476Y-15028112D02*
X15181000Y-15018588D01*
X15181000Y-15018588D02*
X15200048Y-14990016D01*
X15200048Y-14990016D02*
X15209571Y-14970969D01*
X15209571Y-14970969D02*
X15219095Y-14942397D01*
X15219095Y-14942397D02*
X15228619Y-14894778D01*
X15228619Y-14894778D02*
X15228619Y-14856683D01*
X15228619Y-14856683D02*
X15219095Y-14809064D01*
X15219095Y-14809064D02*
X15209571Y-14780493D01*
X15209571Y-14780493D02*
X15200048Y-14761445D01*
X15200048Y-14761445D02*
X15181000Y-14732873D01*
X15181000Y-14732873D02*
X15171476Y-14723350D01*
D14*
X10489095Y-15092445D02*
X10489095Y-15192445D01*
X10439095Y-15142445D02*
X10539095Y-15142445D01*
D11*
X10891476Y-15215921D02*
X10777190Y-15215921D01*
X10834333Y-15215921D02*
X10834333Y-15015921D01*
X10834333Y-15015921D02*
X10815285Y-15044493D01*
X10815285Y-15044493D02*
X10796238Y-15063540D01*
X10796238Y-15063540D02*
X10777190Y-15073064D01*
X10977190Y-15196873D02*
X10986714Y-15206397D01*
X10986714Y-15206397D02*
X10977190Y-15215921D01*
X10977190Y-15215921D02*
X10967666Y-15206397D01*
X10967666Y-15206397D02*
X10977190Y-15196873D01*
X10977190Y-15196873D02*
X10977190Y-15215921D01*
X11110524Y-15015921D02*
X11129571Y-15015921D01*
X11129571Y-15015921D02*
X11148619Y-15025445D01*
X11148619Y-15025445D02*
X11158143Y-15034969D01*
X11158143Y-15034969D02*
X11167666Y-15054016D01*
X11167666Y-15054016D02*
X11177190Y-15092112D01*
X11177190Y-15092112D02*
X11177190Y-15139731D01*
X11177190Y-15139731D02*
X11167666Y-15177826D01*
X11167666Y-15177826D02*
X11158143Y-15196873D01*
X11158143Y-15196873D02*
X11148619Y-15206397D01*
X11148619Y-15206397D02*
X11129571Y-15215921D01*
X11129571Y-15215921D02*
X11110524Y-15215921D01*
X11110524Y-15215921D02*
X11091476Y-15206397D01*
X11091476Y-15206397D02*
X11081952Y-15196873D01*
X11081952Y-15196873D02*
X11072428Y-15177826D01*
X11072428Y-15177826D02*
X11062905Y-15139731D01*
X11062905Y-15139731D02*
X11062905Y-15092112D01*
X11062905Y-15092112D02*
X11072428Y-15054016D01*
X11072428Y-15054016D02*
X11081952Y-15034969D01*
X11081952Y-15034969D02*
X11091476Y-15025445D01*
X11091476Y-15025445D02*
X11110524Y-15015921D01*
X11301000Y-15015921D02*
X11320047Y-15015921D01*
X11320047Y-15015921D02*
X11339095Y-15025445D01*
X11339095Y-15025445D02*
X11348619Y-15034969D01*
X11348619Y-15034969D02*
X11358143Y-15054016D01*
X11358143Y-15054016D02*
X11367666Y-15092112D01*
X11367666Y-15092112D02*
X11367666Y-15139731D01*
X11367666Y-15139731D02*
X11358143Y-15177826D01*
X11358143Y-15177826D02*
X11348619Y-15196873D01*
X11348619Y-15196873D02*
X11339095Y-15206397D01*
X11339095Y-15206397D02*
X11320047Y-15215921D01*
X11320047Y-15215921D02*
X11301000Y-15215921D01*
X11301000Y-15215921D02*
X11281952Y-15206397D01*
X11281952Y-15206397D02*
X11272428Y-15196873D01*
X11272428Y-15196873D02*
X11262904Y-15177826D01*
X11262904Y-15177826D02*
X11253381Y-15139731D01*
X11253381Y-15139731D02*
X11253381Y-15092112D01*
X11253381Y-15092112D02*
X11262904Y-15054016D01*
X11262904Y-15054016D02*
X11272428Y-15034969D01*
X11272428Y-15034969D02*
X11281952Y-15025445D01*
X11281952Y-15025445D02*
X11301000Y-15015921D01*
X11491476Y-15015921D02*
X11510524Y-15015921D01*
X11510524Y-15015921D02*
X11529571Y-15025445D01*
X11529571Y-15025445D02*
X11539095Y-15034969D01*
X11539095Y-15034969D02*
X11548619Y-15054016D01*
X11548619Y-15054016D02*
X11558143Y-15092112D01*
X11558143Y-15092112D02*
X11558143Y-15139731D01*
X11558143Y-15139731D02*
X11548619Y-15177826D01*
X11548619Y-15177826D02*
X11539095Y-15196873D01*
X11539095Y-15196873D02*
X11529571Y-15206397D01*
X11529571Y-15206397D02*
X11510524Y-15215921D01*
X11510524Y-15215921D02*
X11491476Y-15215921D01*
X11491476Y-15215921D02*
X11472428Y-15206397D01*
X11472428Y-15206397D02*
X11462904Y-15196873D01*
X11462904Y-15196873D02*
X11453381Y-15177826D01*
X11453381Y-15177826D02*
X11443857Y-15139731D01*
X11443857Y-15139731D02*
X11443857Y-15092112D01*
X11443857Y-15092112D02*
X11453381Y-15054016D01*
X11453381Y-15054016D02*
X11462904Y-15034969D01*
X11462904Y-15034969D02*
X11472428Y-15025445D01*
X11472428Y-15025445D02*
X11491476Y-15015921D01*
X11643857Y-15215921D02*
X11643857Y-15082588D01*
X11643857Y-15101635D02*
X11653381Y-15092112D01*
X11653381Y-15092112D02*
X11672428Y-15082588D01*
X11672428Y-15082588D02*
X11701000Y-15082588D01*
X11701000Y-15082588D02*
X11720047Y-15092112D01*
X11720047Y-15092112D02*
X11729571Y-15111159D01*
X11729571Y-15111159D02*
X11729571Y-15215921D01*
X11729571Y-15111159D02*
X11739095Y-15092112D01*
X11739095Y-15092112D02*
X11758143Y-15082588D01*
X11758143Y-15082588D02*
X11786714Y-15082588D01*
X11786714Y-15082588D02*
X11805762Y-15092112D01*
X11805762Y-15092112D02*
X11815285Y-15111159D01*
X11815285Y-15111159D02*
X11815285Y-15215921D01*
X11910524Y-15215921D02*
X11910524Y-15082588D01*
X11910524Y-15101635D02*
X11920047Y-15092112D01*
X11920047Y-15092112D02*
X11939095Y-15082588D01*
X11939095Y-15082588D02*
X11967666Y-15082588D01*
X11967666Y-15082588D02*
X11986714Y-15092112D01*
X11986714Y-15092112D02*
X11996238Y-15111159D01*
X11996238Y-15111159D02*
X11996238Y-15215921D01*
X11996238Y-15111159D02*
X12005762Y-15092112D01*
X12005762Y-15092112D02*
X12024809Y-15082588D01*
X12024809Y-15082588D02*
X12053381Y-15082588D01*
X12053381Y-15082588D02*
X12072428Y-15092112D01*
X12072428Y-15092112D02*
X12081952Y-15111159D01*
X12081952Y-15111159D02*
X12081952Y-15215921D01*
X12440047Y-15006397D02*
X12268619Y-15263540D01*
X12664809Y-15015921D02*
X12683857Y-15015921D01*
X12683857Y-15015921D02*
X12702905Y-15025445D01*
X12702905Y-15025445D02*
X12712428Y-15034969D01*
X12712428Y-15034969D02*
X12721952Y-15054016D01*
X12721952Y-15054016D02*
X12731476Y-15092112D01*
X12731476Y-15092112D02*
X12731476Y-15139731D01*
X12731476Y-15139731D02*
X12721952Y-15177826D01*
X12721952Y-15177826D02*
X12712428Y-15196873D01*
X12712428Y-15196873D02*
X12702905Y-15206397D01*
X12702905Y-15206397D02*
X12683857Y-15215921D01*
X12683857Y-15215921D02*
X12664809Y-15215921D01*
X12664809Y-15215921D02*
X12645762Y-15206397D01*
X12645762Y-15206397D02*
X12636238Y-15196873D01*
X12636238Y-15196873D02*
X12626714Y-15177826D01*
X12626714Y-15177826D02*
X12617190Y-15139731D01*
X12617190Y-15139731D02*
X12617190Y-15092112D01*
X12617190Y-15092112D02*
X12626714Y-15054016D01*
X12626714Y-15054016D02*
X12636238Y-15034969D01*
X12636238Y-15034969D02*
X12645762Y-15025445D01*
X12645762Y-15025445D02*
X12664809Y-15015921D01*
X12817190Y-15196873D02*
X12826714Y-15206397D01*
X12826714Y-15206397D02*
X12817190Y-15215921D01*
X12817190Y-15215921D02*
X12807666Y-15206397D01*
X12807666Y-15206397D02*
X12817190Y-15196873D01*
X12817190Y-15196873D02*
X12817190Y-15215921D01*
X12950524Y-15015921D02*
X12969571Y-15015921D01*
X12969571Y-15015921D02*
X12988619Y-15025445D01*
X12988619Y-15025445D02*
X12998143Y-15034969D01*
X12998143Y-15034969D02*
X13007666Y-15054016D01*
X13007666Y-15054016D02*
X13017190Y-15092112D01*
X13017190Y-15092112D02*
X13017190Y-15139731D01*
X13017190Y-15139731D02*
X13007666Y-15177826D01*
X13007666Y-15177826D02*
X12998143Y-15196873D01*
X12998143Y-15196873D02*
X12988619Y-15206397D01*
X12988619Y-15206397D02*
X12969571Y-15215921D01*
X12969571Y-15215921D02*
X12950524Y-15215921D01*
X12950524Y-15215921D02*
X12931476Y-15206397D01*
X12931476Y-15206397D02*
X12921952Y-15196873D01*
X12921952Y-15196873D02*
X12912428Y-15177826D01*
X12912428Y-15177826D02*
X12902905Y-15139731D01*
X12902905Y-15139731D02*
X12902905Y-15092112D01*
X12902905Y-15092112D02*
X12912428Y-15054016D01*
X12912428Y-15054016D02*
X12921952Y-15034969D01*
X12921952Y-15034969D02*
X12931476Y-15025445D01*
X12931476Y-15025445D02*
X12950524Y-15015921D01*
X13083857Y-15015921D02*
X13207666Y-15015921D01*
X13207666Y-15015921D02*
X13141000Y-15092112D01*
X13141000Y-15092112D02*
X13169571Y-15092112D01*
X13169571Y-15092112D02*
X13188619Y-15101635D01*
X13188619Y-15101635D02*
X13198143Y-15111159D01*
X13198143Y-15111159D02*
X13207666Y-15130207D01*
X13207666Y-15130207D02*
X13207666Y-15177826D01*
X13207666Y-15177826D02*
X13198143Y-15196873D01*
X13198143Y-15196873D02*
X13188619Y-15206397D01*
X13188619Y-15206397D02*
X13169571Y-15215921D01*
X13169571Y-15215921D02*
X13112428Y-15215921D01*
X13112428Y-15215921D02*
X13093381Y-15206397D01*
X13093381Y-15206397D02*
X13083857Y-15196873D01*
X13302905Y-15215921D02*
X13341000Y-15215921D01*
X13341000Y-15215921D02*
X13360047Y-15206397D01*
X13360047Y-15206397D02*
X13369571Y-15196873D01*
X13369571Y-15196873D02*
X13388619Y-15168302D01*
X13388619Y-15168302D02*
X13398143Y-15130207D01*
X13398143Y-15130207D02*
X13398143Y-15054016D01*
X13398143Y-15054016D02*
X13388619Y-15034969D01*
X13388619Y-15034969D02*
X13379095Y-15025445D01*
X13379095Y-15025445D02*
X13360047Y-15015921D01*
X13360047Y-15015921D02*
X13321952Y-15015921D01*
X13321952Y-15015921D02*
X13302905Y-15025445D01*
X13302905Y-15025445D02*
X13293381Y-15034969D01*
X13293381Y-15034969D02*
X13283857Y-15054016D01*
X13283857Y-15054016D02*
X13283857Y-15101635D01*
X13283857Y-15101635D02*
X13293381Y-15120683D01*
X13293381Y-15120683D02*
X13302905Y-15130207D01*
X13302905Y-15130207D02*
X13321952Y-15139731D01*
X13321952Y-15139731D02*
X13360047Y-15139731D01*
X13360047Y-15139731D02*
X13379095Y-15130207D01*
X13379095Y-15130207D02*
X13388619Y-15120683D01*
X13388619Y-15120683D02*
X13398143Y-15101635D01*
X13569571Y-15082588D02*
X13569571Y-15215921D01*
X13521952Y-15006397D02*
X13474333Y-15149254D01*
X13474333Y-15149254D02*
X13598143Y-15149254D01*
X13664809Y-15015921D02*
X13664809Y-15054016D01*
X13741000Y-15015921D02*
X13741000Y-15054016D01*
X14003857Y-15292112D02*
X13994333Y-15282588D01*
X13994333Y-15282588D02*
X13975286Y-15254016D01*
X13975286Y-15254016D02*
X13965762Y-15234969D01*
X13965762Y-15234969D02*
X13956238Y-15206397D01*
X13956238Y-15206397D02*
X13946714Y-15158778D01*
X13946714Y-15158778D02*
X13946714Y-15120683D01*
X13946714Y-15120683D02*
X13956238Y-15073064D01*
X13956238Y-15073064D02*
X13965762Y-15044493D01*
X13965762Y-15044493D02*
X13975286Y-15025445D01*
X13975286Y-15025445D02*
X13994333Y-14996873D01*
X13994333Y-14996873D02*
X14003857Y-14987350D01*
X14184809Y-15215921D02*
X14070524Y-15215921D01*
X14127666Y-15215921D02*
X14127666Y-15015921D01*
X14127666Y-15015921D02*
X14108619Y-15044493D01*
X14108619Y-15044493D02*
X14089571Y-15063540D01*
X14089571Y-15063540D02*
X14070524Y-15073064D01*
X14356238Y-15082588D02*
X14356238Y-15215921D01*
X14308619Y-15006397D02*
X14261000Y-15149254D01*
X14261000Y-15149254D02*
X14384809Y-15149254D01*
X14581000Y-15215921D02*
X14581000Y-15015921D01*
X14666714Y-15215921D02*
X14666714Y-15111159D01*
X14666714Y-15111159D02*
X14657190Y-15092112D01*
X14657190Y-15092112D02*
X14638143Y-15082588D01*
X14638143Y-15082588D02*
X14609571Y-15082588D01*
X14609571Y-15082588D02*
X14590524Y-15092112D01*
X14590524Y-15092112D02*
X14581000Y-15101635D01*
X14790524Y-15215921D02*
X14771476Y-15206397D01*
X14771476Y-15206397D02*
X14761952Y-15196873D01*
X14761952Y-15196873D02*
X14752428Y-15177826D01*
X14752428Y-15177826D02*
X14752428Y-15120683D01*
X14752428Y-15120683D02*
X14761952Y-15101635D01*
X14761952Y-15101635D02*
X14771476Y-15092112D01*
X14771476Y-15092112D02*
X14790524Y-15082588D01*
X14790524Y-15082588D02*
X14819095Y-15082588D01*
X14819095Y-15082588D02*
X14838143Y-15092112D01*
X14838143Y-15092112D02*
X14847667Y-15101635D01*
X14847667Y-15101635D02*
X14857190Y-15120683D01*
X14857190Y-15120683D02*
X14857190Y-15177826D01*
X14857190Y-15177826D02*
X14847667Y-15196873D01*
X14847667Y-15196873D02*
X14838143Y-15206397D01*
X14838143Y-15206397D02*
X14819095Y-15215921D01*
X14819095Y-15215921D02*
X14790524Y-15215921D01*
X14971476Y-15215921D02*
X14952428Y-15206397D01*
X14952428Y-15206397D02*
X14942905Y-15187350D01*
X14942905Y-15187350D02*
X14942905Y-15015921D01*
X15123857Y-15206397D02*
X15104809Y-15215921D01*
X15104809Y-15215921D02*
X15066714Y-15215921D01*
X15066714Y-15215921D02*
X15047667Y-15206397D01*
X15047667Y-15206397D02*
X15038143Y-15187350D01*
X15038143Y-15187350D02*
X15038143Y-15111159D01*
X15038143Y-15111159D02*
X15047667Y-15092112D01*
X15047667Y-15092112D02*
X15066714Y-15082588D01*
X15066714Y-15082588D02*
X15104809Y-15082588D01*
X15104809Y-15082588D02*
X15123857Y-15092112D01*
X15123857Y-15092112D02*
X15133381Y-15111159D01*
X15133381Y-15111159D02*
X15133381Y-15130207D01*
X15133381Y-15130207D02*
X15038143Y-15149254D01*
X15209571Y-15206397D02*
X15228619Y-15215921D01*
X15228619Y-15215921D02*
X15266714Y-15215921D01*
X15266714Y-15215921D02*
X15285762Y-15206397D01*
X15285762Y-15206397D02*
X15295286Y-15187350D01*
X15295286Y-15187350D02*
X15295286Y-15177826D01*
X15295286Y-15177826D02*
X15285762Y-15158778D01*
X15285762Y-15158778D02*
X15266714Y-15149254D01*
X15266714Y-15149254D02*
X15238143Y-15149254D01*
X15238143Y-15149254D02*
X15219095Y-15139731D01*
X15219095Y-15139731D02*
X15209571Y-15120683D01*
X15209571Y-15120683D02*
X15209571Y-15111159D01*
X15209571Y-15111159D02*
X15219095Y-15092112D01*
X15219095Y-15092112D02*
X15238143Y-15082588D01*
X15238143Y-15082588D02*
X15266714Y-15082588D01*
X15266714Y-15082588D02*
X15285762Y-15092112D01*
X15361952Y-15292112D02*
X15371476Y-15282588D01*
X15371476Y-15282588D02*
X15390524Y-15254016D01*
X15390524Y-15254016D02*
X15400048Y-15234969D01*
X15400048Y-15234969D02*
X15409571Y-15206397D01*
X15409571Y-15206397D02*
X15419095Y-15158778D01*
X15419095Y-15158778D02*
X15419095Y-15120683D01*
X15419095Y-15120683D02*
X15409571Y-15073064D01*
X15409571Y-15073064D02*
X15400048Y-15044493D01*
X15400048Y-15044493D02*
X15390524Y-15025445D01*
X15390524Y-15025445D02*
X15371476Y-14996873D01*
X15371476Y-14996873D02*
X15361952Y-14987350D01*
D15*
X10524158Y-15442508D02*
X10524158Y-15370382D01*
X10452032Y-15370382D01*
X10452032Y-15442508D01*
X10524158Y-15442508D01*
D11*
X10891476Y-15479921D02*
X10777190Y-15479921D01*
X10834333Y-15479921D02*
X10834333Y-15279921D01*
X10834333Y-15279921D02*
X10815285Y-15308493D01*
X10815285Y-15308493D02*
X10796238Y-15327540D01*
X10796238Y-15327540D02*
X10777190Y-15337064D01*
X10977190Y-15460873D02*
X10986714Y-15470397D01*
X10986714Y-15470397D02*
X10977190Y-15479921D01*
X10977190Y-15479921D02*
X10967666Y-15470397D01*
X10967666Y-15470397D02*
X10977190Y-15460873D01*
X10977190Y-15460873D02*
X10977190Y-15479921D01*
X11110524Y-15279921D02*
X11129571Y-15279921D01*
X11129571Y-15279921D02*
X11148619Y-15289445D01*
X11148619Y-15289445D02*
X11158143Y-15298969D01*
X11158143Y-15298969D02*
X11167666Y-15318016D01*
X11167666Y-15318016D02*
X11177190Y-15356112D01*
X11177190Y-15356112D02*
X11177190Y-15403731D01*
X11177190Y-15403731D02*
X11167666Y-15441826D01*
X11167666Y-15441826D02*
X11158143Y-15460873D01*
X11158143Y-15460873D02*
X11148619Y-15470397D01*
X11148619Y-15470397D02*
X11129571Y-15479921D01*
X11129571Y-15479921D02*
X11110524Y-15479921D01*
X11110524Y-15479921D02*
X11091476Y-15470397D01*
X11091476Y-15470397D02*
X11081952Y-15460873D01*
X11081952Y-15460873D02*
X11072428Y-15441826D01*
X11072428Y-15441826D02*
X11062905Y-15403731D01*
X11062905Y-15403731D02*
X11062905Y-15356112D01*
X11062905Y-15356112D02*
X11072428Y-15318016D01*
X11072428Y-15318016D02*
X11081952Y-15298969D01*
X11081952Y-15298969D02*
X11091476Y-15289445D01*
X11091476Y-15289445D02*
X11110524Y-15279921D01*
X11253381Y-15298969D02*
X11262904Y-15289445D01*
X11262904Y-15289445D02*
X11281952Y-15279921D01*
X11281952Y-15279921D02*
X11329571Y-15279921D01*
X11329571Y-15279921D02*
X11348619Y-15289445D01*
X11348619Y-15289445D02*
X11358143Y-15298969D01*
X11358143Y-15298969D02*
X11367666Y-15318016D01*
X11367666Y-15318016D02*
X11367666Y-15337064D01*
X11367666Y-15337064D02*
X11358143Y-15365635D01*
X11358143Y-15365635D02*
X11243857Y-15479921D01*
X11243857Y-15479921D02*
X11367666Y-15479921D01*
X11491476Y-15279921D02*
X11510524Y-15279921D01*
X11510524Y-15279921D02*
X11529571Y-15289445D01*
X11529571Y-15289445D02*
X11539095Y-15298969D01*
X11539095Y-15298969D02*
X11548619Y-15318016D01*
X11548619Y-15318016D02*
X11558143Y-15356112D01*
X11558143Y-15356112D02*
X11558143Y-15403731D01*
X11558143Y-15403731D02*
X11548619Y-15441826D01*
X11548619Y-15441826D02*
X11539095Y-15460873D01*
X11539095Y-15460873D02*
X11529571Y-15470397D01*
X11529571Y-15470397D02*
X11510524Y-15479921D01*
X11510524Y-15479921D02*
X11491476Y-15479921D01*
X11491476Y-15479921D02*
X11472428Y-15470397D01*
X11472428Y-15470397D02*
X11462904Y-15460873D01*
X11462904Y-15460873D02*
X11453381Y-15441826D01*
X11453381Y-15441826D02*
X11443857Y-15403731D01*
X11443857Y-15403731D02*
X11443857Y-15356112D01*
X11443857Y-15356112D02*
X11453381Y-15318016D01*
X11453381Y-15318016D02*
X11462904Y-15298969D01*
X11462904Y-15298969D02*
X11472428Y-15289445D01*
X11472428Y-15289445D02*
X11491476Y-15279921D01*
X11643857Y-15479921D02*
X11643857Y-15346588D01*
X11643857Y-15365635D02*
X11653381Y-15356112D01*
X11653381Y-15356112D02*
X11672428Y-15346588D01*
X11672428Y-15346588D02*
X11701000Y-15346588D01*
X11701000Y-15346588D02*
X11720047Y-15356112D01*
X11720047Y-15356112D02*
X11729571Y-15375159D01*
X11729571Y-15375159D02*
X11729571Y-15479921D01*
X11729571Y-15375159D02*
X11739095Y-15356112D01*
X11739095Y-15356112D02*
X11758143Y-15346588D01*
X11758143Y-15346588D02*
X11786714Y-15346588D01*
X11786714Y-15346588D02*
X11805762Y-15356112D01*
X11805762Y-15356112D02*
X11815285Y-15375159D01*
X11815285Y-15375159D02*
X11815285Y-15479921D01*
X11910524Y-15479921D02*
X11910524Y-15346588D01*
X11910524Y-15365635D02*
X11920047Y-15356112D01*
X11920047Y-15356112D02*
X11939095Y-15346588D01*
X11939095Y-15346588D02*
X11967666Y-15346588D01*
X11967666Y-15346588D02*
X11986714Y-15356112D01*
X11986714Y-15356112D02*
X11996238Y-15375159D01*
X11996238Y-15375159D02*
X11996238Y-15479921D01*
X11996238Y-15375159D02*
X12005762Y-15356112D01*
X12005762Y-15356112D02*
X12024809Y-15346588D01*
X12024809Y-15346588D02*
X12053381Y-15346588D01*
X12053381Y-15346588D02*
X12072428Y-15356112D01*
X12072428Y-15356112D02*
X12081952Y-15375159D01*
X12081952Y-15375159D02*
X12081952Y-15479921D01*
X12440047Y-15270397D02*
X12268619Y-15527540D01*
X12664809Y-15279921D02*
X12683857Y-15279921D01*
X12683857Y-15279921D02*
X12702905Y-15289445D01*
X12702905Y-15289445D02*
X12712428Y-15298969D01*
X12712428Y-15298969D02*
X12721952Y-15318016D01*
X12721952Y-15318016D02*
X12731476Y-15356112D01*
X12731476Y-15356112D02*
X12731476Y-15403731D01*
X12731476Y-15403731D02*
X12721952Y-15441826D01*
X12721952Y-15441826D02*
X12712428Y-15460873D01*
X12712428Y-15460873D02*
X12702905Y-15470397D01*
X12702905Y-15470397D02*
X12683857Y-15479921D01*
X12683857Y-15479921D02*
X12664809Y-15479921D01*
X12664809Y-15479921D02*
X12645762Y-15470397D01*
X12645762Y-15470397D02*
X12636238Y-15460873D01*
X12636238Y-15460873D02*
X12626714Y-15441826D01*
X12626714Y-15441826D02*
X12617190Y-15403731D01*
X12617190Y-15403731D02*
X12617190Y-15356112D01*
X12617190Y-15356112D02*
X12626714Y-15318016D01*
X12626714Y-15318016D02*
X12636238Y-15298969D01*
X12636238Y-15298969D02*
X12645762Y-15289445D01*
X12645762Y-15289445D02*
X12664809Y-15279921D01*
X12817190Y-15460873D02*
X12826714Y-15470397D01*
X12826714Y-15470397D02*
X12817190Y-15479921D01*
X12817190Y-15479921D02*
X12807666Y-15470397D01*
X12807666Y-15470397D02*
X12817190Y-15460873D01*
X12817190Y-15460873D02*
X12817190Y-15479921D01*
X12950524Y-15279921D02*
X12969571Y-15279921D01*
X12969571Y-15279921D02*
X12988619Y-15289445D01*
X12988619Y-15289445D02*
X12998143Y-15298969D01*
X12998143Y-15298969D02*
X13007666Y-15318016D01*
X13007666Y-15318016D02*
X13017190Y-15356112D01*
X13017190Y-15356112D02*
X13017190Y-15403731D01*
X13017190Y-15403731D02*
X13007666Y-15441826D01*
X13007666Y-15441826D02*
X12998143Y-15460873D01*
X12998143Y-15460873D02*
X12988619Y-15470397D01*
X12988619Y-15470397D02*
X12969571Y-15479921D01*
X12969571Y-15479921D02*
X12950524Y-15479921D01*
X12950524Y-15479921D02*
X12931476Y-15470397D01*
X12931476Y-15470397D02*
X12921952Y-15460873D01*
X12921952Y-15460873D02*
X12912428Y-15441826D01*
X12912428Y-15441826D02*
X12902905Y-15403731D01*
X12902905Y-15403731D02*
X12902905Y-15356112D01*
X12902905Y-15356112D02*
X12912428Y-15318016D01*
X12912428Y-15318016D02*
X12921952Y-15298969D01*
X12921952Y-15298969D02*
X12931476Y-15289445D01*
X12931476Y-15289445D02*
X12950524Y-15279921D01*
X13188619Y-15346588D02*
X13188619Y-15479921D01*
X13141000Y-15270397D02*
X13093381Y-15413254D01*
X13093381Y-15413254D02*
X13217190Y-15413254D01*
X13331476Y-15279921D02*
X13350524Y-15279921D01*
X13350524Y-15279921D02*
X13369571Y-15289445D01*
X13369571Y-15289445D02*
X13379095Y-15298969D01*
X13379095Y-15298969D02*
X13388619Y-15318016D01*
X13388619Y-15318016D02*
X13398143Y-15356112D01*
X13398143Y-15356112D02*
X13398143Y-15403731D01*
X13398143Y-15403731D02*
X13388619Y-15441826D01*
X13388619Y-15441826D02*
X13379095Y-15460873D01*
X13379095Y-15460873D02*
X13369571Y-15470397D01*
X13369571Y-15470397D02*
X13350524Y-15479921D01*
X13350524Y-15479921D02*
X13331476Y-15479921D01*
X13331476Y-15479921D02*
X13312428Y-15470397D01*
X13312428Y-15470397D02*
X13302905Y-15460873D01*
X13302905Y-15460873D02*
X13293381Y-15441826D01*
X13293381Y-15441826D02*
X13283857Y-15403731D01*
X13283857Y-15403731D02*
X13283857Y-15356112D01*
X13283857Y-15356112D02*
X13293381Y-15318016D01*
X13293381Y-15318016D02*
X13302905Y-15298969D01*
X13302905Y-15298969D02*
X13312428Y-15289445D01*
X13312428Y-15289445D02*
X13331476Y-15279921D01*
X13474333Y-15298969D02*
X13483857Y-15289445D01*
X13483857Y-15289445D02*
X13502905Y-15279921D01*
X13502905Y-15279921D02*
X13550524Y-15279921D01*
X13550524Y-15279921D02*
X13569571Y-15289445D01*
X13569571Y-15289445D02*
X13579095Y-15298969D01*
X13579095Y-15298969D02*
X13588619Y-15318016D01*
X13588619Y-15318016D02*
X13588619Y-15337064D01*
X13588619Y-15337064D02*
X13579095Y-15365635D01*
X13579095Y-15365635D02*
X13464809Y-15479921D01*
X13464809Y-15479921D02*
X13588619Y-15479921D01*
X13664809Y-15279921D02*
X13664809Y-15318016D01*
X13741000Y-15279921D02*
X13741000Y-15318016D01*
X14003857Y-15556112D02*
X13994333Y-15546588D01*
X13994333Y-15546588D02*
X13975286Y-15518016D01*
X13975286Y-15518016D02*
X13965762Y-15498969D01*
X13965762Y-15498969D02*
X13956238Y-15470397D01*
X13956238Y-15470397D02*
X13946714Y-15422778D01*
X13946714Y-15422778D02*
X13946714Y-15384683D01*
X13946714Y-15384683D02*
X13956238Y-15337064D01*
X13956238Y-15337064D02*
X13965762Y-15308493D01*
X13965762Y-15308493D02*
X13975286Y-15289445D01*
X13975286Y-15289445D02*
X13994333Y-15260873D01*
X13994333Y-15260873D02*
X14003857Y-15251350D01*
X14070524Y-15298969D02*
X14080047Y-15289445D01*
X14080047Y-15289445D02*
X14099095Y-15279921D01*
X14099095Y-15279921D02*
X14146714Y-15279921D01*
X14146714Y-15279921D02*
X14165762Y-15289445D01*
X14165762Y-15289445D02*
X14175286Y-15298969D01*
X14175286Y-15298969D02*
X14184809Y-15318016D01*
X14184809Y-15318016D02*
X14184809Y-15337064D01*
X14184809Y-15337064D02*
X14175286Y-15365635D01*
X14175286Y-15365635D02*
X14061000Y-15479921D01*
X14061000Y-15479921D02*
X14184809Y-15479921D01*
X14390524Y-15479921D02*
X14390524Y-15279921D01*
X14476238Y-15479921D02*
X14476238Y-15375159D01*
X14476238Y-15375159D02*
X14466714Y-15356112D01*
X14466714Y-15356112D02*
X14447667Y-15346588D01*
X14447667Y-15346588D02*
X14419095Y-15346588D01*
X14419095Y-15346588D02*
X14400047Y-15356112D01*
X14400047Y-15356112D02*
X14390524Y-15365635D01*
X14600047Y-15479921D02*
X14581000Y-15470397D01*
X14581000Y-15470397D02*
X14571476Y-15460873D01*
X14571476Y-15460873D02*
X14561952Y-15441826D01*
X14561952Y-15441826D02*
X14561952Y-15384683D01*
X14561952Y-15384683D02*
X14571476Y-15365635D01*
X14571476Y-15365635D02*
X14581000Y-15356112D01*
X14581000Y-15356112D02*
X14600047Y-15346588D01*
X14600047Y-15346588D02*
X14628619Y-15346588D01*
X14628619Y-15346588D02*
X14647667Y-15356112D01*
X14647667Y-15356112D02*
X14657190Y-15365635D01*
X14657190Y-15365635D02*
X14666714Y-15384683D01*
X14666714Y-15384683D02*
X14666714Y-15441826D01*
X14666714Y-15441826D02*
X14657190Y-15460873D01*
X14657190Y-15460873D02*
X14647667Y-15470397D01*
X14647667Y-15470397D02*
X14628619Y-15479921D01*
X14628619Y-15479921D02*
X14600047Y-15479921D01*
X14781000Y-15479921D02*
X14761952Y-15470397D01*
X14761952Y-15470397D02*
X14752428Y-15451350D01*
X14752428Y-15451350D02*
X14752428Y-15279921D01*
X14933381Y-15470397D02*
X14914333Y-15479921D01*
X14914333Y-15479921D02*
X14876238Y-15479921D01*
X14876238Y-15479921D02*
X14857190Y-15470397D01*
X14857190Y-15470397D02*
X14847667Y-15451350D01*
X14847667Y-15451350D02*
X14847667Y-15375159D01*
X14847667Y-15375159D02*
X14857190Y-15356112D01*
X14857190Y-15356112D02*
X14876238Y-15346588D01*
X14876238Y-15346588D02*
X14914333Y-15346588D01*
X14914333Y-15346588D02*
X14933381Y-15356112D01*
X14933381Y-15356112D02*
X14942905Y-15375159D01*
X14942905Y-15375159D02*
X14942905Y-15394207D01*
X14942905Y-15394207D02*
X14847667Y-15413254D01*
X15019095Y-15470397D02*
X15038143Y-15479921D01*
X15038143Y-15479921D02*
X15076238Y-15479921D01*
X15076238Y-15479921D02*
X15095286Y-15470397D01*
X15095286Y-15470397D02*
X15104809Y-15451350D01*
X15104809Y-15451350D02*
X15104809Y-15441826D01*
X15104809Y-15441826D02*
X15095286Y-15422778D01*
X15095286Y-15422778D02*
X15076238Y-15413254D01*
X15076238Y-15413254D02*
X15047667Y-15413254D01*
X15047667Y-15413254D02*
X15028619Y-15403731D01*
X15028619Y-15403731D02*
X15019095Y-15384683D01*
X15019095Y-15384683D02*
X15019095Y-15375159D01*
X15019095Y-15375159D02*
X15028619Y-15356112D01*
X15028619Y-15356112D02*
X15047667Y-15346588D01*
X15047667Y-15346588D02*
X15076238Y-15346588D01*
X15076238Y-15346588D02*
X15095286Y-15356112D01*
X15171476Y-15556112D02*
X15181000Y-15546588D01*
X15181000Y-15546588D02*
X15200048Y-15518016D01*
X15200048Y-15518016D02*
X15209571Y-15498969D01*
X15209571Y-15498969D02*
X15219095Y-15470397D01*
X15219095Y-15470397D02*
X15228619Y-15422778D01*
X15228619Y-15422778D02*
X15228619Y-15384683D01*
X15228619Y-15384683D02*
X15219095Y-15337064D01*
X15219095Y-15337064D02*
X15209571Y-15308493D01*
X15209571Y-15308493D02*
X15200048Y-15289445D01*
X15200048Y-15289445D02*
X15181000Y-15260873D01*
X15181000Y-15260873D02*
X15171476Y-15251350D01*
D16*
X10464095Y-15745445D02*
X10539095Y-15670445D01*
X10464095Y-15595445D01*
X10389095Y-15670445D01*
X10464095Y-15745445D01*
D11*
X10891476Y-15743921D02*
X10777190Y-15743921D01*
X10834333Y-15743921D02*
X10834333Y-15543921D01*
X10834333Y-15543921D02*
X10815285Y-15572493D01*
X10815285Y-15572493D02*
X10796238Y-15591540D01*
X10796238Y-15591540D02*
X10777190Y-15601064D01*
X10977190Y-15724873D02*
X10986714Y-15734397D01*
X10986714Y-15734397D02*
X10977190Y-15743921D01*
X10977190Y-15743921D02*
X10967666Y-15734397D01*
X10967666Y-15734397D02*
X10977190Y-15724873D01*
X10977190Y-15724873D02*
X10977190Y-15743921D01*
X11167666Y-15543921D02*
X11072428Y-15543921D01*
X11072428Y-15543921D02*
X11062905Y-15639159D01*
X11062905Y-15639159D02*
X11072428Y-15629635D01*
X11072428Y-15629635D02*
X11091476Y-15620112D01*
X11091476Y-15620112D02*
X11139095Y-15620112D01*
X11139095Y-15620112D02*
X11158143Y-15629635D01*
X11158143Y-15629635D02*
X11167666Y-15639159D01*
X11167666Y-15639159D02*
X11177190Y-15658207D01*
X11177190Y-15658207D02*
X11177190Y-15705826D01*
X11177190Y-15705826D02*
X11167666Y-15724873D01*
X11167666Y-15724873D02*
X11158143Y-15734397D01*
X11158143Y-15734397D02*
X11139095Y-15743921D01*
X11139095Y-15743921D02*
X11091476Y-15743921D01*
X11091476Y-15743921D02*
X11072428Y-15734397D01*
X11072428Y-15734397D02*
X11062905Y-15724873D01*
X11301000Y-15543921D02*
X11320047Y-15543921D01*
X11320047Y-15543921D02*
X11339095Y-15553445D01*
X11339095Y-15553445D02*
X11348619Y-15562969D01*
X11348619Y-15562969D02*
X11358143Y-15582016D01*
X11358143Y-15582016D02*
X11367666Y-15620112D01*
X11367666Y-15620112D02*
X11367666Y-15667731D01*
X11367666Y-15667731D02*
X11358143Y-15705826D01*
X11358143Y-15705826D02*
X11348619Y-15724873D01*
X11348619Y-15724873D02*
X11339095Y-15734397D01*
X11339095Y-15734397D02*
X11320047Y-15743921D01*
X11320047Y-15743921D02*
X11301000Y-15743921D01*
X11301000Y-15743921D02*
X11281952Y-15734397D01*
X11281952Y-15734397D02*
X11272428Y-15724873D01*
X11272428Y-15724873D02*
X11262904Y-15705826D01*
X11262904Y-15705826D02*
X11253381Y-15667731D01*
X11253381Y-15667731D02*
X11253381Y-15620112D01*
X11253381Y-15620112D02*
X11262904Y-15582016D01*
X11262904Y-15582016D02*
X11272428Y-15562969D01*
X11272428Y-15562969D02*
X11281952Y-15553445D01*
X11281952Y-15553445D02*
X11301000Y-15543921D01*
X11491476Y-15543921D02*
X11510524Y-15543921D01*
X11510524Y-15543921D02*
X11529571Y-15553445D01*
X11529571Y-15553445D02*
X11539095Y-15562969D01*
X11539095Y-15562969D02*
X11548619Y-15582016D01*
X11548619Y-15582016D02*
X11558143Y-15620112D01*
X11558143Y-15620112D02*
X11558143Y-15667731D01*
X11558143Y-15667731D02*
X11548619Y-15705826D01*
X11548619Y-15705826D02*
X11539095Y-15724873D01*
X11539095Y-15724873D02*
X11529571Y-15734397D01*
X11529571Y-15734397D02*
X11510524Y-15743921D01*
X11510524Y-15743921D02*
X11491476Y-15743921D01*
X11491476Y-15743921D02*
X11472428Y-15734397D01*
X11472428Y-15734397D02*
X11462904Y-15724873D01*
X11462904Y-15724873D02*
X11453381Y-15705826D01*
X11453381Y-15705826D02*
X11443857Y-15667731D01*
X11443857Y-15667731D02*
X11443857Y-15620112D01*
X11443857Y-15620112D02*
X11453381Y-15582016D01*
X11453381Y-15582016D02*
X11462904Y-15562969D01*
X11462904Y-15562969D02*
X11472428Y-15553445D01*
X11472428Y-15553445D02*
X11491476Y-15543921D01*
X11643857Y-15743921D02*
X11643857Y-15610588D01*
X11643857Y-15629635D02*
X11653381Y-15620112D01*
X11653381Y-15620112D02*
X11672428Y-15610588D01*
X11672428Y-15610588D02*
X11701000Y-15610588D01*
X11701000Y-15610588D02*
X11720047Y-15620112D01*
X11720047Y-15620112D02*
X11729571Y-15639159D01*
X11729571Y-15639159D02*
X11729571Y-15743921D01*
X11729571Y-15639159D02*
X11739095Y-15620112D01*
X11739095Y-15620112D02*
X11758143Y-15610588D01*
X11758143Y-15610588D02*
X11786714Y-15610588D01*
X11786714Y-15610588D02*
X11805762Y-15620112D01*
X11805762Y-15620112D02*
X11815285Y-15639159D01*
X11815285Y-15639159D02*
X11815285Y-15743921D01*
X11910524Y-15743921D02*
X11910524Y-15610588D01*
X11910524Y-15629635D02*
X11920047Y-15620112D01*
X11920047Y-15620112D02*
X11939095Y-15610588D01*
X11939095Y-15610588D02*
X11967666Y-15610588D01*
X11967666Y-15610588D02*
X11986714Y-15620112D01*
X11986714Y-15620112D02*
X11996238Y-15639159D01*
X11996238Y-15639159D02*
X11996238Y-15743921D01*
X11996238Y-15639159D02*
X12005762Y-15620112D01*
X12005762Y-15620112D02*
X12024809Y-15610588D01*
X12024809Y-15610588D02*
X12053381Y-15610588D01*
X12053381Y-15610588D02*
X12072428Y-15620112D01*
X12072428Y-15620112D02*
X12081952Y-15639159D01*
X12081952Y-15639159D02*
X12081952Y-15743921D01*
X12440047Y-15534397D02*
X12268619Y-15791540D01*
X12664809Y-15543921D02*
X12683857Y-15543921D01*
X12683857Y-15543921D02*
X12702905Y-15553445D01*
X12702905Y-15553445D02*
X12712428Y-15562969D01*
X12712428Y-15562969D02*
X12721952Y-15582016D01*
X12721952Y-15582016D02*
X12731476Y-15620112D01*
X12731476Y-15620112D02*
X12731476Y-15667731D01*
X12731476Y-15667731D02*
X12721952Y-15705826D01*
X12721952Y-15705826D02*
X12712428Y-15724873D01*
X12712428Y-15724873D02*
X12702905Y-15734397D01*
X12702905Y-15734397D02*
X12683857Y-15743921D01*
X12683857Y-15743921D02*
X12664809Y-15743921D01*
X12664809Y-15743921D02*
X12645762Y-15734397D01*
X12645762Y-15734397D02*
X12636238Y-15724873D01*
X12636238Y-15724873D02*
X12626714Y-15705826D01*
X12626714Y-15705826D02*
X12617190Y-15667731D01*
X12617190Y-15667731D02*
X12617190Y-15620112D01*
X12617190Y-15620112D02*
X12626714Y-15582016D01*
X12626714Y-15582016D02*
X12636238Y-15562969D01*
X12636238Y-15562969D02*
X12645762Y-15553445D01*
X12645762Y-15553445D02*
X12664809Y-15543921D01*
X12817190Y-15724873D02*
X12826714Y-15734397D01*
X12826714Y-15734397D02*
X12817190Y-15743921D01*
X12817190Y-15743921D02*
X12807666Y-15734397D01*
X12807666Y-15734397D02*
X12817190Y-15724873D01*
X12817190Y-15724873D02*
X12817190Y-15743921D01*
X12950524Y-15543921D02*
X12969571Y-15543921D01*
X12969571Y-15543921D02*
X12988619Y-15553445D01*
X12988619Y-15553445D02*
X12998143Y-15562969D01*
X12998143Y-15562969D02*
X13007666Y-15582016D01*
X13007666Y-15582016D02*
X13017190Y-15620112D01*
X13017190Y-15620112D02*
X13017190Y-15667731D01*
X13017190Y-15667731D02*
X13007666Y-15705826D01*
X13007666Y-15705826D02*
X12998143Y-15724873D01*
X12998143Y-15724873D02*
X12988619Y-15734397D01*
X12988619Y-15734397D02*
X12969571Y-15743921D01*
X12969571Y-15743921D02*
X12950524Y-15743921D01*
X12950524Y-15743921D02*
X12931476Y-15734397D01*
X12931476Y-15734397D02*
X12921952Y-15724873D01*
X12921952Y-15724873D02*
X12912428Y-15705826D01*
X12912428Y-15705826D02*
X12902905Y-15667731D01*
X12902905Y-15667731D02*
X12902905Y-15620112D01*
X12902905Y-15620112D02*
X12912428Y-15582016D01*
X12912428Y-15582016D02*
X12921952Y-15562969D01*
X12921952Y-15562969D02*
X12931476Y-15553445D01*
X12931476Y-15553445D02*
X12950524Y-15543921D01*
X13198143Y-15543921D02*
X13102905Y-15543921D01*
X13102905Y-15543921D02*
X13093381Y-15639159D01*
X13093381Y-15639159D02*
X13102905Y-15629635D01*
X13102905Y-15629635D02*
X13121952Y-15620112D01*
X13121952Y-15620112D02*
X13169571Y-15620112D01*
X13169571Y-15620112D02*
X13188619Y-15629635D01*
X13188619Y-15629635D02*
X13198143Y-15639159D01*
X13198143Y-15639159D02*
X13207666Y-15658207D01*
X13207666Y-15658207D02*
X13207666Y-15705826D01*
X13207666Y-15705826D02*
X13198143Y-15724873D01*
X13198143Y-15724873D02*
X13188619Y-15734397D01*
X13188619Y-15734397D02*
X13169571Y-15743921D01*
X13169571Y-15743921D02*
X13121952Y-15743921D01*
X13121952Y-15743921D02*
X13102905Y-15734397D01*
X13102905Y-15734397D02*
X13093381Y-15724873D01*
X13302905Y-15743921D02*
X13341000Y-15743921D01*
X13341000Y-15743921D02*
X13360047Y-15734397D01*
X13360047Y-15734397D02*
X13369571Y-15724873D01*
X13369571Y-15724873D02*
X13388619Y-15696302D01*
X13388619Y-15696302D02*
X13398143Y-15658207D01*
X13398143Y-15658207D02*
X13398143Y-15582016D01*
X13398143Y-15582016D02*
X13388619Y-15562969D01*
X13388619Y-15562969D02*
X13379095Y-15553445D01*
X13379095Y-15553445D02*
X13360047Y-15543921D01*
X13360047Y-15543921D02*
X13321952Y-15543921D01*
X13321952Y-15543921D02*
X13302905Y-15553445D01*
X13302905Y-15553445D02*
X13293381Y-15562969D01*
X13293381Y-15562969D02*
X13283857Y-15582016D01*
X13283857Y-15582016D02*
X13283857Y-15629635D01*
X13283857Y-15629635D02*
X13293381Y-15648683D01*
X13293381Y-15648683D02*
X13302905Y-15658207D01*
X13302905Y-15658207D02*
X13321952Y-15667731D01*
X13321952Y-15667731D02*
X13360047Y-15667731D01*
X13360047Y-15667731D02*
X13379095Y-15658207D01*
X13379095Y-15658207D02*
X13388619Y-15648683D01*
X13388619Y-15648683D02*
X13398143Y-15629635D01*
X13588619Y-15743921D02*
X13474333Y-15743921D01*
X13531476Y-15743921D02*
X13531476Y-15543921D01*
X13531476Y-15543921D02*
X13512428Y-15572493D01*
X13512428Y-15572493D02*
X13493381Y-15591540D01*
X13493381Y-15591540D02*
X13474333Y-15601064D01*
X13664809Y-15543921D02*
X13664809Y-15582016D01*
X13741000Y-15543921D02*
X13741000Y-15582016D01*
X14003857Y-15820112D02*
X13994333Y-15810588D01*
X13994333Y-15810588D02*
X13975286Y-15782016D01*
X13975286Y-15782016D02*
X13965762Y-15762969D01*
X13965762Y-15762969D02*
X13956238Y-15734397D01*
X13956238Y-15734397D02*
X13946714Y-15686778D01*
X13946714Y-15686778D02*
X13946714Y-15648683D01*
X13946714Y-15648683D02*
X13956238Y-15601064D01*
X13956238Y-15601064D02*
X13965762Y-15572493D01*
X13965762Y-15572493D02*
X13975286Y-15553445D01*
X13975286Y-15553445D02*
X13994333Y-15524873D01*
X13994333Y-15524873D02*
X14003857Y-15515350D01*
X14070524Y-15562969D02*
X14080047Y-15553445D01*
X14080047Y-15553445D02*
X14099095Y-15543921D01*
X14099095Y-15543921D02*
X14146714Y-15543921D01*
X14146714Y-15543921D02*
X14165762Y-15553445D01*
X14165762Y-15553445D02*
X14175286Y-15562969D01*
X14175286Y-15562969D02*
X14184809Y-15582016D01*
X14184809Y-15582016D02*
X14184809Y-15601064D01*
X14184809Y-15601064D02*
X14175286Y-15629635D01*
X14175286Y-15629635D02*
X14061000Y-15743921D01*
X14061000Y-15743921D02*
X14184809Y-15743921D01*
X14390524Y-15743921D02*
X14390524Y-15543921D01*
X14476238Y-15743921D02*
X14476238Y-15639159D01*
X14476238Y-15639159D02*
X14466714Y-15620112D01*
X14466714Y-15620112D02*
X14447667Y-15610588D01*
X14447667Y-15610588D02*
X14419095Y-15610588D01*
X14419095Y-15610588D02*
X14400047Y-15620112D01*
X14400047Y-15620112D02*
X14390524Y-15629635D01*
X14600047Y-15743921D02*
X14581000Y-15734397D01*
X14581000Y-15734397D02*
X14571476Y-15724873D01*
X14571476Y-15724873D02*
X14561952Y-15705826D01*
X14561952Y-15705826D02*
X14561952Y-15648683D01*
X14561952Y-15648683D02*
X14571476Y-15629635D01*
X14571476Y-15629635D02*
X14581000Y-15620112D01*
X14581000Y-15620112D02*
X14600047Y-15610588D01*
X14600047Y-15610588D02*
X14628619Y-15610588D01*
X14628619Y-15610588D02*
X14647667Y-15620112D01*
X14647667Y-15620112D02*
X14657190Y-15629635D01*
X14657190Y-15629635D02*
X14666714Y-15648683D01*
X14666714Y-15648683D02*
X14666714Y-15705826D01*
X14666714Y-15705826D02*
X14657190Y-15724873D01*
X14657190Y-15724873D02*
X14647667Y-15734397D01*
X14647667Y-15734397D02*
X14628619Y-15743921D01*
X14628619Y-15743921D02*
X14600047Y-15743921D01*
X14781000Y-15743921D02*
X14761952Y-15734397D01*
X14761952Y-15734397D02*
X14752428Y-15715350D01*
X14752428Y-15715350D02*
X14752428Y-15543921D01*
X14933381Y-15734397D02*
X14914333Y-15743921D01*
X14914333Y-15743921D02*
X14876238Y-15743921D01*
X14876238Y-15743921D02*
X14857190Y-15734397D01*
X14857190Y-15734397D02*
X14847667Y-15715350D01*
X14847667Y-15715350D02*
X14847667Y-15639159D01*
X14847667Y-15639159D02*
X14857190Y-15620112D01*
X14857190Y-15620112D02*
X14876238Y-15610588D01*
X14876238Y-15610588D02*
X14914333Y-15610588D01*
X14914333Y-15610588D02*
X14933381Y-15620112D01*
X14933381Y-15620112D02*
X14942905Y-15639159D01*
X14942905Y-15639159D02*
X14942905Y-15658207D01*
X14942905Y-15658207D02*
X14847667Y-15677254D01*
X15019095Y-15734397D02*
X15038143Y-15743921D01*
X15038143Y-15743921D02*
X15076238Y-15743921D01*
X15076238Y-15743921D02*
X15095286Y-15734397D01*
X15095286Y-15734397D02*
X15104809Y-15715350D01*
X15104809Y-15715350D02*
X15104809Y-15705826D01*
X15104809Y-15705826D02*
X15095286Y-15686778D01*
X15095286Y-15686778D02*
X15076238Y-15677254D01*
X15076238Y-15677254D02*
X15047667Y-15677254D01*
X15047667Y-15677254D02*
X15028619Y-15667731D01*
X15028619Y-15667731D02*
X15019095Y-15648683D01*
X15019095Y-15648683D02*
X15019095Y-15639159D01*
X15019095Y-15639159D02*
X15028619Y-15620112D01*
X15028619Y-15620112D02*
X15047667Y-15610588D01*
X15047667Y-15610588D02*
X15076238Y-15610588D01*
X15076238Y-15610588D02*
X15095286Y-15620112D01*
X15171476Y-15820112D02*
X15181000Y-15810588D01*
X15181000Y-15810588D02*
X15200048Y-15782016D01*
X15200048Y-15782016D02*
X15209571Y-15762969D01*
X15209571Y-15762969D02*
X15219095Y-15734397D01*
X15219095Y-15734397D02*
X15228619Y-15686778D01*
X15228619Y-15686778D02*
X15228619Y-15648683D01*
X15228619Y-15648683D02*
X15219095Y-15601064D01*
X15219095Y-15601064D02*
X15209571Y-15572493D01*
X15209571Y-15572493D02*
X15200048Y-15553445D01*
X15200048Y-15553445D02*
X15181000Y-15524873D01*
X15181000Y-15524873D02*
X15171476Y-15515350D01*
M02*
