%TF.GenerationSoftware,KiCad,Pcbnew,(7.0.0)*%
%TF.CreationDate,2023-02-19T21:47:51+01:00*%
%TF.ProjectId,Glitchifier9000,476c6974-6368-4696-9669-657239303030,rev?*%
%TF.SameCoordinates,Original*%
%TF.FileFunction,Drillmap*%
%TF.FilePolarity,Positive*%
%FSLAX45Y45*%
G04 Gerber Fmt 4.5, Leading zero omitted, Abs format (unit mm)*
G04 Created by KiCad (PCBNEW (7.0.0)) date 2023-02-19 21:47:51*
%MOMM*%
%LPD*%
G01*
G04 APERTURE LIST*
%ADD10C,0.038100*%
%ADD11C,0.200000*%
%ADD12C,0.500000*%
G04 APERTURE END LIST*
D10*
X10541000Y-4762500D02*
X16273780Y-4762500D01*
X16273780Y-4762500D02*
X16273780Y-13972540D01*
X16273780Y-13972540D02*
X10541000Y-13972540D01*
X10541000Y-13972540D02*
X10541000Y-4762500D01*
D11*
D12*
X11662600Y-4868100D02*
X12162600Y-5368100D01*
X12162600Y-4868100D02*
X11662600Y-5368100D01*
D11*
X10786714Y-14267921D02*
X10786714Y-14067921D01*
X10786714Y-14067921D02*
X10834333Y-14067921D01*
X10834333Y-14067921D02*
X10862905Y-14077445D01*
X10862905Y-14077445D02*
X10881952Y-14096493D01*
X10881952Y-14096493D02*
X10891476Y-14115540D01*
X10891476Y-14115540D02*
X10901000Y-14153635D01*
X10901000Y-14153635D02*
X10901000Y-14182207D01*
X10901000Y-14182207D02*
X10891476Y-14220302D01*
X10891476Y-14220302D02*
X10881952Y-14239350D01*
X10881952Y-14239350D02*
X10862905Y-14258397D01*
X10862905Y-14258397D02*
X10834333Y-14267921D01*
X10834333Y-14267921D02*
X10786714Y-14267921D01*
X10986714Y-14267921D02*
X10986714Y-14134588D01*
X10986714Y-14172683D02*
X10996238Y-14153635D01*
X10996238Y-14153635D02*
X11005762Y-14144112D01*
X11005762Y-14144112D02*
X11024809Y-14134588D01*
X11024809Y-14134588D02*
X11043857Y-14134588D01*
X11110524Y-14267921D02*
X11110524Y-14134588D01*
X11110524Y-14067921D02*
X11101000Y-14077445D01*
X11101000Y-14077445D02*
X11110524Y-14086969D01*
X11110524Y-14086969D02*
X11120047Y-14077445D01*
X11120047Y-14077445D02*
X11110524Y-14067921D01*
X11110524Y-14067921D02*
X11110524Y-14086969D01*
X11234333Y-14267921D02*
X11215285Y-14258397D01*
X11215285Y-14258397D02*
X11205762Y-14239350D01*
X11205762Y-14239350D02*
X11205762Y-14067921D01*
X11339095Y-14267921D02*
X11320047Y-14258397D01*
X11320047Y-14258397D02*
X11310523Y-14239350D01*
X11310523Y-14239350D02*
X11310523Y-14067921D01*
X11535285Y-14267921D02*
X11535285Y-14067921D01*
X11535285Y-14067921D02*
X11601952Y-14210778D01*
X11601952Y-14210778D02*
X11668619Y-14067921D01*
X11668619Y-14067921D02*
X11668619Y-14267921D01*
X11849571Y-14267921D02*
X11849571Y-14163159D01*
X11849571Y-14163159D02*
X11840047Y-14144112D01*
X11840047Y-14144112D02*
X11821000Y-14134588D01*
X11821000Y-14134588D02*
X11782904Y-14134588D01*
X11782904Y-14134588D02*
X11763857Y-14144112D01*
X11849571Y-14258397D02*
X11830523Y-14267921D01*
X11830523Y-14267921D02*
X11782904Y-14267921D01*
X11782904Y-14267921D02*
X11763857Y-14258397D01*
X11763857Y-14258397D02*
X11754333Y-14239350D01*
X11754333Y-14239350D02*
X11754333Y-14220302D01*
X11754333Y-14220302D02*
X11763857Y-14201254D01*
X11763857Y-14201254D02*
X11782904Y-14191731D01*
X11782904Y-14191731D02*
X11830523Y-14191731D01*
X11830523Y-14191731D02*
X11849571Y-14182207D01*
X11944809Y-14134588D02*
X11944809Y-14334588D01*
X11944809Y-14144112D02*
X11963857Y-14134588D01*
X11963857Y-14134588D02*
X12001952Y-14134588D01*
X12001952Y-14134588D02*
X12021000Y-14144112D01*
X12021000Y-14144112D02*
X12030523Y-14153635D01*
X12030523Y-14153635D02*
X12040047Y-14172683D01*
X12040047Y-14172683D02*
X12040047Y-14229826D01*
X12040047Y-14229826D02*
X12030523Y-14248873D01*
X12030523Y-14248873D02*
X12021000Y-14258397D01*
X12021000Y-14258397D02*
X12001952Y-14267921D01*
X12001952Y-14267921D02*
X11963857Y-14267921D01*
X11963857Y-14267921D02*
X11944809Y-14258397D01*
X12125762Y-14248873D02*
X12135285Y-14258397D01*
X12135285Y-14258397D02*
X12125762Y-14267921D01*
X12125762Y-14267921D02*
X12116238Y-14258397D01*
X12116238Y-14258397D02*
X12125762Y-14248873D01*
X12125762Y-14248873D02*
X12125762Y-14267921D01*
X12125762Y-14144112D02*
X12135285Y-14153635D01*
X12135285Y-14153635D02*
X12125762Y-14163159D01*
X12125762Y-14163159D02*
X12116238Y-14153635D01*
X12116238Y-14153635D02*
X12125762Y-14144112D01*
X12125762Y-14144112D02*
X12125762Y-14163159D01*
X10339095Y-14514445D02*
X10539095Y-14714445D01*
X10539095Y-14514445D02*
X10339095Y-14714445D01*
X10881952Y-14487921D02*
X10786714Y-14487921D01*
X10786714Y-14487921D02*
X10777190Y-14583159D01*
X10777190Y-14583159D02*
X10786714Y-14573635D01*
X10786714Y-14573635D02*
X10805762Y-14564112D01*
X10805762Y-14564112D02*
X10853381Y-14564112D01*
X10853381Y-14564112D02*
X10872428Y-14573635D01*
X10872428Y-14573635D02*
X10881952Y-14583159D01*
X10881952Y-14583159D02*
X10891476Y-14602207D01*
X10891476Y-14602207D02*
X10891476Y-14649826D01*
X10891476Y-14649826D02*
X10881952Y-14668873D01*
X10881952Y-14668873D02*
X10872428Y-14678397D01*
X10872428Y-14678397D02*
X10853381Y-14687921D01*
X10853381Y-14687921D02*
X10805762Y-14687921D01*
X10805762Y-14687921D02*
X10786714Y-14678397D01*
X10786714Y-14678397D02*
X10777190Y-14668873D01*
X10977190Y-14668873D02*
X10986714Y-14678397D01*
X10986714Y-14678397D02*
X10977190Y-14687921D01*
X10977190Y-14687921D02*
X10967666Y-14678397D01*
X10967666Y-14678397D02*
X10977190Y-14668873D01*
X10977190Y-14668873D02*
X10977190Y-14687921D01*
X11110524Y-14487921D02*
X11129571Y-14487921D01*
X11129571Y-14487921D02*
X11148619Y-14497445D01*
X11148619Y-14497445D02*
X11158143Y-14506969D01*
X11158143Y-14506969D02*
X11167666Y-14526016D01*
X11167666Y-14526016D02*
X11177190Y-14564112D01*
X11177190Y-14564112D02*
X11177190Y-14611731D01*
X11177190Y-14611731D02*
X11167666Y-14649826D01*
X11167666Y-14649826D02*
X11158143Y-14668873D01*
X11158143Y-14668873D02*
X11148619Y-14678397D01*
X11148619Y-14678397D02*
X11129571Y-14687921D01*
X11129571Y-14687921D02*
X11110524Y-14687921D01*
X11110524Y-14687921D02*
X11091476Y-14678397D01*
X11091476Y-14678397D02*
X11081952Y-14668873D01*
X11081952Y-14668873D02*
X11072428Y-14649826D01*
X11072428Y-14649826D02*
X11062905Y-14611731D01*
X11062905Y-14611731D02*
X11062905Y-14564112D01*
X11062905Y-14564112D02*
X11072428Y-14526016D01*
X11072428Y-14526016D02*
X11081952Y-14506969D01*
X11081952Y-14506969D02*
X11091476Y-14497445D01*
X11091476Y-14497445D02*
X11110524Y-14487921D01*
X11301000Y-14487921D02*
X11320047Y-14487921D01*
X11320047Y-14487921D02*
X11339095Y-14497445D01*
X11339095Y-14497445D02*
X11348619Y-14506969D01*
X11348619Y-14506969D02*
X11358143Y-14526016D01*
X11358143Y-14526016D02*
X11367666Y-14564112D01*
X11367666Y-14564112D02*
X11367666Y-14611731D01*
X11367666Y-14611731D02*
X11358143Y-14649826D01*
X11358143Y-14649826D02*
X11348619Y-14668873D01*
X11348619Y-14668873D02*
X11339095Y-14678397D01*
X11339095Y-14678397D02*
X11320047Y-14687921D01*
X11320047Y-14687921D02*
X11301000Y-14687921D01*
X11301000Y-14687921D02*
X11281952Y-14678397D01*
X11281952Y-14678397D02*
X11272428Y-14668873D01*
X11272428Y-14668873D02*
X11262904Y-14649826D01*
X11262904Y-14649826D02*
X11253381Y-14611731D01*
X11253381Y-14611731D02*
X11253381Y-14564112D01*
X11253381Y-14564112D02*
X11262904Y-14526016D01*
X11262904Y-14526016D02*
X11272428Y-14506969D01*
X11272428Y-14506969D02*
X11281952Y-14497445D01*
X11281952Y-14497445D02*
X11301000Y-14487921D01*
X11491476Y-14487921D02*
X11510524Y-14487921D01*
X11510524Y-14487921D02*
X11529571Y-14497445D01*
X11529571Y-14497445D02*
X11539095Y-14506969D01*
X11539095Y-14506969D02*
X11548619Y-14526016D01*
X11548619Y-14526016D02*
X11558143Y-14564112D01*
X11558143Y-14564112D02*
X11558143Y-14611731D01*
X11558143Y-14611731D02*
X11548619Y-14649826D01*
X11548619Y-14649826D02*
X11539095Y-14668873D01*
X11539095Y-14668873D02*
X11529571Y-14678397D01*
X11529571Y-14678397D02*
X11510524Y-14687921D01*
X11510524Y-14687921D02*
X11491476Y-14687921D01*
X11491476Y-14687921D02*
X11472428Y-14678397D01*
X11472428Y-14678397D02*
X11462904Y-14668873D01*
X11462904Y-14668873D02*
X11453381Y-14649826D01*
X11453381Y-14649826D02*
X11443857Y-14611731D01*
X11443857Y-14611731D02*
X11443857Y-14564112D01*
X11443857Y-14564112D02*
X11453381Y-14526016D01*
X11453381Y-14526016D02*
X11462904Y-14506969D01*
X11462904Y-14506969D02*
X11472428Y-14497445D01*
X11472428Y-14497445D02*
X11491476Y-14487921D01*
X11643857Y-14687921D02*
X11643857Y-14554588D01*
X11643857Y-14573635D02*
X11653381Y-14564112D01*
X11653381Y-14564112D02*
X11672428Y-14554588D01*
X11672428Y-14554588D02*
X11701000Y-14554588D01*
X11701000Y-14554588D02*
X11720047Y-14564112D01*
X11720047Y-14564112D02*
X11729571Y-14583159D01*
X11729571Y-14583159D02*
X11729571Y-14687921D01*
X11729571Y-14583159D02*
X11739095Y-14564112D01*
X11739095Y-14564112D02*
X11758143Y-14554588D01*
X11758143Y-14554588D02*
X11786714Y-14554588D01*
X11786714Y-14554588D02*
X11805762Y-14564112D01*
X11805762Y-14564112D02*
X11815285Y-14583159D01*
X11815285Y-14583159D02*
X11815285Y-14687921D01*
X11910524Y-14687921D02*
X11910524Y-14554588D01*
X11910524Y-14573635D02*
X11920047Y-14564112D01*
X11920047Y-14564112D02*
X11939095Y-14554588D01*
X11939095Y-14554588D02*
X11967666Y-14554588D01*
X11967666Y-14554588D02*
X11986714Y-14564112D01*
X11986714Y-14564112D02*
X11996238Y-14583159D01*
X11996238Y-14583159D02*
X11996238Y-14687921D01*
X11996238Y-14583159D02*
X12005762Y-14564112D01*
X12005762Y-14564112D02*
X12024809Y-14554588D01*
X12024809Y-14554588D02*
X12053381Y-14554588D01*
X12053381Y-14554588D02*
X12072428Y-14564112D01*
X12072428Y-14564112D02*
X12081952Y-14583159D01*
X12081952Y-14583159D02*
X12081952Y-14687921D01*
X12440047Y-14478397D02*
X12268619Y-14735540D01*
X12664809Y-14487921D02*
X12683857Y-14487921D01*
X12683857Y-14487921D02*
X12702905Y-14497445D01*
X12702905Y-14497445D02*
X12712428Y-14506969D01*
X12712428Y-14506969D02*
X12721952Y-14526016D01*
X12721952Y-14526016D02*
X12731476Y-14564112D01*
X12731476Y-14564112D02*
X12731476Y-14611731D01*
X12731476Y-14611731D02*
X12721952Y-14649826D01*
X12721952Y-14649826D02*
X12712428Y-14668873D01*
X12712428Y-14668873D02*
X12702905Y-14678397D01*
X12702905Y-14678397D02*
X12683857Y-14687921D01*
X12683857Y-14687921D02*
X12664809Y-14687921D01*
X12664809Y-14687921D02*
X12645762Y-14678397D01*
X12645762Y-14678397D02*
X12636238Y-14668873D01*
X12636238Y-14668873D02*
X12626714Y-14649826D01*
X12626714Y-14649826D02*
X12617190Y-14611731D01*
X12617190Y-14611731D02*
X12617190Y-14564112D01*
X12617190Y-14564112D02*
X12626714Y-14526016D01*
X12626714Y-14526016D02*
X12636238Y-14506969D01*
X12636238Y-14506969D02*
X12645762Y-14497445D01*
X12645762Y-14497445D02*
X12664809Y-14487921D01*
X12817190Y-14668873D02*
X12826714Y-14678397D01*
X12826714Y-14678397D02*
X12817190Y-14687921D01*
X12817190Y-14687921D02*
X12807666Y-14678397D01*
X12807666Y-14678397D02*
X12817190Y-14668873D01*
X12817190Y-14668873D02*
X12817190Y-14687921D01*
X13017190Y-14687921D02*
X12902905Y-14687921D01*
X12960047Y-14687921D02*
X12960047Y-14487921D01*
X12960047Y-14487921D02*
X12941000Y-14516493D01*
X12941000Y-14516493D02*
X12921952Y-14535540D01*
X12921952Y-14535540D02*
X12902905Y-14545064D01*
X13112428Y-14687921D02*
X13150524Y-14687921D01*
X13150524Y-14687921D02*
X13169571Y-14678397D01*
X13169571Y-14678397D02*
X13179095Y-14668873D01*
X13179095Y-14668873D02*
X13198143Y-14640302D01*
X13198143Y-14640302D02*
X13207666Y-14602207D01*
X13207666Y-14602207D02*
X13207666Y-14526016D01*
X13207666Y-14526016D02*
X13198143Y-14506969D01*
X13198143Y-14506969D02*
X13188619Y-14497445D01*
X13188619Y-14497445D02*
X13169571Y-14487921D01*
X13169571Y-14487921D02*
X13131476Y-14487921D01*
X13131476Y-14487921D02*
X13112428Y-14497445D01*
X13112428Y-14497445D02*
X13102905Y-14506969D01*
X13102905Y-14506969D02*
X13093381Y-14526016D01*
X13093381Y-14526016D02*
X13093381Y-14573635D01*
X13093381Y-14573635D02*
X13102905Y-14592683D01*
X13102905Y-14592683D02*
X13112428Y-14602207D01*
X13112428Y-14602207D02*
X13131476Y-14611731D01*
X13131476Y-14611731D02*
X13169571Y-14611731D01*
X13169571Y-14611731D02*
X13188619Y-14602207D01*
X13188619Y-14602207D02*
X13198143Y-14592683D01*
X13198143Y-14592683D02*
X13207666Y-14573635D01*
X13379095Y-14487921D02*
X13341000Y-14487921D01*
X13341000Y-14487921D02*
X13321952Y-14497445D01*
X13321952Y-14497445D02*
X13312428Y-14506969D01*
X13312428Y-14506969D02*
X13293381Y-14535540D01*
X13293381Y-14535540D02*
X13283857Y-14573635D01*
X13283857Y-14573635D02*
X13283857Y-14649826D01*
X13283857Y-14649826D02*
X13293381Y-14668873D01*
X13293381Y-14668873D02*
X13302905Y-14678397D01*
X13302905Y-14678397D02*
X13321952Y-14687921D01*
X13321952Y-14687921D02*
X13360047Y-14687921D01*
X13360047Y-14687921D02*
X13379095Y-14678397D01*
X13379095Y-14678397D02*
X13388619Y-14668873D01*
X13388619Y-14668873D02*
X13398143Y-14649826D01*
X13398143Y-14649826D02*
X13398143Y-14602207D01*
X13398143Y-14602207D02*
X13388619Y-14583159D01*
X13388619Y-14583159D02*
X13379095Y-14573635D01*
X13379095Y-14573635D02*
X13360047Y-14564112D01*
X13360047Y-14564112D02*
X13321952Y-14564112D01*
X13321952Y-14564112D02*
X13302905Y-14573635D01*
X13302905Y-14573635D02*
X13293381Y-14583159D01*
X13293381Y-14583159D02*
X13283857Y-14602207D01*
X13493381Y-14687921D02*
X13531476Y-14687921D01*
X13531476Y-14687921D02*
X13550524Y-14678397D01*
X13550524Y-14678397D02*
X13560047Y-14668873D01*
X13560047Y-14668873D02*
X13579095Y-14640302D01*
X13579095Y-14640302D02*
X13588619Y-14602207D01*
X13588619Y-14602207D02*
X13588619Y-14526016D01*
X13588619Y-14526016D02*
X13579095Y-14506969D01*
X13579095Y-14506969D02*
X13569571Y-14497445D01*
X13569571Y-14497445D02*
X13550524Y-14487921D01*
X13550524Y-14487921D02*
X13512428Y-14487921D01*
X13512428Y-14487921D02*
X13493381Y-14497445D01*
X13493381Y-14497445D02*
X13483857Y-14506969D01*
X13483857Y-14506969D02*
X13474333Y-14526016D01*
X13474333Y-14526016D02*
X13474333Y-14573635D01*
X13474333Y-14573635D02*
X13483857Y-14592683D01*
X13483857Y-14592683D02*
X13493381Y-14602207D01*
X13493381Y-14602207D02*
X13512428Y-14611731D01*
X13512428Y-14611731D02*
X13550524Y-14611731D01*
X13550524Y-14611731D02*
X13569571Y-14602207D01*
X13569571Y-14602207D02*
X13579095Y-14592683D01*
X13579095Y-14592683D02*
X13588619Y-14573635D01*
X13664809Y-14487921D02*
X13664809Y-14526016D01*
X13741000Y-14487921D02*
X13741000Y-14526016D01*
X14003857Y-14764112D02*
X13994333Y-14754588D01*
X13994333Y-14754588D02*
X13975286Y-14726016D01*
X13975286Y-14726016D02*
X13965762Y-14706969D01*
X13965762Y-14706969D02*
X13956238Y-14678397D01*
X13956238Y-14678397D02*
X13946714Y-14630778D01*
X13946714Y-14630778D02*
X13946714Y-14592683D01*
X13946714Y-14592683D02*
X13956238Y-14545064D01*
X13956238Y-14545064D02*
X13965762Y-14516493D01*
X13965762Y-14516493D02*
X13975286Y-14497445D01*
X13975286Y-14497445D02*
X13994333Y-14468873D01*
X13994333Y-14468873D02*
X14003857Y-14459350D01*
X14184809Y-14687921D02*
X14070524Y-14687921D01*
X14127666Y-14687921D02*
X14127666Y-14487921D01*
X14127666Y-14487921D02*
X14108619Y-14516493D01*
X14108619Y-14516493D02*
X14089571Y-14535540D01*
X14089571Y-14535540D02*
X14070524Y-14545064D01*
X14390524Y-14687921D02*
X14390524Y-14487921D01*
X14476238Y-14687921D02*
X14476238Y-14583159D01*
X14476238Y-14583159D02*
X14466714Y-14564112D01*
X14466714Y-14564112D02*
X14447667Y-14554588D01*
X14447667Y-14554588D02*
X14419095Y-14554588D01*
X14419095Y-14554588D02*
X14400047Y-14564112D01*
X14400047Y-14564112D02*
X14390524Y-14573635D01*
X14600047Y-14687921D02*
X14581000Y-14678397D01*
X14581000Y-14678397D02*
X14571476Y-14668873D01*
X14571476Y-14668873D02*
X14561952Y-14649826D01*
X14561952Y-14649826D02*
X14561952Y-14592683D01*
X14561952Y-14592683D02*
X14571476Y-14573635D01*
X14571476Y-14573635D02*
X14581000Y-14564112D01*
X14581000Y-14564112D02*
X14600047Y-14554588D01*
X14600047Y-14554588D02*
X14628619Y-14554588D01*
X14628619Y-14554588D02*
X14647667Y-14564112D01*
X14647667Y-14564112D02*
X14657190Y-14573635D01*
X14657190Y-14573635D02*
X14666714Y-14592683D01*
X14666714Y-14592683D02*
X14666714Y-14649826D01*
X14666714Y-14649826D02*
X14657190Y-14668873D01*
X14657190Y-14668873D02*
X14647667Y-14678397D01*
X14647667Y-14678397D02*
X14628619Y-14687921D01*
X14628619Y-14687921D02*
X14600047Y-14687921D01*
X14781000Y-14687921D02*
X14761952Y-14678397D01*
X14761952Y-14678397D02*
X14752428Y-14659350D01*
X14752428Y-14659350D02*
X14752428Y-14487921D01*
X14933381Y-14678397D02*
X14914333Y-14687921D01*
X14914333Y-14687921D02*
X14876238Y-14687921D01*
X14876238Y-14687921D02*
X14857190Y-14678397D01*
X14857190Y-14678397D02*
X14847667Y-14659350D01*
X14847667Y-14659350D02*
X14847667Y-14583159D01*
X14847667Y-14583159D02*
X14857190Y-14564112D01*
X14857190Y-14564112D02*
X14876238Y-14554588D01*
X14876238Y-14554588D02*
X14914333Y-14554588D01*
X14914333Y-14554588D02*
X14933381Y-14564112D01*
X14933381Y-14564112D02*
X14942905Y-14583159D01*
X14942905Y-14583159D02*
X14942905Y-14602207D01*
X14942905Y-14602207D02*
X14847667Y-14621254D01*
X15009571Y-14764112D02*
X15019095Y-14754588D01*
X15019095Y-14754588D02*
X15038143Y-14726016D01*
X15038143Y-14726016D02*
X15047667Y-14706969D01*
X15047667Y-14706969D02*
X15057190Y-14678397D01*
X15057190Y-14678397D02*
X15066714Y-14630778D01*
X15066714Y-14630778D02*
X15066714Y-14592683D01*
X15066714Y-14592683D02*
X15057190Y-14545064D01*
X15057190Y-14545064D02*
X15047667Y-14516493D01*
X15047667Y-14516493D02*
X15038143Y-14497445D01*
X15038143Y-14497445D02*
X15019095Y-14468873D01*
X15019095Y-14468873D02*
X15009571Y-14459350D01*
X15339095Y-14764112D02*
X15329571Y-14754588D01*
X15329571Y-14754588D02*
X15310524Y-14726016D01*
X15310524Y-14726016D02*
X15301000Y-14706969D01*
X15301000Y-14706969D02*
X15291476Y-14678397D01*
X15291476Y-14678397D02*
X15281952Y-14630778D01*
X15281952Y-14630778D02*
X15281952Y-14592683D01*
X15281952Y-14592683D02*
X15291476Y-14545064D01*
X15291476Y-14545064D02*
X15301000Y-14516493D01*
X15301000Y-14516493D02*
X15310524Y-14497445D01*
X15310524Y-14497445D02*
X15329571Y-14468873D01*
X15329571Y-14468873D02*
X15339095Y-14459350D01*
X15415286Y-14554588D02*
X15415286Y-14687921D01*
X15415286Y-14573635D02*
X15424809Y-14564112D01*
X15424809Y-14564112D02*
X15443857Y-14554588D01*
X15443857Y-14554588D02*
X15472428Y-14554588D01*
X15472428Y-14554588D02*
X15491476Y-14564112D01*
X15491476Y-14564112D02*
X15501000Y-14583159D01*
X15501000Y-14583159D02*
X15501000Y-14687921D01*
X15624809Y-14687921D02*
X15605762Y-14678397D01*
X15605762Y-14678397D02*
X15596238Y-14668873D01*
X15596238Y-14668873D02*
X15586714Y-14649826D01*
X15586714Y-14649826D02*
X15586714Y-14592683D01*
X15586714Y-14592683D02*
X15596238Y-14573635D01*
X15596238Y-14573635D02*
X15605762Y-14564112D01*
X15605762Y-14564112D02*
X15624809Y-14554588D01*
X15624809Y-14554588D02*
X15653381Y-14554588D01*
X15653381Y-14554588D02*
X15672428Y-14564112D01*
X15672428Y-14564112D02*
X15681952Y-14573635D01*
X15681952Y-14573635D02*
X15691476Y-14592683D01*
X15691476Y-14592683D02*
X15691476Y-14649826D01*
X15691476Y-14649826D02*
X15681952Y-14668873D01*
X15681952Y-14668873D02*
X15672428Y-14678397D01*
X15672428Y-14678397D02*
X15653381Y-14687921D01*
X15653381Y-14687921D02*
X15624809Y-14687921D01*
X15748619Y-14554588D02*
X15824809Y-14554588D01*
X15777190Y-14487921D02*
X15777190Y-14659350D01*
X15777190Y-14659350D02*
X15786714Y-14678397D01*
X15786714Y-14678397D02*
X15805762Y-14687921D01*
X15805762Y-14687921D02*
X15824809Y-14687921D01*
X16011476Y-14554588D02*
X16011476Y-14754588D01*
X16011476Y-14564112D02*
X16030524Y-14554588D01*
X16030524Y-14554588D02*
X16068619Y-14554588D01*
X16068619Y-14554588D02*
X16087667Y-14564112D01*
X16087667Y-14564112D02*
X16097190Y-14573635D01*
X16097190Y-14573635D02*
X16106714Y-14592683D01*
X16106714Y-14592683D02*
X16106714Y-14649826D01*
X16106714Y-14649826D02*
X16097190Y-14668873D01*
X16097190Y-14668873D02*
X16087667Y-14678397D01*
X16087667Y-14678397D02*
X16068619Y-14687921D01*
X16068619Y-14687921D02*
X16030524Y-14687921D01*
X16030524Y-14687921D02*
X16011476Y-14678397D01*
X16221000Y-14687921D02*
X16201952Y-14678397D01*
X16201952Y-14678397D02*
X16192428Y-14659350D01*
X16192428Y-14659350D02*
X16192428Y-14487921D01*
X16382905Y-14687921D02*
X16382905Y-14583159D01*
X16382905Y-14583159D02*
X16373381Y-14564112D01*
X16373381Y-14564112D02*
X16354333Y-14554588D01*
X16354333Y-14554588D02*
X16316238Y-14554588D01*
X16316238Y-14554588D02*
X16297190Y-14564112D01*
X16382905Y-14678397D02*
X16363857Y-14687921D01*
X16363857Y-14687921D02*
X16316238Y-14687921D01*
X16316238Y-14687921D02*
X16297190Y-14678397D01*
X16297190Y-14678397D02*
X16287667Y-14659350D01*
X16287667Y-14659350D02*
X16287667Y-14640302D01*
X16287667Y-14640302D02*
X16297190Y-14621254D01*
X16297190Y-14621254D02*
X16316238Y-14611731D01*
X16316238Y-14611731D02*
X16363857Y-14611731D01*
X16363857Y-14611731D02*
X16382905Y-14602207D01*
X16449571Y-14554588D02*
X16525762Y-14554588D01*
X16478143Y-14487921D02*
X16478143Y-14659350D01*
X16478143Y-14659350D02*
X16487667Y-14678397D01*
X16487667Y-14678397D02*
X16506714Y-14687921D01*
X16506714Y-14687921D02*
X16525762Y-14687921D01*
X16668619Y-14678397D02*
X16649571Y-14687921D01*
X16649571Y-14687921D02*
X16611476Y-14687921D01*
X16611476Y-14687921D02*
X16592428Y-14678397D01*
X16592428Y-14678397D02*
X16582905Y-14659350D01*
X16582905Y-14659350D02*
X16582905Y-14583159D01*
X16582905Y-14583159D02*
X16592428Y-14564112D01*
X16592428Y-14564112D02*
X16611476Y-14554588D01*
X16611476Y-14554588D02*
X16649571Y-14554588D01*
X16649571Y-14554588D02*
X16668619Y-14564112D01*
X16668619Y-14564112D02*
X16678143Y-14583159D01*
X16678143Y-14583159D02*
X16678143Y-14602207D01*
X16678143Y-14602207D02*
X16582905Y-14621254D01*
X16849571Y-14687921D02*
X16849571Y-14487921D01*
X16849571Y-14678397D02*
X16830524Y-14687921D01*
X16830524Y-14687921D02*
X16792429Y-14687921D01*
X16792429Y-14687921D02*
X16773381Y-14678397D01*
X16773381Y-14678397D02*
X16763857Y-14668873D01*
X16763857Y-14668873D02*
X16754333Y-14649826D01*
X16754333Y-14649826D02*
X16754333Y-14592683D01*
X16754333Y-14592683D02*
X16763857Y-14573635D01*
X16763857Y-14573635D02*
X16773381Y-14564112D01*
X16773381Y-14564112D02*
X16792429Y-14554588D01*
X16792429Y-14554588D02*
X16830524Y-14554588D01*
X16830524Y-14554588D02*
X16849571Y-14564112D01*
X16925762Y-14764112D02*
X16935286Y-14754588D01*
X16935286Y-14754588D02*
X16954333Y-14726016D01*
X16954333Y-14726016D02*
X16963857Y-14706969D01*
X16963857Y-14706969D02*
X16973381Y-14678397D01*
X16973381Y-14678397D02*
X16982905Y-14630778D01*
X16982905Y-14630778D02*
X16982905Y-14592683D01*
X16982905Y-14592683D02*
X16973381Y-14545064D01*
X16973381Y-14545064D02*
X16963857Y-14516493D01*
X16963857Y-14516493D02*
X16954333Y-14497445D01*
X16954333Y-14497445D02*
X16935286Y-14468873D01*
X16935286Y-14468873D02*
X16925762Y-14459350D01*
M02*
